<svg width="38" height="32" viewBox="0 0 38 32" fill="none" xmlns="http://www.w3.org/2000/svg">
<path d="M2.87625 16.9862C2.89347 17.0024 2.90686 17.0168 2.92216 17.0321L2.96904 17.078L4.58848 18.6974L17.3202 31.4282C18.0826 32.1906 19.3175 32.1906 20.0789 31.4282L23.49 28.0162C23.4881 28.0162 23.4871 28.0152 23.4852 28.0152C23.5053 27.998 23.5244 27.9818 23.5436 27.9626C23.6746 27.8354 23.7674 27.6661 23.799 27.471C23.8803 26.9822 23.5531 26.5249 23.071 26.4379L23.0509 26.435C21.2918 26.1069 19.7221 25.3283 18.4432 24.2397C17.1605 23.1531 16.1695 21.7555 15.5697 20.181C15.4846 19.9591 15.5678 19.7104 15.762 19.5746C16.9577 18.7386 17.8578 17.4769 18.2184 15.9665C18.228 15.9263 18.2366 15.8871 18.2462 15.8498C18.9885 12.7266 22.0351 10.6691 25.251 11.2028C25.252 11.2028 25.2539 11.2028 25.2548 11.2038C25.4567 11.2392 25.6423 11.0871 25.6432 10.8814C25.6518 9.43128 25.4643 8.01367 25.1056 6.65345C25.0253 6.35979 24.9373 6.06804 24.8426 5.77916C24.7699 5.55724 25.0176 5.36593 25.2137 5.49219C25.9043 5.93795 26.5711 6.41718 27.212 6.92415C30.1524 9.25337 32.5534 12.1881 34.2551 15.5064C34.5392 16.0602 35.3111 16.1157 35.6622 15.602C38.3128 11.7261 37.9235 6.39518 34.4961 2.94584C34.4885 2.93819 34.4808 2.93054 34.4732 2.92288C34.4655 2.91523 34.4579 2.90758 34.4502 2.89993C30.5522 -0.973163 24.2514 -0.965511 20.363 2.92288C20.3276 2.95828 20.2922 2.99558 20.2569 3.03098L19.2601 4.02675C18.9492 4.33763 18.4471 4.33763 18.1362 4.02675L17.1404 3.03098C17.104 2.99558 17.0696 2.95828 17.0323 2.92288C13.1439 -0.966467 6.84404 -0.97412 2.94417 2.89897C2.93747 2.90662 2.92886 2.91428 2.92121 2.92193C2.91451 2.92958 2.9059 2.93723 2.89825 2.94489C-0.959535 6.82659 -0.965274 13.093 2.87625 16.9862ZM6.24811 6.75006C6.25002 6.74815 6.25098 6.74623 6.25289 6.74432C6.2548 6.74241 6.25671 6.74145 6.25863 6.73954C7.17883 5.82507 8.66628 5.82699 9.58361 6.74432L9.77014 6.93085C9.88493 7.04564 10.0715 7.04564 10.1862 6.93085L10.346 6.77015C10.3546 6.76154 10.3632 6.75293 10.3718 6.74432C11.2891 5.82699 12.7775 5.82507 13.6968 6.73954C13.6987 6.74145 13.7006 6.74241 13.7025 6.74432C13.7045 6.74623 13.7054 6.74815 13.7073 6.75006C14.6199 7.6674 14.6199 9.1491 13.7092 10.0683C13.7073 10.0703 13.7054 10.0731 13.7025 10.075C13.6997 10.0779 13.6978 10.0798 13.6949 10.0827L13.3103 10.4672L10.1872 13.5904C10.0724 13.7052 9.88588 13.7052 9.7711 13.5904L6.64795 10.4672L6.26532 10.0856L6.2548 10.075C6.25193 10.0722 6.24811 10.0683 6.24524 10.0645C5.33555 9.14527 5.33651 7.66644 6.24811 6.75006ZM20.122 18.1302C20.2033 17.6424 20.6643 17.3085 21.156 17.3908C21.6458 17.4721 21.9767 17.936 21.8964 18.4248C21.8141 18.9146 21.3521 19.2484 20.8614 19.1661C20.3697 19.0858 20.0397 18.6219 20.122 18.1302Z" fill="white"/>
</svg>
