<svg width="868" height="130" viewBox="0 0 868 130" fill="none" xmlns="http://www.w3.org/2000/svg">
<path d="M866.3 50C866.3 63.5 860.8 75.8 852 84.7C843 93.5 830.8 99 817.3 99H462L433.6 127.4V99H50C22.9 99 1 77.1 1 50C1 36.5 6.5 24.2 15.3 15.4C24.2 6.5 36.5 1 50 1H817.3C844.3 1 866.3 22.9 866.3 50Z" fill="#F3FFFC" stroke="#35354C" stroke-width="2" stroke-miterlimit="10"/>
<path d="M81.0479 48.1826C80.8906 48.1826 80.7163 48.1519 80.5249 48.0903C79.6431 47.8032 78.5664 47.6597 77.2949 47.6597C76.8779 47.6597 76.396 47.687 75.8491 47.7417C75.3091 47.7964 74.7075 47.8784 74.0444 47.9878C74.0581 49.3003 74.0581 50.4282 74.0444 51.3716C75.0835 51.1187 75.9448 50.9922 76.6284 50.9922C77.8999 50.9922 79.0073 51.0503 79.9507 51.1665C80.8325 51.2759 81.2734 51.7407 81.2734 52.561C81.2734 52.9575 81.1333 53.2891 80.853 53.5557C80.5728 53.8223 80.231 53.9556 79.8276 53.9556C79.4722 53.9556 78.939 53.9282 78.228 53.8735C77.5171 53.8188 76.9839 53.7915 76.6284 53.7915C76.1294 53.7915 75.2681 53.9487 74.0444 54.2632V60.6924C74.0444 61.0889 73.8872 61.4204 73.5728 61.687C73.2651 61.9536 72.9097 62.0869 72.5063 62.0869C72.1099 62.0869 71.7886 61.9536 71.5425 61.687C71.2964 61.4272 71.1733 61.0957 71.1733 60.6924V48.9414C71.1733 48.6748 71.1768 48.2715 71.1836 47.7314C71.1973 47.1914 71.2041 46.7881 71.2041 46.5215C71.2041 46.1182 71.3374 45.7832 71.604 45.5166C71.8774 45.25 72.2192 45.1167 72.6294 45.1167C72.8892 45.1167 73.1182 45.168 73.3164 45.2705C74.1094 45.1338 74.8374 45.0347 75.5005 44.9731C76.1636 44.9048 76.7617 44.8706 77.2949 44.8706C78.0742 44.8706 79.0552 45.0312 80.2378 45.3525C81.7212 45.7559 82.4629 46.2241 82.4629 46.7573C82.4629 47.147 82.3228 47.4819 82.0425 47.7622C81.769 48.0425 81.4375 48.1826 81.0479 48.1826ZM91.0352 61.6255C89.0117 61.6255 87.2891 61.0444 85.8672 59.8823C84.3496 58.6382 83.5908 57.0283 83.5908 55.0527C83.5908 52.7285 84.3188 50.6094 85.7749 48.6953C87.4087 46.542 89.4663 45.4653 91.9478 45.4653C94.3335 45.4653 96.1211 46.0122 97.3105 47.106C98.5 48.1997 99.0947 49.8438 99.0947 52.0381C99.0947 54.3623 98.4248 56.4678 97.085 58.3545C95.54 60.5352 93.5234 61.6255 91.0352 61.6255ZM91.9478 48.2441C90.4233 48.2441 89.1177 48.9824 88.0308 50.459C87.0122 51.8398 86.5029 53.3711 86.5029 55.0527C86.5029 56.1875 86.9438 57.1104 87.8257 57.8213C88.6733 58.5049 89.7432 58.8467 91.0352 58.8467C92.5391 58.8467 93.7935 58.1084 94.7983 56.6318C95.7212 55.2852 96.1826 53.7539 96.1826 52.0381C96.1826 50.6025 95.8613 49.6045 95.2188 49.0439C94.6035 48.5107 93.5132 48.2441 91.9478 48.2441ZM111.297 61.123C110.928 61.123 110.589 60.9795 110.282 60.6924C108.21 58.751 105.934 57.4043 103.453 56.6523C103.528 58.6416 103.565 59.7456 103.565 59.9644C103.565 60.354 103.429 60.6855 103.155 60.959C102.882 61.2256 102.54 61.3589 102.13 61.3589C101.72 61.3589 101.378 61.2256 101.104 60.959C100.831 60.6855 100.694 60.354 100.694 59.9644C100.694 59.4517 100.701 58.686 100.715 57.6675C100.729 56.6421 100.735 55.873 100.735 55.3604L100.756 47.0854C100.756 46.6411 100.889 46.2378 101.156 45.8755C101.504 45.4106 101.986 45.2021 102.602 45.25C104.263 45.373 105.114 45.438 105.155 45.4448C106.112 45.561 106.925 45.79 107.595 46.1318C110.514 47.6016 111.974 49.4233 111.974 51.5972C111.974 52.4927 111.666 53.2856 111.051 53.9761C110.442 54.6597 109.526 55.2373 108.303 55.709C110.114 56.7207 111.478 57.7529 112.394 58.8057C112.633 59.0791 112.753 59.3833 112.753 59.7183C112.753 60.1011 112.609 60.4326 112.322 60.7129C112.035 60.9863 111.693 61.123 111.297 61.123ZM104.724 48.2236C104.669 48.2168 104.27 48.1895 103.524 48.1416V53.5864C103.695 53.5933 103.846 53.5967 103.976 53.5967C105.65 53.5967 106.891 53.3882 107.698 52.9712C108.046 52.7935 108.364 52.5576 108.651 52.2637C108.945 51.9697 109.092 51.7476 109.092 51.5972C109.092 50.8315 108.607 50.0933 107.636 49.3823C106.713 48.7124 105.743 48.3262 104.724 48.2236ZM135.599 48.7056C135.065 48.7056 134.235 48.668 133.107 48.5928C132.02 48.5176 131.189 48.4834 130.615 48.4902C130.643 49.2695 130.735 50.6572 130.892 52.6533C131.036 54.417 131.107 55.8115 131.107 56.8369C131.107 57.0693 131.131 57.4146 131.179 57.8726C131.227 58.3306 131.251 58.6758 131.251 58.9082C131.251 59.4209 131.142 59.8823 130.923 60.2925C130.643 60.8188 130.243 61.082 129.723 61.082C129.347 61.082 129.016 60.9624 128.729 60.7231C128.407 60.4565 128.247 60.1216 128.247 59.7183C128.247 59.6226 128.264 59.479 128.298 59.2876C128.332 59.0894 128.349 58.939 128.349 58.8364C128.349 58.522 128.325 58.0469 128.277 57.4111C128.236 56.7754 128.216 56.2969 128.216 55.9756C128.216 55.0596 128.144 53.8188 128 52.2534C127.836 50.4556 127.741 49.2148 127.713 48.5312H127.18C125.656 48.5312 124.446 48.4219 123.55 48.2031C122.792 48.0186 122.412 47.5708 122.412 46.8599C122.412 46.5112 122.535 46.1968 122.781 45.9165C123.068 45.5815 123.444 45.4312 123.909 45.4653C124.148 45.479 124.692 45.5371 125.54 45.6396C126.216 45.7148 126.763 45.7524 127.18 45.7524C127.597 45.7524 128.219 45.7456 129.046 45.7319C129.88 45.7183 130.506 45.7114 130.923 45.7114C131.442 45.7114 132.222 45.749 133.261 45.8242C134.3 45.8926 135.079 45.9268 135.599 45.9268C136.009 45.9268 136.351 46.0601 136.624 46.3267C136.904 46.5933 137.044 46.9214 137.044 47.311C137.044 47.7007 136.904 48.0322 136.624 48.3057C136.351 48.5723 136.009 48.7056 135.599 48.7056ZM152.323 46.7778C152.186 47.2769 152.118 47.7109 152.118 48.0801C152.118 48.2715 152.097 48.5688 152.056 48.9722C152.022 49.3687 152.005 49.6626 152.005 49.854C152.005 50.5034 151.971 51.4673 151.902 52.7456C151.834 54.0239 151.8 54.9878 151.8 55.6372C151.8 56.1362 151.837 56.8813 151.913 57.8726C151.988 58.8638 152.025 59.6089 152.025 60.1079C152.025 60.4839 151.892 60.8018 151.625 61.0615C151.359 61.3213 151.027 61.4512 150.631 61.4512C150.228 61.4512 149.879 61.3213 149.585 61.0615C149.291 60.8086 149.144 60.4976 149.144 60.1284C149.144 59.6294 149.12 58.8809 149.072 57.8828C149.031 56.8848 149.011 56.1362 149.011 55.6372C149.011 55.2476 149.018 54.9023 149.031 54.6016C147.958 54.6494 146.632 54.8169 145.053 55.104C143.74 55.3433 142.428 55.5859 141.115 55.832C141.102 56.2969 141.054 57.0728 140.972 58.1597C140.903 59.1167 140.869 59.8994 140.869 60.5078C140.869 60.8838 140.736 61.2017 140.469 61.4614C140.203 61.7212 139.871 61.8511 139.475 61.8511C139.078 61.8511 138.747 61.7212 138.48 61.4614C138.213 61.2017 138.08 60.8838 138.08 60.5078C138.08 59.8174 138.138 58.7852 138.254 57.4111C138.377 56.0371 138.439 55.0049 138.439 54.3145C138.439 53.4395 138.459 52.1235 138.5 50.3667C138.542 48.603 138.562 47.2837 138.562 46.4087C138.562 46.0327 138.695 45.7148 138.962 45.4551C139.229 45.1953 139.56 45.0654 139.957 45.0654C140.353 45.0654 140.685 45.1953 140.951 45.4551C141.218 45.7148 141.351 46.0327 141.351 46.4087C141.351 46.9282 141.331 47.7109 141.29 48.7568C141.255 49.7959 141.238 50.5752 141.238 51.0947C141.238 51.2656 141.214 51.5938 141.167 52.0791C141.125 52.5303 141.108 52.8755 141.115 53.1147L145.053 52.3765C146.591 52.103 147.917 51.9458 149.031 51.9048C149.059 51.4468 149.103 50.2163 149.165 48.2134C149.178 47.687 149.339 47.082 149.646 46.3984C150.029 45.5576 150.463 45.1372 150.949 45.1372C151.311 45.1372 151.632 45.2568 151.913 45.4961C152.213 45.7559 152.364 46.0806 152.364 46.4702C152.364 46.5728 152.35 46.6753 152.323 46.7778ZM164.443 47.8545C164.306 47.8545 164.163 47.834 164.012 47.793C162.905 47.4922 161.828 47.3418 160.782 47.3418C160.27 47.3418 159.719 47.3828 159.131 47.4648C158.543 47.5469 157.918 47.6699 157.255 47.834C157.255 48.7432 157.224 50.0933 157.163 51.8843C157.545 51.8569 158.882 51.7305 161.172 51.5049C162.478 51.375 163.305 51.3101 163.653 51.3101C164.057 51.3101 164.402 51.4399 164.689 51.6997C164.976 51.9526 165.12 52.291 165.12 52.7148C165.12 53.5283 164.686 53.9897 163.817 54.0991C163.271 54.1401 162.454 54.2085 161.367 54.3042C160.396 54.4136 158.933 54.5469 156.978 54.7041C156.93 55.5723 156.906 56.2729 156.906 56.8062C156.906 58.146 156.985 58.9082 157.142 59.0928C157.217 59.1816 157.648 59.2261 158.434 59.2261C158.858 59.2261 159.497 59.2158 160.352 59.1953C161.206 59.1748 161.845 59.1646 162.269 59.1646C162.406 59.1646 162.607 59.144 162.874 59.103C163.141 59.062 163.339 59.0415 163.469 59.0415C163.865 59.0415 164.204 59.1543 164.484 59.3799C164.805 59.6328 164.966 59.9883 164.966 60.4463C164.966 61.2119 164.566 61.6699 163.766 61.8203C163.083 61.9502 161.664 62.0151 159.511 62.0151C157.282 62.0151 155.83 61.7144 155.153 61.1128C154.408 60.4497 154.035 59.0142 154.035 56.8062C154.035 55.8901 154.1 54.5161 154.23 52.6841C154.367 50.8452 154.435 49.4712 154.435 48.562C154.435 48.3228 154.401 47.9707 154.333 47.5059C154.264 47.0342 154.23 46.6787 154.23 46.4395C154.23 45.4004 154.708 44.8809 155.666 44.8809C155.966 44.8809 156.243 44.9663 156.496 45.1372C157.289 44.939 158.041 44.792 158.752 44.6963C159.47 44.5938 160.146 44.5425 160.782 44.5425C162.505 44.5425 163.882 44.7407 164.915 45.1372C165.543 45.3765 165.858 45.8105 165.858 46.4395C165.858 46.7949 165.735 47.1094 165.489 47.3828C165.215 47.6973 164.867 47.8545 164.443 47.8545ZM180.726 52.8994C180.418 54.0068 179.988 55.6782 179.434 57.9136C179.304 58.686 179.178 59.4551 179.055 60.2207C178.774 61.1914 178.258 61.6768 177.506 61.6768C177.035 61.6768 176.662 61.5161 176.389 61.1948C176.156 60.9214 176.04 60.5967 176.04 60.2207C176.04 59.1133 176.276 57.7632 176.748 56.1704C177.452 53.7847 177.831 52.4619 177.886 52.2021C178.084 51.1494 178.286 50.0967 178.491 49.0439C178.798 47.5947 179.13 46.6309 179.485 46.1523C179.848 45.667 180.302 45.4243 180.849 45.4243C181.471 45.4243 181.929 45.7388 182.223 46.3677C182.497 46.9624 182.791 48.1792 183.105 50.0181C183.406 51.8022 183.854 53.7231 184.448 55.7808C185.228 53.7505 185.952 51.522 186.622 49.0952L187.196 46.7368C187.565 45.7593 188.136 45.2705 188.909 45.2705C189.654 45.2705 190.208 45.8379 190.57 46.9727C190.72 47.4307 190.881 48.2852 191.052 49.5361C191.448 52.4482 191.947 54.9434 192.549 57.0215C193.157 59.1338 193.461 60.2822 193.461 60.4668C193.461 60.8701 193.301 61.2085 192.979 61.4819C192.679 61.728 192.34 61.8511 191.964 61.8511C191.219 61.8511 190.666 61.3179 190.303 60.2515L189.729 57.77C189.401 56.5396 189.045 54.7725 188.663 52.4688C188.355 53.3848 187.846 54.8237 187.135 56.7856L186.52 58.6724C186.267 59.4175 186.003 60.0293 185.73 60.5078C185.368 61.1436 184.862 61.4614 184.212 61.4614C183.57 61.4614 183.078 61.082 182.736 60.3232L182.162 58.416C181.628 56.666 181.15 54.8271 180.726 52.8994ZM201.9 61.6255C199.877 61.6255 198.154 61.0444 196.732 59.8823C195.215 58.6382 194.456 57.0283 194.456 55.0527C194.456 52.7285 195.184 50.6094 196.64 48.6953C198.274 46.542 200.332 45.4653 202.813 45.4653C205.199 45.4653 206.986 46.0122 208.176 47.106C209.365 48.1997 209.96 49.8438 209.96 52.0381C209.96 54.3623 209.29 56.4678 207.95 58.3545C206.405 60.5352 204.389 61.6255 201.9 61.6255ZM202.813 48.2441C201.289 48.2441 199.983 48.9824 198.896 50.459C197.877 51.8398 197.368 53.3711 197.368 55.0527C197.368 56.1875 197.809 57.1104 198.691 57.8213C199.539 58.5049 200.608 58.8467 201.9 58.8467C203.404 58.8467 204.659 58.1084 205.664 56.6318C206.586 55.2852 207.048 53.7539 207.048 52.0381C207.048 50.6025 206.727 49.6045 206.084 49.0439C205.469 48.5107 204.378 48.2441 202.813 48.2441ZM216.041 52.8994C215.733 54.0068 215.302 55.6782 214.749 57.9136C214.619 58.686 214.492 59.4551 214.369 60.2207C214.089 61.1914 213.573 61.6768 212.821 61.6768C212.349 61.6768 211.977 61.5161 211.703 61.1948C211.471 60.9214 211.354 60.5967 211.354 60.2207C211.354 59.1133 211.59 57.7632 212.062 56.1704C212.766 53.7847 213.146 52.4619 213.2 52.2021C213.398 51.1494 213.6 50.0967 213.805 49.0439C214.113 47.5947 214.444 46.6309 214.8 46.1523C215.162 45.667 215.617 45.4243 216.164 45.4243C216.786 45.4243 217.244 45.7388 217.538 46.3677C217.811 46.9624 218.105 48.1792 218.419 50.0181C218.72 51.8022 219.168 53.7231 219.763 55.7808C220.542 53.7505 221.267 51.522 221.937 49.0952L222.511 46.7368C222.88 45.7593 223.451 45.2705 224.223 45.2705C224.968 45.2705 225.522 45.8379 225.884 46.9727C226.035 47.4307 226.195 48.2852 226.366 49.5361C226.763 52.4482 227.262 54.9434 227.863 57.0215C228.472 59.1338 228.776 60.2822 228.776 60.4668C228.776 60.8701 228.615 61.2085 228.294 61.4819C227.993 61.728 227.655 61.8511 227.279 61.8511C226.534 61.8511 225.98 61.3179 225.618 60.2515L225.043 57.77C224.715 56.5396 224.36 54.7725 223.977 52.4688C223.669 53.3848 223.16 54.8237 222.449 56.7856L221.834 58.6724C221.581 59.4175 221.318 60.0293 221.044 60.5078C220.682 61.1436 220.176 61.4614 219.527 61.4614C218.884 61.4614 218.392 61.082 218.05 60.3232L217.476 58.416C216.943 56.666 216.464 54.8271 216.041 52.8994ZM240.527 47.8545C240.39 47.8545 240.247 47.834 240.096 47.793C238.989 47.4922 237.912 47.3418 236.866 47.3418C236.354 47.3418 235.803 47.3828 235.215 47.4648C234.627 47.5469 234.002 47.6699 233.339 47.834C233.339 48.7432 233.308 50.0933 233.247 51.8843C233.629 51.8569 234.966 51.7305 237.256 51.5049C238.562 51.375 239.389 51.3101 239.737 51.3101C240.141 51.3101 240.486 51.4399 240.773 51.6997C241.06 51.9526 241.204 52.291 241.204 52.7148C241.204 53.5283 240.77 53.9897 239.901 54.0991C239.354 54.1401 238.538 54.2085 237.451 54.3042C236.48 54.4136 235.017 54.5469 233.062 54.7041C233.014 55.5723 232.99 56.2729 232.99 56.8062C232.99 58.146 233.069 58.9082 233.226 59.0928C233.301 59.1816 233.732 59.2261 234.518 59.2261C234.942 59.2261 235.581 59.2158 236.436 59.1953C237.29 59.1748 237.929 59.1646 238.353 59.1646C238.49 59.1646 238.691 59.144 238.958 59.103C239.225 59.062 239.423 59.0415 239.553 59.0415C239.949 59.0415 240.288 59.1543 240.568 59.3799C240.889 59.6328 241.05 59.9883 241.05 60.4463C241.05 61.2119 240.65 61.6699 239.85 61.8203C239.167 61.9502 237.748 62.0151 235.595 62.0151C233.366 62.0151 231.914 61.7144 231.237 61.1128C230.492 60.4497 230.119 59.0142 230.119 56.8062C230.119 55.8901 230.184 54.5161 230.314 52.6841C230.451 50.8452 230.519 49.4712 230.519 48.562C230.519 48.3228 230.485 47.9707 230.417 47.5059C230.348 47.0342 230.314 46.6787 230.314 46.4395C230.314 45.4004 230.792 44.8809 231.75 44.8809C232.05 44.8809 232.327 44.9663 232.58 45.1372C233.373 44.939 234.125 44.792 234.836 44.6963C235.554 44.5938 236.23 44.5425 236.866 44.5425C238.589 44.5425 239.966 44.7407 240.999 45.1372C241.627 45.3765 241.942 45.8105 241.942 46.4395C241.942 46.7949 241.819 47.1094 241.573 47.3828C241.299 47.6973 240.951 47.8545 240.527 47.8545ZM258.492 58.4775C258.492 58.8193 258.434 59.3594 258.317 60.0977C258.181 60.9795 257.682 61.4204 256.82 61.4204C256.342 61.4204 255.802 61.1504 255.2 60.6104C252.568 58.2383 249.598 54.9126 246.29 50.6333C246.249 52.4106 246.228 53.501 246.228 53.9043C246.228 54.4443 246.238 55.2578 246.259 56.3447C246.286 57.4316 246.3 58.2451 246.3 58.7852C246.3 60.8018 245.808 61.8101 244.823 61.8101C244.324 61.8101 243.924 61.6562 243.624 61.3486C243.357 61.0752 243.224 60.7437 243.224 60.354C243.224 60.0806 243.244 59.667 243.285 59.1133C243.333 58.5596 243.357 58.146 243.357 57.8726C243.357 57.4692 243.371 56.8643 243.398 56.0576C243.425 55.251 243.439 54.646 243.439 54.2427C243.439 53.812 243.429 53.1626 243.408 52.2944C243.388 51.4263 243.377 50.7769 243.377 50.3462C243.377 49.936 243.336 49.3242 243.254 48.5107C243.172 47.6973 243.131 47.0854 243.131 46.6753C243.131 46.2651 243.306 45.8994 243.654 45.5781C244.01 45.2568 244.413 45.0962 244.864 45.0962C245.37 45.0962 245.931 45.5337 246.546 46.4087C249.649 50.8384 252.712 54.4512 255.733 57.2471C255.74 57.0283 255.744 56.5088 255.744 55.6885C255.744 52.3184 255.709 50.0454 255.641 48.8696C255.627 48.6714 255.583 48.3022 255.508 47.7622C255.439 47.2837 255.405 46.9077 255.405 46.6343C255.405 45.6909 255.904 45.2192 256.902 45.2192C258.017 45.2192 258.574 46.9385 258.574 50.377C258.574 50.4521 258.567 50.9922 258.553 51.9971C258.512 55.4697 258.492 57.6299 258.492 58.4775ZM272.652 48.7056C272.119 48.7056 271.289 48.668 270.161 48.5928C269.074 48.5176 268.243 48.4834 267.669 48.4902C267.696 49.2695 267.789 50.6572 267.946 52.6533C268.089 54.417 268.161 55.8115 268.161 56.8369C268.161 57.0693 268.185 57.4146 268.233 57.8726C268.281 58.3306 268.305 58.6758 268.305 58.9082C268.305 59.4209 268.195 59.8823 267.977 60.2925C267.696 60.8188 267.296 61.082 266.777 61.082C266.401 61.082 266.069 60.9624 265.782 60.7231C265.461 60.4565 265.3 60.1216 265.3 59.7183C265.3 59.6226 265.317 59.479 265.352 59.2876C265.386 59.0894 265.403 58.939 265.403 58.8364C265.403 58.522 265.379 58.0469 265.331 57.4111C265.29 56.7754 265.27 56.2969 265.27 55.9756C265.27 55.0596 265.198 53.8188 265.054 52.2534C264.89 50.4556 264.794 49.2148 264.767 48.5312H264.234C262.709 48.5312 261.5 48.4219 260.604 48.2031C259.845 48.0186 259.466 47.5708 259.466 46.8599C259.466 46.5112 259.589 46.1968 259.835 45.9165C260.122 45.5815 260.498 45.4312 260.963 45.4653C261.202 45.479 261.746 45.5371 262.593 45.6396C263.27 45.7148 263.817 45.7524 264.234 45.7524C264.651 45.7524 265.273 45.7456 266.1 45.7319C266.934 45.7183 267.56 45.7114 267.977 45.7114C268.496 45.7114 269.275 45.749 270.314 45.8242C271.354 45.8926 272.133 45.9268 272.652 45.9268C273.062 45.9268 273.404 46.0601 273.678 46.3267C273.958 46.5933 274.098 46.9214 274.098 47.311C274.098 47.7007 273.958 48.0322 273.678 48.3057C273.404 48.5723 273.062 48.7056 272.652 48.7056ZM279.42 62.2715C279.085 62.9414 278.818 63.4678 278.62 63.8506C278.388 64.3018 278.015 64.5273 277.502 64.5273C277.14 64.5273 276.833 64.4111 276.58 64.1787C276.327 63.9531 276.2 63.6899 276.2 63.3892C276.2 63.2114 276.419 62.6816 276.856 61.7998C277.246 61.0205 277.54 60.4702 277.738 60.1489C277.991 59.7456 278.347 59.5439 278.805 59.5439C279.167 59.5439 279.475 59.6602 279.728 59.8926C279.98 60.125 280.107 60.3916 280.107 60.6924C280.107 60.8291 279.878 61.3555 279.42 62.2715ZM304.573 48.3467C304.224 49.0645 303.523 50.6162 302.471 53.002C301.596 54.998 300.851 56.5635 300.235 57.6982C299.169 59.667 298.598 60.7095 298.523 60.8257C298.12 61.4204 297.655 61.7178 297.128 61.7178C296.752 61.7178 296.421 61.5947 296.134 61.3486C295.819 61.0752 295.662 60.7368 295.662 60.3335C295.662 59.9985 296.376 58.5903 297.805 56.1089C297.279 55.3501 296.523 54.1982 295.539 52.6533C294.801 51.5186 293.717 49.8062 292.289 47.5161C292.152 47.2837 292.083 47.041 292.083 46.7881C292.083 46.3916 292.237 46.0566 292.545 45.7832C292.832 45.5303 293.167 45.4038 293.55 45.4038C294.001 45.4038 294.411 45.6328 294.78 46.0908L295.549 47.3213C295.597 47.4033 296.185 48.4014 297.313 50.3154C298.024 51.5391 298.653 52.5063 299.2 53.2173C299.719 52.1714 300.468 50.5889 301.445 48.4697C301.65 47.998 301.958 47.2837 302.368 46.3267C302.628 45.7114 303.072 45.4038 303.701 45.4038C304.077 45.4038 304.409 45.5269 304.696 45.7729C305.01 46.0396 305.167 46.3745 305.167 46.7778C305.167 47.0103 304.969 47.5332 304.573 48.3467ZM313.606 61.6255C311.583 61.6255 309.86 61.0444 308.438 59.8823C306.921 58.6382 306.162 57.0283 306.162 55.0527C306.162 52.7285 306.89 50.6094 308.346 48.6953C309.98 46.542 312.038 45.4653 314.519 45.4653C316.905 45.4653 318.692 46.0122 319.882 47.106C321.071 48.1997 321.666 49.8438 321.666 52.0381C321.666 54.3623 320.996 56.4678 319.656 58.3545C318.111 60.5352 316.095 61.6255 313.606 61.6255ZM314.519 48.2441C312.995 48.2441 311.689 48.9824 310.602 50.459C309.583 51.8398 309.074 53.3711 309.074 55.0527C309.074 56.1875 309.515 57.1104 310.397 57.8213C311.245 58.5049 312.314 58.8467 313.606 58.8467C315.11 58.8467 316.365 58.1084 317.37 56.6318C318.292 55.2852 318.754 53.7539 318.754 52.0381C318.754 50.6025 318.433 49.6045 317.79 49.0439C317.175 48.5107 316.084 48.2441 314.519 48.2441ZM334.155 59.2261C333.656 59.9028 333.055 60.4668 332.351 60.918C331.489 61.4648 330.604 61.7383 329.695 61.7383C327.952 61.7383 326.656 61.4033 325.809 60.7334C324.018 59.3184 323.122 56.8608 323.122 53.3608C323.122 53.0259 323.139 52.5269 323.173 51.8638C323.208 51.2007 323.225 50.7017 323.225 50.3667C323.225 50.1001 323.231 49.7036 323.245 49.1772C323.259 48.644 323.266 48.2441 323.266 47.9775C323.266 47.4307 323.365 46.9146 323.563 46.4292C323.83 45.7866 324.202 45.4653 324.681 45.4653C325.057 45.4653 325.388 45.5884 325.675 45.8345C325.99 46.0942 326.147 46.4292 326.147 46.8394C326.147 47.229 326.14 47.8203 326.126 48.6133C326.12 49.3994 326.116 49.9907 326.116 50.3872C326.116 50.7153 326.099 51.2109 326.065 51.874C326.031 52.5371 326.014 53.0327 326.014 53.3608C326.014 54.4204 326.137 55.4048 326.383 56.314C326.67 57.4009 327.09 58.1597 327.644 58.5903C327.931 58.8159 328.615 58.9355 329.695 58.9492C331.5 58.9766 332.716 57.4385 333.345 54.335C333.673 52.7285 333.837 50.4727 333.837 47.5674C333.837 47.1846 333.95 46.8154 334.176 46.46C334.483 45.9883 334.921 45.7524 335.488 45.7524C335.953 45.7524 336.302 45.9233 336.534 46.2651C336.712 46.5181 336.801 46.7983 336.801 47.106C336.801 49.8062 336.674 51.9116 336.421 53.4224C336.039 55.7534 335.283 57.688 334.155 59.2261ZM358.231 50.0796C357.616 50.0796 357.162 49.7549 356.868 49.1055C356.731 48.7979 356.594 48.6133 356.458 48.5518C356.355 48.5039 356.085 48.48 355.647 48.48C354.786 48.48 353.792 49.1499 352.664 50.4897C351.084 52.3628 350.295 54.1162 350.295 55.75C350.295 56.4951 350.544 57.1343 351.043 57.6675C351.542 58.2007 352.141 58.4673 352.838 58.4673C353.515 58.4673 354.202 58.2896 354.899 57.9341C355.145 57.8042 355.665 57.4692 356.458 56.9292C356.991 56.5737 357.394 56.396 357.667 56.396C358.078 56.396 358.426 56.5464 358.713 56.8472C358.98 57.1274 359.113 57.4487 359.113 57.811C359.113 58.2144 358.936 58.5664 358.58 58.8672C356.7 60.4531 354.786 61.2461 352.838 61.2461C351.3 61.2461 350.001 60.6855 348.941 59.5645C347.93 58.4844 347.424 57.2129 347.424 55.75C347.424 53.46 348.425 51.1221 350.428 48.7363C352.13 46.7129 353.87 45.7012 355.647 45.7012C355.948 45.7012 356.218 45.7114 356.458 45.7319C356.704 45.7524 356.919 45.7832 357.104 45.8242C357.404 45.5303 357.767 45.3833 358.19 45.3833C358.888 45.3833 359.318 45.7832 359.482 46.583C359.599 47.1572 359.657 47.8271 359.657 48.5928C359.657 48.9346 359.558 49.2456 359.359 49.5259C359.1 49.895 358.724 50.0796 358.231 50.0796ZM372.73 61.3076C372.19 61.2871 371.647 60.6514 371.1 59.4004C370.738 58.5938 370.427 57.6641 370.167 56.6113C369.661 56.6865 368.834 56.7617 367.686 56.8369C366.605 56.9121 365.778 57.001 365.204 57.1035C364.89 57.8555 364.343 58.9868 363.563 60.4976C363.263 60.9897 362.846 61.2358 362.312 61.2358C361.937 61.2358 361.598 61.1094 361.297 60.8564C360.997 60.5967 360.846 60.2686 360.846 59.8721C360.846 59.5234 361.345 58.3408 362.343 56.3242C362.248 56.1123 362.207 55.9141 362.22 55.7295C362.248 55.4014 362.579 55.145 363.215 54.9604C364.186 53.2788 365.266 51.5356 366.455 49.731C368.164 47.1401 369.217 45.8447 369.613 45.8447C370.365 45.8447 370.868 46.2993 371.121 47.2085C371.257 47.9399 371.473 49.0371 371.767 50.5C372.184 52.4688 372.693 54.7212 373.294 57.2573C373.342 57.4487 373.517 57.8999 373.817 58.6108C374.063 59.1987 374.187 59.6396 374.187 59.9336C374.187 60.3301 374.036 60.6616 373.735 60.9282C373.441 61.1948 373.106 61.3213 372.73 61.3076ZM368.906 50.7871C368.373 51.7031 367.638 52.9507 366.701 54.5298C367.009 54.4614 367.487 54.4067 368.137 54.3657C368.902 54.3179 369.384 54.2803 369.583 54.2529C369.418 53.3643 369.193 52.209 368.906 50.7871ZM391.485 58.4775C391.485 58.8193 391.427 59.3594 391.311 60.0977C391.174 60.9795 390.675 61.4204 389.813 61.4204C389.335 61.4204 388.795 61.1504 388.193 60.6104C385.562 58.2383 382.591 54.9126 379.283 50.6333C379.242 52.4106 379.221 53.501 379.221 53.9043C379.221 54.4443 379.231 55.2578 379.252 56.3447C379.279 57.4316 379.293 58.2451 379.293 58.7852C379.293 60.8018 378.801 61.8101 377.816 61.8101C377.317 61.8101 376.917 61.6562 376.617 61.3486C376.35 61.0752 376.217 60.7437 376.217 60.354C376.217 60.0806 376.237 59.667 376.278 59.1133C376.326 58.5596 376.35 58.146 376.35 57.8726C376.35 57.4692 376.364 56.8643 376.391 56.0576C376.418 55.251 376.432 54.646 376.432 54.2427C376.432 53.812 376.422 53.1626 376.401 52.2944C376.381 51.4263 376.371 50.7769 376.371 50.3462C376.371 49.936 376.33 49.3242 376.248 48.5107C376.166 47.6973 376.125 47.0854 376.125 46.6753C376.125 46.2651 376.299 45.8994 376.647 45.5781C377.003 45.2568 377.406 45.0962 377.857 45.0962C378.363 45.0962 378.924 45.5337 379.539 46.4087C382.643 50.8384 385.705 54.4512 388.727 57.2471C388.733 57.0283 388.737 56.5088 388.737 55.6885C388.737 52.3184 388.703 50.0454 388.634 48.8696C388.621 48.6714 388.576 48.3022 388.501 47.7622C388.433 47.2837 388.398 46.9077 388.398 46.6343C388.398 45.6909 388.897 45.2192 389.896 45.2192C391.01 45.2192 391.567 46.9385 391.567 50.377C391.567 50.4521 391.56 50.9922 391.546 51.9971C391.505 55.4697 391.485 57.6299 391.485 58.4775ZM412.833 47.8545C412.697 47.8545 412.553 47.834 412.403 47.793C411.295 47.4922 410.219 47.3418 409.173 47.3418C408.66 47.3418 408.11 47.3828 407.522 47.4648C406.934 47.5469 406.309 47.6699 405.646 47.834C405.646 48.7432 405.615 50.0933 405.553 51.8843C405.936 51.8569 407.272 51.7305 409.562 51.5049C410.868 51.375 411.695 51.3101 412.044 51.3101C412.447 51.3101 412.792 51.4399 413.08 51.6997C413.367 51.9526 413.51 52.291 413.51 52.7148C413.51 53.5283 413.076 53.9897 412.208 54.0991C411.661 54.1401 410.844 54.2085 409.757 54.3042C408.787 54.4136 407.324 54.5469 405.369 54.7041C405.321 55.5723 405.297 56.2729 405.297 56.8062C405.297 58.146 405.375 58.9082 405.533 59.0928C405.608 59.1816 406.039 59.2261 406.825 59.2261C407.249 59.2261 407.888 59.2158 408.742 59.1953C409.597 59.1748 410.236 59.1646 410.66 59.1646C410.796 59.1646 410.998 59.144 411.265 59.103C411.531 59.062 411.729 59.0415 411.859 59.0415C412.256 59.0415 412.594 59.1543 412.875 59.3799C413.196 59.6328 413.356 59.9883 413.356 60.4463C413.356 61.2119 412.957 61.6699 412.157 61.8203C411.473 61.9502 410.055 62.0151 407.901 62.0151C405.673 62.0151 404.22 61.7144 403.543 61.1128C402.798 60.4497 402.426 59.0142 402.426 56.8062C402.426 55.8901 402.491 54.5161 402.621 52.6841C402.757 50.8452 402.826 49.4712 402.826 48.562C402.826 48.3228 402.792 47.9707 402.723 47.5059C402.655 47.0342 402.621 46.6787 402.621 46.4395C402.621 45.4004 403.099 44.8809 404.056 44.8809C404.357 44.8809 404.634 44.9663 404.887 45.1372C405.68 44.939 406.432 44.792 407.143 44.6963C407.86 44.5938 408.537 44.5425 409.173 44.5425C410.896 44.5425 412.273 44.7407 413.305 45.1372C413.934 45.3765 414.249 45.8105 414.249 46.4395C414.249 46.7949 414.125 47.1094 413.879 47.3828C413.606 47.6973 413.257 47.8545 412.833 47.8545ZM430.798 58.4775C430.798 58.8193 430.74 59.3594 430.624 60.0977C430.487 60.9795 429.988 61.4204 429.127 61.4204C428.648 61.4204 428.108 61.1504 427.507 60.6104C424.875 58.2383 421.905 54.9126 418.596 50.6333C418.555 52.4106 418.535 53.501 418.535 53.9043C418.535 54.4443 418.545 55.2578 418.565 56.3447C418.593 57.4316 418.606 58.2451 418.606 58.7852C418.606 60.8018 418.114 61.8101 417.13 61.8101C416.631 61.8101 416.231 61.6562 415.93 61.3486C415.664 61.0752 415.53 60.7437 415.53 60.354C415.53 60.0806 415.551 59.667 415.592 59.1133C415.64 58.5596 415.664 58.146 415.664 57.8726C415.664 57.4692 415.677 56.8643 415.705 56.0576C415.732 55.251 415.746 54.646 415.746 54.2427C415.746 53.812 415.735 53.1626 415.715 52.2944C415.694 51.4263 415.684 50.7769 415.684 50.3462C415.684 49.936 415.643 49.3242 415.561 48.5107C415.479 47.6973 415.438 47.0854 415.438 46.6753C415.438 46.2651 415.612 45.8994 415.961 45.5781C416.316 45.2568 416.72 45.0962 417.171 45.0962C417.677 45.0962 418.237 45.5337 418.853 46.4087C421.956 50.8384 425.019 54.4512 428.04 57.2471C428.047 57.0283 428.05 56.5088 428.05 55.6885C428.05 52.3184 428.016 50.0454 427.948 48.8696C427.934 48.6714 427.89 48.3022 427.814 47.7622C427.746 47.2837 427.712 46.9077 427.712 46.6343C427.712 45.6909 428.211 45.2192 429.209 45.2192C430.323 45.2192 430.88 46.9385 430.88 50.377C430.88 50.4521 430.874 50.9922 430.86 51.9971C430.819 55.4697 430.798 57.6299 430.798 58.4775ZM443.944 48.4082C443.821 48.4082 443.626 48.3979 443.359 48.3774C443.093 48.3501 442.877 48.3364 442.713 48.3364H441.914C441.907 48.2202 441.903 48.4629 441.903 49.0645C441.903 53.959 441.558 57.5239 440.868 59.7593C440.362 61.4067 439.442 62.2305 438.109 62.2305C436.838 62.2305 435.58 61.793 434.336 60.918C432.928 59.9404 432.224 58.792 432.224 57.4727C432.224 56.4062 432.706 55.873 433.669 55.873C434.633 55.873 435.115 56.3994 435.115 57.4521C435.115 57.8555 435.46 58.2896 436.151 58.7544C436.848 59.2124 437.501 59.4414 438.109 59.4414C438.355 59.4414 438.533 58.9868 438.643 58.0776C438.67 57.8589 438.745 56.7959 438.868 54.8887C438.971 53.3301 439.022 51.3887 439.022 49.0645C439.022 48.9688 439.012 48.7466 438.991 48.3979L438.755 48.4082C438.455 48.4219 438.051 48.4185 437.545 48.3979C436.937 48.3706 436.534 48.3569 436.335 48.3569C435.932 48.3569 435.59 48.2339 435.31 47.9878C435.009 47.7212 434.859 47.376 434.859 46.9521C434.859 46.0225 435.471 45.5576 436.694 45.5576C436.927 45.5576 437.272 45.5679 437.73 45.5884C438.188 45.6021 438.53 45.6089 438.755 45.6089C439.186 45.6089 439.829 45.585 440.683 45.5371C441.544 45.4893 442.19 45.4653 442.621 45.4653C444.453 45.4653 445.369 45.9746 445.369 46.9932C445.369 47.3486 445.246 47.6665 445 47.9468C444.72 48.2544 444.368 48.4082 443.944 48.4082ZM453.695 61.6255C451.672 61.6255 449.949 61.0444 448.527 59.8823C447.01 58.6382 446.251 57.0283 446.251 55.0527C446.251 52.7285 446.979 50.6094 448.435 48.6953C450.069 46.542 452.126 45.4653 454.608 45.4653C456.994 45.4653 458.781 46.0122 459.971 47.106C461.16 48.1997 461.755 49.8438 461.755 52.0381C461.755 54.3623 461.085 56.4678 459.745 58.3545C458.2 60.5352 456.184 61.6255 453.695 61.6255ZM454.608 48.2441C453.083 48.2441 451.778 48.9824 450.691 50.459C449.672 51.8398 449.163 53.3711 449.163 55.0527C449.163 56.1875 449.604 57.1104 450.486 57.8213C451.333 58.5049 452.403 58.8467 453.695 58.8467C455.199 58.8467 456.454 58.1084 457.458 56.6318C458.381 55.2852 458.843 53.7539 458.843 52.0381C458.843 50.6025 458.521 49.6045 457.879 49.0439C457.264 48.5107 456.173 48.2441 454.608 48.2441ZM474.788 48.3467C474.439 49.0645 473.738 50.6162 472.686 53.002C471.811 54.998 471.065 56.5635 470.45 57.6982C469.384 59.667 468.813 60.7095 468.738 60.8257C468.334 61.4204 467.87 61.7178 467.343 61.7178C466.967 61.7178 466.636 61.5947 466.349 61.3486C466.034 61.0752 465.877 60.7368 465.877 60.3335C465.877 59.9985 466.591 58.5903 468.02 56.1089C467.494 55.3501 466.738 54.1982 465.754 52.6533C465.016 51.5186 463.932 49.8062 462.503 47.5161C462.367 47.2837 462.298 47.041 462.298 46.7881C462.298 46.3916 462.452 46.0566 462.76 45.7832C463.047 45.5303 463.382 45.4038 463.765 45.4038C464.216 45.4038 464.626 45.6328 464.995 46.0908L465.764 47.3213C465.812 47.4033 466.4 48.4014 467.528 50.3154C468.239 51.5391 468.868 52.5063 469.415 53.2173C469.934 52.1714 470.683 50.5889 471.66 48.4697C471.865 47.998 472.173 47.2837 472.583 46.3267C472.843 45.7114 473.287 45.4038 473.916 45.4038C474.292 45.4038 474.624 45.5269 474.911 45.7729C475.225 46.0396 475.382 46.3745 475.382 46.7778C475.382 47.0103 475.184 47.5332 474.788 48.3467ZM498.156 48.7056C497.623 48.7056 496.792 48.668 495.665 48.5928C494.578 48.5176 493.747 48.4834 493.173 48.4902C493.2 49.2695 493.292 50.6572 493.45 52.6533C493.593 54.417 493.665 55.8115 493.665 56.8369C493.665 57.0693 493.689 57.4146 493.737 57.8726C493.785 58.3306 493.809 58.6758 493.809 58.9082C493.809 59.4209 493.699 59.8823 493.48 60.2925C493.2 60.8188 492.8 61.082 492.281 61.082C491.905 61.082 491.573 60.9624 491.286 60.7231C490.965 60.4565 490.804 60.1216 490.804 59.7183C490.804 59.6226 490.821 59.479 490.855 59.2876C490.89 59.0894 490.907 58.939 490.907 58.8364C490.907 58.522 490.883 58.0469 490.835 57.4111C490.794 56.7754 490.773 56.2969 490.773 55.9756C490.773 55.0596 490.702 53.8188 490.558 52.2534C490.394 50.4556 490.298 49.2148 490.271 48.5312H489.738C488.213 48.5312 487.003 48.4219 486.108 48.2031C485.349 48.0186 484.97 47.5708 484.97 46.8599C484.97 46.5112 485.093 46.1968 485.339 45.9165C485.626 45.5815 486.002 45.4312 486.467 45.4653C486.706 45.479 487.25 45.5371 488.097 45.6396C488.774 45.7148 489.321 45.7524 489.738 45.7524C490.155 45.7524 490.777 45.7456 491.604 45.7319C492.438 45.7183 493.063 45.7114 493.48 45.7114C494 45.7114 494.779 45.749 495.818 45.8242C496.857 45.8926 497.637 45.9268 498.156 45.9268C498.566 45.9268 498.908 46.0601 499.182 46.3267C499.462 46.5933 499.602 46.9214 499.602 47.311C499.602 47.7007 499.462 48.0322 499.182 48.3057C498.908 48.5723 498.566 48.7056 498.156 48.7056ZM514.88 46.7778C514.744 47.2769 514.675 47.7109 514.675 48.0801C514.675 48.2715 514.655 48.5688 514.614 48.9722C514.58 49.3687 514.562 49.6626 514.562 49.854C514.562 50.5034 514.528 51.4673 514.46 52.7456C514.392 54.0239 514.357 54.9878 514.357 55.6372C514.357 56.1362 514.395 56.8813 514.47 57.8726C514.545 58.8638 514.583 59.6089 514.583 60.1079C514.583 60.4839 514.45 60.8018 514.183 61.0615C513.917 61.3213 513.585 61.4512 513.188 61.4512C512.785 61.4512 512.437 61.3213 512.143 61.0615C511.849 60.8086 511.702 60.4976 511.702 60.1284C511.702 59.6294 511.678 58.8809 511.63 57.8828C511.589 56.8848 511.568 56.1362 511.568 55.6372C511.568 55.2476 511.575 54.9023 511.589 54.6016C510.516 54.6494 509.189 54.8169 507.61 55.104C506.298 55.3433 504.985 55.5859 503.673 55.832C503.659 56.2969 503.611 57.0728 503.529 58.1597C503.461 59.1167 503.427 59.8994 503.427 60.5078C503.427 60.8838 503.293 61.2017 503.027 61.4614C502.76 61.7212 502.429 61.8511 502.032 61.8511C501.636 61.8511 501.304 61.7212 501.038 61.4614C500.771 61.2017 500.638 60.8838 500.638 60.5078C500.638 59.8174 500.696 58.7852 500.812 57.4111C500.935 56.0371 500.997 55.0049 500.997 54.3145C500.997 53.4395 501.017 52.1235 501.058 50.3667C501.099 48.603 501.12 47.2837 501.12 46.4087C501.12 46.0327 501.253 45.7148 501.52 45.4551C501.786 45.1953 502.118 45.0654 502.514 45.0654C502.911 45.0654 503.242 45.1953 503.509 45.4551C503.775 45.7148 503.909 46.0327 503.909 46.4087C503.909 46.9282 503.888 47.7109 503.847 48.7568C503.813 49.7959 503.796 50.5752 503.796 51.0947C503.796 51.2656 503.772 51.5938 503.724 52.0791C503.683 52.5303 503.666 52.8755 503.673 53.1147L507.61 52.3765C509.148 52.103 510.475 51.9458 511.589 51.9048C511.616 51.4468 511.661 50.2163 511.722 48.2134C511.736 47.687 511.896 47.082 512.204 46.3984C512.587 45.5576 513.021 45.1372 513.506 45.1372C513.869 45.1372 514.19 45.2568 514.47 45.4961C514.771 45.7559 514.921 46.0806 514.921 46.4702C514.921 46.5728 514.908 46.6753 514.88 46.7778ZM527 47.8545C526.864 47.8545 526.72 47.834 526.57 47.793C525.462 47.4922 524.386 47.3418 523.34 47.3418C522.827 47.3418 522.277 47.3828 521.689 47.4648C521.101 47.5469 520.476 47.6699 519.812 47.834C519.812 48.7432 519.782 50.0933 519.72 51.8843C520.103 51.8569 521.439 51.7305 523.729 51.5049C525.035 51.375 525.862 51.3101 526.211 51.3101C526.614 51.3101 526.959 51.4399 527.247 51.6997C527.534 51.9526 527.677 52.291 527.677 52.7148C527.677 53.5283 527.243 53.9897 526.375 54.0991C525.828 54.1401 525.011 54.2085 523.924 54.3042C522.954 54.4136 521.491 54.5469 519.536 54.7041C519.488 55.5723 519.464 56.2729 519.464 56.8062C519.464 58.146 519.542 58.9082 519.7 59.0928C519.775 59.1816 520.206 59.2261 520.992 59.2261C521.416 59.2261 522.055 59.2158 522.909 59.1953C523.764 59.1748 524.403 59.1646 524.827 59.1646C524.963 59.1646 525.165 59.144 525.432 59.103C525.698 59.062 525.896 59.0415 526.026 59.0415C526.423 59.0415 526.761 59.1543 527.042 59.3799C527.363 59.6328 527.523 59.9883 527.523 60.4463C527.523 61.2119 527.124 61.6699 526.324 61.8203C525.64 61.9502 524.222 62.0151 522.068 62.0151C519.84 62.0151 518.387 61.7144 517.71 61.1128C516.965 60.4497 516.593 59.0142 516.593 56.8062C516.593 55.8901 516.658 54.5161 516.788 52.6841C516.924 50.8452 516.993 49.4712 516.993 48.562C516.993 48.3228 516.958 47.9707 516.89 47.5059C516.822 47.0342 516.788 46.6787 516.788 46.4395C516.788 45.4004 517.266 44.8809 518.223 44.8809C518.524 44.8809 518.801 44.9663 519.054 45.1372C519.847 44.939 520.599 44.792 521.31 44.6963C522.027 44.5938 522.704 44.5425 523.34 44.5425C525.062 44.5425 526.44 44.7407 527.472 45.1372C528.101 45.3765 528.416 45.8105 528.416 46.4395C528.416 46.7949 528.292 47.1094 528.046 47.3828C527.773 47.6973 527.424 47.8545 527 47.8545ZM550.677 61.3076C550.137 61.2871 549.593 60.6514 549.046 59.4004C548.684 58.5938 548.373 57.6641 548.113 56.6113C547.607 56.6865 546.78 56.7617 545.632 56.8369C544.552 56.9121 543.725 57.001 543.15 57.1035C542.836 57.8555 542.289 58.9868 541.51 60.4976C541.209 60.9897 540.792 61.2358 540.259 61.2358C539.883 61.2358 539.544 61.1094 539.244 60.8564C538.943 60.5967 538.792 60.2686 538.792 59.8721C538.792 59.5234 539.292 58.3408 540.29 56.3242C540.194 56.1123 540.153 55.9141 540.167 55.7295C540.194 55.4014 540.525 55.145 541.161 54.9604C542.132 53.2788 543.212 51.5356 544.401 49.731C546.11 47.1401 547.163 45.8447 547.56 45.8447C548.312 45.8447 548.814 46.2993 549.067 47.2085C549.204 47.9399 549.419 49.0371 549.713 50.5C550.13 52.4688 550.639 54.7212 551.241 57.2573C551.289 57.4487 551.463 57.8999 551.764 58.6108C552.01 59.1987 552.133 59.6396 552.133 59.9336C552.133 60.3301 551.982 60.6616 551.682 60.9282C551.388 61.1948 551.053 61.3213 550.677 61.3076ZM546.852 50.7871C546.319 51.7031 545.584 52.9507 544.647 54.5298C544.955 54.4614 545.434 54.4067 546.083 54.3657C546.849 54.3179 547.331 54.2803 547.529 54.2529C547.365 53.3643 547.139 52.209 546.852 50.7871ZM557.455 55.2783C557.338 55.2783 557.051 55.2544 556.593 55.2065C556.552 56.1636 556.532 57.7358 556.532 59.9233C556.532 60.2856 556.405 60.5967 556.152 60.8564C555.899 61.1162 555.578 61.2461 555.188 61.2461C554.799 61.2461 554.474 61.1162 554.214 60.8564C553.961 60.5967 553.835 60.2856 553.835 59.9233V57.0625C553.835 56.0029 553.903 54.4341 554.04 52.356C554.17 50.2437 554.238 48.668 554.245 47.6289C554.252 45.8516 554.751 45.0005 555.742 45.0757C555.975 45.0142 556.296 44.9697 556.706 44.9424C557.116 44.9082 557.615 44.8911 558.203 44.8911C559.543 44.8911 560.801 45.3252 561.977 46.1934C563.282 47.1641 563.935 48.3467 563.935 49.7412C563.935 51.4912 563.241 52.8823 561.854 53.9146C560.623 54.8237 559.157 55.2783 557.455 55.2783ZM557.967 47.5366C557.749 47.5366 557.554 47.54 557.383 47.5469C557.219 47.5469 557.079 47.5537 556.962 47.5674C556.962 47.8887 556.959 48.3706 556.952 49.0132C556.938 49.772 556.874 50.9546 556.757 52.561C557.106 52.6157 557.338 52.6431 557.455 52.6431C558.521 52.6431 559.406 52.3901 560.11 51.8843C560.862 51.3442 561.238 50.6299 561.238 49.7412C561.238 49.1602 560.886 48.644 560.182 48.1929C559.505 47.7554 558.767 47.5366 557.967 47.5366ZM568.652 55.2783C568.536 55.2783 568.249 55.2544 567.791 55.2065C567.75 56.1636 567.729 57.7358 567.729 59.9233C567.729 60.2856 567.603 60.5967 567.35 60.8564C567.097 61.1162 566.775 61.2461 566.386 61.2461C565.996 61.2461 565.671 61.1162 565.412 60.8564C565.159 60.5967 565.032 60.2856 565.032 59.9233V57.0625C565.032 56.0029 565.101 54.4341 565.237 52.356C565.367 50.2437 565.436 48.668 565.442 47.6289C565.449 45.8516 565.948 45.0005 566.939 45.0757C567.172 45.0142 567.493 44.9697 567.903 44.9424C568.313 44.9082 568.812 44.8911 569.4 44.8911C570.74 44.8911 571.998 45.3252 573.174 46.1934C574.479 47.1641 575.132 48.3467 575.132 49.7412C575.132 51.4912 574.438 52.8823 573.051 53.9146C571.82 54.8237 570.354 55.2783 568.652 55.2783ZM569.165 47.5366C568.946 47.5366 568.751 47.54 568.58 47.5469C568.416 47.5469 568.276 47.5537 568.16 47.5674C568.16 47.8887 568.156 48.3706 568.149 49.0132C568.136 49.772 568.071 50.9546 567.955 52.561C568.303 52.6157 568.536 52.6431 568.652 52.6431C569.718 52.6431 570.604 52.3901 571.308 51.8843C572.06 51.3442 572.436 50.6299 572.436 49.7412C572.436 49.1602 572.083 48.644 571.379 48.1929C570.703 47.7554 569.964 47.5366 569.165 47.5366ZM595.548 48.1826C595.391 48.1826 595.216 48.1519 595.025 48.0903C594.143 47.8032 593.066 47.6597 591.795 47.6597C591.378 47.6597 590.896 47.687 590.349 47.7417C589.809 47.7964 589.208 47.8784 588.544 47.9878C588.558 49.3003 588.558 50.4282 588.544 51.3716C589.583 51.1187 590.445 50.9922 591.128 50.9922C592.4 50.9922 593.507 51.0503 594.451 51.1665C595.333 51.2759 595.773 51.7407 595.773 52.561C595.773 52.9575 595.633 53.2891 595.353 53.5557C595.073 53.8223 594.731 53.9556 594.328 53.9556C593.972 53.9556 593.439 53.9282 592.728 53.8735C592.017 53.8188 591.484 53.7915 591.128 53.7915C590.629 53.7915 589.768 53.9487 588.544 54.2632V60.6924C588.544 61.0889 588.387 61.4204 588.073 61.687C587.765 61.9536 587.41 62.0869 587.006 62.0869C586.61 62.0869 586.289 61.9536 586.042 61.687C585.796 61.4272 585.673 61.0957 585.673 60.6924V48.9414C585.673 48.6748 585.677 48.2715 585.684 47.7314C585.697 47.1914 585.704 46.7881 585.704 46.5215C585.704 46.1182 585.837 45.7832 586.104 45.5166C586.377 45.25 586.719 45.1167 587.129 45.1167C587.389 45.1167 587.618 45.168 587.816 45.2705C588.609 45.1338 589.337 45.0347 590 44.9731C590.664 44.9048 591.262 44.8706 591.795 44.8706C592.574 44.8706 593.555 45.0312 594.738 45.3525C596.221 45.7559 596.963 46.2241 596.963 46.7573C596.963 47.147 596.823 47.4819 596.542 47.7622C596.269 48.0425 595.938 48.1826 595.548 48.1826ZM605.535 61.6255C603.512 61.6255 601.789 61.0444 600.367 59.8823C598.85 58.6382 598.091 57.0283 598.091 55.0527C598.091 52.7285 598.819 50.6094 600.275 48.6953C601.909 46.542 603.966 45.4653 606.448 45.4653C608.833 45.4653 610.621 46.0122 611.811 47.106C613 48.1997 613.595 49.8438 613.595 52.0381C613.595 54.3623 612.925 56.4678 611.585 58.3545C610.04 60.5352 608.023 61.6255 605.535 61.6255ZM606.448 48.2441C604.923 48.2441 603.618 48.9824 602.531 50.459C601.512 51.8398 601.003 53.3711 601.003 55.0527C601.003 56.1875 601.444 57.1104 602.326 57.8213C603.173 58.5049 604.243 58.8467 605.535 58.8467C607.039 58.8467 608.293 58.1084 609.298 56.6318C610.221 55.2852 610.683 53.7539 610.683 52.0381C610.683 50.6025 610.361 49.6045 609.719 49.0439C609.104 48.5107 608.013 48.2441 606.448 48.2441ZM625.797 61.123C625.428 61.123 625.089 60.9795 624.782 60.6924C622.71 58.751 620.434 57.4043 617.953 56.6523C618.028 58.6416 618.065 59.7456 618.065 59.9644C618.065 60.354 617.929 60.6855 617.655 60.959C617.382 61.2256 617.04 61.3589 616.63 61.3589C616.22 61.3589 615.878 61.2256 615.604 60.959C615.331 60.6855 615.194 60.354 615.194 59.9644C615.194 59.4517 615.201 58.686 615.215 57.6675C615.229 56.6421 615.235 55.873 615.235 55.3604L615.256 47.0854C615.256 46.6411 615.389 46.2378 615.656 45.8755C616.004 45.4106 616.486 45.2021 617.102 45.25C618.763 45.373 619.614 45.438 619.655 45.4448C620.612 45.561 621.425 45.79 622.095 46.1318C625.014 47.6016 626.474 49.4233 626.474 51.5972C626.474 52.4927 626.166 53.2856 625.551 53.9761C624.942 54.6597 624.026 55.2373 622.803 55.709C624.614 56.7207 625.978 57.7529 626.894 58.8057C627.133 59.0791 627.253 59.3833 627.253 59.7183C627.253 60.1011 627.109 60.4326 626.822 60.7129C626.535 60.9863 626.193 61.123 625.797 61.123ZM619.224 48.2236C619.169 48.2168 618.77 48.1895 618.024 48.1416V53.5864C618.195 53.5933 618.346 53.5967 618.476 53.5967C620.15 53.5967 621.391 53.3882 622.198 52.9712C622.546 52.7935 622.864 52.5576 623.151 52.2637C623.445 51.9697 623.592 51.7476 623.592 51.5972C623.592 50.8315 623.107 50.0933 622.136 49.3823C621.213 48.7124 620.243 48.3262 619.224 48.2236ZM647.638 48.1826C647.48 48.1826 647.306 48.1519 647.115 48.0903C646.233 47.8032 645.156 47.6597 643.885 47.6597C643.468 47.6597 642.986 47.687 642.439 47.7417C641.899 47.7964 641.297 47.8784 640.634 47.9878C640.648 49.3003 640.648 50.4282 640.634 51.3716C641.673 51.1187 642.535 50.9922 643.218 50.9922C644.49 50.9922 645.597 51.0503 646.541 51.1665C647.422 51.2759 647.863 51.7407 647.863 52.561C647.863 52.9575 647.723 53.2891 647.443 53.5557C647.163 53.8223 646.821 53.9556 646.417 53.9556C646.062 53.9556 645.529 53.9282 644.818 53.8735C644.107 53.8188 643.574 53.7915 643.218 53.7915C642.719 53.7915 641.858 53.9487 640.634 54.2632V60.6924C640.634 61.0889 640.477 61.4204 640.163 61.687C639.855 61.9536 639.5 62.0869 639.096 62.0869C638.7 62.0869 638.378 61.9536 638.132 61.687C637.886 61.4272 637.763 61.0957 637.763 60.6924V48.9414C637.763 48.6748 637.767 48.2715 637.773 47.7314C637.787 47.1914 637.794 46.7881 637.794 46.5215C637.794 46.1182 637.927 45.7832 638.194 45.5166C638.467 45.25 638.809 45.1167 639.219 45.1167C639.479 45.1167 639.708 45.168 639.906 45.2705C640.699 45.1338 641.427 45.0347 642.09 44.9731C642.753 44.9048 643.352 44.8706 643.885 44.8706C644.664 44.8706 645.645 45.0312 646.828 45.3525C648.311 45.7559 649.053 46.2241 649.053 46.7573C649.053 47.147 648.913 47.4819 648.632 47.7622C648.359 48.0425 648.027 48.1826 647.638 48.1826ZM661.111 61.123C660.742 61.123 660.404 60.9795 660.096 60.6924C658.025 58.751 655.749 57.4043 653.267 56.6523C653.342 58.6416 653.38 59.7456 653.38 59.9644C653.38 60.354 653.243 60.6855 652.97 60.959C652.696 61.2256 652.354 61.3589 651.944 61.3589C651.534 61.3589 651.192 61.2256 650.919 60.959C650.646 60.6855 650.509 60.354 650.509 59.9644C650.509 59.4517 650.516 58.686 650.529 57.6675C650.543 56.6421 650.55 55.873 650.55 55.3604L650.57 47.0854C650.57 46.6411 650.704 46.2378 650.97 45.8755C651.319 45.4106 651.801 45.2021 652.416 45.25C654.077 45.373 654.928 45.438 654.969 45.4448C655.926 45.561 656.74 45.79 657.41 46.1318C660.329 47.6016 661.788 49.4233 661.788 51.5972C661.788 52.4927 661.48 53.2856 660.865 53.9761C660.257 54.6597 659.341 55.2373 658.117 55.709C659.929 56.7207 661.292 57.7529 662.208 58.8057C662.448 59.0791 662.567 59.3833 662.567 59.7183C662.567 60.1011 662.424 60.4326 662.137 60.7129C661.85 60.9863 661.508 61.123 661.111 61.123ZM654.539 48.2236C654.484 48.2168 654.084 48.1895 653.339 48.1416V53.5864C653.51 53.5933 653.66 53.5967 653.79 53.5967C655.465 53.5967 656.706 53.3882 657.512 52.9712C657.861 52.7935 658.179 52.5576 658.466 52.2637C658.76 51.9697 658.907 51.7476 658.907 51.5972C658.907 50.8315 658.421 50.0933 657.451 49.3823C656.528 48.7124 655.557 48.3262 654.539 48.2236ZM674.39 47.8545C674.253 47.8545 674.11 47.834 673.959 47.793C672.852 47.4922 671.775 47.3418 670.729 47.3418C670.217 47.3418 669.667 47.3828 669.079 47.4648C668.491 47.5469 667.865 47.6699 667.202 47.834C667.202 48.7432 667.171 50.0933 667.11 51.8843C667.493 51.8569 668.829 51.7305 671.119 51.5049C672.425 51.375 673.252 51.3101 673.601 51.3101C674.004 51.3101 674.349 51.4399 674.636 51.6997C674.923 51.9526 675.067 52.291 675.067 52.7148C675.067 53.5283 674.633 53.9897 673.765 54.0991C673.218 54.1401 672.401 54.2085 671.314 54.3042C670.343 54.4136 668.88 54.5469 666.925 54.7041C666.877 55.5723 666.854 56.2729 666.854 56.8062C666.854 58.146 666.932 58.9082 667.089 59.0928C667.165 59.1816 667.595 59.2261 668.381 59.2261C668.805 59.2261 669.444 59.2158 670.299 59.1953C671.153 59.1748 671.792 59.1646 672.216 59.1646C672.353 59.1646 672.555 59.144 672.821 59.103C673.088 59.062 673.286 59.0415 673.416 59.0415C673.812 59.0415 674.151 59.1543 674.431 59.3799C674.752 59.6328 674.913 59.9883 674.913 60.4463C674.913 61.2119 674.513 61.6699 673.713 61.8203C673.03 61.9502 671.611 62.0151 669.458 62.0151C667.229 62.0151 665.777 61.7144 665.1 61.1128C664.355 60.4497 663.982 59.0142 663.982 56.8062C663.982 55.8901 664.047 54.5161 664.177 52.6841C664.314 50.8452 664.382 49.4712 664.382 48.562C664.382 48.3228 664.348 47.9707 664.28 47.5059C664.211 47.0342 664.177 46.6787 664.177 46.4395C664.177 45.4004 664.656 44.8809 665.613 44.8809C665.914 44.8809 666.19 44.9663 666.443 45.1372C667.236 44.939 667.988 44.792 668.699 44.6963C669.417 44.5938 670.094 44.5425 670.729 44.5425C672.452 44.5425 673.83 44.7407 674.862 45.1372C675.491 45.3765 675.805 45.8105 675.805 46.4395C675.805 46.7949 675.682 47.1094 675.436 47.3828C675.163 47.6973 674.814 47.8545 674.39 47.8545ZM687.515 47.8545C687.378 47.8545 687.235 47.834 687.084 47.793C685.977 47.4922 684.9 47.3418 683.854 47.3418C683.342 47.3418 682.792 47.3828 682.204 47.4648C681.616 47.5469 680.99 47.6699 680.327 47.834C680.327 48.7432 680.296 50.0933 680.235 51.8843C680.618 51.8569 681.954 51.7305 684.244 51.5049C685.55 51.375 686.377 51.3101 686.726 51.3101C687.129 51.3101 687.474 51.4399 687.761 51.6997C688.048 51.9526 688.192 52.291 688.192 52.7148C688.192 53.5283 687.758 53.9897 686.89 54.0991C686.343 54.1401 685.526 54.2085 684.439 54.3042C683.468 54.4136 682.005 54.5469 680.05 54.7041C680.002 55.5723 679.979 56.2729 679.979 56.8062C679.979 58.146 680.057 58.9082 680.214 59.0928C680.29 59.1816 680.72 59.2261 681.506 59.2261C681.93 59.2261 682.569 59.2158 683.424 59.1953C684.278 59.1748 684.917 59.1646 685.341 59.1646C685.478 59.1646 685.68 59.144 685.946 59.103C686.213 59.062 686.411 59.0415 686.541 59.0415C686.938 59.0415 687.276 59.1543 687.556 59.3799C687.877 59.6328 688.038 59.9883 688.038 60.4463C688.038 61.2119 687.638 61.6699 686.838 61.8203C686.155 61.9502 684.736 62.0151 682.583 62.0151C680.354 62.0151 678.902 61.7144 678.225 61.1128C677.48 60.4497 677.107 59.0142 677.107 56.8062C677.107 55.8901 677.172 54.5161 677.302 52.6841C677.439 50.8452 677.507 49.4712 677.507 48.562C677.507 48.3228 677.473 47.9707 677.405 47.5059C677.336 47.0342 677.302 46.6787 677.302 46.4395C677.302 45.4004 677.781 44.8809 678.738 44.8809C679.039 44.8809 679.315 44.9663 679.568 45.1372C680.361 44.939 681.113 44.792 681.824 44.6963C682.542 44.5938 683.219 44.5425 683.854 44.5425C685.577 44.5425 686.955 44.7407 687.987 45.1372C688.616 45.3765 688.93 45.8105 688.93 46.4395C688.93 46.7949 688.807 47.1094 688.561 47.3828C688.288 47.6973 687.939 47.8545 687.515 47.8545ZM694.703 62.2715C694.368 62.9414 694.102 63.4678 693.903 63.8506C693.671 64.3018 693.298 64.5273 692.786 64.5273C692.423 64.5273 692.116 64.4111 691.863 64.1787C691.61 63.9531 691.483 63.6899 691.483 63.3892C691.483 63.2114 691.702 62.6816 692.14 61.7998C692.529 61.0205 692.823 60.4702 693.021 60.1489C693.274 59.7456 693.63 59.5439 694.088 59.5439C694.45 59.5439 694.758 59.6602 695.011 59.8926C695.264 60.125 695.39 60.3916 695.39 60.6924C695.39 60.8291 695.161 61.3555 694.703 62.2715ZM718.8 50.0796C718.185 50.0796 717.73 49.7549 717.436 49.1055C717.299 48.7979 717.163 48.6133 717.026 48.5518C716.923 48.5039 716.653 48.48 716.216 48.48C715.354 48.48 714.36 49.1499 713.232 50.4897C711.653 52.3628 710.863 54.1162 710.863 55.75C710.863 56.4951 711.113 57.1343 711.612 57.6675C712.111 58.2007 712.709 58.4673 713.406 58.4673C714.083 58.4673 714.77 58.2896 715.467 57.9341C715.713 57.8042 716.233 57.4692 717.026 56.9292C717.559 56.5737 717.962 56.396 718.236 56.396C718.646 56.396 718.995 56.5464 719.282 56.8472C719.548 57.1274 719.682 57.4487 719.682 57.811C719.682 58.2144 719.504 58.5664 719.148 58.8672C717.269 60.4531 715.354 61.2461 713.406 61.2461C711.868 61.2461 710.569 60.6855 709.51 59.5645C708.498 58.4844 707.992 57.2129 707.992 55.75C707.992 53.46 708.994 51.1221 710.997 48.7363C712.699 46.7129 714.438 45.7012 716.216 45.7012C716.517 45.7012 716.787 45.7114 717.026 45.7319C717.272 45.7524 717.487 45.7832 717.672 45.8242C717.973 45.5303 718.335 45.3833 718.759 45.3833C719.456 45.3833 719.887 45.7832 720.051 46.583C720.167 47.1572 720.225 47.8271 720.225 48.5928C720.225 48.9346 720.126 49.2456 719.928 49.5259C719.668 49.895 719.292 50.0796 718.8 50.0796ZM730.294 48.8799C729.939 48.8799 728.965 48.7842 727.372 48.5928C727.276 49.8506 727.229 51.522 727.229 53.6069L727.218 58.2109C728.127 58.1904 729.054 58.1802 729.997 58.1802C730.407 58.1802 730.746 58.3169 731.012 58.5903C731.286 58.8638 731.422 59.1919 731.422 59.5747C731.422 59.9575 731.286 60.2856 731.012 60.5591C730.746 60.8257 730.407 60.959 729.997 60.959C729.614 60.959 729.04 60.9692 728.274 60.9897C727.509 61.0034 726.935 61.0103 726.552 61.0103C726.101 61.0103 725.424 61.0684 724.521 61.1846C723.619 61.3076 722.942 61.3691 722.491 61.3691C722.081 61.3691 721.739 61.2358 721.466 60.9692C721.199 60.6958 721.066 60.3677 721.066 59.9849C721.066 59.6021 721.199 59.2739 721.466 59.0005C721.739 58.7271 722.081 58.5903 722.491 58.5903C722.956 58.5903 723.568 58.5391 724.327 58.4365C724.313 57.6299 724.306 56.085 724.306 53.8018C724.306 51.9424 724.375 50.1685 724.511 48.48L722.286 48.5415C721.876 48.5415 721.531 48.4082 721.25 48.1416C720.977 47.875 720.84 47.5435 720.84 47.147C720.84 46.7437 720.977 46.4155 721.25 46.1626C721.503 45.9302 721.814 45.7969 722.184 45.7627C722.785 45.708 723.831 45.6807 725.321 45.6807C726.661 45.6807 728.387 45.8242 730.5 46.1113C731.34 46.2275 731.761 46.6992 731.761 47.5264C731.761 47.9639 731.59 48.3091 731.248 48.562C730.968 48.7739 730.65 48.8799 730.294 48.8799ZM744.783 61.3076C744.243 61.2871 743.7 60.6514 743.153 59.4004C742.791 58.5938 742.479 57.6641 742.22 56.6113C741.714 56.6865 740.887 56.7617 739.738 56.8369C738.658 56.9121 737.831 57.001 737.257 57.1035C736.942 57.8555 736.396 58.9868 735.616 60.4976C735.315 60.9897 734.898 61.2358 734.365 61.2358C733.989 61.2358 733.651 61.1094 733.35 60.8564C733.049 60.5967 732.899 60.2686 732.899 59.8721C732.899 59.5234 733.398 58.3408 734.396 56.3242C734.3 56.1123 734.259 55.9141 734.273 55.7295C734.3 55.4014 734.632 55.145 735.268 54.9604C736.238 53.2788 737.318 51.5356 738.508 49.731C740.217 47.1401 741.27 45.8447 741.666 45.8447C742.418 45.8447 742.92 46.2993 743.173 47.2085C743.31 47.9399 743.525 49.0371 743.819 50.5C744.236 52.4688 744.746 54.7212 745.347 57.2573C745.395 57.4487 745.569 57.8999 745.87 58.6108C746.116 59.1987 746.239 59.6396 746.239 59.9336C746.239 60.3301 746.089 60.6616 745.788 60.9282C745.494 61.1948 745.159 61.3213 744.783 61.3076ZM740.958 50.7871C740.425 51.7031 739.69 52.9507 738.754 54.5298C739.062 54.4614 739.54 54.4067 740.189 54.3657C740.955 54.3179 741.437 54.2803 741.635 54.2529C741.471 53.3643 741.246 52.209 740.958 50.7871ZM759.159 59.2261C758.66 59.9028 758.059 60.4668 757.354 60.918C756.493 61.4648 755.608 61.7383 754.699 61.7383C752.956 61.7383 751.66 61.4033 750.812 60.7334C749.021 59.3184 748.126 56.8608 748.126 53.3608C748.126 53.0259 748.143 52.5269 748.177 51.8638C748.211 51.2007 748.229 50.7017 748.229 50.3667C748.229 50.1001 748.235 49.7036 748.249 49.1772C748.263 48.644 748.27 48.2441 748.27 47.9775C748.27 47.4307 748.369 46.9146 748.567 46.4292C748.833 45.7866 749.206 45.4653 749.685 45.4653C750.061 45.4653 750.392 45.5884 750.679 45.8345C750.994 46.0942 751.151 46.4292 751.151 46.8394C751.151 47.229 751.144 47.8203 751.13 48.6133C751.124 49.3994 751.12 49.9907 751.12 50.3872C751.12 50.7153 751.103 51.2109 751.069 51.874C751.035 52.5371 751.018 53.0327 751.018 53.3608C751.018 54.4204 751.141 55.4048 751.387 56.314C751.674 57.4009 752.094 58.1597 752.648 58.5903C752.935 58.8159 753.619 58.9355 754.699 58.9492C756.503 58.9766 757.72 57.4385 758.349 54.335C758.677 52.7285 758.841 50.4727 758.841 47.5674C758.841 47.1846 758.954 46.8154 759.18 46.46C759.487 45.9883 759.925 45.7524 760.492 45.7524C760.957 45.7524 761.306 45.9233 761.538 46.2651C761.716 46.5181 761.805 46.7983 761.805 47.106C761.805 49.8062 761.678 51.9116 761.425 53.4224C761.042 55.7534 760.287 57.688 759.159 59.2261ZM774.643 59.2261C774.144 59.9028 773.542 60.4668 772.838 60.918C771.977 61.4648 771.091 61.7383 770.182 61.7383C768.439 61.7383 767.144 61.4033 766.296 60.7334C764.505 59.3184 763.609 56.8608 763.609 53.3608C763.609 53.0259 763.626 52.5269 763.661 51.8638C763.695 51.2007 763.712 50.7017 763.712 50.3667C763.712 50.1001 763.719 49.7036 763.732 49.1772C763.746 48.644 763.753 48.2441 763.753 47.9775C763.753 47.4307 763.852 46.9146 764.05 46.4292C764.317 45.7866 764.689 45.4653 765.168 45.4653C765.544 45.4653 765.875 45.5884 766.163 45.8345C766.477 46.0942 766.634 46.4292 766.634 46.8394C766.634 47.229 766.627 47.8203 766.614 48.6133C766.607 49.3994 766.604 49.9907 766.604 50.3872C766.604 50.7153 766.586 51.2109 766.552 51.874C766.518 52.5371 766.501 53.0327 766.501 53.3608C766.501 54.4204 766.624 55.4048 766.87 56.314C767.157 57.4009 767.578 58.1597 768.131 58.5903C768.418 58.8159 769.102 58.9355 770.182 58.9492C771.987 58.9766 773.204 57.4385 773.833 54.335C774.161 52.7285 774.325 50.4727 774.325 47.5674C774.325 47.1846 774.438 46.8154 774.663 46.46C774.971 45.9883 775.408 45.7524 775.976 45.7524C776.44 45.7524 776.789 45.9233 777.021 46.2651C777.199 46.5181 777.288 46.7983 777.288 47.106C777.288 49.8062 777.162 51.9116 776.909 53.4224C776.526 55.7534 775.771 57.688 774.643 59.2261ZM790.126 59.2261C789.627 59.9028 789.025 60.4668 788.321 60.918C787.46 61.4648 786.575 61.7383 785.666 61.7383C783.922 61.7383 782.627 61.4033 781.779 60.7334C779.988 59.3184 779.093 56.8608 779.093 53.3608C779.093 53.0259 779.11 52.5269 779.144 51.8638C779.178 51.2007 779.195 50.7017 779.195 50.3667C779.195 50.1001 779.202 49.7036 779.216 49.1772C779.229 48.644 779.236 48.2441 779.236 47.9775C779.236 47.4307 779.335 46.9146 779.534 46.4292C779.8 45.7866 780.173 45.4653 780.651 45.4653C781.027 45.4653 781.359 45.5884 781.646 45.8345C781.96 46.0942 782.118 46.4292 782.118 46.8394C782.118 47.229 782.111 47.8203 782.097 48.6133C782.09 49.3994 782.087 49.9907 782.087 50.3872C782.087 50.7153 782.07 51.2109 782.036 51.874C782.001 52.5371 781.984 53.0327 781.984 53.3608C781.984 54.4204 782.107 55.4048 782.354 56.314C782.641 57.4009 783.061 58.1597 783.615 58.5903C783.902 58.8159 784.585 58.9355 785.666 58.9492C787.47 58.9766 788.687 57.4385 789.316 54.335C789.644 52.7285 789.808 50.4727 789.808 47.5674C789.808 47.1846 789.921 46.8154 790.146 46.46C790.454 45.9883 790.892 45.7524 791.459 45.7524C791.924 45.7524 792.272 45.9233 792.505 46.2651C792.683 46.5181 792.771 46.7983 792.771 47.106C792.771 49.8062 792.645 51.9116 792.392 53.4224C792.009 55.7534 791.254 57.688 790.126 59.2261ZM796.258 57.9546C795.875 57.9546 795.557 57.835 795.304 57.5957C795.058 57.3564 794.935 57.0557 794.935 56.6934C794.935 56.4268 794.925 56.0303 794.904 55.5039C794.891 54.9707 794.884 54.5708 794.884 54.3042C794.884 53.3608 794.891 51.9458 794.904 50.0591C794.925 48.1724 794.935 46.7573 794.935 45.814C794.935 45.4517 795.062 45.1509 795.314 44.9116C795.567 44.6655 795.882 44.5425 796.258 44.5425C796.634 44.5425 796.948 44.6655 797.201 44.9116C797.454 45.1509 797.581 45.4517 797.581 45.814V56.6934C797.581 57.0557 797.454 57.3564 797.201 57.5957C796.955 57.835 796.641 57.9546 796.258 57.9546ZM796.227 61.6768C795.817 61.6768 795.434 61.458 795.079 61.0205C794.757 60.6172 794.597 60.2412 794.597 59.8926C794.597 59.5371 794.737 59.2397 795.017 59.0005C795.297 58.7612 795.615 58.6416 795.971 58.6416C796.381 58.6416 796.76 58.8604 797.109 59.2979C797.43 59.7012 797.591 60.0737 797.591 60.4155C797.591 60.7642 797.451 61.0615 797.17 61.3076C796.897 61.5537 796.583 61.6768 796.227 61.6768Z" fill="black"/>
</svg>
