<svg width="282" height="219" viewBox="0 0 282 219" fill="none" xmlns="http://www.w3.org/2000/svg">
<path d="M278.651 104.424L172.16 42.934C169.022 41.1173 165.084 43.3914 165.084 47.0122V169.98C165.084 173.614 169.01 175.875 172.16 174.059L278.651 112.581C281.789 110.777 281.789 106.241 278.651 104.424ZM221.696 112.594L200.644 124.739C197.506 126.556 193.568 124.282 193.568 120.661V96.357C193.568 92.7235 197.493 90.4621 200.644 92.2788L221.696 104.437C224.834 106.241 224.834 110.777 221.696 112.594Z" fill="#F9F3DC"/>
<path d="M254.944 102.277L248.058 114.207C247.855 114.563 248.109 114.995 248.515 114.995H262.287C262.694 114.995 262.948 114.55 262.744 114.207L255.858 102.277C255.655 101.922 255.147 101.922 254.944 102.277ZM255.858 108.655L257.218 111.018C257.421 111.374 257.167 111.806 256.76 111.806H254.042C253.635 111.806 253.381 111.361 253.584 111.018L254.944 108.655C255.147 108.299 255.655 108.299 255.858 108.655Z" fill="#FFE67D"/>
<path d="M153.853 104.056L146.967 115.986C146.764 116.341 147.018 116.773 147.424 116.773H161.196C161.603 116.773 161.857 116.329 161.654 115.986L154.768 104.056C154.564 103.7 154.056 103.7 153.853 104.056ZM154.768 110.434L156.127 112.797C156.33 113.152 156.076 113.584 155.67 113.584H152.951C152.544 113.584 152.29 113.14 152.494 112.797L153.853 110.434C154.056 110.078 154.564 110.078 154.768 110.434Z" fill="#FFE67D"/>
<path d="M214.899 126.607L208.013 138.536C207.81 138.892 208.064 139.324 208.47 139.324H222.242C222.649 139.324 222.903 138.879 222.699 138.536L215.813 126.607C215.61 126.251 215.102 126.251 214.899 126.607ZM215.813 132.984L217.173 135.347C217.376 135.703 217.122 136.135 216.715 136.135H213.997C213.59 136.135 213.336 135.69 213.539 135.347L214.899 132.984C215.102 132.629 215.61 132.629 215.813 132.984Z" fill="#FFE67D"/>
<path d="M178.233 152.549L171.347 164.479C171.144 164.835 171.398 165.267 171.805 165.267H185.576C185.983 165.267 186.237 164.822 186.034 164.479L179.148 152.549C178.945 152.194 178.436 152.194 178.233 152.549ZM179.148 158.927L180.507 161.29C180.711 161.646 180.456 162.078 180.05 162.078H177.331C176.925 162.078 176.67 161.633 176.874 161.29L178.233 158.927C178.436 158.571 178.945 158.571 179.148 158.927Z" fill="#FFE67D"/>
<path d="M225.19 152.549L218.304 164.479C218.1 164.835 218.354 165.267 218.761 165.267H232.533C232.939 165.267 233.193 164.822 232.99 164.479L226.104 152.549C225.901 152.194 225.393 152.194 225.19 152.549ZM226.104 158.927L227.464 161.29C227.667 161.646 227.413 162.078 227.006 162.078H224.287C223.881 162.078 223.627 161.633 223.83 161.29L225.19 158.927C225.393 158.571 225.901 158.571 226.104 158.927Z" fill="#FFE67D"/>
<path d="M209.385 60.7966L202.499 72.7262C202.296 73.082 202.55 73.5139 202.956 73.5139H216.728C217.135 73.5139 217.389 73.0693 217.186 72.7262L210.3 60.7966C210.096 60.4409 209.588 60.4409 209.385 60.7966ZM210.3 67.1743L211.659 69.5374C211.862 69.8931 211.608 70.3251 211.202 70.3251H208.483C208.076 70.3251 207.822 69.8804 208.026 69.5374L209.385 67.1743C209.588 66.8186 210.096 66.8186 210.3 67.1743Z" fill="#FFE67D"/>
<path d="M177.28 80.7557L172.999 88.1752C172.885 88.3785 173.024 88.6453 173.266 88.6453H181.829C182.07 88.6453 182.222 88.3912 182.095 88.1752L177.814 80.7557C177.7 80.5525 177.395 80.5525 177.28 80.7557ZM177.814 84.6942L178.678 86.1933C178.792 86.3966 178.652 86.6634 178.411 86.6634H176.683C176.442 86.6634 176.289 86.4093 176.416 86.1933L177.28 84.6942C177.395 84.4909 177.7 84.4909 177.814 84.6942Z" fill="#FFE67D"/>
<path d="M221.365 93.6L217.084 101.019C216.97 101.223 217.109 101.49 217.351 101.49H225.914C226.155 101.49 226.307 101.235 226.18 101.019L221.899 93.6C221.785 93.3967 221.48 93.3967 221.365 93.6ZM221.899 97.5384L222.763 99.0375C222.877 99.2408 222.737 99.5076 222.496 99.5076H220.768C220.527 99.5076 220.374 99.2535 220.501 99.0375L221.365 97.5384C221.48 97.3351 221.785 97.3351 221.899 97.5384Z" fill="#FFE67D"/>
<path d="M240.27 60.479L235.988 67.8985C235.874 68.1018 236.014 68.3686 236.255 68.3686H244.818C245.06 68.3686 245.212 68.1145 245.085 67.8985L240.803 60.479C240.689 60.263 240.397 60.263 240.27 60.479ZM240.816 64.4174L241.68 65.9166C241.794 66.1199 241.655 66.3867 241.413 66.3867H239.685C239.444 66.3867 239.292 66.1326 239.419 65.9166L240.283 64.4174C240.397 64.2015 240.689 64.2015 240.816 64.4174Z" fill="#FFE67D"/>
<path d="M256.532 73.9969L252.25 81.4164C252.136 81.6197 252.276 81.8865 252.517 81.8865H261.08C261.321 81.8865 261.474 81.6324 261.347 81.4164L257.065 73.9969C256.951 73.7937 256.659 73.7937 256.532 73.9969ZM257.078 77.9354L257.942 79.4345C258.056 79.6378 257.917 79.9046 257.675 79.9046H255.947C255.706 79.9046 255.554 79.6505 255.681 79.4345L256.544 77.9354C256.659 77.7321 256.951 77.7321 257.078 77.9354Z" fill="#FFE67D"/>
<path d="M245.098 139.476L240.816 146.896C240.702 147.099 240.842 147.366 241.083 147.366H249.646C249.887 147.366 250.04 147.112 249.913 146.896L245.631 139.476C245.517 139.273 245.212 139.273 245.098 139.476ZM245.631 143.415L246.495 144.914C246.609 145.117 246.47 145.384 246.228 145.384H244.501C244.259 145.384 244.107 145.13 244.234 144.914L245.098 143.415C245.212 143.212 245.517 143.212 245.631 143.415Z" fill="#FFE67D"/>
<path d="M163.953 53.86L159.672 61.2795C159.557 61.4828 159.697 61.7496 159.938 61.7496H168.501C168.743 61.7496 168.895 61.4955 168.768 61.2795L164.487 53.86C164.372 53.644 164.08 53.644 163.953 53.86ZM164.499 57.7984L165.363 59.2976C165.478 59.5008 165.338 59.7676 165.097 59.7676H163.369C163.127 59.7676 162.975 59.5135 163.102 59.2976L163.966 57.7984C164.08 57.5951 164.372 57.5951 164.499 57.7984Z" fill="#FFE67D"/>
<path d="M185.513 115.465L181.231 122.884C181.117 123.087 181.257 123.354 181.498 123.354H190.061C190.303 123.354 190.455 123.1 190.328 122.884L186.047 115.465C185.932 115.249 185.64 115.249 185.513 115.465ZM186.059 119.403L186.923 120.902C187.037 121.106 186.898 121.372 186.656 121.372H184.928C184.687 121.372 184.535 121.118 184.662 120.902L185.526 119.403C185.64 119.2 185.932 119.2 186.059 119.403Z" fill="#FFE67D"/>
<path d="M223.614 110.154C223.614 110.154 243.141 99.3808 239.304 76.1567C239.304 76.1567 240.27 76.4616 240.537 76.9698C240.537 76.9698 239.076 73.2092 238.809 72.7265C238.809 72.7265 239.52 72.6248 240.041 73.1076C240.041 73.1076 239.749 70.9224 238.186 69.8171C238.186 69.8171 239.444 69.4614 240.105 69.6646C240.105 69.6646 242.036 63.4394 241.96 62.8804C241.96 62.8804 245.504 68.4069 245.873 69.1183C245.873 69.1183 246.419 68.7372 247.054 68.5975C247.054 68.5975 246.889 70.6302 246.355 71.9388C246.355 71.9388 247.372 71.7863 247.473 71.4814C247.473 71.4814 247.956 75.7883 246.635 80.2984C246.635 80.2984 247.346 80.6033 247.537 80.2857C247.537 80.2857 247.372 81.8865 245.86 84.3004C245.86 84.3004 238.631 110.904 222.077 115.147L223.614 110.154Z" fill="#FFEA94"/>
<path d="M222.051 115.516C221.95 115.516 221.848 115.477 221.785 115.401C221.696 115.3 221.658 115.16 221.696 115.033L223.246 110.04C223.271 109.951 223.335 109.875 223.423 109.824C223.474 109.799 228.315 107.092 232.609 101.604C236.573 96.5603 240.88 88.0609 238.923 76.2075C238.898 76.0804 238.949 75.9534 239.05 75.8645C239.152 75.7755 239.279 75.7501 239.406 75.7882C239.444 75.8009 239.558 75.8391 239.723 75.9026C239.203 74.5686 238.618 73.1457 238.478 72.8789C238.415 72.7772 238.415 72.6375 238.466 72.5359C238.517 72.4215 238.631 72.3453 238.745 72.3326C238.771 72.3326 239.088 72.2945 239.482 72.3834C239.266 71.6973 238.821 70.7064 237.958 70.0966C237.843 70.0076 237.78 69.8679 237.805 69.7281C237.83 69.5884 237.932 69.474 238.072 69.4359C238.186 69.3978 239.101 69.1564 239.825 69.2199C240.587 66.7552 241.578 63.3377 241.566 62.9057C241.54 62.7279 241.642 62.5754 241.807 62.5119C241.972 62.4484 242.163 62.5246 242.252 62.6644C242.379 62.8676 245.161 67.1999 245.987 68.5847C246.228 68.4577 246.571 68.3052 246.952 68.2163C247.067 68.1909 247.194 68.2163 247.283 68.3052C247.372 68.3814 247.423 68.4958 247.41 68.6101C247.41 68.6864 247.283 70.1347 246.914 71.4051C247.016 71.367 247.079 71.3416 247.118 71.3035C247.181 71.1638 247.334 71.0748 247.486 71.0875C247.664 71.1002 247.804 71.24 247.816 71.4178C247.842 71.5957 248.274 75.6358 247.067 80.0316C247.13 80.0443 247.181 80.0443 247.207 80.0443C247.295 79.9172 247.461 79.8664 247.613 79.9172C247.778 79.9681 247.893 80.1332 247.867 80.3111C247.854 80.3746 247.677 82.0135 246.165 84.4401C245.987 85.088 244.132 91.5039 240.46 98.3008C236.89 104.92 230.805 113.28 222.128 115.503C222.115 115.516 222.089 115.516 222.051 115.516ZM223.919 110.408L222.61 114.614C238.313 109.951 245.402 84.4655 245.479 84.2114C245.491 84.1733 245.504 84.1479 245.517 84.1098C246.444 82.6233 246.851 81.4545 247.016 80.8066C246.825 80.7812 246.635 80.7303 246.457 80.6541C246.279 80.5779 246.19 80.3873 246.241 80.2094C247.232 76.8046 247.181 73.4887 247.105 72.1547C246.863 72.2436 246.609 72.2945 246.368 72.3326C246.241 72.358 246.101 72.2945 246.025 72.1928C245.949 72.0912 245.923 71.9514 245.974 71.8244C246.317 70.9859 246.495 69.8425 246.584 69.1564C246.279 69.2962 246.05 69.4486 246.05 69.4486C245.961 69.5122 245.847 69.5249 245.745 69.4994C245.644 69.474 245.555 69.4105 245.504 69.3089C245.25 68.8261 243.395 65.904 242.125 63.8967C241.756 65.4848 240.867 68.3687 240.422 69.7917C240.359 69.9822 240.155 70.0966 239.952 70.033C239.723 69.9568 239.33 69.9822 238.961 70.033C240.13 71.2654 240.371 72.9805 240.384 73.0694C240.41 73.2219 240.321 73.3744 240.194 73.4506C240.054 73.5268 239.889 73.5014 239.774 73.3998C239.66 73.2981 239.52 73.2219 239.393 73.1838C239.876 74.3272 240.74 76.5505 240.867 76.8554C240.943 77.0333 240.854 77.2493 240.676 77.3255C240.498 77.4017 240.282 77.3382 240.194 77.1603C240.13 77.0333 239.952 76.9062 239.762 76.7919C241.502 88.5691 237.17 97.0431 233.181 102.112C229.191 107.169 224.745 109.926 223.919 110.408Z" fill="black"/>
<path d="M225.05 108.769C225.05 108.769 217.325 102.582 207.593 107.448C207.593 107.448 197.011 110.307 192.145 104.018C192.145 104.018 194.622 101.579 195.473 95.5565C195.473 95.5565 195.13 89.7124 194.444 85.0752C194.444 85.0752 190.658 70.9731 196.159 68.2289C196.159 68.2289 196.845 63.2487 194.787 58.0906L181.892 24.9188L189.108 20.4468L206.984 56.3755L212.663 58.9545C212.663 58.9545 221.772 52.2465 222.979 24.7409L232.774 28.5269L228.823 49.5023C228.823 49.5023 226.422 61.7114 223.322 67.2125C223.322 67.2125 219.371 75.8135 219.371 79.5868L220.057 93.5111L225.05 108.769Z" fill="#FF86A3"/>
<path d="M225.05 109.138C224.973 109.138 224.885 109.112 224.821 109.062C224.745 108.998 217.16 103.078 207.771 107.778C207.746 107.791 207.721 107.804 207.708 107.804C207.263 107.918 196.82 110.662 191.865 104.234C191.751 104.081 191.764 103.878 191.903 103.738C191.929 103.713 194.292 101.299 195.13 95.5312C195.105 95.023 194.749 89.5092 194.114 85.1388C193.898 84.313 190.455 70.9985 195.854 67.9748C195.943 67.0347 196.261 62.6516 194.482 58.205L181.562 25.0332C181.498 24.868 181.562 24.6775 181.714 24.5758L188.93 20.1038C189.019 20.053 189.134 20.0403 189.223 20.0657C189.324 20.0911 189.413 20.1673 189.451 20.2563L207.276 56.0706L212.612 58.4972C213.832 57.4173 221.518 49.6293 222.61 24.7029C222.61 24.5885 222.674 24.4742 222.776 24.4107C222.877 24.3471 223.004 24.3344 223.119 24.3726L232.914 28.1585C233.079 28.2221 233.181 28.3999 233.143 28.5778L229.204 49.5531C229.102 50.0613 226.752 61.8893 223.665 67.3777C223.639 67.4412 219.765 75.9152 219.765 79.5742L220.451 93.4349L225.418 108.668C225.469 108.82 225.405 108.998 225.278 109.087C225.202 109.112 225.126 109.138 225.05 109.138ZM215.191 105.212C219.498 105.212 222.839 106.902 224.364 107.842L219.714 93.6001C219.701 93.5746 219.701 93.5365 219.701 93.4984L219.015 79.5742C219.015 75.7374 222.839 67.3777 223.004 67.022C226.053 61.6098 228.455 49.515 228.48 49.4007L232.38 28.7302L223.347 25.2492C222.064 52.183 213.285 58.9545 212.904 59.2213C212.79 59.2976 212.65 59.3103 212.536 59.2594L206.857 56.6804C206.78 56.6423 206.717 56.5788 206.679 56.5025L188.981 20.9423L182.375 25.0332L195.143 57.9382C197.214 63.1217 196.566 68.0638 196.54 68.267C196.528 68.3941 196.452 68.4957 196.337 68.5465C191.166 71.1256 194.775 84.8212 194.813 84.9609C194.813 84.9736 194.825 84.9863 194.825 84.999C195.511 89.5981 195.854 95.4549 195.854 95.5185C195.854 95.5439 195.854 95.5693 195.854 95.5947C195.13 100.664 193.288 103.243 192.64 104.005C197.239 109.557 206.819 107.245 207.466 107.08C210.236 105.72 212.853 105.212 215.191 105.212Z" fill="black"/>
<path d="M206.412 66.6153C210.071 65.3194 211.951 60.606 211.951 60.606V53.6057L205.154 59.1703L205.243 60.7203L202.88 62.7276C201 68.5082 206.412 66.6153 206.412 66.6153Z" fill="#FFEA94"/>
<path d="M204.659 67.2887C203.985 67.2887 203.261 67.1363 202.753 66.6408C201.978 65.8785 201.902 64.5318 202.524 62.6261C202.55 62.5626 202.588 62.4991 202.639 62.461L204.862 60.568L204.786 59.1959C204.773 59.0815 204.824 58.9672 204.926 58.891L211.722 53.3263C211.837 53.2374 211.989 53.212 212.116 53.2755C212.243 53.339 212.332 53.4661 212.332 53.6058V60.6061C212.332 60.6569 212.32 60.695 212.307 60.7458C212.231 60.9491 210.312 65.6244 206.539 66.9584C206.476 66.9838 205.612 67.2887 204.659 67.2887ZM203.198 62.9564C202.715 64.4937 202.74 65.5863 203.274 66.1072C204.024 66.8441 205.701 66.4756 206.285 66.2724C209.512 65.1289 211.341 61.1016 211.583 60.5426V54.4062L205.535 59.3483L205.612 60.7077C205.624 60.8221 205.573 60.9364 205.485 61.0126L203.198 62.9564Z" fill="black"/>
<path d="M230.957 27.8026L232.113 16.0508C232.215 12.2394 233.829 10.9055 233.829 10.9055C240.892 5.56951 237.068 0.411436 237.068 0.411436C236.395 -0.0713395 231.821 4.60396 231.821 4.60396V1.74542C229.433 3.56218 229.534 5.55681 229.534 5.55681C229.916 6.99243 229.534 9.74934 229.534 9.74934L224.783 25.4268L230.957 27.8026Z" fill="#FFEA94"/>
<path d="M230.957 28.1711C230.906 28.1711 230.868 28.1584 230.818 28.1457L224.656 25.77C224.478 25.6937 224.376 25.5032 224.44 25.3126L229.179 9.67321C229.217 9.381 229.522 6.9163 229.179 5.64584C229.166 5.62043 229.166 5.59502 229.166 5.56961C229.166 5.48068 229.09 3.3463 231.605 1.44061C231.72 1.35168 231.872 1.33897 231.999 1.4025C232.126 1.46602 232.202 1.59307 232.202 1.73282V3.68933C236.433 -0.515902 237.068 -0.0585356 237.297 0.09392C237.322 0.119329 237.36 0.144738 237.386 0.170148C237.424 0.220966 241.337 5.68396 234.07 11.1851C234.07 11.1851 232.583 12.4809 232.495 16.0509L231.338 27.8408C231.326 27.9552 231.262 28.0568 231.161 28.1203C231.097 28.1584 231.034 28.1711 230.957 28.1711ZM225.253 25.1983L230.64 27.2818L231.745 16.0128C231.847 12.0998 233.524 10.6769 233.6 10.6134C239.736 5.96346 237.399 1.59307 236.865 0.767265C236.204 0.970539 233.93 2.99057 232.101 4.87086C231.999 4.9725 231.834 5.01061 231.694 4.95979C231.554 4.90897 231.465 4.76922 231.465 4.61677V2.54591C230.004 3.93072 229.916 5.27741 229.916 5.50609C230.297 7.00524 229.928 9.68591 229.916 9.80025C229.916 9.82566 229.903 9.83837 229.903 9.85107L225.253 25.1983Z" fill="black"/>
<path d="M180.342 127.839C180.495 138.841 194.8 142.462 194.8 142.462C198.243 154.785 211.113 182.812 216.436 194.182C219.434 193.865 222.344 188.186 222.496 187.868C219.663 176.256 213.628 160.401 213.628 160.401C212.726 145.638 213.628 132.374 213.628 132.374C232.914 129.503 225.037 108.782 225.037 108.782C225.037 108.782 217.313 102.595 207.581 107.461C207.581 107.461 207.073 107.6 206.234 107.753C204.189 108.096 200.161 108.528 196.591 107.219H196.553C195.473 109.468 194.025 115.96 194.025 115.96C183.506 118.349 180.342 127.839 180.342 127.839Z" fill="#41D8BB"/>
<path d="M216.449 194.551C216.309 194.551 216.169 194.475 216.106 194.335C210.77 182.926 198.014 155.141 194.508 142.767C192.716 142.259 180.113 138.269 179.974 127.852C179.974 127.813 179.974 127.763 179.986 127.725C180.024 127.623 183.29 118.145 193.733 115.63C194 114.436 195.257 109.087 196.236 107.041C196.299 106.914 196.426 106.825 196.566 106.825C196.604 106.825 196.693 106.838 196.731 106.851C200.161 108.121 204.125 107.727 206.183 107.372C206.869 107.245 207.339 107.13 207.466 107.092C217.274 102.214 225.202 108.414 225.278 108.477C225.329 108.515 225.367 108.579 225.393 108.63C225.545 109.049 229.204 118.882 225.024 126.022C222.928 129.605 219.218 131.841 213.984 132.679C213.857 134.725 213.196 146.959 213.997 160.299C214.378 161.328 220.12 176.587 222.852 187.767C222.877 187.856 222.864 187.944 222.826 188.021C222.801 188.084 219.803 194.195 216.474 194.551C216.474 194.551 216.461 194.551 216.449 194.551ZM180.723 127.902C180.927 138.435 194.762 142.068 194.902 142.093C195.029 142.132 195.13 142.221 195.168 142.36C198.561 154.493 211.24 182.151 216.665 193.763C218.951 193.255 221.34 189.355 222.115 187.817C219.307 176.371 213.361 160.68 213.298 160.515C213.285 160.477 213.272 160.439 213.272 160.401C212.383 145.778 213.26 132.463 213.272 132.324C213.285 132.146 213.412 132.006 213.59 131.981C218.735 131.218 222.369 129.084 224.389 125.641C228.175 119.174 225.113 110.04 224.745 108.985C223.906 108.363 216.639 103.332 207.771 107.766C207.746 107.778 207.721 107.791 207.695 107.791C207.67 107.791 207.162 107.931 206.323 108.096C204.252 108.452 200.314 108.845 196.782 107.639C195.753 110.052 194.432 115.947 194.406 115.998C194.381 116.138 194.266 116.252 194.127 116.278C184.344 118.539 181.003 127.115 180.723 127.902Z" fill="black"/>
<path d="M216.449 194.17C217.884 197.257 218.774 199.112 218.774 199.112C222.992 199.557 223.741 193.979 223.741 193.979C223.5 192.188 223.068 190.104 222.509 187.856C222.344 188.186 219.447 193.865 216.449 194.17Z" fill="#FFEA94"/>
<path d="M219.256 199.506C219.091 199.506 218.913 199.493 218.735 199.48C218.608 199.468 218.494 199.391 218.443 199.277C218.431 199.264 217.541 197.384 216.118 194.335C216.068 194.221 216.068 194.094 216.131 193.992C216.195 193.89 216.296 193.814 216.411 193.801C218.837 193.547 221.454 189.19 222.178 187.69C222.242 187.551 222.394 187.475 222.547 187.487C222.699 187.5 222.826 187.614 222.864 187.767C223.449 190.092 223.868 192.163 224.11 193.928C224.11 193.967 224.11 193.992 224.11 194.03C224.11 194.094 223.322 199.506 219.256 199.506ZM219.015 198.756C219.091 198.756 219.167 198.769 219.244 198.769C222.534 198.769 223.284 194.526 223.373 193.992C223.169 192.506 222.826 190.79 222.382 188.897C221.48 190.498 219.358 193.814 216.995 194.462C218.037 196.698 218.774 198.235 219.015 198.756Z" fill="black"/>
<path d="M180.342 127.839C180.495 138.841 194.8 142.462 194.8 142.462C194.8 142.462 203.198 144.075 213.234 145.448C218.215 146.134 223.601 146.769 228.556 147.125C228.556 147.125 230.665 144.723 230.665 141.547C230.665 141.547 222.191 137.38 213.577 133.404V133.391C213.628 132.717 213.641 132.362 213.641 132.362C232.927 129.491 225.05 108.769 225.05 108.769C225.05 108.769 217.325 102.582 207.593 107.448C207.593 107.448 207.085 107.588 206.247 107.74C204.201 108.083 200.174 108.515 196.604 107.207H196.566C195.486 109.455 194.038 115.947 194.038 115.947C183.506 118.349 180.342 127.839 180.342 127.839Z" fill="#41D8BB"/>
<path d="M228.569 147.493C228.556 147.493 228.556 147.493 228.543 147.493C224.198 147.188 219.167 146.642 213.196 145.816C203.274 144.444 194.825 142.843 194.749 142.818C194.584 142.78 180.139 138.994 179.986 127.839C179.986 127.801 179.986 127.75 179.999 127.712C180.037 127.61 183.302 118.133 193.745 115.617C194.012 114.423 195.27 109.074 196.248 107.029C196.312 106.902 196.439 106.813 196.579 106.813C196.617 106.813 196.706 106.825 196.744 106.838C200.174 108.109 204.138 107.715 206.196 107.359C206.882 107.232 207.352 107.118 207.479 107.08C217.287 102.201 225.215 108.401 225.291 108.464C225.342 108.502 225.38 108.566 225.405 108.617C225.558 109.036 229.217 118.869 225.037 126.009C222.941 129.592 219.231 131.828 213.997 132.667C213.984 132.794 213.984 132.959 213.959 133.162C222.407 137.062 230.741 141.166 230.83 141.204C230.957 141.268 231.034 141.395 231.034 141.535C231.034 144.812 228.925 147.252 228.836 147.353C228.772 147.455 228.67 147.493 228.569 147.493ZM180.723 127.902C180.926 138.435 194.762 142.068 194.902 142.094C194.965 142.106 203.388 143.707 213.298 145.079C219.167 145.892 224.122 146.426 228.404 146.743C228.81 146.21 230.22 144.241 230.297 141.776C228.937 141.103 221.2 137.317 213.425 133.747C213.298 133.683 213.209 133.556 213.209 133.404C213.26 132.692 213.272 132.336 213.272 132.336C213.285 132.158 213.412 132.019 213.59 131.993C218.735 131.231 222.369 129.097 224.389 125.641C228.175 119.174 225.113 110.04 224.745 108.998C223.906 108.375 216.639 103.344 207.771 107.778C207.746 107.791 207.721 107.804 207.695 107.804C207.67 107.804 207.162 107.943 206.323 108.109C204.252 108.464 200.314 108.858 196.782 107.651C195.753 110.065 194.431 115.96 194.406 116.011C194.381 116.151 194.266 116.265 194.127 116.29C184.344 118.539 181.003 127.115 180.723 127.902Z" fill="black"/>
<path d="M222.521 146.578C224.567 146.794 226.6 146.985 228.569 147.112C228.569 147.112 230.678 144.711 230.678 141.534C230.678 141.534 228.429 140.429 225.075 138.816C225.075 138.828 225.482 144.05 222.521 146.578Z" fill="#FFEA94"/>
<path d="M228.569 147.493C228.556 147.493 228.556 147.493 228.543 147.493C226.79 147.379 224.859 147.201 222.483 146.947C222.331 146.934 222.217 146.832 222.166 146.693C222.128 146.553 222.166 146.4 222.28 146.299C225.062 143.923 224.707 138.905 224.707 138.854C224.694 138.727 224.757 138.587 224.872 138.524C224.986 138.447 225.126 138.435 225.24 138.498C228.594 140.112 230.843 141.217 230.843 141.217C230.97 141.281 231.046 141.408 231.046 141.547C231.046 144.825 228.937 147.264 228.848 147.366C228.772 147.455 228.67 147.493 228.569 147.493ZM223.347 146.299C225.278 146.489 226.905 146.642 228.404 146.743C228.81 146.21 230.22 144.241 230.297 141.776C229.712 141.484 227.921 140.62 225.469 139.426C225.469 140.81 225.278 144.126 223.347 146.299Z" fill="black"/>
<path d="M213.577 133.759C213.527 133.759 213.476 133.747 213.425 133.721C205.751 130.177 200.263 127.864 197.57 127.039C197.379 126.975 197.265 126.772 197.328 126.568C197.392 126.378 197.595 126.264 197.798 126.327C201.241 127.382 208.369 130.57 213.743 133.048C213.933 133.137 214.009 133.353 213.92 133.543C213.857 133.683 213.717 133.759 213.577 133.759Z" fill="black"/>
<path d="M194.05 116.303C193.885 116.303 193.733 116.189 193.695 116.024C193.644 115.82 193.758 115.617 193.949 115.566C194.266 115.477 201.699 113.445 205.459 113C205.662 112.975 205.853 113.127 205.878 113.33C205.904 113.534 205.751 113.724 205.548 113.75C201.851 114.194 194.228 116.278 194.152 116.303C194.114 116.303 194.089 116.303 194.05 116.303Z" fill="black"/>
<path d="M230.665 141.547L236.852 142.627C236.852 142.627 237.437 147.29 238.085 149.284C238.085 149.284 243.967 157.174 240.092 161.964C240.092 161.964 230.157 149.869 228.556 147.125L230.386 141.547" fill="#35354C"/>
<path d="M240.092 162.332C239.978 162.332 239.876 162.281 239.8 162.192C239.393 161.697 229.827 150.047 228.226 147.302C228.175 147.214 228.162 147.099 228.2 146.998L230.03 141.42C230.093 141.23 230.309 141.115 230.5 141.179C230.513 141.179 230.513 141.179 230.525 141.192C230.589 141.166 230.652 141.153 230.729 141.166L236.916 142.246C237.081 142.271 237.195 142.398 237.221 142.564C237.221 142.614 237.792 147.125 238.415 149.107C238.974 149.869 244.272 157.39 240.371 162.192C240.308 162.281 240.206 162.332 240.092 162.332ZM228.963 147.074C230.589 149.716 238.428 159.346 240.079 161.354C243.166 156.806 237.843 149.577 237.792 149.5C237.767 149.462 237.754 149.437 237.742 149.386C237.17 147.633 236.674 143.961 236.535 142.932L230.665 141.916L228.963 147.074Z" fill="black"/>
<path d="M218.761 199.112C218.761 199.112 223.106 211.372 225.837 216.631C225.837 216.631 231.465 214.091 228.556 204.079L229.382 195.211C229.382 195.211 226.104 192.836 223.728 193.979L218.761 199.112Z" fill="#35354C"/>
<path d="M225.837 217C225.698 217 225.571 216.924 225.507 216.797C222.801 211.575 218.456 199.353 218.418 199.226C218.367 199.099 218.405 198.947 218.507 198.845L223.474 193.725C223.5 193.7 223.538 193.674 223.576 193.649C226.13 192.417 229.471 194.818 229.611 194.919C229.712 194.996 229.776 195.123 229.763 195.25L228.937 204.041C231.847 214.18 226.231 216.86 225.99 216.962C225.939 217 225.888 217 225.837 217ZM219.193 199.201C219.777 200.827 223.512 211.169 225.99 216.123C227.095 215.425 230.602 212.477 228.2 204.194C228.188 204.143 228.188 204.105 228.188 204.054L229.001 195.415C228.327 194.97 225.812 193.471 223.957 194.31L219.193 199.201Z" fill="black"/>
<path d="M187.825 21.2345L184.052 10.8929C184.624 4.69309 182.426 3.0669 182.426 3.0669C182.235 3.93081 181.282 5.07423 181.282 5.07423L178.513 1.73291C172.313 6.78935 180.8 13.7515 180.8 13.7515L183.379 23.9787L187.825 21.2345Z" fill="#FFEA94"/>
<path d="M183.391 24.3472C183.34 24.3472 183.302 24.3344 183.251 24.3217C183.137 24.2836 183.061 24.182 183.035 24.0677L180.482 13.9675C179.796 13.3831 175.883 9.86388 175.883 6.02708C175.883 4.28655 176.696 2.74929 178.284 1.45342C178.436 1.32637 178.678 1.35178 178.805 1.50423L181.27 4.48982C181.574 4.07057 181.956 3.46075 182.057 3.00338C182.083 2.87633 182.172 2.7747 182.286 2.73658C182.4 2.68576 182.54 2.71117 182.642 2.7874C182.743 2.86363 184.979 4.59146 184.42 10.8548L188.168 21.1075C188.232 21.2726 188.168 21.4632 188.016 21.5521L183.582 24.2963C183.531 24.3344 183.455 24.3472 183.391 24.3472ZM178.474 2.26651C177.255 3.35911 176.632 4.62957 176.632 6.02708C176.62 9.78765 181.003 13.4339 181.054 13.472C181.117 13.5228 181.155 13.5863 181.181 13.6626L183.645 23.3943L187.393 21.0694L183.722 11.02C183.709 10.9692 183.696 10.9184 183.696 10.8548C184.09 6.58608 183.137 4.56605 182.578 3.77836C182.222 4.54064 181.613 5.2648 181.587 5.30292C181.511 5.39185 181.409 5.44267 181.295 5.44267C181.181 5.44267 181.079 5.39185 181.003 5.30292L178.474 2.26651Z" fill="black"/>
<path d="M188.981 43.3533C188.981 43.3533 188.448 57.9255 206.209 58.8148C206.209 58.8148 221.251 61.3049 228.239 51.8527C228.239 51.8527 226.612 52.183 225.24 51.8781C225.24 51.8781 229.433 50.6076 230.068 46.72C230.068 46.72 228.239 48.0667 227.146 48.0413C227.146 48.0413 231.097 44.484 230.754 41.5619C230.754 41.5619 230.373 37.5473 227.133 39.8595C227.133 39.8595 228.137 40.5456 227.857 40.8759C227.857 40.8759 227.705 42.0193 226.574 40.8886C226.574 40.8886 225.863 37.4965 224.885 36.5817C224.885 36.5817 228.086 28.095 218.265 24.9062C218.265 24.9062 217.592 30.4327 214.835 31.4109C214.835 31.4109 209.271 28.7811 203.426 29.5942C203.426 29.5942 202.092 24.4742 202.258 23.28C202.258 23.28 196.477 22.6956 195.105 33.4945C195.105 33.4945 193.212 36.2387 193.072 36.8866C193.072 36.8866 192.043 35.8957 193.047 34.8031C193.047 34.8031 190.493 34.2822 190.252 36.569C190.252 36.569 190.087 38.2587 190.531 39.5292C190.531 39.5292 190.036 39.6308 189.578 38.9067C189.578 38.9067 189.413 40.6472 190.252 41.6763C190.252 41.6763 189.642 41.6509 189.261 41.3587C189.261 41.3587 189.871 43.6455 190.201 44.4205C190.188 44.4332 189.464 44.3316 188.981 43.3533Z" fill="#FFEA94"/>
<path d="M210.528 59.4754C208.089 59.4754 206.387 59.2213 206.171 59.1959C188.27 58.2812 188.613 43.493 188.613 43.3405C188.613 43.1754 188.74 43.0229 188.905 42.9848C189.07 42.9467 189.235 43.0356 189.312 43.1881C189.35 43.277 189.401 43.3532 189.439 43.4167C189.159 42.5147 188.892 41.511 188.88 41.4475C188.842 41.2951 188.905 41.1299 189.032 41.041C189.159 40.952 189.337 40.952 189.464 41.0537C189.464 41.0537 189.477 41.0537 189.477 41.0664C189.096 40.0373 189.197 38.9193 189.197 38.8685C189.21 38.716 189.324 38.5763 189.477 38.5382C189.629 38.5 189.794 38.5636 189.883 38.7033C189.909 38.7414 189.934 38.7795 189.96 38.8177C189.769 37.6869 189.871 36.5816 189.871 36.5181C189.947 35.7813 190.252 35.2223 190.76 34.8538C191.713 34.1551 193.059 34.4219 193.123 34.4346C193.25 34.46 193.364 34.5616 193.402 34.6887C193.441 34.8157 193.415 34.9555 193.326 35.0571C192.958 35.4509 192.945 35.8194 193.021 36.0989C193.517 35.1841 194.444 33.812 194.749 33.3547C196.172 22.416 202.054 22.8861 202.296 22.9115C202.397 22.9242 202.486 22.975 202.55 23.0512C202.613 23.1274 202.639 23.2291 202.626 23.3307C202.512 24.1946 203.299 27.5995 203.706 29.1876C209.016 28.565 213.92 30.6105 214.848 31.017C217.236 29.9879 217.884 24.9315 217.897 24.8807C217.91 24.7663 217.973 24.6774 218.062 24.6139C218.151 24.5504 218.265 24.5377 218.38 24.5758C221.594 25.6176 223.805 27.3454 224.923 29.683C226.358 32.6686 225.571 35.6923 225.304 36.5181C226.168 37.5726 226.765 40.1008 226.905 40.7361C227.248 41.0664 227.4 41.0537 227.4 41.0537C227.425 41.041 227.464 40.9393 227.476 40.8631C227.476 40.825 227.489 40.7869 227.502 40.7615C227.425 40.6344 227.159 40.393 226.905 40.2152C226.803 40.1516 226.739 40.0373 226.739 39.9103C226.739 39.7832 226.79 39.6689 226.892 39.6053C227.959 38.8431 228.874 38.6271 229.623 38.9701C230.894 39.5418 231.084 41.4856 231.097 41.5746C231.351 43.6708 229.573 46.0212 228.391 47.3298C228.975 47.0376 229.56 46.6564 229.827 46.4658C229.954 46.3769 230.106 46.3642 230.246 46.4531C230.373 46.5294 230.449 46.6818 230.424 46.8343C229.992 49.4641 228.073 50.9379 226.714 51.6747C227.502 51.662 228.137 51.535 228.15 51.5223C228.302 51.4969 228.455 51.5604 228.543 51.6875C228.62 51.8145 228.62 51.9797 228.531 52.1067C223.868 58.3955 215.61 59.4754 210.528 59.4754ZM189.413 44.4585C189.528 45.7925 189.934 48.181 191.281 50.5949C193.987 55.4353 199.018 58.0779 206.234 58.4463C206.247 58.4463 206.26 58.4463 206.272 58.4463C206.412 58.4717 220.387 60.6569 227.387 52.3481C226.765 52.3989 225.939 52.4243 225.177 52.2465C225.012 52.2083 224.897 52.0686 224.885 51.9034C224.872 51.7383 224.986 51.5858 225.151 51.535C225.189 51.5223 228.467 50.4932 229.496 47.5711C228.823 47.965 227.883 48.4224 227.159 48.4224C227.006 48.4224 226.866 48.3207 226.816 48.181C226.765 48.0412 226.803 47.8761 226.917 47.7744C226.955 47.7363 230.716 44.3061 230.398 41.6127C230.36 41.168 230.081 39.9357 229.357 39.6053C228.95 39.4275 228.429 39.5164 227.794 39.8848C228.035 40.1008 228.264 40.3676 228.289 40.6471C228.302 40.7742 228.277 40.9012 228.226 41.0156C228.188 41.2061 228.048 41.5873 227.667 41.7143C227.095 41.9049 226.523 41.3332 226.333 41.1426C226.282 41.0918 226.244 41.0283 226.231 40.952C226.041 40.0373 225.38 37.5218 224.656 36.8357C224.542 36.7341 224.516 36.5689 224.567 36.4292C224.58 36.3911 225.787 33.0879 224.275 29.9498C223.296 27.9044 221.378 26.3671 218.596 25.3762C218.367 26.761 217.478 30.8519 214.988 31.7285C214.899 31.7666 214.797 31.7539 214.708 31.7158C214.657 31.6904 209.169 29.1494 203.503 29.9244C203.312 29.9498 203.134 29.8355 203.096 29.6449C202.969 29.1621 201.965 25.2491 201.902 23.5975C200.682 23.6737 196.629 24.6139 195.499 33.4944C195.486 33.5579 195.473 33.6088 195.435 33.6596C194.673 34.7776 193.542 36.5181 193.453 36.9247C193.428 37.0517 193.326 37.1661 193.199 37.2042C193.072 37.2423 192.932 37.2042 192.831 37.1152C192.462 36.7595 192.005 35.9591 192.399 35.0952C192.03 35.0952 191.573 35.1714 191.217 35.4382C190.887 35.6796 190.696 36.0608 190.633 36.5816C190.633 36.5944 190.48 38.2078 190.887 39.3894C190.925 39.491 190.912 39.6053 190.862 39.6943C190.811 39.7832 190.722 39.8467 190.607 39.8721C190.557 39.8848 190.29 39.923 189.96 39.7578C190.01 40.2787 190.15 40.952 190.531 41.4221C190.62 41.5364 190.646 41.6889 190.582 41.8287C190.519 41.9557 190.379 42.0446 190.239 42.0319C190.201 42.0319 190.036 42.0192 189.82 41.9811C190.023 42.718 190.341 43.7979 190.544 44.2679C190.595 44.395 190.582 44.5347 190.493 44.6364C190.417 44.738 190.277 44.8015 190.15 44.7761C190.112 44.7888 189.782 44.7507 189.413 44.4585Z" fill="black"/>
<path d="M198.357 54.4444C198.7 56.2484 200.822 55.4734 200.822 55.4734C202.702 54.5968 202.563 50.0867 202.563 50.0867C202.563 50.0867 200.53 52.1321 198.434 50.7473C198.434 50.7473 198.281 50.8744 198.052 50.9887C200.034 52.0686 199.475 53.7075 199.475 53.7075C198.357 53.6694 198.357 54.4444 198.357 54.4444Z" fill="#FF86A3"/>
<path d="M199.844 56.007C199.513 56.007 199.145 55.9435 198.827 55.7656C198.383 55.5115 198.103 55.0923 197.989 54.5079C197.989 54.4824 197.976 54.457 197.976 54.4443C197.976 54.4062 197.976 54.0251 198.306 53.7075C198.522 53.5042 198.815 53.3771 199.17 53.339C199.208 52.9071 199.132 51.9923 197.874 51.319C197.747 51.2555 197.684 51.1284 197.684 50.9887C197.684 50.8489 197.76 50.7219 197.887 50.6584C198.078 50.5567 198.205 50.4551 198.205 50.4551C198.332 50.3534 198.51 50.3407 198.649 50.4297C200.466 51.6239 202.283 49.8326 202.308 49.8071C202.41 49.7055 202.575 49.6674 202.715 49.7182C202.855 49.769 202.944 49.9088 202.956 50.0485C202.969 50.5313 203.045 54.8382 201 55.7783C200.936 55.8291 200.428 56.007 199.844 56.007ZM198.738 54.4189C198.815 54.7492 198.967 54.9779 199.196 55.1177C199.679 55.3972 200.441 55.2066 200.708 55.1177C201.813 54.6095 202.143 52.31 202.194 50.8743C201.47 51.3571 200.415 51.7764 199.31 51.5223C200.022 52.3735 199.996 53.339 199.831 53.8345C199.78 53.987 199.64 54.1013 199.463 54.0886C198.865 54.0632 198.751 54.3173 198.738 54.4189Z" fill="black"/>
<path d="M196.134 50.5059C196.744 51.446 197.582 51.23 198.065 50.9886L196.134 50.5059Z" fill="#F7D7D5"/>
<path d="M197.265 51.5856C196.693 51.5856 196.198 51.2934 195.816 50.7217C195.702 50.5439 195.753 50.3152 195.918 50.2008C196.096 50.0865 196.325 50.1373 196.439 50.3025C196.566 50.5057 196.972 51.1283 197.887 50.6582C198.065 50.5693 198.294 50.6328 198.383 50.8234C198.472 51.0012 198.408 51.2299 198.218 51.3188C197.9 51.4967 197.57 51.5856 197.265 51.5856Z" fill="black"/>
<path d="M206.189 45.0628C206.278 44.3951 206.091 43.8193 205.771 43.7768C205.451 43.7343 205.119 44.2411 205.031 44.9089C204.942 45.5766 205.129 46.1524 205.449 46.1949C205.769 46.2374 206.101 45.7305 206.189 45.0628Z" fill="black"/>
<path d="M194.828 43.5521C194.917 42.8843 194.73 42.3086 194.41 42.2661C194.09 42.2236 193.758 42.7304 193.67 43.3981C193.581 44.0659 193.768 44.6416 194.088 44.6841C194.408 44.7267 194.74 44.2198 194.828 43.5521Z" fill="black"/>
<path d="M209.08 29.848C209.08 29.848 211.532 28.0059 215.356 28.1075C215.356 28.1075 217.96 27.828 216.728 30.3689C216.728 30.3689 215.28 34.8029 213.92 35.9844C213.92 35.9844 211.189 39.1351 208.064 34.2566L207.276 34.1549C207.276 34.1549 204.798 35.4381 202.778 35.1205C202.778 35.1205 200.11 34.7647 200.555 32.5668C200.555 32.5668 202.003 28.5395 203.477 26.6719C203.477 26.6719 205.523 24.3469 206.844 26.8498C206.844 26.8498 207.822 28.5522 208.254 29.5177L209.08 29.848Z" fill="#FF86A3"/>
<path d="M211.735 37.3565C211.659 37.3565 211.595 37.3565 211.519 37.3438C210.223 37.2549 208.991 36.3274 207.848 34.5869L207.339 34.5234C206.831 34.7775 204.608 35.7684 202.715 35.4635C202.664 35.4508 201.228 35.2602 200.517 34.2566C200.161 33.7484 200.047 33.1513 200.187 32.4652C200.187 32.4525 200.199 32.4271 200.199 32.4144C200.263 32.2492 201.686 28.2981 203.185 26.4178C203.236 26.3543 204.303 25.16 205.51 25.3125C206.183 25.3887 206.742 25.8461 207.174 26.6592C207.212 26.71 208.076 28.2346 208.534 29.2128L209.042 29.4288C209.69 28.9968 212.002 27.6502 215.356 27.7391C215.572 27.7137 216.69 27.6629 217.211 28.387C217.567 28.8952 217.528 29.6067 217.084 30.5087C216.957 30.9025 215.572 35.0315 214.187 36.2385C214.035 36.4036 213.107 37.3565 211.735 37.3565ZM207.276 33.7738C207.289 33.7738 207.314 33.7738 207.327 33.7738L208.114 33.8754C208.229 33.8881 208.318 33.9517 208.381 34.0406C209.41 35.6541 210.477 36.518 211.57 36.5942C212.79 36.6831 213.628 35.7303 213.641 35.7303C213.654 35.7176 213.666 35.7049 213.679 35.6922C214.733 34.7775 215.979 31.4488 216.372 30.2546C216.372 30.2419 216.385 30.2165 216.398 30.2038C216.614 29.7591 216.83 29.1493 216.588 28.8063C216.347 28.4505 215.623 28.4505 215.394 28.4633C215.381 28.4633 215.356 28.4633 215.343 28.4633C215.242 28.4633 215.153 28.4633 215.051 28.4633C211.583 28.4633 209.321 30.1149 209.296 30.1276C209.194 30.2038 209.055 30.2292 208.927 30.1784L208.089 29.8226C208 29.7845 207.937 29.721 207.898 29.6321C207.492 28.7046 206.526 27.0149 206.514 27.0022C206.196 26.4051 205.828 26.0875 205.421 26.0367C204.735 25.9477 203.985 26.6211 203.757 26.8879C202.41 28.5903 201.038 32.2873 200.911 32.6431C200.822 33.1131 200.885 33.507 201.127 33.8246C201.648 34.5615 202.817 34.7266 202.829 34.7266C204.71 35.0315 207.085 33.8119 207.111 33.7992C207.162 33.7865 207.212 33.7738 207.276 33.7738Z" fill="black"/>
<path d="M203.376 44.4077C203.35 44.4077 203.325 44.4077 203.287 44.395C203.083 44.3441 202.956 44.1536 203.007 43.9503C203.731 40.7869 208.978 41.1172 209.194 41.1426C213.069 41.4221 216.385 39.3512 216.411 39.3258C216.588 39.2115 216.817 39.2623 216.919 39.4402C217.033 39.618 216.982 39.8467 216.804 39.9484C216.665 40.0373 213.26 42.1717 209.131 41.8795C209.08 41.8795 204.303 41.5745 203.719 44.1155C203.706 44.2933 203.553 44.4077 203.376 44.4077Z" fill="black"/>
<path d="M195.969 43.4294C195.931 43.4294 195.893 43.4294 195.867 43.4167C195.677 43.3532 195.562 43.1499 195.613 42.9594C195.639 42.8577 196.21 40.7361 193.631 39.8213C193.606 39.8086 192.539 39.491 191.814 38.6398C191.687 38.4873 191.7 38.246 191.865 38.1189C192.018 37.9919 192.259 38.0046 192.386 38.1697C192.971 38.8558 193.86 39.1226 193.86 39.1353C197.15 40.2914 196.337 43.1627 196.337 43.1881C196.274 43.3151 196.134 43.4294 195.969 43.4294Z" fill="black"/>
<path d="M199.043 47.8508C199.043 47.8508 197.722 49.2357 197.697 47.8254L199.043 47.8508Z" fill="#F7D7D5"/>
<path d="M198.065 48.829C197.976 48.829 197.9 48.8163 197.811 48.7782C197.493 48.6512 197.328 48.3336 197.315 47.8254C197.315 47.6221 197.481 47.4442 197.684 47.4442C197.9 47.4315 198.065 47.6094 198.065 47.8127C198.065 47.9524 198.09 48.0414 198.103 48.0795C198.243 48.0414 198.548 47.8254 198.777 47.5967C198.916 47.4442 199.158 47.4442 199.297 47.584C199.45 47.7237 199.45 47.9651 199.31 48.1049C199.081 48.3463 198.561 48.829 198.065 48.829Z" fill="black"/>
<path d="M205.586 50.0612C205.396 50.0612 205.243 49.9214 205.218 49.7309C205.192 49.5276 205.345 49.337 205.548 49.3116L216.893 47.9776C217.097 47.9522 217.287 48.1047 217.313 48.3079C217.338 48.5112 217.186 48.7018 216.982 48.7272L205.637 50.0612C205.612 50.0612 205.599 50.0612 205.586 50.0612Z" fill="black"/>
<path d="M215.216 53.9742C215.191 53.9742 215.178 53.9742 215.153 53.9742L207.136 52.6275C206.933 52.5894 206.793 52.3989 206.831 52.1956C206.869 51.9923 207.06 51.8526 207.263 51.8907L215.28 53.2374C215.483 53.2755 215.623 53.466 215.585 53.6693C215.559 53.8472 215.394 53.9742 215.216 53.9742Z" fill="black"/>
<path d="M213.184 56.5025C213.145 56.5025 213.107 56.4898 213.057 56.4771L207.682 54.6095C207.492 54.546 207.39 54.33 207.454 54.1394C207.517 53.9489 207.733 53.8472 207.924 53.9108L213.298 55.7783C213.488 55.8419 213.59 56.0578 213.527 56.2484C213.488 56.4009 213.349 56.5025 213.184 56.5025Z" fill="black"/>
<path d="M194.203 48.6892C194.127 48.6892 194.05 48.6638 193.974 48.613L191.471 46.72C191.306 46.593 191.281 46.3643 191.395 46.1991C191.522 46.034 191.751 46.0086 191.916 46.1229L194.419 48.0159C194.584 48.1429 194.609 48.3716 194.495 48.5368C194.432 48.6384 194.317 48.6892 194.203 48.6892Z" fill="black"/>
<path d="M192.183 50.3536C192.005 50.3536 191.84 50.2265 191.814 50.036C191.789 49.8327 191.929 49.6421 192.132 49.6167L193.974 49.3499C194.177 49.3245 194.368 49.4642 194.393 49.6675C194.419 49.8708 194.279 50.0614 194.076 50.0868L192.234 50.3536C192.221 50.3536 192.196 50.3536 192.183 50.3536Z" fill="black"/>
<path d="M192.843 52.1322C192.729 52.1322 192.615 52.0814 192.539 51.9797C192.424 51.8146 192.462 51.5859 192.627 51.4588L193.618 50.7474C193.784 50.633 194.012 50.6711 194.139 50.8363C194.254 51.0015 194.216 51.2301 194.05 51.3572L193.059 52.0686C192.996 52.1068 192.92 52.1322 192.843 52.1322Z" fill="black"/>
<path d="M207.251 33.9518C207.073 33.9518 206.92 33.8247 206.882 33.6469C206.488 31.4236 207.365 29.899 207.403 29.8355C207.505 29.6576 207.733 29.5941 207.911 29.7084C208.089 29.8101 208.153 30.0388 208.051 30.2166C208.038 30.2293 207.276 31.5887 207.619 33.5198C207.657 33.7231 207.517 33.9137 207.314 33.9518C207.289 33.9518 207.276 33.9518 207.251 33.9518Z" fill="black"/>
<path d="M209.093 32.9989C209.08 32.9989 209.055 32.9989 209.042 32.9989C208.839 32.9735 208.699 32.7829 208.724 32.5797C208.813 31.9571 209.283 30.5723 209.309 30.5215C209.372 30.3309 209.588 30.2293 209.779 30.2928C209.969 30.3564 210.071 30.5723 210.007 30.7629C209.88 31.144 209.525 32.2239 209.461 32.6813C209.436 32.8592 209.271 32.9989 209.093 32.9989Z" fill="black"/>
<path d="M206.666 31.2076C206.539 31.2076 206.425 31.1441 206.348 31.0424C206.107 30.674 205.612 30.0134 205.599 30.0134C205.573 29.9752 205.548 29.9371 205.535 29.8863C205.408 29.4544 205.561 29.2257 205.701 29.1113C206.056 28.8191 206.666 29.0605 206.996 29.2257C207.174 29.3146 207.251 29.5433 207.162 29.7212C207.073 29.899 206.844 29.9752 206.666 29.8863C206.564 29.8355 206.45 29.7847 206.348 29.7593C206.526 29.988 206.806 30.3818 206.984 30.6359C207.098 30.8138 207.047 31.0424 206.869 31.1568C206.806 31.1949 206.73 31.2076 206.666 31.2076Z" fill="black"/>
<path d="M203.376 34.155C202.931 34.155 202.651 34.0533 202.626 34.0406C201.851 33.723 201.432 33.3165 201.406 32.8083C201.356 31.9316 202.512 31.2837 202.651 31.2202C202.664 31.2075 202.69 31.2075 202.715 31.1948C204.341 30.6485 206.564 31.6521 206.666 31.703C206.793 31.7538 206.869 31.8808 206.882 32.0079L206.984 33.1767C206.996 33.3165 206.933 33.4435 206.806 33.5197C206.692 33.596 206.539 33.596 206.425 33.5197C206.044 33.291 205.383 33.4943 205.129 33.6087C204.43 34.0406 203.82 34.155 203.376 34.155ZM202.969 31.8808C202.613 32.0841 202.131 32.4779 202.143 32.7575C202.156 32.9353 202.435 33.164 202.893 33.3419C202.918 33.3546 203.706 33.6341 204.71 32.9607C204.722 32.948 204.748 32.9353 204.76 32.9353C204.849 32.8972 205.51 32.605 206.171 32.6812L206.133 32.2874C205.612 32.0714 204.074 31.5378 202.969 31.8808Z" fill="black"/>
<path d="M209.728 32.4779C209.652 32.4779 209.575 32.4525 209.512 32.4144C209.347 32.3001 209.309 32.0587 209.423 31.8935C209.614 31.6267 209.855 31.4107 210.122 31.2583C209.982 31.3218 209.804 31.2837 209.69 31.1566C209.55 31.0042 209.575 30.7628 209.728 30.6357C209.83 30.5468 210.706 29.8099 211.418 29.6956C211.43 29.6956 211.456 29.6956 211.468 29.6956C212.002 29.6829 212.65 29.7591 212.764 30.2292C212.891 30.712 212.358 31.0931 211.748 31.4234C211.672 31.4615 211.595 31.487 211.519 31.5124C211.341 31.5505 210.452 31.741 210.02 32.3509C209.957 32.4144 209.842 32.4779 209.728 32.4779ZM211.519 30.4198C211.087 30.5087 210.427 31.0042 210.211 31.182C210.693 30.9025 211.189 30.7882 211.379 30.7501C211.621 30.623 211.773 30.5087 211.875 30.4452C211.773 30.4325 211.646 30.4071 211.519 30.4198Z" fill="black"/>
<path d="M211.913 34.8919C211.646 34.8919 211.367 34.8538 211.113 34.7903C211.087 34.7903 211.062 34.7776 211.036 34.7649C209.512 34.028 209.169 32.9735 209.156 32.9354C209.118 32.8211 209.143 32.694 209.207 32.6051C209.271 32.5162 209.385 32.4526 209.499 32.4526H209.512C210.732 32.4526 212.434 33.5325 212.497 33.5706C212.536 33.5961 212.561 33.6215 212.586 33.6469C212.866 33.9899 212.917 34.2948 212.764 34.5489C212.612 34.803 212.282 34.8919 211.913 34.8919ZM211.316 34.0788C211.57 34.1296 211.837 34.1551 212.015 34.1424C211.659 33.9264 210.948 33.5325 210.274 33.3293C210.49 33.5706 210.82 33.8374 211.316 34.0788Z" fill="black"/>
<path d="M107.545 76.5952L100.163 69.2138C95.9961 65.0467 89.2373 65.0467 85.0702 69.2138L63.7899 90.4814C59.6228 94.6485 52.864 94.6485 48.6968 90.4814L27.4293 69.2138C23.2622 65.0467 16.5033 65.0467 12.3362 69.2138L4.95481 76.5952C0.787688 80.7623 0.787688 87.5212 4.95481 91.6883L26.2351 112.969C30.4022 117.136 30.4022 123.895 26.2351 128.062L4.95481 149.329C0.787688 153.496 0.787688 160.255 4.95481 164.422L12.3362 171.804C16.5033 175.971 23.2622 175.971 27.4293 171.804L48.7095 150.523C52.8767 146.356 59.6355 146.356 63.8026 150.523L85.0702 171.804C89.2373 175.971 95.9961 175.971 100.163 171.804L107.545 164.422C111.712 160.255 111.712 153.496 107.545 149.329L86.2644 128.049C82.0973 123.882 82.0973 117.123 86.2644 112.956L107.545 91.6756C111.712 87.5212 111.712 80.7623 107.545 76.5952Z" fill="#D7D7FF"/>
<path d="M12.7936 89.9733H10.6465C10.2908 89.9733 10.0113 90.2528 10.0113 90.6085V94.8646C10.0113 95.2203 9.73175 95.4998 9.37602 95.4998H5.11997C4.76424 95.4998 4.48474 95.7793 4.48474 96.135V98.2821C4.48474 98.6378 4.76424 98.9173 5.11997 98.9173H9.37602C9.73175 98.9173 10.0113 99.1968 10.0113 99.5526V103.809C10.0113 104.164 10.2908 104.444 10.6465 104.444H12.7936C13.1493 104.444 13.4288 104.164 13.4288 103.809V99.5526C13.4288 99.1968 13.7083 98.9173 14.064 98.9173H18.3201C18.6758 98.9173 18.9553 98.6378 18.9553 98.2821V96.135C18.9553 95.7793 18.6758 95.4998 18.3201 95.4998H14.064C13.7083 95.4998 13.4288 95.2203 13.4288 94.8646V90.6085C13.4288 90.2655 13.1493 89.9733 12.7936 89.9733Z" fill="#5B5B7F"/>
<path d="M106.478 115.116H104.33C103.975 115.116 103.695 115.395 103.695 115.751V120.007C103.695 120.363 103.416 120.642 103.06 120.642H98.8039C98.4482 120.642 98.1687 120.922 98.1687 121.277V123.425C98.1687 123.78 98.4482 124.06 98.8039 124.06H103.06C103.416 124.06 103.695 124.339 103.695 124.695V128.951C103.695 129.307 103.975 129.586 104.33 129.586H106.478C106.833 129.586 107.113 129.307 107.113 128.951V124.695C107.113 124.339 107.392 124.06 107.748 124.06H112.004C112.36 124.06 112.639 123.78 112.639 123.425V121.277C112.639 120.922 112.36 120.642 112.004 120.642H107.748C107.392 120.642 107.113 120.363 107.113 120.007V115.751C107.125 115.408 106.833 115.116 106.478 115.116Z" fill="#5B5B7F"/>
<path d="M105.804 169.441H103.657C103.301 169.441 103.022 169.72 103.022 170.076V174.332C103.022 174.688 102.742 174.967 102.387 174.967H98.1306C97.7749 174.967 97.4954 175.247 97.4954 175.602V177.75C97.4954 178.105 97.7749 178.385 98.1306 178.385H102.387C102.742 178.385 103.022 178.664 103.022 179.02V183.276C103.022 183.632 103.301 183.911 103.657 183.911H105.804C106.16 183.911 106.439 183.632 106.439 183.276V179.02C106.439 178.664 106.719 178.385 107.075 178.385H111.331C111.686 178.385 111.966 178.105 111.966 177.75V175.602C111.966 175.247 111.686 174.967 111.331 174.967H107.075C106.719 174.967 106.439 174.688 106.439 174.332V170.076C106.439 169.72 106.147 169.441 105.804 169.441Z" fill="#5B5B7F"/>
<path d="M47.5027 122.357H45.3556C44.9999 122.357 44.7204 122.637 44.7204 122.993V127.249C44.7204 127.604 44.4409 127.884 44.0851 127.884H39.8291C39.4733 127.884 39.1938 128.163 39.1938 128.519V130.666C39.1938 131.022 39.4733 131.301 39.8291 131.301H44.0851C44.4409 131.301 44.7204 131.581 44.7204 131.937V136.193C44.7204 136.548 44.9999 136.828 45.3556 136.828H47.5027C47.8584 136.828 48.1379 136.548 48.1379 136.193V131.937C48.1379 131.581 48.4174 131.301 48.7731 131.301H53.0292C53.3849 131.301 53.6644 131.022 53.6644 130.666V128.519C53.6644 128.163 53.3849 127.884 53.0292 127.884H48.7731C48.4174 127.884 48.1379 127.604 48.1379 127.249V122.993C48.1379 122.65 47.8584 122.357 47.5027 122.357Z" fill="#5B5B7F"/>
<path d="M70.498 53.4602H68.3509C67.9952 53.4602 67.7157 53.7397 67.7157 54.0954V58.3515C67.7157 58.7072 67.4362 58.9867 67.0804 58.9867H62.8244C62.4686 58.9867 62.1891 59.2662 62.1891 59.6219V61.769C62.1891 62.1248 62.4686 62.4043 62.8244 62.4043H67.0804C67.4362 62.4043 67.7157 62.6838 67.7157 63.0395V67.2955C67.7157 67.6513 67.9952 67.9308 68.3509 67.9308H70.498C70.8537 67.9308 71.1332 67.6513 71.1332 67.2955V63.0395C71.1332 62.6838 71.4127 62.4043 71.7684 62.4043H76.0245C76.3802 62.4043 76.6597 62.1248 76.6597 61.769V59.6219C76.6597 59.2662 76.3802 58.9867 76.0245 58.9867H71.7684C71.4127 58.9867 71.1332 58.7072 71.1332 58.3515V54.0954C71.1332 53.7397 70.8537 53.4602 70.498 53.4602Z" fill="#5B5B7F"/>
<path d="M22.1315 167.738H19.9844C19.6286 167.738 19.3491 168.018 19.3491 168.374V172.63C19.3491 172.985 19.0696 173.265 18.7139 173.265H14.4579C14.1021 173.265 13.8226 173.544 13.8226 173.9V176.047C13.8226 176.403 14.1021 176.682 14.4579 176.682H18.7139C19.0696 176.682 19.3491 176.962 19.3491 177.318V181.574C19.3491 181.929 19.6286 182.209 19.9844 182.209H22.1315C22.4872 182.209 22.7667 181.929 22.7667 181.574V177.318C22.7667 176.962 23.0462 176.682 23.4019 176.682H27.658C28.0137 176.682 28.2932 176.403 28.2932 176.047V173.9C28.2932 173.544 28.0137 173.265 27.658 173.265H23.4019C23.0462 173.265 22.7667 172.985 22.7667 172.63V168.374C22.7667 168.03 22.4872 167.738 22.1315 167.738Z" fill="#5B5B7F"/>
<path d="M64.476 101.446H62.9769C62.8117 101.446 62.6719 101.585 62.6719 101.75V104.558C62.6719 104.723 62.5322 104.863 62.367 104.863H59.5593C59.3941 104.863 59.2544 105.003 59.2544 105.168V106.667C59.2544 106.832 59.3941 106.972 59.5593 106.972H62.367C62.5322 106.972 62.6719 107.112 62.6719 107.277V110.085C62.6719 110.25 62.8117 110.39 62.9769 110.39H64.476C64.6412 110.39 64.7809 110.25 64.7809 110.085V107.277C64.7809 107.112 64.9207 106.972 65.0858 106.972H67.8935C68.0587 106.972 68.1985 106.832 68.1985 106.667V105.168C68.1985 105.003 68.0587 104.863 67.8935 104.863H65.0858C64.9207 104.863 64.7809 104.723 64.7809 104.558V101.75C64.7809 101.585 64.6412 101.446 64.476 101.446Z" fill="#5B5B7F"/>
<path d="M98.9183 75.4645H97.4191C97.254 75.4645 97.1142 75.6042 97.1142 75.7694V78.5771C97.1142 78.7423 96.9744 78.882 96.8093 78.882H94.0016C93.8364 78.882 93.6967 79.0218 93.6967 79.1869V80.6861C93.6967 80.8512 93.8364 80.991 94.0016 80.991H96.8093C96.9744 80.991 97.1142 81.1307 97.1142 81.2959V84.1036C97.1142 84.2688 97.254 84.4085 97.4191 84.4085H98.9183C99.0834 84.4085 99.2232 84.2688 99.2232 84.1036V81.2959C99.2232 81.1307 99.3629 80.991 99.5281 80.991H102.336C102.501 80.991 102.641 80.8512 102.641 80.6861V79.1869C102.641 79.0218 102.501 78.882 102.336 78.882H99.5281C99.3629 78.882 99.2232 78.7423 99.2232 78.5771V75.7694C99.2232 75.5915 99.0834 75.4645 98.9183 75.4645Z" fill="#5B5B7F"/>
<path d="M88.1828 142.088H86.6836C86.5185 142.088 86.3787 142.227 86.3787 142.393V145.2C86.3787 145.365 86.239 145.505 86.0738 145.505H83.2661C83.1009 145.505 82.9612 145.645 82.9612 145.81V147.309C82.9612 147.474 83.1009 147.614 83.2661 147.614H86.0738C86.239 147.614 86.3787 147.754 86.3787 147.919V150.727C86.3787 150.892 86.5185 151.032 86.6836 151.032H88.1828C88.3479 151.032 88.4877 150.892 88.4877 150.727V147.919C88.4877 147.754 88.6274 147.614 88.7926 147.614H91.6003C91.7655 147.614 91.9052 147.474 91.9052 147.309V145.81C91.9052 145.645 91.7655 145.505 91.6003 145.505H88.7926C88.6274 145.505 88.4877 145.365 88.4877 145.2V142.393C88.4877 142.227 88.3479 142.088 88.1828 142.088Z" fill="#5B5B7F"/>
<path d="M64.476 156.317H62.9769C62.8117 156.317 62.6719 156.457 62.6719 156.622V159.429C62.6719 159.595 62.5322 159.734 62.367 159.734H59.5593C59.3941 159.734 59.2544 159.874 59.2544 160.039V161.538C59.2544 161.704 59.3941 161.843 59.5593 161.843H62.367C62.5322 161.843 62.6719 161.983 62.6719 162.148V164.956C62.6719 165.121 62.8117 165.261 62.9769 165.261H64.476C64.6412 165.261 64.7809 165.121 64.7809 164.956V162.148C64.7809 161.983 64.9207 161.843 65.0858 161.843H67.8935C68.0587 161.843 68.1985 161.704 68.1985 161.538V160.039C68.1985 159.874 68.0587 159.734 67.8935 159.734H65.0858C64.9207 159.734 64.7809 159.595 64.7809 159.429V156.622C64.7809 156.457 64.6412 156.317 64.476 156.317Z" fill="#5B5B7F"/>
<path d="M5.2216 57.64H3.72246C3.5573 57.64 3.41754 57.7798 3.41754 57.9449V60.7526C3.41754 60.9178 3.27779 61.0576 3.11263 61.0576H0.304911C0.139751 61.0576 0 61.1973 0 61.3752V62.8743C0 63.0395 0.139751 63.1792 0.304911 63.1792H3.11263C3.27779 63.1792 3.41754 63.319 3.41754 63.4841V66.2919C3.41754 66.457 3.5573 66.5968 3.72246 66.5968H5.2216C5.38676 66.5968 5.52651 66.457 5.52651 66.2919V63.4841C5.52651 63.319 5.66626 63.1792 5.83142 63.1792H8.63915C8.80431 63.1792 8.94406 63.0395 8.94406 62.8743V61.3752C8.94406 61.21 8.80431 61.0703 8.63915 61.0703H5.83142C5.66626 61.0703 5.52651 60.9305 5.52651 60.7654V57.9576C5.53922 57.7798 5.39947 57.64 5.2216 57.64Z" fill="#5B5B7F"/>
<path d="M21.8011 130.615H20.302C20.1368 130.615 19.9971 130.755 19.9971 130.92V133.728C19.9971 133.893 19.8573 134.033 19.6922 134.033H16.8844C16.7193 134.033 16.5795 134.173 16.5795 134.338V135.837C16.5795 136.002 16.7193 136.142 16.8844 136.142H19.6922C19.8573 136.142 19.9971 136.282 19.9971 136.447V139.255C19.9971 139.42 20.1368 139.559 20.302 139.559H21.8011C21.9663 139.559 22.106 139.42 22.106 139.255V136.447C22.106 136.282 22.2458 136.142 22.411 136.142H25.2187C25.3838 136.142 25.5236 136.002 25.5236 135.837V134.338C25.5236 134.173 25.3838 134.033 25.2187 134.033H22.411C22.2458 134.033 22.106 133.893 22.106 133.728V130.92C22.1187 130.755 21.979 130.615 21.8011 130.615Z" fill="#5B5B7F"/>
<path d="M41.6584 116.043C41.6584 116.043 21.1531 113.807 12.1583 83.6719C12.1583 83.6719 12.8316 79.8859 14.2418 78.6282C14.2418 78.6282 13.2509 77.1925 11.2435 77.7007C11.2435 77.7007 10.3796 70.3574 8.4231 67.9944C8.4231 67.9944 5.39939 72.009 3.83673 68.9345C3.83673 68.9345 -0.21605 72.3521 2.83306 77.4466C2.83306 77.4466 -1.49922 77.4593 2.56626 80.8642C2.56626 80.8642 2.6552 86.2382 7.12722 89.389C7.12722 89.389 2.23594 91.193 11.866 99.0064C11.866 99.0064 23.1096 118.813 44.6567 121.062L41.6584 116.043Z" fill="#8080B2"/>
<path d="M8.43585 67.6259C8.55019 67.6259 8.65182 67.6767 8.72805 67.7656C10.4813 69.8873 11.3706 75.6679 11.5866 77.256C13.5431 76.9511 14.5214 78.3486 14.5722 78.4121C14.6738 78.5645 14.6484 78.7805 14.5087 78.9076C13.4542 79.835 12.7554 82.5665 12.5521 83.6591C17.1639 99.0444 24.8375 106.934 30.4657 110.834C36.5766 115.078 41.6584 115.675 41.7093 115.687C41.8236 115.7 41.9252 115.764 41.9888 115.865L44.9871 120.884C45.0633 121.011 45.0633 121.15 44.9871 121.277C44.9108 121.392 44.7711 121.468 44.6313 121.443C23.7322 119.245 12.3108 100.48 11.5739 99.2477C7.22891 95.7158 5.20887 92.8954 5.53919 90.8499C5.66624 90.0876 6.08549 89.6176 6.45392 89.3508C2.70606 86.3906 2.24869 81.9821 2.19787 81.0419C0.800366 79.8477 0.241362 78.8949 0.520864 78.1453C0.762252 77.4592 1.62617 77.2178 2.22328 77.1289C-0.393869 72.1106 3.55727 68.693 3.59538 68.6549C3.68432 68.5787 3.79866 68.5533 3.913 68.5787C4.02734 68.6041 4.11627 68.6676 4.16709 68.7693C4.472 69.3791 4.84044 69.684 5.2851 69.7221C6.35229 69.7983 7.69898 68.35 8.13094 67.7783C8.20716 67.6767 8.3088 67.6259 8.43585 67.6259C8.42314 67.6259 8.42314 67.6259 8.43585 67.6259ZM11.2563 78.0691C11.18 78.0691 11.1038 78.0437 11.0403 78.0055C10.9514 77.942 10.8878 77.8531 10.8751 77.7387C10.8624 77.6752 10.0747 71.1704 8.41044 68.6041C7.82602 69.2775 6.50474 70.586 5.22158 70.459C4.63716 70.4082 4.15439 70.0906 3.76054 69.5315C2.89663 70.4463 0.787661 73.2921 3.15072 77.256C3.21425 77.3703 3.22695 77.5101 3.15072 77.6244C3.0872 77.7387 2.96015 77.815 2.83311 77.815C2.37574 77.815 1.37207 77.9674 1.21962 78.3867C1.1688 78.5391 1.11798 79.149 2.8077 80.5592C2.89663 80.6227 2.93474 80.7243 2.94745 80.8387C2.94745 80.8895 3.0999 86.0603 7.34325 89.0713C7.45759 89.1475 7.52111 89.2872 7.4957 89.427C7.483 89.5667 7.38136 89.6811 7.25432 89.7319C7.22891 89.7446 6.42852 90.0622 6.27606 90.9897C6.1236 91.9806 6.6572 94.3056 12.0948 98.7141C12.1329 98.7395 12.1583 98.7776 12.1837 98.8157C12.2981 99.0063 23.3257 118.025 43.9453 120.604L41.4171 116.386C40.4261 116.246 35.7254 115.383 30.0591 111.457C24.3039 107.48 16.4652 99.4382 11.7899 83.7607C11.7772 83.7099 11.7645 83.6464 11.7772 83.5956C11.8026 83.4431 12.4124 80.1018 13.721 78.6027C13.3779 78.2723 12.5776 77.726 11.3325 78.0564C11.3198 78.0691 11.2817 78.0691 11.2563 78.0691Z" fill="black"/>
<path d="M40.7692 111.571C40.7692 111.571 68.6939 115.268 73.3057 110.186L72.1496 106.489C72.1496 106.489 81.3859 101.293 73.3057 91.7773L71.9209 79.4411C71.9209 79.4411 71.9209 69.7856 66.8391 66.1013C66.8391 66.1013 67.0678 54.3368 54.8332 55.7216C54.8332 55.7216 41.1122 58.6437 43.8564 65.0087C43.8564 65.0087 37.8344 69.3028 36.9832 75.147L35.0902 94.2293C35.0902 94.2293 33.1972 101.623 40.9343 104.025L40.7692 111.571Z" fill="#FFDD4D"/>
<path d="M56.777 55.2388C59.6863 55.2388 62.0367 56.0519 63.8026 57.6654C66.9407 60.5239 67.2075 64.9324 67.2202 65.9234C72.175 69.7093 72.302 78.8059 72.302 79.4284L73.6741 91.6248C76.304 94.7629 77.3839 97.7866 76.8884 100.607C76.2659 104.063 73.4836 106.095 72.6069 106.654L73.6741 110.072C73.7122 110.199 73.6868 110.339 73.5979 110.428C68.9099 115.586 41.8744 112.079 40.731 111.927C40.5405 111.901 40.4007 111.736 40.4134 111.546L40.5913 104.279C33.1718 101.789 34.6328 94.6866 34.7599 94.153L36.6528 75.0961C37.4405 69.7475 42.2937 65.7455 43.4498 64.8689C43.0179 63.6873 43.0814 62.5439 43.6404 61.4513C45.7748 57.3096 54.4266 55.4293 54.795 55.3531C55.4684 55.2769 56.129 55.2388 56.777 55.2388ZM72.8864 110.085L71.7938 106.604C71.743 106.438 71.8192 106.261 71.9717 106.172C72.0098 106.146 75.4909 104.152 76.1388 100.467C76.6089 97.8501 75.5544 95.0042 73.0262 92.0187C72.9754 91.9678 72.95 91.8916 72.9373 91.8154L71.5524 79.4792C71.5524 79.4665 71.5524 79.4538 71.5524 79.4411C71.5524 79.3522 71.4889 69.938 66.6231 66.3934C66.5214 66.3172 66.4706 66.2029 66.4706 66.0885C66.4706 66.0377 66.5214 61.1337 63.2944 58.1989C61.2998 56.3822 58.4667 55.6707 54.884 56.0773C54.8332 56.09 46.2448 57.9703 44.2629 61.7944C43.7547 62.7726 43.742 63.7763 44.1994 64.8562C44.2629 65.0213 44.2121 65.1992 44.0723 65.3008C44.0088 65.339 38.1774 69.5823 37.3516 75.1977L35.4586 94.2674C35.4586 94.2801 35.4586 94.3055 35.4459 94.3182C35.3697 94.6104 33.7435 101.395 41.0359 103.669C41.1884 103.72 41.3027 103.872 41.3027 104.037L41.1249 111.241C44.2756 111.635 68.3255 114.455 72.8864 110.085Z" fill="black"/>
<path d="M66.8517 66.1012L62.151 71.0179C59.6228 68.6168 43.8818 64.9959 43.8818 64.9959C41.1249 58.6436 54.8586 55.7089 54.8586 55.7089C67.0931 54.3368 66.8517 66.1012 66.8517 66.1012Z" fill="#41D8BB"/>
<path d="M56.777 55.2388C59.6863 55.2388 62.0367 56.0519 63.8154 57.6654C67.2964 60.8415 67.2329 65.9107 67.2329 66.1139C67.2329 66.2029 67.1948 66.2918 67.1313 66.368L62.4306 71.2847C62.2908 71.4372 62.0494 71.4372 61.9097 71.2974C59.4831 68.9852 43.9707 65.4152 43.8056 65.3771C43.6912 65.3517 43.5896 65.2754 43.5515 65.1611C42.9925 63.8906 43.0179 62.6456 43.6277 61.464C45.7621 57.3223 54.4266 55.4293 54.7951 55.3531C55.4684 55.2769 56.1291 55.2388 56.777 55.2388ZM66.4833 65.9615C66.4706 65.1357 66.2292 60.8669 63.3072 58.2117C61.3125 56.3949 58.4921 55.6834 54.8967 56.09C54.8459 56.1027 46.2449 57.983 44.2756 61.8071C43.7929 62.7345 43.7548 63.6746 44.1486 64.691C45.9654 65.1103 59.0384 68.2102 62.1256 70.5224L66.4833 65.9615Z" fill="black"/>
<path d="M45.9399 73.686C46.067 73.686 46.1813 73.7496 46.2575 73.8639C46.41 74.118 50.0308 80.0892 47.5661 90.1258L55.9893 96.3384C56.0782 96.4019 56.129 96.5035 56.1417 96.6052C56.1672 96.872 56.7389 103.123 55.7098 105.486C55.659 105.613 55.5446 105.689 55.4049 105.702C55.3414 105.702 49.2558 106.273 40.8708 104.393C40.6675 104.342 40.5405 104.152 40.5913 103.948C40.6421 103.745 40.8327 103.618 41.0359 103.669C48.3919 105.321 53.9438 105.066 55.1 104.978C55.8622 102.843 55.4938 97.8121 55.4049 96.8339L46.9182 90.5705C46.7911 90.4816 46.7403 90.3291 46.7784 90.1766C49.294 80.3051 45.6604 74.3086 45.6223 74.245C45.508 74.0672 45.5715 73.8385 45.7367 73.7369C45.8002 73.7114 45.8764 73.686 45.9399 73.686Z" fill="black"/>
<path d="M69.1513 73.686C69.3418 73.686 69.507 73.8385 69.5197 74.0418L70.5488 91.6885C70.9934 92.5651 74.8557 100.29 74.2712 105.194C74.2458 105.397 74.068 105.537 73.8647 105.524C73.6614 105.498 73.509 105.321 73.5344 105.117C74.1061 100.251 69.8881 92.0442 69.85 91.968C69.8246 91.9172 69.8119 91.8664 69.8119 91.8155L68.7828 74.0926C68.7701 73.8893 68.9226 73.7114 69.1386 73.6987C69.1259 73.686 69.1386 73.686 69.1513 73.686Z" fill="black"/>
<path d="M40.7691 111.203C40.8072 111.203 40.8454 111.203 40.8835 111.215C41.074 111.279 41.1884 111.482 41.1249 111.685C41.074 111.838 36.2971 127.35 35.268 141.579C35.2553 141.846 34.9758 148.503 33.5656 152.759C33.5529 152.785 33.5529 152.81 33.5402 152.823L11.612 191.153C12.6792 192.563 19.3745 201.113 23.4781 201.621L45.5207 167.154C45.9272 166.188 55.5954 143.066 56.9675 137.323C57.0056 137.171 57.12 137.069 57.2724 137.044C57.4249 137.018 57.5774 137.095 57.6536 137.222C57.7425 137.387 67.0042 153.687 71.2221 168.894L80.1408 203.565L91.7147 199.182L85.7054 160.954C85.4259 159.925 75.5671 123.64 68.8209 112.257C68.7193 112.079 68.7701 111.851 68.948 111.749C69.1259 111.647 69.3545 111.698 69.4562 111.876C76.3167 123.45 86.3279 160.408 86.4296 160.776C86.4296 160.789 86.4296 160.801 86.4423 160.814L92.5024 199.36C92.5278 199.538 92.4261 199.703 92.261 199.767L80.0137 204.404C79.9121 204.442 79.8104 204.429 79.7088 204.391C79.6072 204.353 79.5436 204.251 79.5182 204.15L70.498 169.085C66.839 155.885 59.3433 141.846 57.4376 138.391C55.4176 145.416 46.5751 166.531 46.1813 167.459C46.1686 167.484 46.1686 167.497 46.1559 167.51L23.9863 202.193C23.9101 202.308 23.783 202.371 23.656 202.358C18.8918 202.092 11.1928 191.813 10.8751 191.382C10.7862 191.267 10.7735 191.102 10.8497 190.975L32.8796 152.455C34.2517 148.3 34.5312 141.567 34.5312 141.503C35.5602 127.172 40.3626 111.584 40.4134 111.431C40.4642 111.304 40.6167 111.203 40.7691 111.203Z" fill="black"/>
<path d="M92.1466 199.436L79.8867 204.086L70.8664 169.021C66.6103 153.674 57.3233 137.438 57.3233 137.438C55.9003 143.358 45.851 167.357 45.851 167.357L23.6687 202.041C19.0188 201.787 11.1674 191.216 11.1674 191.216L33.2099 152.67C34.6328 148.414 34.8996 141.579 34.8996 141.579C35.9414 127.134 40.7691 111.596 40.7691 111.596C40.7691 111.596 59.9404 114.125 69.1386 112.117C76.0626 123.793 86.0738 160.916 86.0738 160.916L92.1466 199.436Z" fill="#ACDED5"/>
<path d="M40.7691 111.203C40.7819 111.203 40.8073 111.203 40.82 111.203C41.0105 111.228 60.0294 113.705 69.0624 111.724C69.2148 111.685 69.38 111.762 69.4562 111.901C76.3294 123.488 86.3279 160.42 86.4296 160.789C86.4296 160.801 86.4296 160.814 86.4423 160.827L92.5024 199.373C92.5278 199.551 92.4262 199.716 92.261 199.779L80.001 204.429C79.8994 204.467 79.7978 204.455 79.6961 204.416C79.6072 204.366 79.531 204.277 79.5056 204.175L70.4853 169.11C66.8263 155.91 59.3306 141.872 57.4249 138.416C55.4049 145.442 46.5625 166.557 46.1686 167.484C46.1559 167.51 46.1559 167.522 46.1432 167.535L23.9609 202.219C23.8847 202.333 23.7577 202.396 23.6306 202.384C18.8664 202.117 11.1674 191.839 10.8498 191.407C10.7608 191.293 10.7481 191.127 10.8243 191L32.8415 152.48C34.2136 148.313 34.4931 141.592 34.4931 141.529C35.5348 127.198 40.3372 111.609 40.3753 111.457C40.4642 111.304 40.6167 111.203 40.7691 111.203ZM59.572 113.235C51.53 113.235 42.7892 112.206 41.0359 111.99C40.3626 114.214 36.2209 128.456 35.268 141.592C35.2553 141.859 34.9758 148.503 33.5656 152.772C33.5529 152.798 33.5529 152.823 33.5402 152.836L11.6247 191.166C12.6919 192.563 19.3873 201.126 23.4909 201.634L45.5334 167.167C45.9399 166.201 55.5954 143.079 56.9675 137.336C57.0057 137.184 57.12 137.082 57.2725 137.057C57.4249 137.031 57.5774 137.107 57.6536 137.234C57.7425 137.4 67.0169 153.687 71.2348 168.907L80.1535 203.578L91.7401 199.182L85.7308 160.954C85.4513 159.938 75.7323 124.136 68.9734 112.499C66.369 113.045 63.0404 113.235 59.572 113.235Z" fill="black"/>
<path d="M14.2673 194.952L8.20721 200.504C8.20721 200.504 9.63013 206.678 14.2673 206.665L20.1877 200.504L14.2673 194.952Z" fill="#8080B2"/>
<path d="M14.2673 194.583C14.3563 194.583 14.4452 194.621 14.5214 194.685L20.4418 200.237C20.518 200.3 20.5561 200.402 20.5561 200.503C20.5561 200.605 20.518 200.694 20.4545 200.77L14.5341 206.932C14.4579 207.008 14.3563 207.046 14.2419 207.046C9.37606 207.046 7.90232 200.859 7.8388 200.592C7.81339 200.465 7.8515 200.326 7.95314 200.237L14.0132 194.685C14.0895 194.621 14.1784 194.583 14.2673 194.583ZM19.6541 200.529L14.2673 195.46L8.62649 200.631C8.91869 201.66 10.4051 206.182 14.1149 206.297L19.6541 200.529Z" fill="black"/>
<path d="M8.20716 200.516L1.62616 205.636C1.62616 205.636 9.73171 215.559 14.191 216.982H23.0335C23.0335 216.982 20.5815 211.569 17.1004 210.401L14.2673 206.678L8.20716 200.516Z" fill="#41D8BB"/>
<path d="M8.20718 200.135C8.30882 200.135 8.39775 200.173 8.47398 200.249L14.5341 206.411C14.5468 206.424 14.5595 206.437 14.5595 206.449L17.3291 210.083C20.861 211.353 23.2749 216.6 23.3765 216.816C23.4273 216.931 23.4146 217.07 23.3511 217.172C23.2876 217.274 23.1605 217.337 23.0335 217.337H14.1911C14.1529 217.337 14.1148 217.337 14.0767 217.324C9.56658 215.889 1.67701 206.271 1.33398 205.865C1.27046 205.789 1.24505 205.687 1.25775 205.585C1.27046 205.484 1.32128 205.395 1.3975 205.331L7.9785 200.211C8.04202 200.161 8.11825 200.135 8.20718 200.135ZM13.9878 206.919L8.18178 201.012L2.17249 205.687C3.54459 207.326 10.3797 215.317 14.2673 216.6H22.4491C21.7376 215.241 19.6668 211.633 16.9988 210.743C16.9226 210.718 16.8717 210.68 16.8209 210.616L13.9878 206.919Z" fill="black"/>
<path d="M82.707 202.638L85.5148 210.388L93.2011 207.58L90.2536 200.656L82.707 202.638Z" fill="#8080B2"/>
<path d="M90.2537 200.275C90.3934 200.275 90.5332 200.364 90.5967 200.504L93.5441 207.428C93.5823 207.517 93.5823 207.631 93.5441 207.72C93.506 207.809 93.4298 207.885 93.3282 207.923L85.6419 210.731C85.5529 210.769 85.4513 210.756 85.3624 210.718C85.2734 210.68 85.2099 210.604 85.1718 210.502L82.3641 202.752C82.326 202.651 82.3387 202.549 82.3895 202.447C82.4403 202.358 82.5292 202.282 82.6182 202.257L90.1647 200.275C90.1901 200.288 90.2155 200.275 90.2537 200.275ZM92.6929 207.364L90.025 201.088L83.1899 202.892L85.7308 209.905L92.6929 207.364Z" fill="black"/>
<path d="M85.5147 210.388L84.7271 217.82L108.18 211.836C108.18 211.836 105.918 208.673 103.975 208.711L93.201 207.58L85.5147 210.388Z" fill="#41D8BB"/>
<path d="M93.2011 207.212C93.2138 207.212 93.2265 207.212 93.2392 207.212L103.987 208.342H104C106.109 208.342 108.383 211.48 108.472 211.62C108.548 211.722 108.561 211.849 108.523 211.963C108.485 212.077 108.383 212.166 108.269 212.192L84.816 218.176C84.7017 218.201 84.5747 218.176 84.4857 218.099C84.3968 218.023 84.346 217.896 84.3587 217.782L85.1464 210.35C85.1591 210.21 85.2607 210.083 85.3878 210.045L93.0741 207.237C93.1122 207.212 93.1503 207.212 93.2011 207.212ZM103.962 209.092C103.949 209.092 103.937 209.092 103.924 209.092L93.2392 207.961L85.8578 210.655L85.1591 217.324L107.545 211.607C106.757 210.642 105.232 209.079 104.013 209.079C103.987 209.092 103.975 209.092 103.962 209.092Z" fill="black"/>
<path d="M62.151 121.189C62.1891 121.189 62.2272 121.189 62.2654 121.201C62.4559 121.265 62.5703 121.468 62.5194 121.671L57.679 137.527C57.6155 137.717 57.4122 137.832 57.2089 137.781C57.0183 137.717 56.904 137.514 56.9548 137.311L61.7826 121.455C61.8461 121.29 61.9858 121.189 62.151 121.189Z" fill="black"/>
<path d="M70.0787 58.8088C68.7701 63.3571 60.2453 60.6891 60.2453 60.6891L60.3088 62.4169L63.2817 64.2972L62.151 68.0197C62.151 68.0197 58.365 64.5894 54.3885 63.2173V54.6163C54.3885 54.6163 49.764 54.4638 49.1796 50.2713C49.1796 50.2713 49.6242 42.9788 55.0364 50.2713C55.0364 50.2713 55.9003 48.264 54.6807 46.7013C54.6807 46.7013 53.6643 45.7866 54.8966 44.3382C54.8966 44.3382 56.2052 42.9026 57.9966 44.0587C57.9966 44.0587 59.0892 45.2148 60.817 44.9862C60.817 44.9862 62.7735 45.3292 63.3452 43.6014C63.3452 43.6014 63.9169 42.5342 65.162 42.5977C65.162 42.5977 66.1784 42.8137 66.4579 43.6141C66.4579 43.6141 68.3636 44.1477 69.8373 43.703C69.3291 45.5198 69.9897 50.2967 69.9897 50.2967C70.3582 52.1262 70.0787 58.8088 70.0787 58.8088Z" fill="#8080B2"/>
<path d="M65.0477 42.2421C65.0858 42.2421 65.1366 42.2421 65.1874 42.2421C65.2001 42.2421 65.2255 42.2421 65.2382 42.2548C65.2891 42.2675 66.3054 42.4835 66.7247 43.3093C67.2075 43.4236 68.6177 43.6904 69.7357 43.3601C69.8627 43.322 70.0025 43.3601 70.1041 43.449C70.2058 43.5379 70.2312 43.6777 70.2057 43.8174C69.723 45.5326 70.3709 50.2079 70.3709 50.2587C70.7266 52.0882 70.4598 58.5548 70.4471 58.8216C70.4471 58.847 70.4471 58.8851 70.4344 58.9105C70.1549 59.8888 69.5451 60.6384 68.6304 61.1338C66.153 62.4678 62.0748 61.5658 60.6392 61.1847L60.6773 62.2137L63.485 63.9924C63.6248 64.0813 63.6883 64.2592 63.6375 64.4116L62.5067 68.1341C62.4686 68.2611 62.367 68.3501 62.2527 68.3882C62.1256 68.4263 61.9986 68.3882 61.9096 68.2993C61.8715 68.2611 58.1237 64.9071 54.2742 63.5731C54.1217 63.5223 54.0201 63.3826 54.0201 63.2174V54.9594C52.8766 54.8196 49.332 54.0701 48.8112 50.3349C48.8112 50.3095 48.8112 50.2841 48.8112 50.2587C48.8239 49.9538 49.0398 47.2096 50.6406 46.7268C51.7713 46.3965 53.1688 47.2858 54.884 49.4583C55.011 48.8104 55.0491 47.794 54.4012 46.9555C53.9692 46.5362 53.4738 45.4436 54.6045 44.0969C55.1381 43.5125 56.561 42.6867 58.1999 43.7412C58.2253 43.7539 58.2507 43.7793 58.2634 43.8047C58.3015 43.8429 59.2544 44.8211 60.7662 44.6305C60.8043 44.6305 60.8424 44.6305 60.8806 44.6305C60.9441 44.6432 62.5322 44.8846 62.9895 43.4998C63.0022 43.4744 63.0022 43.4617 63.0149 43.4363C63.053 43.3855 63.6883 42.2421 65.0477 42.2421ZM65.1112 42.9789C64.2346 42.9662 63.7772 43.6269 63.6883 43.7666C63.1547 45.2912 61.6047 45.4945 60.817 45.3674C59.1019 45.558 57.9839 44.567 57.7679 44.351C56.2688 43.4109 55.2143 44.5416 55.1762 44.5924C54.236 45.7104 54.8586 46.3584 54.9348 46.4346C54.9475 46.4473 54.9602 46.46 54.9729 46.4727C56.3196 48.1751 55.4176 50.3222 55.3795 50.4111C55.3286 50.5382 55.2143 50.6144 55.0745 50.6398C54.9348 50.6525 54.8077 50.6017 54.7315 50.4874C52.4955 47.4891 51.3394 47.2858 50.8439 47.4256C49.9292 47.7051 49.5988 49.5599 49.548 50.246C50.107 54.032 54.2233 54.2225 54.3885 54.2352C54.5918 54.2479 54.7442 54.4004 54.7442 54.6037V62.9379C57.9077 64.094 60.8551 66.4317 61.9477 67.3464L62.8371 64.437L60.1056 62.7092C60.0039 62.6457 59.9404 62.5314 59.9277 62.4043L59.8642 60.6765C59.8642 60.5494 59.915 60.4351 60.0039 60.3716C60.1056 60.2953 60.2199 60.2699 60.347 60.308C60.3978 60.3207 65.5559 61.9215 68.2619 60.4605C68.9988 60.0667 69.4562 59.4949 69.6976 58.72C69.723 58.1356 69.9517 52.0373 69.6213 50.3476C69.5959 50.1443 69.0623 46.2821 69.3545 44.1732C67.9189 44.3891 66.4198 43.9826 66.3435 43.9572C66.2292 43.9191 66.1276 43.8428 66.0895 43.7158C65.9243 43.2203 65.2509 43.017 65.1112 42.9789Z" fill="black"/>
<path d="M57.2343 62.0866C57.2343 62.0866 46.6006 62.8235 40.172 57.1318C40.172 57.1318 36.043 58.7072 36.2209 55.2515L36.7291 52.4438C36.7291 52.4438 34.1119 51.8467 33.2353 51.059C33.2353 51.059 32.4095 50.4111 33.2353 49.6742C33.2353 49.6742 34.7599 48.0226 35.484 47.8829C35.484 47.8829 32.7652 43.9698 33.464 39.4597C33.464 39.4597 33.7435 38.672 34.6201 39.1421L37.1992 40.6158C37.1992 40.6158 39.5495 36.1946 40.5532 35.2799C40.5532 35.2799 39.8544 29.0546 41.9761 27.1997C41.9761 27.1997 46.2194 23.7314 48.0997 23.2867C48.0997 23.2867 50.3103 22.4355 50.4501 25.5481C50.4501 25.5481 49.98 29.4357 52.1906 30.5792C52.1906 30.5792 54.1852 30.4267 54.9856 30.4267C54.9856 30.4267 55.8368 27.5428 56.3069 26.8694C56.3069 26.8694 57.2725 25.7768 57.6028 27.4919C57.6028 27.4919 57.9839 29.5247 58.4032 29.9058C58.4032 29.9058 60.3724 27.5555 61.0457 27.1743C61.0457 27.1743 62.2273 26.2088 61.8969 28.3558C61.8969 28.3558 61.7191 29.9185 61.7445 30.2361C61.7445 30.2361 62.9768 29.855 65.0985 30.5283C65.0985 30.5283 66.2419 25.4719 67.0677 24.608C67.0677 24.608 68.4779 22.1306 71.2221 25.7895C71.2221 25.7895 73.8647 28.7624 73.9536 32.9676V36.4106C73.9536 36.4106 74.9827 38.4941 75.2749 39.5867C75.2749 39.5867 76.6343 38.8245 77.0154 38.7355C77.0154 38.7355 79.1625 37.5032 78.8957 40.4125C78.8957 40.4125 78.6543 42.8899 78.1589 44.008C78.1589 44.008 81.5002 44.3002 78.9211 47.273C78.9211 47.273 78.7814 49.4836 77.6888 51.8594C77.6888 51.8594 77.5999 52.2405 77.8413 52.5328C77.8413 52.5328 78.5781 53.6254 78.7814 54.0065C78.7814 54.0065 79.5818 55.277 77.9048 55.2388L75.872 55.2642C75.872 55.277 72.6069 62.76 57.2343 62.0866Z" fill="#8080B2"/>
<path d="M48.735 22.8167C49.0526 22.8167 49.421 22.8802 49.764 23.1089C50.412 23.5281 50.755 24.3412 50.8185 25.5481C50.8185 25.5736 50.8185 25.5863 50.8185 25.6117C50.8185 25.6498 50.4247 29.1436 52.2668 30.2234C52.648 30.198 53.9312 30.1091 54.7061 30.0837C54.9348 29.3214 55.5828 27.2887 56.002 26.6789C56.0147 26.6662 56.0147 26.6534 56.0274 26.6407C56.0782 26.5772 56.5737 26.0436 57.1454 26.2088C57.7552 26.3739 57.9077 27.1743 57.9585 27.4411C58.0856 28.0891 58.2761 28.8386 58.4413 29.2833C59.0511 28.5846 60.2453 27.2252 60.8171 26.8821C60.9441 26.7805 61.4396 26.4375 61.8842 26.6916C62.4051 26.9838 62.3416 27.8223 62.2527 28.4321C62.2019 28.8386 62.151 29.4231 62.1256 29.8169C62.6465 29.7534 63.574 29.7407 64.819 30.0837C65.1112 28.8259 66.0132 25.2686 66.7628 24.4174C66.8772 24.2396 67.3981 23.5154 68.3255 23.4519C69.3165 23.3884 70.3963 24.1125 71.5016 25.5863C71.5906 25.6879 74.2204 28.6862 74.3094 32.9804V36.3471C74.4745 36.6901 75.1352 38.0495 75.4782 39.0659C75.9102 38.8372 76.5327 38.5069 76.8503 38.4052C77.079 38.2909 77.9302 37.8843 78.6035 38.3163C79.1244 38.6466 79.3404 39.3708 79.2388 40.4634C79.2261 40.5523 79.0482 42.4834 78.6417 43.7285C79.1371 43.8555 79.874 44.1477 80.1408 44.8211C80.4203 45.5198 80.1281 46.3964 79.2515 47.4255C79.2007 47.9337 78.972 49.8775 78.0191 51.9738C78.0064 52.0373 78.0064 52.1897 78.0954 52.3041C78.1462 52.3676 78.8576 53.4348 79.0736 53.8286C79.1117 53.8795 79.4929 54.5274 79.188 55.0737C78.9847 55.4421 78.54 55.6327 77.854 55.62L76.0626 55.6454C75.3766 56.9286 71.3365 63.0649 57.1962 62.4678C56.5229 62.5059 46.4481 63.0649 40.0577 57.5638C39.4479 57.7544 37.72 58.2117 36.6529 57.424C36.043 56.9794 35.7635 56.2425 35.8144 55.2389C35.8144 55.2261 35.8144 55.2134 35.8144 55.188L36.259 52.7233C35.4967 52.5328 33.6927 52.0119 32.9431 51.3385C32.9177 51.3131 32.473 50.9574 32.4476 50.3984C32.4349 50.157 32.5112 49.7886 32.9304 49.4074C33.1718 49.1406 34.1246 48.1497 34.8996 47.705C34.2263 46.587 32.473 43.233 33.0575 39.3962C33.0575 39.3708 33.0702 39.3454 33.0702 39.3327C33.0829 39.2818 33.248 38.8626 33.6927 38.6847C34.0103 38.5577 34.366 38.5958 34.7472 38.7991L37.0086 40.0822C37.5549 39.0659 39.2065 36.1057 40.1212 35.1147C40.0196 34.0348 39.6257 28.6862 41.6839 26.8948C41.8745 26.7424 45.9908 23.3757 47.9473 22.9056C48.087 22.9056 48.3665 22.8167 48.735 22.8167ZM50.0816 25.5481C50.0308 24.6334 49.7894 24.0109 49.3702 23.7314C48.8747 23.4011 48.2395 23.6297 48.2268 23.6425C48.2141 23.6425 48.1887 23.6552 48.176 23.6552C46.3973 24.0744 42.2429 27.4538 42.2048 27.492C40.261 29.1944 40.9089 35.191 40.9216 35.2418C40.9343 35.3561 40.8962 35.4832 40.8073 35.5594C40.0196 36.2836 38.1647 39.5868 37.5295 40.7937C37.4787 40.8826 37.4024 40.9461 37.3008 40.9716C37.1992 40.997 37.0975 40.9843 37.0086 40.9334L34.4296 39.4597C34.3152 39.3962 34.1373 39.3327 34.0103 39.3835C33.9087 39.4216 33.8451 39.5232 33.8324 39.5613C33.1972 43.8428 35.7762 47.6288 35.8017 47.6669C35.8779 47.7685 35.8906 47.9083 35.8398 48.0226C35.7889 48.137 35.6873 48.2259 35.5603 48.2513C35.141 48.3275 34.1119 49.2804 33.5148 49.9283C33.5021 49.941 33.5021 49.941 33.4894 49.9537C33.3242 50.0935 33.248 50.2332 33.248 50.373C33.248 50.5508 33.4132 50.716 33.4767 50.7668C34.15 51.3639 36.1193 51.9102 36.8307 52.0754C37.0213 52.1135 37.1483 52.3041 37.1102 52.5074L36.602 55.2897C36.5639 56.0138 36.7418 56.5347 37.1356 56.8142C37.9233 57.3986 39.5114 56.9921 40.045 56.7761C40.172 56.7253 40.3245 56.7507 40.4261 56.8396C46.6514 62.3534 57.1073 61.7055 57.2089 61.6928C57.2216 61.6928 57.2344 61.6928 57.2471 61.6928C72.1369 62.328 75.5036 55.1753 75.529 55.0991C75.5925 54.9721 75.7196 54.8831 75.8593 54.8831L77.8921 54.8577C78.324 54.8704 78.5273 54.7815 78.5781 54.6926C78.6416 54.5782 78.5527 54.3241 78.4638 54.1844C78.2605 53.8032 77.5363 52.736 77.5236 52.7233C77.206 52.3295 77.3077 51.8086 77.3204 51.7578C77.3204 51.7324 77.3331 51.707 77.3458 51.6816C78.3876 49.3947 78.54 47.2476 78.54 47.2222C78.54 47.146 78.5781 47.0698 78.6289 47.0063C79.3531 46.1677 79.6453 45.5071 79.4674 45.0752C79.2642 44.567 78.4257 44.3891 78.1208 44.3637C78.0064 44.351 77.8921 44.2875 77.8286 44.1858C77.765 44.0842 77.765 43.9571 77.8158 43.8428C78.2859 42.7883 78.5146 40.3999 78.5146 40.3744C78.5781 39.6122 78.4765 39.0913 78.2224 38.9134C77.9175 38.7228 77.3585 38.9515 77.1933 39.0532C77.1679 39.0659 77.1298 39.0786 77.0917 39.0913C76.863 39.1421 75.9991 39.5995 75.4528 39.9044C75.3512 39.9552 75.2368 39.9679 75.1225 39.9298C75.0081 39.8917 74.9319 39.79 74.9065 39.6884C74.627 38.6466 73.6233 36.6012 73.6106 36.5758C73.5852 36.5249 73.5725 36.4741 73.5725 36.4106V32.9676C73.4836 28.953 70.9554 26.069 70.9299 26.0309C69.9771 24.7605 69.1005 24.1252 68.3763 24.1633C67.7284 24.2015 67.3853 24.7732 67.3726 24.7986C67.3599 24.824 67.3345 24.8494 67.3218 24.8748C66.7755 25.4465 65.8862 28.6989 65.4415 30.6173C65.4161 30.7189 65.3526 30.8079 65.2637 30.8587C65.1747 30.9095 65.0604 30.9222 64.9715 30.8841C63.015 30.2616 61.8461 30.5919 61.8334 30.5919C61.7318 30.6173 61.6047 30.6046 61.5158 30.5411C61.4269 30.4775 61.3634 30.3759 61.3507 30.2616C61.3252 29.9185 61.465 28.5718 61.5031 28.305C61.6047 27.6317 61.5412 27.3903 61.5031 27.3268C61.4396 27.3395 61.3252 27.403 61.249 27.4538C61.2363 27.4665 61.2109 27.4792 61.1982 27.492C60.7535 27.746 59.3941 29.2579 58.6573 30.1472C58.5937 30.2234 58.4921 30.2743 58.3905 30.2743C58.2888 30.2743 58.1872 30.2489 58.111 30.1726C57.6409 29.7407 57.2979 28.0637 57.2089 27.5555C57.0946 26.9584 56.9294 26.8948 56.9294 26.8948C56.8532 26.8694 56.6881 26.9838 56.5737 27.0981C56.218 27.6444 55.5446 29.7534 55.316 30.5284C55.2651 30.6808 55.1254 30.7952 54.9602 30.7952C54.1852 30.7952 52.216 30.9349 52.1906 30.9349C52.1271 30.9349 52.0509 30.9222 51.9873 30.8968C49.7005 29.7153 50.0308 25.9674 50.0816 25.5481Z" fill="black"/>
<path d="M72.9626 53.8667C73.0007 53.8667 73.0388 53.8667 73.077 53.8794C73.2675 53.9429 73.3819 54.1462 73.3183 54.3495C72.8737 55.747 72.1749 56.5855 71.2348 56.8523C70.0532 57.1826 68.859 56.4966 68.3127 56.1154C67.3345 57.2969 66.2165 57.9195 64.9714 57.983C62.5067 58.0973 60.4994 55.9376 60.4231 55.8486C60.2834 55.6962 60.2961 55.4675 60.4486 55.3277C60.601 55.188 60.8297 55.2007 60.9694 55.3531C60.9821 55.3785 62.8243 57.3351 64.946 57.2461C66.0513 57.1953 67.0677 56.5601 67.957 55.3785C68.0205 55.2896 68.1094 55.2388 68.2111 55.2261C68.3127 55.2134 68.4144 55.2515 68.4906 55.315C68.5033 55.3277 69.85 56.4711 71.0315 56.1408C71.7176 55.9503 72.2512 55.2642 72.6069 54.1335C72.6577 53.9683 72.8102 53.8667 72.9626 53.8667Z" fill="black"/>
<path d="M59.1019 43.7029C59.6101 43.7029 60.131 43.7537 60.6392 43.868C62.2654 44.2365 63.5612 45.202 64.5014 46.752C64.603 46.9299 64.5522 47.1585 64.3743 47.2602C64.1965 47.3618 63.9678 47.311 63.8661 47.1331C63.0276 45.761 61.8969 44.9098 60.474 44.5922C57.5265 43.9316 54.1725 45.7356 53.207 46.2946L54.1217 48.3528C54.2106 48.5433 54.1217 48.7593 53.9311 48.8483C53.7406 48.9372 53.5246 48.8483 53.4357 48.6577L52.3939 46.3073C52.3176 46.1422 52.3812 45.9516 52.5336 45.85C52.6861 45.7483 55.8241 43.7029 59.1019 43.7029Z" fill="black"/>
<path d="M72.5687 43.8555C73.7503 43.8555 74.9064 44.605 76.0117 46.0788C76.0625 46.155 76.0879 46.2439 76.0879 46.3329C76.0879 46.3837 75.9863 47.4509 75.5289 48.4164C75.44 48.607 75.224 48.6832 75.0334 48.5943C74.8429 48.5054 74.7666 48.2894 74.8556 48.0988C75.1732 47.4382 75.2875 46.714 75.3256 46.4091C74.3474 45.1386 73.3691 44.5415 72.4163 44.605C70.7266 44.7321 69.545 46.9173 69.5323 46.9427C69.4307 47.1206 69.2147 47.1968 69.0242 47.0951C68.8463 46.9935 68.7701 46.7775 68.8717 46.587C68.9225 46.4853 70.2438 44.0206 72.3528 43.8555C72.429 43.8555 72.5052 43.8555 72.5687 43.8555Z" fill="black"/>
<path d="M72.1242 48.2514C72.5312 48.2514 72.8611 47.6826 72.8611 46.9809C72.8611 46.2793 72.5312 45.7104 72.1242 45.7104C71.7172 45.7104 71.3873 46.2793 71.3873 46.9809C71.3873 47.6826 71.7172 48.2514 72.1242 48.2514Z" fill="black"/>
<path d="M61.7063 48.4419C62.1133 48.4419 62.4432 47.8731 62.4432 47.1715C62.4432 46.4698 62.1133 45.901 61.7063 45.901C61.2994 45.901 60.9695 46.4698 60.9695 47.1715C60.9695 47.8731 61.2994 48.4419 61.7063 48.4419Z" fill="black"/>
<path d="M48.1378 51.1353C48.1759 51.1353 48.2013 51.1353 48.2394 51.148L56.4974 53.3967C56.7007 53.4475 56.815 53.6508 56.7642 53.854C56.7134 54.0573 56.5101 54.1717 56.3068 54.1208L48.0488 51.8721C47.8456 51.8213 47.7312 51.618 47.782 51.4148C47.8202 51.2369 47.9726 51.1353 48.1378 51.1353Z" fill="black"/>
<path d="M49.9292 55.5437H55.8496C56.0529 55.5437 56.218 55.7089 56.218 55.9121C56.218 56.1154 56.0529 56.2806 55.8496 56.2806H49.9292C49.726 56.2806 49.5608 56.1154 49.5608 55.9121C49.5608 55.7216 49.726 55.5437 49.9292 55.5437Z" fill="black"/>
<path d="M55.8495 57.8052C56.0147 57.8052 56.1544 57.9068 56.2052 58.072C56.2688 58.2752 56.1544 58.4785 55.9511 58.5293L51.9365 59.7236C51.7332 59.7871 51.5299 59.6728 51.4791 59.4695C51.4156 59.2662 51.5299 59.0629 51.7332 59.0121L55.7479 57.8179C55.786 57.8052 55.8241 57.8052 55.8495 57.8052Z" fill="black"/>
<path d="M76.5835 50.0552C76.6724 50.0552 76.7741 50.0933 76.8376 50.1568C76.9901 50.2966 76.9901 50.538 76.8503 50.6777L75.2622 52.3293C75.1225 52.4818 74.8811 52.4818 74.7413 52.342C74.5889 52.2023 74.5889 51.9609 74.7286 51.8211L76.3167 50.1695C76.3929 50.0933 76.4946 50.0552 76.5835 50.0552Z" fill="black"/>
<path d="M74.8938 53.2822C74.9192 53.2822 74.9446 53.2822 74.97 53.2949L76.6852 53.6761C76.8884 53.7269 77.0155 53.9175 76.9647 54.1207C76.9138 54.324 76.7233 54.451 76.52 54.4002L74.8049 54.0191C74.6016 53.9683 74.4745 53.7777 74.5254 53.5744C74.5762 53.3966 74.7286 53.2822 74.8938 53.2822Z" fill="black"/>
</svg>
