<svg width="284" height="219" viewBox="0 0 284 219" fill="none" xmlns="http://www.w3.org/2000/svg">
<path d="M56.6539 54.0277C26.2256 54.0277 1.5712 78.6821 1.5712 109.11C1.5712 139.526 26.2256 164.18 56.6539 164.18C87.0695 164.18 111.724 139.526 111.724 109.11C111.724 78.6821 87.0695 54.0277 56.6539 54.0277ZM56.6539 138.185C40.6222 138.185 27.5796 125.142 27.5796 109.11C27.5796 93.0787 40.6222 80.0362 56.6539 80.0362C72.6729 80.0362 85.7154 93.0787 85.7154 109.11C85.7154 125.142 72.6729 138.185 56.6539 138.185Z" fill="#F7D7D5"/>
<path d="M108.965 50.3231C105.694 50.3231 103.037 52.9802 103.037 56.2504C103.037 59.5206 105.694 62.1777 108.965 62.1777C112.235 62.1777 114.892 59.5206 114.892 56.2504C114.892 52.9802 112.235 50.3231 108.965 50.3231ZM108.965 59.3801C107.24 59.3801 105.835 57.9749 105.835 56.2504C105.835 54.5259 107.24 53.1207 108.965 53.1207C110.689 53.1207 112.094 54.5259 112.094 56.2504C112.094 57.9749 110.689 59.3801 108.965 59.3801Z" fill="#FF86A3"/>
<path d="M95.8838 96.2849C92.6136 96.2849 89.9565 98.942 89.9565 102.212C89.9565 105.482 92.6136 108.139 95.8838 108.139C99.154 108.139 101.811 105.482 101.811 102.212C101.811 98.942 99.154 96.2849 95.8838 96.2849ZM95.8838 105.342C94.1593 105.342 92.7541 103.937 92.7541 102.212C92.7541 100.488 94.1593 99.0825 95.8838 99.0825C97.6083 99.0825 99.0135 100.488 99.0135 102.212C99.0135 103.937 97.6083 105.342 95.8838 105.342Z" fill="#FF86A3"/>
<path d="M82.8668 152.377C79.5966 152.377 76.9395 155.034 76.9395 158.304C76.9395 161.574 79.5966 164.231 82.8668 164.231C86.137 164.231 88.7941 161.574 88.7941 158.304C88.7941 155.021 86.1498 152.377 82.8668 152.377ZM82.8668 161.434C81.1423 161.434 79.7371 160.029 79.7371 158.304C79.7371 156.58 81.1423 155.174 82.8668 155.174C84.5913 155.174 85.9965 156.58 85.9965 158.304C85.9965 160.029 84.5913 161.434 82.8668 161.434Z" fill="#FF86A3"/>
<path d="M11.8545 121.91C8.58433 121.91 5.92728 124.567 5.92728 127.838C5.92728 131.108 8.58433 133.765 11.8545 133.765C15.1248 133.765 17.7818 131.108 17.7818 127.838C17.7818 124.555 15.1248 121.91 11.8545 121.91ZM11.8545 130.967C10.13 130.967 8.72485 129.562 8.72485 127.838C8.72485 126.113 10.13 124.708 11.8545 124.708C13.5791 124.708 14.9842 126.113 14.9842 127.838C14.9842 129.562 13.5791 130.967 11.8545 130.967Z" fill="#FF86A3"/>
<path d="M41.8486 65.946C38.5783 65.946 35.9213 68.6031 35.9213 71.8733C35.9213 75.1435 38.5783 77.8006 41.8486 77.8006C45.1188 77.8006 47.7758 75.1435 47.7758 71.8733C47.7758 68.6031 45.1188 65.946 41.8486 65.946ZM41.8486 75.0158C40.124 75.0158 38.7189 73.6106 38.7189 71.8861C38.7189 70.1616 40.124 68.7564 41.8486 68.7564C43.5731 68.7564 44.9783 70.1616 44.9783 71.8861C44.9783 73.6106 43.5731 75.0158 41.8486 75.0158Z" fill="#FF86A3"/>
<path d="M5.92727 156.592C2.65705 156.592 0 159.249 0 162.52C0 165.79 2.65705 168.447 5.92727 168.447C9.19749 168.447 11.8545 165.79 11.8545 162.52C11.8545 159.249 9.19749 156.592 5.92727 156.592ZM5.92727 165.649C4.20274 165.649 2.79757 164.244 2.79757 162.52C2.79757 160.795 4.20274 159.39 5.92727 159.39C7.6518 159.39 9.05697 160.795 9.05697 162.52C9.05697 164.244 7.6518 165.649 5.92727 165.649Z" fill="#FF86A3"/>
<path d="M17.7818 81.0963C15.7635 81.0963 14.1156 82.7314 14.1156 84.7625C14.1156 86.7809 15.7507 88.4288 17.7818 88.4288C19.8001 88.4288 21.448 86.7936 21.448 84.7625C21.448 82.7442 19.8001 81.0963 17.7818 81.0963ZM17.7818 86.7042C16.7088 86.7042 15.8529 85.8356 15.8529 84.7753C15.8529 83.7023 16.7215 82.8464 17.7818 82.8464C18.8421 82.8464 19.7107 83.715 19.7107 84.7753C19.7107 85.8356 18.8421 86.7042 17.7818 86.7042Z" fill="#FF86A3"/>
<path d="M92.2176 124.171C90.1992 124.171 88.5514 125.806 88.5514 127.837C88.5514 129.856 90.1865 131.504 92.2176 131.504C94.2359 131.504 95.8838 129.868 95.8838 127.837C95.8838 125.806 94.2487 124.171 92.2176 124.171ZM92.2176 129.766C91.1445 129.766 90.2887 128.898 90.2887 127.837C90.2887 126.764 91.1573 125.908 92.2176 125.908C93.2779 125.908 94.1465 126.777 94.1465 127.837C94.1593 128.898 93.2906 129.766 92.2176 129.766Z" fill="#FF86A3"/>
<path d="M114.56 145.951C112.541 145.951 110.894 147.587 110.894 149.618C110.894 151.636 112.529 153.284 114.56 153.284C116.578 153.284 118.226 151.649 118.226 149.618C118.226 147.587 116.591 145.951 114.56 145.951ZM114.56 151.547C113.487 151.547 112.631 150.678 112.631 149.618C112.631 148.545 113.5 147.689 114.56 147.689C115.62 147.689 116.489 148.557 116.489 149.618C116.501 150.678 115.633 151.547 114.56 151.547Z" fill="#FF86A3"/>
<path d="M46.9072 111.039C44.8888 111.039 43.2409 112.674 43.2409 114.706C43.2409 116.724 44.876 118.372 46.9072 118.372C48.9255 118.372 50.5734 116.737 50.5734 114.706C50.5734 112.674 48.9255 111.039 46.9072 111.039ZM46.9072 116.634C45.8341 116.634 44.9782 115.766 44.9782 114.706C44.9782 113.632 45.8469 112.777 46.9072 112.777C47.9674 112.777 48.8361 113.645 48.8361 114.706C48.8361 115.766 47.9674 116.634 46.9072 116.634Z" fill="#FF86A3"/>
<path d="M72.4685 88.4287C70.4502 88.4287 68.8023 90.0638 68.8023 92.0949C68.8023 94.1133 70.4374 95.7611 72.4685 95.7611C74.4869 95.7611 76.1347 94.126 76.1347 92.0949C76.122 90.0638 74.4869 88.4287 72.4685 88.4287ZM72.4685 94.0238C71.3955 94.0238 70.5396 93.1552 70.5396 92.0949C70.5396 91.0219 71.4083 90.166 72.4685 90.166C73.5288 90.166 74.3974 91.0347 74.3974 92.0949C74.3974 93.1552 73.5288 94.0238 72.4685 94.0238Z" fill="#FF86A3"/>
<path d="M76.9395 53.1718C74.9212 53.1718 73.2733 54.8069 73.2733 56.838C73.2733 58.8563 74.9084 60.5042 76.9395 60.5042C78.9578 60.5042 80.6057 58.8691 80.6057 56.838C80.6057 54.8069 78.9706 53.1718 76.9395 53.1718ZM76.9395 58.7669C75.8665 58.7669 75.0106 57.8982 75.0106 56.838C75.0106 55.7649 75.8792 54.9091 76.9395 54.9091C77.9998 54.9091 78.8684 55.7777 78.8684 56.838C78.8812 57.8982 78.0125 58.7669 76.9395 58.7669Z" fill="#FF86A3"/>
<path d="M17.7818 51.23C15.7635 51.23 14.1156 52.8651 14.1156 54.8962C14.1156 56.9145 15.7507 58.5624 17.7818 58.5624C19.8001 58.5624 21.448 56.9273 21.448 54.8962C21.448 52.8779 19.8001 51.23 17.7818 51.23ZM17.7818 56.8251C16.7088 56.8251 15.8529 55.9565 15.8529 54.8962C15.8529 53.8232 16.7215 52.9673 17.7818 52.9673C18.8421 52.9673 19.7107 53.8359 19.7107 54.8962C19.7107 55.9565 18.8421 56.8251 17.7818 56.8251Z" fill="#FF86A3"/>
<path d="M44.9783 147.012C42.96 147.012 41.3121 148.647 41.3121 150.678C41.3121 152.696 42.9472 154.344 44.9783 154.344C46.9966 154.344 48.6445 152.709 48.6445 150.678C48.6317 148.647 46.9966 147.012 44.9783 147.012ZM44.9783 152.607C43.9053 152.607 43.0494 151.738 43.0494 150.678C43.0494 149.605 43.918 148.749 44.9783 148.749C46.0386 148.749 46.9072 149.618 46.9072 150.678C46.9072 151.738 46.0386 152.607 44.9783 152.607Z" fill="#FF86A3"/>
<path d="M44.9144 109.787C44.9144 109.787 24.8205 99.5552 28.6144 70.0466L29.5469 64.1321C29.5469 64.1321 28.0907 54.9346 21.3331 62.1266C21.3331 62.1266 16.1467 75.8461 27.7458 97.4475C27.7458 97.4475 36.5217 112.163 46.0896 115.063L44.9144 109.787Z" fill="#F8C1BA"/>
<path d="M46.0769 115.485C46.0385 115.485 46.0002 115.485 45.9619 115.472C36.3556 112.559 27.7458 98.2777 27.3881 97.6646C15.8146 76.1271 20.8988 62.1265 20.9498 61.986C20.9754 61.9349 21.0009 61.8838 21.0393 61.8455C23.2237 59.5333 25.1398 58.6008 26.7494 59.099C29.2915 59.8782 29.9429 63.9021 29.9685 64.0682C29.9813 64.1065 29.9813 64.1576 29.9685 64.196L29.036 70.1104C27.0943 85.2097 31.5908 95.097 35.6914 100.73C40.1241 106.824 45.0677 109.391 45.1188 109.417C45.2338 109.468 45.3104 109.57 45.336 109.698L46.4856 114.987C46.5112 115.127 46.4729 115.28 46.3579 115.383C46.2813 115.446 46.1791 115.485 46.0769 115.485ZM21.6908 62.3437C21.3075 63.455 17.1687 76.8936 28.1035 97.243C28.1801 97.3708 36.4834 111.141 45.5148 114.437L44.5567 110.056C43.6114 109.532 39.1532 106.888 35.0143 101.216C30.8244 95.4546 26.2384 85.3629 28.2056 69.9827L29.1254 64.1321C29.036 63.6467 28.3845 60.4659 26.4811 59.8782C25.2165 59.495 23.6069 60.3253 21.6908 62.3437Z" fill="black"/>
<path d="M60.9973 206.655H68.0742L79.8521 210.551C79.8521 210.551 82.969 212.403 83.6461 213.962H59.9242L60.9973 206.655Z" fill="#FFDD4D"/>
<path d="M83.6461 214.37H59.9242C59.8092 214.37 59.6943 214.319 59.6049 214.23C59.5282 214.141 59.4899 214.013 59.5027 213.898L60.5757 206.591C60.6012 206.387 60.7801 206.233 60.9845 206.233H68.0614C68.0998 206.233 68.1509 206.246 68.1892 206.259L79.9671 210.155C79.9926 210.168 80.0182 210.181 80.0437 210.193C80.1715 210.27 83.2756 212.135 84.0037 213.796C84.0548 213.923 84.0421 214.077 83.9654 214.192C83.9143 214.307 83.7866 214.37 83.6461 214.37ZM60.4096 213.54H82.9052C82.0876 212.505 80.4014 211.369 79.686 210.934L68.0231 207.064H61.3677L60.4096 213.54Z" fill="black"/>
<path d="M34.4778 203.474C34.4778 203.474 35.0782 206.463 31.182 209.67L26.2129 213.949H19.4936C19.4936 213.949 17.9351 208.009 20.8604 205.288L29.9174 200.676L34.4778 203.474Z" fill="#FFDD4D"/>
<path d="M26.2256 214.37H19.5063C19.3147 214.37 19.1486 214.243 19.1103 214.064C19.0465 213.808 17.5263 207.856 20.5921 204.994C20.6177 204.969 20.656 204.943 20.6816 204.93L29.7385 200.319C29.8663 200.255 30.0196 200.255 30.1473 200.332L34.695 203.129C34.7971 203.193 34.861 203.282 34.8866 203.397C34.9121 203.525 35.487 206.668 31.4503 210.002L26.4939 214.281C26.4172 214.332 26.3278 214.37 26.2256 214.37ZM19.8385 213.54H26.0723L30.9138 209.363C34.0562 206.77 34.1329 204.368 34.0946 203.729L29.9174 201.162L21.1159 205.646C18.8293 207.83 19.583 212.327 19.8385 213.54Z" fill="black"/>
<path d="M74.2059 76.702C73.9759 76.702 73.7843 76.5104 73.7843 76.2805C73.7843 75.0286 73.8993 73.534 74.027 71.9372C74.3464 67.76 74.7552 62.5737 72.8518 61.5262C72.6474 61.4112 72.5835 61.1685 72.6857 60.9641C72.8007 60.7597 73.0434 60.6959 73.2478 60.7981C75.611 62.101 75.2278 67.1341 74.8574 72.0011C74.7296 73.5723 74.6146 75.0669 74.6146 76.2805C74.6146 76.5104 74.4358 76.702 74.2059 76.702Z" fill="black"/>
<path d="M46.6006 90.3961C46.6006 90.3961 69.7859 98.7504 76.2625 90.3961C76.2625 90.3961 74.2442 81.0325 74.2442 76.2805C74.2442 76.2805 79.8776 77.3407 82.0876 75.4629C82.0876 75.4629 81.0656 50.0421 67.7548 47.219C67.7548 47.219 66.8223 56.0077 56.9222 46.5419C56.9222 46.5419 42.8577 44.6002 38.6805 74.4026C38.6805 74.4026 43.8669 79.2952 50.6245 77.8645L46.6006 90.3961Z" fill="#FFEA94"/>
<path d="M65.647 94.5349C57.0244 94.5349 47.086 91.0092 46.4601 90.7793C46.2557 90.7026 46.1407 90.4727 46.2046 90.2556L50.0241 78.3882C43.4709 79.4102 38.6039 74.9009 38.3995 74.6965C38.2973 74.6071 38.259 74.4665 38.2717 74.3388C40.0218 61.8711 43.6625 53.3379 49.1171 48.9691C53.2432 45.6605 56.8456 46.1076 56.9861 46.1204C57.0755 46.1332 57.1521 46.1715 57.216 46.2354C61.6359 50.4636 64.0503 50.8086 65.2894 50.3615C67.0522 49.7227 67.346 47.1934 67.346 47.1807C67.3588 47.0657 67.4227 46.9635 67.5121 46.8868C67.6015 46.823 67.7293 46.7974 67.8442 46.823C81.3083 49.6716 82.458 74.4027 82.5091 75.4502C82.5091 75.5779 82.458 75.7056 82.3558 75.7823C80.3886 77.4429 76.122 76.9831 74.6657 76.7659C74.7934 81.5435 76.6457 90.2045 76.6713 90.2939C76.6968 90.4088 76.6713 90.5366 76.5946 90.6388C74.3336 93.5641 70.1691 94.5349 65.647 94.5349ZM47.1243 90.1278C50.1135 91.137 69.8881 97.4858 75.8154 90.2811C75.5216 88.8887 73.8354 80.7004 73.8354 76.2805C73.8354 76.1527 73.8865 76.0378 73.9887 75.9611C74.0781 75.8845 74.2058 75.8462 74.3336 75.8717C74.3847 75.8845 79.5327 76.8298 81.6788 75.2713C81.5383 72.8697 79.9287 50.7319 68.1125 47.73C67.9209 48.6114 67.3333 50.5147 65.5959 51.1407C63.4882 51.9199 60.5118 50.502 56.7689 46.9379C56.1174 46.8996 53.0388 46.8741 49.5898 49.6716C46.0002 52.5842 41.2865 59.2013 39.1404 74.2494C40.0474 75.0286 44.7355 78.6948 50.5606 77.4557C50.7011 77.4302 50.8544 77.4685 50.9566 77.5835C51.0588 77.6984 51.0844 77.8517 51.046 77.9922L47.1243 90.1278Z" fill="black"/>
<path d="M50.6372 78.2732C50.6117 78.2732 50.5862 78.2732 50.5606 78.2605C50.3307 78.2221 50.1901 78.005 50.2285 77.775C50.254 77.6345 52.8089 64.1065 52.8089 61.1557C52.8089 60.9257 53.0005 60.7341 53.2304 60.7341C53.4604 60.7341 53.652 60.9257 53.652 61.1557C53.652 64.1832 51.161 77.379 51.0588 77.9411C51.0077 78.1455 50.8289 78.2732 50.6372 78.2732Z" fill="black"/>
<path d="M73.0562 139.194C73.0562 139.194 69.2111 191.466 69.2111 199.948L55.9642 200.663L55.2488 167.987L39.9835 198.236C39.9835 198.236 32.0635 196.933 29.4703 192.616L35.7936 168.715C35.7936 168.715 39.2426 147.689 44.5823 146.973C44.5823 146.973 41.261 126.956 41.1205 123.941C41.1205 123.941 39.3959 96.7319 46.6006 90.3831C46.6006 90.3831 69.786 98.7374 76.2625 90.3831C76.2625 90.3831 82.9435 109.11 73.0562 139.194Z" fill="#A8A8E5"/>
<path d="M55.9641 201.085C55.8619 201.085 55.7598 201.047 55.6831 200.97C55.6065 200.894 55.5554 200.791 55.5554 200.676L54.8783 169.66L40.3667 198.415C40.2901 198.581 40.1112 198.671 39.9324 198.633C39.6003 198.581 31.7824 197.24 29.1254 192.807C29.0743 192.705 29.0487 192.59 29.0743 192.488L35.3975 168.587C35.7424 166.492 38.8849 148.251 44.1224 146.641C43.6497 143.767 40.8522 126.752 40.7116 123.954C40.6478 122.843 39.0638 96.4638 46.3323 90.0639C46.4473 89.9617 46.6006 89.9361 46.7539 89.9872C46.9838 90.0639 69.722 98.1372 75.9431 90.1277C76.0325 90.0128 76.1858 89.9489 76.3391 89.9744C76.4924 90 76.6202 90.1022 76.6585 90.2427C76.7224 90.4343 83.2628 109.43 73.4649 139.283C73.3244 141.174 69.6326 191.696 69.6326 199.961C69.6326 200.178 69.4538 200.37 69.2366 200.37L55.9897 201.085C55.9769 201.085 55.9641 201.085 55.9641 201.085ZM55.2488 167.578C55.2743 167.578 55.3126 167.578 55.3382 167.591C55.5298 167.629 55.6576 167.795 55.6576 167.987L56.3601 200.229L68.7895 199.552C68.8917 190.048 72.5963 139.679 72.6346 139.155C72.6346 139.117 72.6474 139.092 72.6601 139.053C81.3339 112.662 77.1439 94.8798 76.0964 91.2135C69.2494 98.4055 49.2576 91.7373 46.7028 90.8431C39.9452 97.2686 41.5292 123.635 41.542 123.903C41.6953 126.867 44.9655 146.692 45.0038 146.897C45.0166 147.012 44.991 147.127 44.9271 147.216C44.8633 147.305 44.7611 147.369 44.6461 147.382C40.52 147.931 37.1604 163.018 36.2151 168.779L29.9174 192.539C32.1784 196.078 38.3228 197.483 39.7536 197.764L54.8656 167.808C54.9422 167.668 55.0955 167.578 55.2488 167.578Z" fill="black"/>
<path d="M55.2488 168.409C55.185 168.409 55.1211 168.396 55.0572 168.37C54.8528 168.268 54.7762 168.013 54.8784 167.808C61.5849 154.523 62.8879 140.599 62.9006 140.459L64.1908 113.977C64.2036 113.748 64.3952 113.569 64.6252 113.581C64.8551 113.594 65.0339 113.786 65.0212 114.016L63.731 140.51C63.7182 140.663 62.4024 154.753 55.6193 168.179C55.5426 168.332 55.4021 168.409 55.2488 168.409Z" fill="black"/>
<path d="M68.0742 200.025V207.92H61.0611L60.6779 200.421L68.0742 200.025Z" fill="#F8C1BA"/>
<path d="M68.0742 208.341H61.0611C60.8439 208.341 60.6523 208.162 60.6523 207.945L60.2691 200.447C60.2563 200.217 60.4352 200.025 60.6651 200.012L68.0614 199.616C68.1892 199.603 68.2914 199.655 68.368 199.731C68.4447 199.808 68.4957 199.923 68.4957 200.038V207.945C68.4957 208.149 68.3041 208.341 68.0742 208.341ZM61.4571 207.511H67.6526V200.459L61.0994 200.817L61.4571 207.511Z" fill="black"/>
<path d="M37.8247 197.726L33.4303 205.288C33.4303 205.288 30.0962 204.023 29.4831 202.171L31.693 194.928L37.467 197.611" fill="#F8C1BA"/>
<path d="M33.4303 205.71C33.3792 205.71 33.3281 205.697 33.277 205.684C33.1365 205.633 29.7513 204.33 29.0743 202.312C29.0487 202.235 29.0487 202.146 29.0743 202.056L31.2842 194.813C31.3226 194.698 31.3992 194.609 31.5142 194.558C31.6291 194.507 31.7441 194.507 31.8591 194.558L37.633 197.24C37.6714 197.266 37.7097 197.291 37.748 197.317C37.8502 197.291 37.9524 197.317 38.0418 197.368C38.2462 197.483 38.3101 197.738 38.1951 197.93L33.8008 205.492C33.7113 205.633 33.5708 205.71 33.4303 205.71ZM29.9046 202.171C30.39 203.334 32.2423 204.343 33.2387 204.777L37.1987 197.968L31.9357 195.516L29.9046 202.171Z" fill="black"/>
<path d="M75.8409 24.2124C75.8409 25.8858 75.8409 30.9189 75.8409 30.9189V37.1783C74.1546 42.0964 65.5576 39.9759 65.5576 39.9759V46.5163L67.7675 47.2189C67.7675 47.2189 66.8222 56.0076 56.9349 46.5419L57.9568 45.7882V43.6549L60.4095 43.9998C60.946 39.8737 58.966 25.1066 58.966 25.1066C58.851 21.8619 65.5703 21.8619 65.5703 21.8619C69.3643 21.8619 71.5998 21.8619 71.5998 21.8619C76.2752 21.8747 75.8409 24.2124 75.8409 24.2124Z" fill="#F8C1BA"/>
<path d="M64.3696 51.3578C62.364 51.3578 59.7709 49.8504 56.6284 46.8485C56.539 46.7591 56.4879 46.6441 56.5006 46.5164C56.5134 46.3886 56.5645 46.2864 56.6667 46.2098L57.5098 45.5838V43.6549C57.5098 43.5399 57.5609 43.425 57.6503 43.3356C57.7397 43.2589 57.8675 43.2206 57.9824 43.2334L60.0008 43.5144C60.3585 38.9795 58.5317 25.2983 58.519 25.1577C58.4934 24.4168 58.7361 23.7909 59.2471 23.2672C60.9844 21.466 65.3532 21.4404 65.5448 21.4404H71.5743C73.6437 21.4404 75.0489 21.8748 75.777 22.7434C76.2369 23.3055 76.3008 23.9186 76.2497 24.2252V37.1784C76.2497 37.2294 76.2369 37.2678 76.2241 37.3189C74.6657 41.8793 67.9081 40.8829 65.9664 40.4997V46.2225L67.8825 46.8357C68.0741 46.8996 68.1891 47.0784 68.1636 47.27C68.1508 47.3978 67.8059 50.3231 65.5576 51.1534C65.1999 51.2812 64.8039 51.3578 64.3696 51.3578ZM57.5737 46.5802C61.7636 50.4892 64.0758 50.8085 65.2893 50.3614C66.669 49.8632 67.1544 48.2153 67.2949 47.5L65.4299 46.9124C65.251 46.8613 65.1361 46.6952 65.1361 46.5164V39.9759C65.1361 39.8482 65.1999 39.7332 65.2893 39.6438C65.3915 39.5671 65.5193 39.5416 65.647 39.5671C65.7237 39.5927 73.8226 41.5216 75.4194 37.1017V24.2125C75.4194 24.1869 75.4194 24.1614 75.4194 24.1358C75.4194 24.1103 75.4832 23.6887 75.1128 23.2672C74.7295 22.8201 73.797 22.2708 71.5743 22.2708H65.5448C65.5065 22.2708 61.3421 22.2963 59.8475 23.842C59.5026 24.1997 59.3365 24.6085 59.3493 25.0811C59.4259 25.6432 61.3293 39.8993 60.7928 44.0381C60.78 44.1531 60.7161 44.2425 60.6267 44.3192C60.5373 44.383 60.4223 44.4214 60.3201 44.3958L58.3401 44.1276V45.7882C58.3401 45.916 58.2763 46.0437 58.1741 46.1203L57.5737 46.5802Z" fill="black"/>
<path d="M45.3999 91.7373C41.938 96.6299 41.0949 107.181 40.98 114.872L40.9672 114.884C40.9672 114.884 36.8666 118.602 36.7261 120.147C36.7261 120.147 33.0088 121.297 34.81 116.545L37.8886 112.7C37.8886 112.7 38.8722 81.7606 40.4434 75.7184C41.8231 76.6126 43.9691 77.6856 46.5623 78.0178C46.5368 78.0178 46.6262 87.624 45.3999 91.7373Z" fill="#F8C1BA"/>
<path d="M35.8574 120.684C35.3593 120.684 34.7972 120.569 34.3756 120.135C33.7114 119.432 33.7241 118.206 34.4012 116.392C34.414 116.353 34.4395 116.315 34.4651 116.277L37.4542 112.547C37.5309 110.017 38.489 81.4797 40.0091 75.6163C40.0474 75.4885 40.1368 75.3863 40.2646 75.3352C40.3923 75.2841 40.5328 75.2969 40.635 75.3735C41.938 76.2166 44.033 77.2897 46.5751 77.609C46.7795 77.6346 46.9328 77.8134 46.9328 78.0178C46.9328 78.4138 47.0094 87.6752 45.7831 91.8268C45.7703 91.8907 45.7447 91.9546 45.7064 92.0057C42.3212 96.7705 41.4781 107.079 41.3632 114.897C41.3632 114.999 41.3121 115.114 41.2354 115.191C39.6642 116.609 37.186 119.202 37.0966 120.211C37.0838 120.377 36.9688 120.518 36.8027 120.569C36.8155 120.556 36.3812 120.684 35.8574 120.684ZM35.1676 116.749C34.6567 118.142 34.5928 119.138 34.9888 119.56C35.3209 119.905 35.9724 119.879 36.3684 119.803C36.8538 118.18 39.8303 115.357 40.5712 114.68C40.6989 106.811 41.5803 96.5022 45.0166 91.5713C46.0769 87.9818 46.128 80.1384 46.128 78.3627C43.8925 78.0178 42.0147 77.1492 40.6989 76.3572C39.2299 83.4213 38.2973 112.393 38.2846 112.7C38.2846 112.789 38.2462 112.879 38.1951 112.943L35.1676 116.749Z" fill="black"/>
<path d="M91.5661 118.998C91.5661 118.998 89.6372 120.275 87.7083 118.998C87.7083 118.998 84.8851 117.452 83.7227 117.58C83.7227 117.58 82.0365 113.479 81.8576 108.855L77.6038 96.1573L77.591 96.119C76.9906 92.3889 76.2753 90.3961 76.2753 90.3961C76.2753 90.3961 74.2569 81.0454 74.2569 76.2933C74.2569 76.2933 77.821 76.9576 80.3886 76.2933C80.3886 76.2933 84.3869 97.6775 85.4089 110.899L91.5661 118.998Z" fill="#F8C1BA"/>
<path d="M89.5605 119.981C88.9218 119.981 88.2064 119.815 87.4783 119.343C86.4563 118.793 84.5147 117.912 83.7737 117.988C83.5821 118.014 83.4161 117.899 83.3394 117.733C83.2755 117.567 81.6404 113.543 81.436 108.919L77.195 96.2722C77.1822 96.2466 77.1694 96.1955 77.1694 96.17C76.5818 92.5165 75.8792 90.5365 75.8665 90.5238C75.8665 90.511 75.8537 90.4854 75.8537 90.4727C75.777 90.0894 73.8226 81.0197 73.8226 76.2804C73.8226 76.1527 73.8737 76.0377 73.9759 75.9611C74.0653 75.8844 74.193 75.8461 74.3208 75.8717C74.3591 75.8844 77.8337 76.5104 80.2736 75.8844C80.3886 75.8589 80.5035 75.8717 80.6057 75.9355C80.7079 75.9994 80.7718 76.1016 80.7973 76.2038C80.8357 76.4209 84.7829 97.6263 85.8176 110.733L91.911 118.729C91.9748 118.819 92.0132 118.934 91.9876 119.049C91.9621 119.164 91.8982 119.266 91.8088 119.33C91.7321 119.381 90.7996 119.981 89.5605 119.981ZM84.0164 117.158C85.3577 117.248 87.6316 118.474 87.9126 118.627C89.1262 119.445 90.3397 119.113 90.9401 118.857L85.0639 111.141C85.0128 111.078 84.9873 111.001 84.9745 110.924C84.042 98.8909 80.6057 79.8572 80.0309 76.7786C78.0381 77.1746 75.6748 76.9191 74.6529 76.7659C74.7806 81.4157 76.5435 89.7445 76.6585 90.2683C76.7479 90.5238 77.4121 92.491 77.987 96.0039L82.2408 108.702C82.2536 108.74 82.2664 108.778 82.2664 108.817C82.4324 112.674 83.646 116.187 84.0164 117.158Z" fill="black"/>
<path d="M62.5557 44.5237C62.5557 44.5237 38.7572 44.5237 38.7572 31.7111C38.7572 31.7111 33.2642 31.7111 35.0909 26.2181C35.0909 26.2181 36.4961 23.395 39.3192 21.4661C40.4561 20.6868 41.5164 19.7799 42.3851 18.7068C43.3176 17.5571 44.2501 16.152 44.2501 15.2322C44.2501 15.2322 40.5839 7.91256 44.2501 4.24634C44.2501 4.24634 47.9163 4.98725 55.236 12.3197C55.236 12.3197 62.5557 10.493 69.8881 12.3197C69.8881 12.3197 71.7148 4.24634 75.381 4.24634C75.381 4.24634 79.0473 7.91256 79.0473 17.0589L82.7135 22.5519C82.7135 22.5519 84.5402 26.2181 82.7135 28.0448C82.7135 28.0448 82.7135 35.3645 80.8868 37.204C80.8612 37.204 75.3683 44.5237 62.5557 44.5237Z" fill="#F8C1BA"/>
<path d="M62.5557 44.9452C61.5721 44.9452 38.8083 44.7919 38.3484 32.107C37.5692 32.0303 35.8957 31.7238 34.9504 30.4208C34.184 29.3605 34.0946 27.9043 34.695 26.0903C34.695 26.0775 34.7077 26.052 34.7205 26.0392C34.7844 25.9242 36.2151 23.1011 39.0893 21.1339C40.3156 20.3036 41.2865 19.4221 42.0657 18.4513C43.4964 16.6629 43.803 15.7431 43.8413 15.3216C43.3942 14.3891 40.3284 7.59314 43.9691 3.95247C44.0713 3.85027 44.2118 3.81195 44.3523 3.8375C44.5056 3.86305 48.1591 4.6806 55.3893 11.8598C56.6923 11.5659 63.0411 10.2885 69.6071 11.8214C70.0542 10.1224 71.9192 3.8375 75.4066 3.8375C75.5216 3.8375 75.6238 3.87582 75.7004 3.96524C75.8537 4.11853 79.4561 7.82308 79.4816 16.9439L83.0712 22.3347C83.084 22.3474 83.084 22.3602 83.0967 22.373C83.1734 22.5263 84.9618 26.167 83.1351 28.2236C83.1223 29.3605 82.9818 35.6582 81.2061 37.485C80.759 38.0215 75.2022 44.9452 62.5557 44.9452ZM35.4742 26.3841C34.976 27.9043 35.0271 29.0923 35.6147 29.9226C36.5855 31.2767 38.7316 31.3022 38.7444 31.3022C38.9743 31.3022 39.1532 31.4938 39.1532 31.7238C39.1532 43.9743 62.313 44.1276 62.5429 44.1276C74.9851 44.1276 80.4652 37.0379 80.5163 36.974C80.5291 36.9612 80.5419 36.9485 80.5546 36.9357C81.9598 35.5305 82.2664 30.0631 82.2664 28.0703C82.2664 27.9554 82.3047 27.8532 82.3941 27.7765C83.9271 26.2436 82.4708 23.0756 82.3303 22.7818L78.6896 17.3144C78.6385 17.2505 78.6257 17.1611 78.6257 17.0844C78.6257 9.16438 75.8154 5.40874 75.2022 4.69338C72.5707 4.92331 70.7695 10.3268 70.2969 12.4346C70.2586 12.524 70.1947 12.6134 70.0925 12.6773C70.0031 12.7412 69.8881 12.754 69.7731 12.7284C62.6323 10.94 55.4021 12.7156 55.3254 12.7284C55.1849 12.7667 55.0316 12.7284 54.9294 12.6134C48.7467 6.43068 45.2337 4.99996 44.3651 4.71892C41.2354 8.18076 44.5695 14.9767 44.6078 15.0533C44.6333 15.1172 44.6461 15.1683 44.6461 15.2449C44.6461 16.1136 43.9819 17.3655 42.6917 18.975C41.8613 20.0097 40.8266 20.9423 39.5364 21.8237C36.9943 23.561 35.6147 26.1031 35.4742 26.3841Z" fill="black"/>
<path d="M73.6437 37.2039C73.5799 37.3317 72.5324 39.3883 72.328 40.2314C72.328 40.2314 70.8845 43.7699 69.3005 41.215C68.9939 40.7168 68.8023 40.1548 68.7384 39.5799C68.6234 38.6091 68.3679 36.859 68.0486 36.3864C68.0486 36.3864 69.8753 38.2131 71.7148 36.3864C71.7148 36.3864 72.5324 37.2167 73.6437 37.2039Z" fill="#FF86A3"/>
<path d="M70.5013 42.5562C69.9264 42.5562 69.4154 42.1858 68.9428 41.4321C68.6107 40.8956 68.3935 40.2696 68.3168 39.6309C68.023 37.2549 67.7676 36.7312 67.6909 36.6162C67.5759 36.4374 67.6015 36.1946 67.7676 36.0669C67.9336 35.9264 68.1763 35.9392 68.3296 36.0924C68.4829 36.2457 69.9264 37.5743 71.4082 36.0924C71.5743 35.9264 71.8298 35.9264 71.9958 36.0924C72.0086 36.0924 72.7112 36.795 73.631 36.7823C73.7715 36.7823 73.912 36.8589 73.9759 36.9739C74.0525 37.1016 74.0653 37.2421 74.0014 37.3826L73.9631 37.4593C73.0306 39.3243 72.7878 40.0652 72.7112 40.3335C72.7112 40.3591 72.6984 40.3718 72.6984 40.3974C72.609 40.6018 71.817 42.454 70.6034 42.5562C70.5651 42.5562 70.5396 42.5562 70.5013 42.5562ZM68.8023 37.3826C68.9045 37.8808 69.0194 38.5579 69.1472 39.5287C69.2111 40.0525 69.3771 40.5634 69.6454 40.9978C69.8625 41.3427 70.1819 41.7387 70.5268 41.7259C71.0889 41.6748 71.6893 40.6273 71.9192 40.1036C72.0725 39.516 72.5451 38.4685 72.9922 37.5487C72.4429 37.421 71.9831 37.1399 71.7148 36.9355C70.6929 37.7914 69.6198 37.7276 68.8023 37.3826Z" fill="black"/>
<path d="M75.3683 36.3864C74.7679 36.9867 74.1675 37.1911 73.631 37.2039L75.3683 36.3864Z" fill="#F8C1BA"/>
<path d="M73.6438 37.6254C73.4138 37.6254 73.235 37.4466 73.2222 37.2166C73.2222 37.1017 73.2605 37.0122 73.3372 36.9356C73.4266 36.8462 73.5543 36.7823 73.6948 36.7951C74.1803 36.7695 74.6529 36.5396 75.0872 36.1053C75.2533 35.9392 75.5088 35.9392 75.6749 36.1053C75.8409 36.2713 75.8409 36.5268 75.6749 36.6929C75.0489 37.2933 74.3719 37.6126 73.6438 37.6254Z" fill="black"/>
<path d="M38.7571 31.7109C38.7571 31.7109 41.2481 31.5576 41.4142 29.0922L38.7571 31.7109Z" fill="#F7D7D5"/>
<path d="M38.7571 32.1325C38.54 32.1325 38.3611 31.9664 38.3484 31.7365C38.3356 31.5065 38.5144 31.3149 38.7316 31.3022C38.821 31.2894 40.8649 31.1361 41.0054 29.0667C41.0182 28.8367 41.2226 28.6707 41.4525 28.6834C41.6825 28.6962 41.8485 28.9006 41.8357 29.1305C41.6825 31.3788 39.7791 32.0814 38.7827 32.1325C38.7699 32.1325 38.7571 32.1325 38.7571 32.1325Z" fill="black"/>
<path d="M72.724 34.2019C72.0853 34.2019 71.4721 33.4227 71.2933 33.1672C71.1527 32.9756 71.2038 32.7201 71.3827 32.5924C71.5615 32.4518 71.8298 32.5029 71.9575 32.6818C72.1875 32.9884 72.5196 33.3077 72.6857 33.3588C72.7112 33.3205 72.7495 33.2311 72.7751 33.0395C72.8134 32.8095 73.0178 32.6562 73.2477 32.6946C73.4777 32.7329 73.631 32.9373 73.5926 33.1672C73.5032 33.7548 73.2733 34.087 72.89 34.1764C72.8389 34.2019 72.7878 34.2019 72.724 34.2019Z" fill="#1D1D1B"/>
<path d="M75.381 30.6507C75.9736 30.6507 76.4541 30.033 76.4541 29.2711C76.4541 28.5092 75.9736 27.8915 75.381 27.8915C74.7884 27.8915 74.308 28.5092 74.308 29.2711C74.308 30.033 74.7884 30.6507 75.381 30.6507Z" fill="#1D1D1B"/>
<path d="M65.5448 31.3021C66.1374 31.3021 66.6179 30.6844 66.6179 29.9225C66.6179 29.1605 66.1374 28.5428 65.5448 28.5428C64.9522 28.5428 64.4718 29.1605 64.4718 29.9225C64.4718 30.6844 64.9522 31.3021 65.5448 31.3021Z" fill="#1D1D1B"/>
<path d="M58.7234 34.0231C58.289 34.0231 57.8675 33.972 57.4715 33.8826C56.0152 33.5377 55.1466 32.8095 54.9933 31.7876C54.9933 31.7748 54.9933 31.762 54.9933 31.7493C54.9038 29.7948 54.9677 28.6451 55.2232 28.3385C55.3637 28.1597 55.632 28.1341 55.8108 28.2747C55.9769 28.4152 56.0152 28.6579 55.9002 28.8367C55.7853 29.1178 55.7725 30.5229 55.8364 31.6854C55.9769 32.5157 56.9094 32.899 57.6759 33.0778C58.0974 33.18 58.5445 33.2183 59.0044 33.1928L65.1999 32.8734C67.346 32.7584 67.3332 31.4555 67.3205 31.4044V27.6359C67.2949 27.4316 67.2055 27.291 67.0522 27.1633C66.5285 26.7673 65.4171 26.8312 65.0339 26.895C65.0211 26.895 64.9955 26.895 64.9828 26.895L59.0044 27.0739C58.4168 27.1633 57.9186 27.291 57.5226 27.4443C56.6411 27.7892 55.6448 27.8531 54.6611 27.6359C51.161 26.8439 45.106 27.125 45.0421 27.1378C44.1479 27.1888 43.5986 27.3932 43.4836 27.7126C43.3048 28.198 44.0329 29.1689 44.5694 29.6671C44.7355 29.8204 44.7483 30.0886 44.595 30.2547C44.4417 30.4207 44.1734 30.4335 44.0074 30.2802C43.8285 30.1142 42.2701 28.6323 42.7044 27.4443C42.9471 26.7673 43.7008 26.3968 45.0038 26.3202C45.2593 26.3074 51.2376 26.0392 54.8527 26.8439C55.6831 27.0356 56.5006 26.9717 57.2288 26.6907C57.6886 26.5118 58.2507 26.3713 58.915 26.2691C58.9277 26.2691 58.9533 26.2691 58.9661 26.2691L64.9444 26.0903C65.2127 26.0519 66.7073 25.8603 67.5759 26.5246C67.9208 26.7801 68.1252 27.1505 68.1636 27.5849C68.1636 27.5976 68.1636 27.6104 68.1636 27.6232V31.4044C68.1636 31.4044 68.2147 33.5632 65.251 33.7293L59.0555 34.0486C58.9277 34.0231 58.8256 34.0231 58.7234 34.0231Z" fill="#1D1D1B"/>
<path d="M67.7164 28.7346C67.5887 28.7346 67.461 28.6708 67.3715 28.5558C67.2438 28.3642 67.2821 28.1087 67.4737 27.981C68.5212 27.2528 70.91 26.3203 72.4429 28.0448C72.5962 28.2109 72.5834 28.4792 72.4046 28.6325C72.2385 28.7857 71.9703 28.773 71.817 28.5941C70.3735 26.9846 67.9719 28.6452 67.9464 28.658C67.8825 28.7091 67.8059 28.7346 67.7164 28.7346Z" fill="#1D1D1B"/>
<path d="M75.8153 32.8222C75.3938 32.8222 75.0233 32.7839 74.7423 32.669C74.4868 32.6179 73.4904 32.3751 72.6217 31.3915C72.0469 30.74 71.7275 29.8714 71.7275 28.9389V27.572C71.7275 27.5337 71.7275 27.4954 71.7403 27.457C71.9319 26.7672 72.7112 25.4515 74.2441 25.4515C74.6656 25.4259 78.434 25.2599 79.3921 25.4515C79.6093 25.4643 80.4141 25.5281 80.9633 26.0646C81.3083 26.3968 81.4743 26.8439 81.4743 27.3804V29.7947C81.4999 29.9864 81.5637 30.8167 81.0528 31.4682C80.6951 31.928 80.133 32.1835 79.4177 32.2474C79.0344 32.3751 77.1949 32.8222 75.8153 32.8222ZM72.5579 27.6487V28.9516C72.5579 29.6798 72.8006 30.344 73.2477 30.8422C74.0269 31.7109 74.9211 31.8514 74.9211 31.8642C74.9594 31.8642 74.9978 31.8769 75.0233 31.8897C75.7259 32.1963 77.9742 31.7875 79.2388 31.4554C79.2644 31.4426 79.2899 31.4426 79.3155 31.4426C79.8137 31.4043 80.1713 31.251 80.3885 30.9827C80.7334 30.5484 80.644 29.9225 80.644 29.9097C80.644 29.8842 80.644 29.8586 80.644 29.8458V27.4059C80.644 26.3329 79.4815 26.3074 79.3538 26.3074C79.3155 26.3074 79.2899 26.3074 79.2516 26.2946C78.6895 26.1541 75.9047 26.2307 74.2824 26.3074C73.0816 26.2946 72.6473 27.3932 72.5579 27.6487Z" fill="#1D1D1B"/>
<path d="M62.5557 36.8079C62.5301 36.8079 62.5173 36.8079 62.4918 36.8079L56.6923 35.8754C56.4623 35.8371 56.309 35.6199 56.3474 35.4028C56.3857 35.1728 56.5901 35.0195 56.82 35.0579L62.6195 35.9904C62.8495 36.0287 63.0028 36.2459 62.9644 36.463C62.9389 36.6674 62.7601 36.8079 62.5557 36.8079Z" fill="black"/>
<path d="M59.1066 39.6821C58.9022 39.6821 58.7234 39.5288 58.6978 39.3244C58.6723 39.0945 58.8256 38.8901 59.0555 38.8645L62.4918 38.4174C62.7217 38.3919 62.9261 38.5452 62.9516 38.7751C62.9772 39.0051 62.8239 39.2095 62.594 39.235L59.1577 39.6821C59.1449 39.6821 59.1321 39.6821 59.1066 39.6821Z" fill="black"/>
<path d="M60.8311 42.237C60.7034 42.237 60.5756 42.1731 60.499 42.0709C60.3585 41.8921 60.3968 41.6238 60.5884 41.4961L62.3129 40.2314C62.4918 40.0909 62.76 40.1292 62.8878 40.3208C63.0283 40.4997 62.99 40.7679 62.7983 40.8957L61.0738 42.1603C61.0099 42.2114 60.9205 42.237 60.8311 42.237Z" fill="black"/>
<path d="M77.5144 35.5305C77.3611 35.5305 77.2078 35.4411 77.1312 35.2878C77.029 35.0834 77.1312 34.8279 77.3355 34.7385L79.2772 33.8443C79.4816 33.7421 79.7371 33.8443 79.8265 34.0487C79.9287 34.2531 79.8265 34.5086 79.6221 34.598L77.6805 35.4922C77.6294 35.5305 77.5655 35.5305 77.5144 35.5305Z" fill="black"/>
<path d="M78.9196 37.2166H77.7315C77.5016 37.2166 77.31 37.025 77.31 36.7951C77.31 36.5651 77.5016 36.3735 77.7315 36.3735H78.9196C79.1495 36.3735 79.3411 36.5651 79.3411 36.7951C79.3411 37.025 79.1495 37.2166 78.9196 37.2166Z" fill="black"/>
<path d="M78.3319 38.8901C78.2808 38.8901 78.2169 38.8773 78.1658 38.8518L76.965 38.328C76.7606 38.2386 76.6584 37.9959 76.7479 37.7788C76.8373 37.5744 77.08 37.4722 77.2972 37.5616L78.4852 38.0853C78.6896 38.1748 78.7918 38.4175 78.7023 38.6346C78.6385 38.8007 78.4852 38.8901 78.3319 38.8901Z" fill="black"/>
<path d="M158.21 62.6885V155.506C158.21 162.226 163.651 167.668 170.371 167.668H263.189C269.908 167.668 275.35 162.226 275.35 155.506V62.6885C275.35 55.9692 269.908 50.5273 263.189 50.5273H170.371C163.664 50.5273 158.21 55.9692 158.21 62.6885ZM235.532 140.011H198.04C191.321 140.011 185.879 134.569 185.879 127.85V90.3576C185.879 83.6383 191.321 78.1964 198.04 78.1964H235.532C242.252 78.1964 247.693 83.6383 247.693 90.3576V127.85C247.693 134.569 242.252 140.011 235.532 140.011Z" fill="#F3FFFC"/>
<path d="M177.524 82.3227V92.7082C177.524 93.3213 178.023 93.8195 178.636 93.8195H189.021C189.634 93.8195 190.133 93.3213 190.133 92.7082V82.3227C190.133 81.7095 189.634 81.2113 189.021 81.2113H178.636C178.023 81.2113 177.524 81.7095 177.524 82.3227ZM186.045 90.8431H181.612C180.999 90.8431 180.501 90.3449 180.501 89.7318V85.2991C180.501 84.6859 180.999 84.1877 181.612 84.1877H186.045C186.658 84.1877 187.156 84.6859 187.156 85.2991V89.7318C187.156 90.3449 186.658 90.8431 186.045 90.8431Z" fill="#6BDBC6"/>
<path d="M263.304 118.027V128.412C263.304 129.025 263.802 129.524 264.415 129.524H274.801C275.414 129.524 275.912 129.025 275.912 128.412V118.027C275.912 117.413 275.414 116.915 274.801 116.915H264.415C263.802 116.915 263.304 117.413 263.304 118.027ZM271.824 126.547H267.391C266.778 126.547 266.28 126.049 266.28 125.436V121.003C266.28 120.39 266.778 119.892 267.391 119.892H271.824C272.437 119.892 272.936 120.39 272.936 121.003V125.436C272.936 126.049 272.437 126.547 271.824 126.547Z" fill="#6BDBC6"/>
<path d="M227.919 162.085V172.471C227.919 173.084 228.417 173.582 229.03 173.582H239.416C240.029 173.582 240.527 173.084 240.527 172.471V162.085C240.527 161.472 240.029 160.974 239.416 160.974H229.03C228.417 160.987 227.919 161.472 227.919 162.085ZM236.439 170.606H232.007C231.394 170.606 230.895 170.107 230.895 169.494V165.062C230.895 164.448 231.394 163.95 232.007 163.95H236.439C237.053 163.95 237.551 164.448 237.551 165.062V169.494C237.551 170.12 237.053 170.606 236.439 170.606Z" fill="#6BDBC6"/>
<path d="M149.868 119.125V129.511C149.868 130.124 150.366 130.622 150.979 130.622H161.365C161.978 130.622 162.476 130.124 162.476 129.511V119.125C162.476 118.512 161.978 118.014 161.365 118.014H150.979C150.366 118.014 149.868 118.512 149.868 119.125ZM158.389 127.646H153.956C153.343 127.646 152.845 127.148 152.845 126.534V122.102C152.845 121.489 153.343 120.99 153.956 120.99H158.389C159.002 120.99 159.5 121.489 159.5 122.102V126.534C159.5 127.148 159.002 127.646 158.389 127.646Z" fill="#6BDBC6"/>
<path d="M240.527 57.9876V68.3731C240.527 68.9862 241.025 69.4844 241.639 69.4844H252.024C252.637 69.4844 253.135 68.9862 253.135 68.3731V57.9876C253.135 57.3744 252.637 56.8762 252.024 56.8762H241.639C241.025 56.8762 240.527 57.3744 240.527 57.9876ZM249.048 66.508H244.615C244.002 66.508 243.504 66.0098 243.504 65.3967V60.964C243.504 60.3508 244.002 59.8526 244.615 59.8526H249.048C249.661 59.8526 250.159 60.3508 250.159 60.964V65.3967C250.159 66.0098 249.661 66.508 249.048 66.508Z" fill="#6BDBC6"/>
<path d="M149.868 42.2624V48.8923C149.868 49.2116 150.123 49.4799 150.456 49.4799H157.085C157.405 49.4799 157.673 49.2244 157.673 48.8923V42.2624C157.673 41.9431 157.418 41.6748 157.085 41.6748H150.456C150.123 41.6748 149.868 41.9303 149.868 42.2624ZM155.233 47.6276H152.282C151.963 47.6276 151.695 47.3721 151.695 47.04V44.0891C151.695 43.7698 151.95 43.5015 152.282 43.5015H155.233C155.553 43.5015 155.821 43.757 155.821 44.0891V47.04C155.821 47.3594 155.553 47.6276 155.233 47.6276Z" fill="#6BDBC6"/>
<path d="M215.822 116.583V123.213C215.822 123.532 216.077 123.801 216.409 123.801H223.039C223.358 123.801 223.627 123.545 223.627 123.213V116.583C223.627 116.264 223.371 115.996 223.039 115.996H216.409C216.09 115.996 215.822 116.264 215.822 116.583ZM221.2 121.948H218.249C217.929 121.948 217.661 121.693 217.661 121.361V118.423C217.661 118.103 217.917 117.835 218.249 117.835H221.2C221.519 117.835 221.787 118.091 221.787 118.423V121.361C221.774 121.693 221.519 121.948 221.2 121.948Z" fill="#6BDBC6"/>
<path d="M250.836 140.203V146.833C250.836 147.152 251.091 147.42 251.424 147.42H258.041C258.36 147.42 258.628 147.165 258.628 146.833V140.203C258.628 139.883 258.373 139.615 258.041 139.615H251.411C251.091 139.628 250.836 139.883 250.836 140.203ZM256.201 145.581H253.25C252.931 145.581 252.663 145.325 252.663 144.993V142.042C252.663 141.723 252.918 141.455 253.25 141.455H256.201C256.52 141.455 256.789 141.71 256.789 142.042V144.993C256.789 145.313 256.52 145.581 256.201 145.581Z" fill="#6BDBC6"/>
<path d="M191.282 169.315V175.945C191.282 176.265 191.538 176.533 191.87 176.533H198.5C198.819 176.533 199.087 176.277 199.087 175.945V169.315C199.087 168.996 198.832 168.728 198.5 168.728H191.87C191.538 168.741 191.282 168.996 191.282 169.315ZM196.647 174.681H193.697C193.377 174.681 193.109 174.425 193.109 174.093V171.142C193.109 170.823 193.364 170.554 193.697 170.554H196.647C196.967 170.554 197.235 170.81 197.235 171.142V174.093C197.235 174.425 196.967 174.681 196.647 174.681Z" fill="#6BDBC6"/>
<path d="M275.912 86.6146V93.2445C275.912 93.5638 276.167 93.8321 276.499 93.8321H283.129C283.449 93.8321 283.717 93.5766 283.717 93.2445V86.6146C283.717 86.2952 283.461 86.027 283.129 86.027H276.499C276.167 86.027 275.912 86.2952 275.912 86.6146ZM281.277 91.9798H278.326C278.007 91.9798 277.739 91.7243 277.739 91.3922V88.4413C277.739 88.122 277.994 87.8537 278.326 87.8537H281.277C281.596 87.8537 281.865 88.1092 281.865 88.4413V91.3922C281.865 91.7243 281.596 91.9798 281.277 91.9798Z" fill="#6BDBC6"/>
<path d="M171.303 142.259V148.889C171.303 149.209 171.559 149.477 171.891 149.477H178.521C178.84 149.477 179.108 149.221 179.108 148.889V142.259C179.108 141.94 178.853 141.672 178.521 141.672H171.891C171.572 141.685 171.303 141.94 171.303 142.259ZM176.681 147.625H173.73C173.411 147.625 173.143 147.369 173.143 147.037V144.086C173.143 143.767 173.398 143.499 173.73 143.499H176.681C177.001 143.499 177.269 143.754 177.269 144.086V147.037C177.256 147.369 177.001 147.625 176.681 147.625Z" fill="#6BDBC6"/>
<path d="M204.44 42.2623V48.8922C204.44 49.2115 204.695 49.4798 205.027 49.4798H211.657C211.977 49.4798 212.245 49.2243 212.245 48.8922V42.2623C212.245 41.9429 211.989 41.6747 211.657 41.6747H205.027C204.695 41.6747 204.44 41.9302 204.44 42.2623ZM209.805 47.6275H206.854C206.535 47.6275 206.267 47.372 206.267 47.0399V44.089C206.267 43.7697 206.522 43.5014 206.854 43.5014H209.805C210.124 43.5014 210.393 43.7569 210.393 44.089V47.0399C210.38 47.3592 210.124 47.6275 209.805 47.6275Z" fill="#6BDBC6"/>
<path d="M224.368 100.488C224.368 100.488 250.67 85.1587 243.197 58.6648C243.197 58.6648 245.777 56.0844 248.294 55.6628C248.294 55.6628 264.045 79.7296 222.4 105.355L224.368 100.488Z" fill="#97DDCF"/>
<path d="M222.4 105.776C222.298 105.776 222.209 105.738 222.132 105.674C221.992 105.559 221.953 105.368 222.017 105.202L223.997 100.335C224.035 100.245 224.099 100.181 224.176 100.13C224.24 100.092 230.768 96.2467 236.286 89.2337C241.357 82.7954 246.62 72.2822 242.801 58.7797C242.763 58.6392 242.801 58.4732 242.903 58.371C243.018 58.256 245.611 55.6884 248.23 55.254C248.396 55.2285 248.549 55.2924 248.652 55.4329C248.843 55.7267 253.327 62.7398 250.964 73.2913C248.383 84.8137 238.854 95.723 222.63 105.7C222.541 105.751 222.477 105.776 222.4 105.776ZM224.7 100.782L223.256 104.333C238.611 94.6627 247.655 84.175 250.121 73.1508C252.177 63.9917 248.818 57.4384 248.077 56.1355C246.173 56.5698 244.232 58.256 243.657 58.8053C247.438 72.5504 242.086 83.2297 236.912 89.7829C231.713 96.3617 225.645 100.207 224.7 100.782Z" fill="black"/>
<path d="M211.683 172.279L218.657 179.254L224.636 173.263L220.011 168.639L211.683 172.279Z" fill="#97DDCF"/>
<path d="M218.657 179.663C218.542 179.663 218.44 179.625 218.364 179.535L211.389 172.56C211.287 172.458 211.248 172.33 211.274 172.19C211.299 172.049 211.389 171.947 211.517 171.883L219.845 168.243C219.999 168.179 220.19 168.204 220.305 168.332L224.93 172.956C225.096 173.122 225.096 173.378 224.93 173.544L218.951 179.535C218.875 179.625 218.76 179.663 218.657 179.663ZM212.411 172.42L218.657 178.666L224.048 173.263L219.922 169.137L212.411 172.42Z" fill="black"/>
<path d="M214.237 197.879L233.578 178.539L226.475 171.436L224.636 173.276L218.657 179.267L215.157 186.446C213.177 190.764 214.237 197.879 214.237 197.879Z" fill="#35354C"/>
<path d="M214.237 198.288C214.199 198.288 214.148 198.275 214.11 198.262C213.956 198.211 213.854 198.083 213.829 197.93C213.79 197.636 212.781 190.649 214.774 186.254L218.287 179.063C218.312 179.024 218.338 178.986 218.364 178.948L226.181 171.13C226.335 170.976 226.616 170.976 226.769 171.13L233.871 178.232C234.038 178.398 234.038 178.654 233.871 178.82L214.531 198.16C214.455 198.25 214.34 198.288 214.237 198.288ZM219.002 179.497L215.528 186.612C214.02 189.921 214.352 194.979 214.544 196.972L232.99 178.539L226.475 172.024L219.002 179.497Z" fill="black"/>
<path d="M194.757 76.4464L193.543 90.1787C193.543 90.1787 194.744 91.75 197.439 91.5584C205.794 90.4214 224.508 94.7264 224.508 94.7264C227.178 95.3012 227.076 89.3229 227.076 89.3229L225.543 80.5086C234.97 78.3625 232.198 61.6537 232.198 61.6537C230.001 45.1877 215.375 42.7478 215.375 42.7478C215.375 42.7478 205.871 55.5476 202.345 44.3318C202.345 44.3318 191.499 46.4012 189.047 67.1339C189.021 67.1595 188.804 74.1853 194.757 76.4464Z" fill="#A8A8E5"/>
<path d="M224.84 95.1863C224.7 95.1863 224.546 95.1735 224.406 95.1352C224.214 95.0969 205.666 90.8686 197.491 91.9799C194.578 92.1843 193.262 90.5109 193.211 90.4342C193.147 90.3576 193.122 90.2426 193.122 90.1404L194.31 76.7147C188.446 74.262 188.6 67.2106 188.6 67.1339C191.052 46.2991 201.783 44.0253 202.243 43.9358C202.447 43.8975 202.651 44.0125 202.715 44.2169C203.52 46.7973 204.708 48.228 206.241 48.4835C210.073 49.1222 214.979 42.569 215.03 42.5051C215.119 42.3774 215.272 42.3135 215.426 42.339C215.579 42.3646 230.384 45.0216 232.594 61.5899C232.709 62.2669 235.251 78.2603 226.003 80.8024L227.472 89.2335C227.472 89.259 227.472 89.2718 227.472 89.2973C227.485 89.7189 227.51 93.4873 225.977 94.7519C225.645 95.0458 225.262 95.1863 224.84 95.1863ZM200.786 90.958C209.818 90.958 223.908 94.1771 224.585 94.3304C224.93 94.407 225.198 94.3432 225.453 94.1388C226.475 93.2957 226.654 90.447 226.641 89.374L225.121 80.5853C225.083 80.3681 225.223 80.1637 225.441 80.1126C234.383 78.0815 231.802 61.8965 231.777 61.7304C229.797 46.9122 217.418 43.642 215.528 43.2205C214.608 44.4085 210.048 49.9781 206.1 49.3138C204.325 49.02 202.958 47.5126 202.051 44.8556C200.199 45.4432 191.563 49.1605 189.43 67.2106C189.43 67.2361 189.302 73.9426 194.91 76.0632C195.089 76.127 195.191 76.3059 195.178 76.4847L193.978 90.051C194.297 90.3831 195.396 91.2901 197.414 91.1624C198.397 91.0219 199.547 90.958 200.786 90.958Z" fill="black"/>
<path d="M183.03 158.675L202.14 173.518C203.034 186.791 203.763 196.691 203.763 196.691L217.01 201.864L224.495 122.102C224.495 122.102 226.807 102.813 224.495 94.7392C224.495 94.7392 205.781 90.4343 197.427 91.5712L176.694 137.648C176.694 137.648 172.67 150.601 183.03 158.675ZM192.534 143.984L199.713 134.148C200.007 139.5 200.326 145.198 200.684 150.921L192.534 143.984Z" fill="#35354C"/>
<path d="M217.01 202.273C216.958 202.273 216.907 202.26 216.856 202.248L203.609 197.074C203.456 197.01 203.354 196.882 203.341 196.716C203.328 196.614 202.613 186.765 201.731 173.735L182.762 159.007C172.3 150.857 176.247 137.661 176.285 137.533C176.285 137.52 176.298 137.508 176.298 137.482L197.031 91.4052C197.094 91.2774 197.209 91.188 197.35 91.1624C205.679 90.0255 223.793 94.1516 224.559 94.3305C224.712 94.3688 224.827 94.471 224.866 94.6243C227.178 102.685 224.968 121.361 224.878 122.153L217.393 201.903C217.38 202.03 217.303 202.145 217.201 202.222C217.163 202.248 217.086 202.273 217.01 202.273ZM204.159 196.397L216.652 201.277L224.086 122.063C224.112 121.859 226.322 103.132 224.163 95.0842C221.966 94.5987 205.487 90.9964 197.72 91.9545L177.09 137.789C176.911 138.389 173.475 150.703 183.285 158.342L202.396 173.186C202.485 173.263 202.549 173.365 202.562 173.493C203.354 185.424 204.031 194.736 204.159 196.397ZM200.684 151.355C200.582 151.355 200.492 151.317 200.416 151.253L192.266 144.303C192.1 144.163 192.074 143.92 192.202 143.741L199.381 133.905C199.483 133.765 199.662 133.701 199.841 133.752C200.007 133.803 200.122 133.956 200.135 134.122C200.441 139.82 200.773 145.466 201.106 150.895C201.118 151.061 201.029 151.214 200.876 151.291C200.812 151.329 200.748 151.355 200.684 151.355ZM193.096 143.92L200.211 149.975C199.918 145.21 199.637 140.292 199.368 135.336L193.096 143.92Z" fill="black"/>
<path d="M201.029 151.636C200.94 151.636 200.837 151.598 200.761 151.534L200.416 151.24C200.237 151.087 200.224 150.831 200.365 150.652C200.518 150.474 200.774 150.461 200.952 150.601L201.297 150.895C201.476 151.048 201.489 151.304 201.348 151.483C201.259 151.585 201.144 151.636 201.029 151.636Z" fill="black"/>
<path d="M202.14 173.927C201.923 173.927 201.744 173.761 201.732 173.544C201.144 164.768 200.684 157.589 200.275 150.959C200.263 150.729 200.441 150.537 200.659 150.525C200.888 150.525 201.08 150.691 201.093 150.908C201.502 157.538 201.962 164.704 202.549 173.48C202.562 173.71 202.396 173.902 202.166 173.927C202.153 173.927 202.153 173.927 202.14 173.927Z" fill="black"/>
<path d="M199.713 134.569C199.496 134.569 199.304 134.403 199.304 134.173C198.589 120.684 198.308 111.857 198.461 107.961C198.474 107.743 198.653 107.565 198.87 107.565H198.883C199.113 107.577 199.292 107.769 199.279 107.999C199.126 111.87 199.407 120.658 200.122 134.135C200.135 134.365 199.956 134.557 199.726 134.569C199.726 134.569 199.726 134.569 199.713 134.569Z" fill="black"/>
<path d="M206.828 197.879V207.728H215.285V201.187L206.828 197.879Z" fill="#97DDCF"/>
<path d="M215.285 208.149H206.816C206.586 208.149 206.394 207.958 206.394 207.728V197.866C206.394 197.726 206.458 197.598 206.573 197.521C206.688 197.445 206.828 197.432 206.956 197.483L215.426 200.804C215.579 200.868 215.694 201.021 215.694 201.187V207.728C215.707 207.958 215.515 208.149 215.285 208.149ZM207.237 207.319H214.876V201.481L207.237 198.492V207.319Z" fill="black"/>
<path d="M190.541 217.781H217.891V207.741H206.828L199.279 210.334C194.808 212.02 190.541 217.781 190.541 217.781Z" fill="#35354C"/>
<path d="M217.891 218.19H190.541C190.388 218.19 190.235 218.101 190.171 217.96C190.094 217.82 190.12 217.653 190.209 217.526C190.388 217.283 194.603 211.65 199.138 209.938L206.701 207.332C206.739 207.319 206.79 207.306 206.841 207.306H217.904C218.134 207.306 218.325 207.498 218.325 207.728V217.768C218.3 218.011 218.121 218.19 217.891 218.19ZM191.397 217.36H217.482V208.149H206.905L199.419 210.73C196.009 212.007 192.649 215.814 191.397 217.36Z" fill="black"/>
<path d="M223.409 81.1601C220.446 81.1601 216.831 80.0232 212.602 77.7622L208.515 75.4884C201.463 78.171 196.124 78.2732 192.636 75.8077C188.485 72.8569 188.6 67.3767 188.612 67.1468C191.065 46.3247 201.783 44.0381 202.242 43.9487C202.447 43.9103 202.651 44.0253 202.715 44.2297C203.533 46.8101 204.708 48.2408 206.241 48.4963C210.06 49.1478 214.978 42.5818 215.03 42.5179C215.119 42.3902 215.272 42.3263 215.426 42.3519C215.579 42.3774 230.384 45.0345 232.594 61.6027C232.684 62.1392 234.753 75.1307 228.455 79.6528C227.063 80.6619 225.377 81.1601 223.409 81.1601ZM208.745 74.6708L212.998 77.0341C219.718 80.6364 224.751 81.2879 227.97 78.9885C233.859 74.773 231.802 61.871 231.777 61.7432C229.797 46.9123 217.418 43.6548 215.54 43.2333C214.621 44.4213 210.048 49.9909 206.113 49.3266C204.337 49.0328 202.971 47.5254 202.051 44.8684C200.199 45.456 191.563 49.1733 189.443 67.2106C189.443 67.2234 189.34 72.4609 193.134 75.1435C196.264 77.3662 201.118 77.3023 207.569 74.9646L200.543 71.0557C200.441 71.0046 200.365 70.9024 200.339 70.8002C200.314 70.6852 200.326 70.5703 200.39 70.4808L205.142 62.9185C205.244 62.7652 205.423 62.6885 205.602 62.7396L219.028 66.2142L216.256 56.9273C216.192 56.7102 216.32 56.4802 216.537 56.4164C216.754 56.3525 216.984 56.4802 217.048 56.6974L220.024 66.6997C220.063 66.8402 220.024 66.9935 219.922 67.1084C219.82 67.2106 219.667 67.2617 219.513 67.2234L205.666 63.6083L201.31 70.5447L208.745 74.6708Z" fill="black"/>
<path d="M203.648 66.4442C203.622 66.4442 203.597 66.4442 203.571 66.4314L196.865 65.1157C196.673 65.0774 196.532 64.9113 196.532 64.7069V56.6591C196.532 56.4292 196.724 56.2375 196.954 56.2375C197.184 56.2375 197.376 56.4292 197.376 56.6591V64.362L203.75 65.6139C203.98 65.6522 204.12 65.8821 204.082 66.0993C204.018 66.3165 203.852 66.4442 203.648 66.4442Z" fill="black"/>
<path d="M196.979 92.0056C194.425 92.0056 193.249 90.511 193.198 90.4472C193.134 90.3705 193.109 90.2555 193.109 90.1533L194.335 76.4082C194.361 76.1783 194.565 76.0122 194.782 76.025C195.012 76.0505 195.178 76.2421 195.166 76.4721L193.952 90.0384C194.271 90.3705 195.357 91.2775 197.388 91.1497C197.618 91.1242 197.81 91.303 197.835 91.533C197.848 91.7629 197.682 91.9545 197.452 91.9801C197.299 92.0056 197.133 92.0056 196.979 92.0056Z" fill="black"/>
<path d="M224.84 95.1992C224.7 95.1992 224.559 95.1864 224.406 95.1481C224.176 95.097 224.035 94.8798 224.087 94.6499C224.138 94.4199 224.355 94.2794 224.585 94.3305C224.93 94.4072 225.198 94.3433 225.453 94.1389C226.475 93.2958 226.654 90.4471 226.641 89.3741L225.109 80.5726C225.07 80.3427 225.223 80.1255 225.441 80.0872C225.671 80.0489 225.888 80.2022 225.926 80.4193L227.459 89.2463C227.459 89.2719 227.459 89.2847 227.459 89.3102C227.472 89.7318 227.485 93.513 225.964 94.7648C225.645 95.0586 225.262 95.1992 224.84 95.1992Z" fill="black"/>
<path d="M202.255 68.2454H194.629C194.629 68.2454 195.485 58.4348 204.389 64.8602" fill="#97DDCF"/>
<path d="M202.255 68.667H194.629C194.514 68.667 194.399 68.6159 194.322 68.5264C194.246 68.437 194.207 68.3221 194.22 68.2071C194.233 68.0282 194.629 63.9022 197.427 62.6247C199.292 61.7688 201.719 62.4076 204.631 64.5281C204.823 64.6686 204.861 64.9241 204.721 65.1029C204.58 65.2945 204.325 65.3329 204.146 65.1924C201.489 63.2762 199.343 62.663 197.771 63.3784C195.906 64.2343 195.293 66.7764 195.114 67.8239H202.268C202.498 67.8239 202.69 68.0155 202.69 68.2454C202.69 68.4753 202.485 68.667 202.255 68.667Z" fill="black"/>
<path d="M214.519 65.4606C214.519 65.4606 222.183 58.9329 224.495 66.0355C224.495 66.0355 220.51 67.7983 214.519 65.4606Z" fill="#97DDCF"/>
<path d="M220.599 67.0957C218.926 67.0957 216.818 66.8018 214.365 65.8566C214.225 65.8055 214.135 65.6777 214.11 65.5372C214.084 65.3967 214.135 65.2434 214.25 65.154C214.429 65.0007 218.542 61.5516 221.813 62.4714C223.243 62.8801 224.278 64.0298 224.891 65.9077C224.955 66.112 224.866 66.3292 224.661 66.4186C224.572 66.4569 223.077 67.0957 220.599 67.0957ZM215.362 65.3328C219.756 66.8529 222.937 66.112 223.959 65.7799C223.435 64.4131 222.63 63.5572 221.583 63.2634C219.386 62.6502 216.562 64.4642 215.362 65.3328Z" fill="black"/>
<path d="M202.319 41.3682V44.3574C205.845 55.5732 215.349 42.7733 215.349 42.7733L213.228 41.3682V33.627L202.319 41.3682Z" fill="#97DDCF"/>
<path d="M206.765 49.3778C206.535 49.3778 206.318 49.365 206.1 49.3267C204.235 49.0073 202.83 47.385 201.923 44.4852C201.91 44.4469 201.91 44.4086 201.91 44.3575V41.3683C201.91 41.2278 201.974 41.1128 202.089 41.0234L212.998 33.2822C213.126 33.1928 213.292 33.18 213.433 33.2566C213.573 33.3333 213.663 33.4738 213.663 33.6271V41.1384L215.604 42.4158C215.694 42.4797 215.771 42.5819 215.783 42.6968C215.809 42.8118 215.771 42.9268 215.707 43.0162C215.477 43.2844 210.916 49.3778 206.765 49.3778ZM202.728 44.2936C203.533 46.8357 204.721 48.2536 206.228 48.5091C209.524 49.0712 213.663 44.2297 214.736 42.8757L212.986 41.7132C212.871 41.6366 212.794 41.5088 212.794 41.3683V34.4319L202.715 41.5727V44.2936H202.728Z" fill="black"/>
<path d="M208.885 41.1128C208.885 41.1128 224.138 42.4541 231.79 36.2585C231.79 36.2585 233.795 34.253 233.795 32.4901H231.675C231.675 32.4901 232.224 29.9991 231.917 29.2071H233.552C233.552 29.2071 234.408 28.9006 234.523 27.572C234.523 27.572 234.894 25.3238 234.945 24.7745C234.945 24.7745 234.766 23.7397 233.731 23.5609L231.726 23.1904L231.547 21.0699C231.547 21.0699 231.675 20.4057 232.096 20.2779L233.552 19.6647C233.552 19.6647 234.894 19.1793 234.408 17.5953C234.408 17.5953 233.374 14.6828 232.582 14.0057C232.582 14.0057 231.125 12.856 230.218 13.0349L228.277 13.0093C228.277 13.0093 229.861 5.91961 227.127 1.18035C227.127 1.18035 226.271 -0.0332094 224.636 0.567182C224.636 0.567182 219.718 2.445 215.707 7.06929C215.707 7.06929 207.684 5.97071 201.668 7.37588C201.668 7.37588 198.321 2.15119 197.542 1.66577C197.542 1.66577 195.958 -0.646375 194.386 2.76436C194.386 2.76436 191.832 8.3595 192.751 13.2776C192.751 13.2776 187.654 16.3179 187.769 20.2013L188.919 20.329L188.306 23.3054L187.092 24.0974V29.0794L188.063 29.2582C188.063 29.2582 188.306 31.3788 189.034 32.1708L188.549 33.0777C188.536 33.0905 190.976 40.3846 208.885 41.1128Z" fill="#97DDCF"/>
<path d="M212.539 41.6493C210.482 41.6493 209.09 41.5344 208.86 41.5216C190.873 40.7935 188.242 33.5249 188.14 33.2183C188.101 33.1161 188.114 32.9884 188.165 32.8862L188.523 32.2091C188.012 31.4555 187.769 30.1908 187.667 29.6032L186.99 29.4754C186.798 29.4371 186.645 29.2711 186.645 29.0667V24.0847C186.645 23.9442 186.722 23.8164 186.837 23.7398L187.91 23.05L188.395 20.6867L187.693 20.6101C187.488 20.5845 187.322 20.4185 187.322 20.2141C187.207 16.5862 191.206 13.7503 192.266 13.0733C191.487 8.15516 193.875 2.82828 193.99 2.59835C194.604 1.26982 195.332 0.567236 196.136 0.503365C197.018 0.426719 197.644 1.15485 197.823 1.38479C198.666 2.04905 201.067 5.7025 201.847 6.92883C207.339 5.74082 214.174 6.48173 215.515 6.6478C219.513 2.1257 224.265 0.273428 224.457 0.196782C226.003 -0.378061 227.076 0.439493 227.433 0.950465C229.835 5.11488 229.056 10.8761 228.749 12.6006L230.154 12.6134C231.215 12.4345 232.658 13.5459 232.811 13.6737C233.667 14.4018 234.664 17.1355 234.766 17.4421C235.251 19.0005 234.255 19.8181 233.667 20.0353L232.224 20.6356C232.211 20.6484 232.198 20.6484 232.173 20.6484C232.083 20.674 231.981 20.8784 231.93 21.07L232.083 22.82L233.769 23.1266C235.072 23.3566 235.315 24.6212 235.315 24.6723C235.328 24.7106 235.328 24.749 235.315 24.7873C235.251 25.3366 234.906 27.5082 234.881 27.5976C234.74 29.1561 233.68 29.5521 233.642 29.5649C233.603 29.5776 233.552 29.5904 233.501 29.5904H232.352C232.403 30.3441 232.237 31.3916 232.122 32.0431H233.744C233.974 32.0431 234.165 32.2347 234.165 32.4646C234.165 34.3808 232.122 36.4374 232.045 36.5269C232.032 36.5396 232.019 36.5524 232.007 36.5524C226.616 40.9723 217.584 41.6493 212.539 41.6493ZM188.996 33.1033C189.481 34.1253 192.994 40.0398 208.898 40.6913C208.911 40.6913 208.911 40.6913 208.911 40.6913C209.064 40.704 224.061 41.9432 231.496 35.9392C231.649 35.7732 233.067 34.2914 233.322 32.899H231.649C231.521 32.899 231.406 32.8479 231.33 32.7457C231.253 32.6435 231.215 32.5157 231.253 32.4008C231.47 31.4171 231.687 29.8204 231.508 29.3605C231.457 29.2327 231.47 29.0922 231.56 28.9773C231.636 28.8623 231.764 28.7984 231.904 28.7984H233.45C233.591 28.7218 234.025 28.4024 234.102 27.5338C234.114 27.4827 234.447 25.426 234.523 24.8001C234.472 24.634 234.28 24.0847 233.655 23.9697L231.649 23.5993C231.47 23.561 231.33 23.4077 231.304 23.2288L231.125 21.1083C231.125 21.07 231.125 21.0316 231.125 20.9933C231.138 20.9039 231.304 20.0863 231.943 19.882L233.386 19.2816C233.565 19.2177 234.344 18.8472 233.999 17.7231C233.616 16.6501 232.824 14.7722 232.3 14.3379C231.802 13.9419 230.806 13.3543 230.282 13.4565C230.257 13.4565 230.218 13.4693 230.193 13.4693L228.251 13.4437C228.123 13.4437 228.008 13.3798 227.932 13.2904C227.855 13.1882 227.829 13.0605 227.855 12.9455C227.868 12.8816 229.362 5.95799 226.744 1.41034C226.731 1.41034 226.067 0.503365 224.751 0.988788C224.713 1.00156 219.884 2.89216 215.988 7.37593C215.898 7.47813 215.758 7.52922 215.617 7.51645C215.541 7.50367 207.608 6.45618 201.732 7.81026C201.566 7.84858 201.387 7.77193 201.284 7.63142C199.662 5.10211 197.733 2.33009 197.286 2.04905C197.235 2.0235 197.197 1.97241 197.158 1.93408C197.158 1.93408 196.699 1.30814 196.175 1.34647C195.702 1.38479 195.191 1.95963 194.718 2.95603C194.693 3.00712 192.24 8.4873 193.109 13.2138C193.134 13.3798 193.058 13.5587 192.917 13.6481C192.866 13.6737 188.344 16.4201 188.14 19.8436L188.919 19.9203C189.034 19.9331 189.136 19.9969 189.213 20.0863C189.277 20.1758 189.302 20.3035 189.289 20.4185L188.676 23.3949C188.651 23.5099 188.587 23.5993 188.497 23.6631L187.475 24.3274V28.7345L188.114 28.8495C188.293 28.8878 188.434 29.0283 188.446 29.2072C188.51 29.7565 188.791 31.3277 189.315 31.8898C189.43 32.0175 189.455 32.2091 189.379 32.3624L188.996 33.1033Z" fill="black"/>
<path d="M211.172 28.4026C211.172 28.4026 211.913 24.0465 212.066 22.833C212.066 22.833 212.641 19.8949 210.175 19.6777H207.071C207.071 19.6777 204.759 19.4095 204.337 23.2545L203.865 27.4062C203.865 27.4062 203.341 29.7183 205.385 30.191C205.385 30.191 207.595 30.5614 208.425 30.5614C208.438 30.5614 210.827 30.4848 211.172 28.4026Z" fill="#F3FFFC"/>
<path d="M208.451 30.9702C207.569 30.9702 205.411 30.6125 205.321 30.5997C203.379 30.1526 203.252 28.2876 203.456 27.3423L203.929 23.2162C204.108 21.6321 204.606 20.4952 205.423 19.8437C206.164 19.2561 206.918 19.2689 207.084 19.2817H210.163C210.967 19.3456 211.568 19.6521 211.964 20.1887C212.768 21.2617 212.475 22.8585 212.462 22.9224C212.309 24.0976 211.606 28.3003 211.568 28.4792C211.261 30.3825 209.396 30.9446 208.451 30.9702ZM205.487 29.7821C205.487 29.7821 207.646 30.1398 208.438 30.1398C208.502 30.1398 210.469 30.0504 210.763 28.3387C210.776 28.3003 211.504 23.9698 211.657 22.7818C211.67 22.7435 211.9 21.4533 211.325 20.6741C211.07 20.3292 210.686 20.1376 210.15 20.0992H207.084C207.071 20.0992 207.058 20.0992 207.033 20.0992C206.956 20.0992 205.129 19.9587 204.759 23.3056L204.286 27.4572C204.286 27.47 204.286 27.4828 204.274 27.5083C204.235 27.6872 203.903 29.4117 205.487 29.7821Z" fill="black"/>
<path d="M197.094 26.1158L197.72 21.6831C197.72 21.6831 197.452 19.2177 195.83 19.2177C195.83 19.2177 192.419 18.8472 191.844 22.2068C191.844 22.2068 191.474 26.2563 191.474 27.2527C191.474 27.2527 191.627 28.8239 192.994 29.0922H195.255C195.255 29.0922 197.043 29.1944 197.094 26.1158Z" fill="#F3FFFC"/>
<path d="M195.281 29.501C195.255 29.501 195.242 29.501 195.229 29.501H192.994C192.968 29.501 192.943 29.501 192.917 29.4882C191.269 29.1688 191.065 27.3549 191.065 27.2783C191.065 26.2308 191.423 22.3218 191.436 22.1558C191.946 19.1794 194.552 18.6556 195.868 18.7834C197.823 18.8089 198.142 21.5043 198.155 21.6192C198.155 21.6576 198.155 21.6831 198.155 21.7214L197.529 26.1286C197.503 27.4315 197.171 28.3768 196.558 28.9517C196.021 29.4627 195.459 29.501 195.281 29.501ZM193.045 28.6707H195.255C195.281 28.6707 195.651 28.6834 195.996 28.3513C196.43 27.9425 196.66 27.1633 196.686 26.1158C196.686 26.103 196.686 26.0775 196.686 26.0647L197.312 21.6831C197.273 21.3765 196.967 19.6265 195.843 19.6265C195.83 19.6265 195.817 19.6265 195.804 19.6265C195.689 19.6137 192.764 19.3454 192.266 22.2835C192.266 22.2963 191.908 26.218 191.908 27.2272C191.921 27.3804 192.1 28.4663 193.045 28.6707Z" fill="black"/>
<path d="M198.41 31.4937H198.397C197.797 31.4682 197.49 31.1872 197.35 30.9572C196.916 30.293 197.299 29.2966 197.35 29.1816C197.439 28.9644 197.682 28.8622 197.886 28.9517C198.104 29.0411 198.206 29.2838 198.116 29.4882C198.027 29.7181 197.886 30.2546 198.052 30.4973C198.078 30.5357 198.142 30.6379 198.436 30.6506C198.666 30.6634 198.844 30.855 198.832 31.085C198.819 31.3277 198.627 31.4937 198.41 31.4937Z" fill="#1D1D1B"/>
<path d="M207.493 33.0778C207.493 33.0778 209.754 36.4374 205.449 38.6984C205.449 38.6984 200.301 39.12 197.733 35.8881C197.733 35.8881 195.472 33.6015 198.41 33.9209C198.41 33.9209 205.87 35.441 207.493 33.0778Z" fill="#FF86A3"/>
<path d="M204.823 39.1328C203.303 39.1328 199.573 38.839 197.414 36.1692C197.094 35.8498 196.2 34.8279 196.558 34.0614C196.903 33.3333 198.065 33.461 198.449 33.4994C200.492 33.9081 205.947 34.5852 207.148 32.8351C207.224 32.7201 207.352 32.6562 207.493 32.6562C207.633 32.6562 207.761 32.7201 207.838 32.8351C207.876 32.899 208.821 34.3169 208.387 36.0159C208.08 37.2422 207.148 38.2642 205.64 39.0562C205.589 39.0817 205.538 39.0945 205.487 39.1073C205.436 39.12 205.193 39.1328 204.823 39.1328ZM197.899 34.3041C197.414 34.3041 197.324 34.4191 197.324 34.4191C197.261 34.5596 197.567 35.1217 198.027 35.5943C198.04 35.6071 198.053 35.6199 198.053 35.6327C200.288 38.443 204.682 38.328 205.334 38.2897C206.586 37.6127 207.339 36.7823 207.582 35.8243C207.787 35.0067 207.582 34.253 207.391 33.7932C205.142 35.6454 199.049 34.483 198.321 34.3297C198.155 34.3041 198.014 34.3041 197.899 34.3041Z" fill="black"/>
<path d="M206.19 27.6104C206.74 27.6104 207.186 26.9412 207.186 26.1158C207.186 25.2904 206.74 24.6212 206.19 24.6212C205.639 24.6212 205.193 25.2904 205.193 26.1158C205.193 26.9412 205.639 27.6104 206.19 27.6104Z" fill="#1D1D1B"/>
<path d="M194.604 26.6139C195.154 26.6139 195.6 25.9448 195.6 25.1193C195.6 24.2939 195.154 23.6248 194.604 23.6248C194.053 23.6248 193.607 24.2939 193.607 25.1193C193.607 25.9448 194.053 26.6139 194.604 26.6139Z" fill="#1D1D1B"/>
<path d="M212.13 32.7328C211.964 32.7328 211.798 32.6307 211.734 32.4518C211.657 32.2346 211.772 31.9919 211.989 31.9281L221.315 28.7089C221.532 28.6323 221.774 28.7473 221.838 28.9644C221.915 29.1816 221.8 29.4243 221.583 29.4882L212.258 32.7073C212.219 32.7201 212.168 32.7328 212.13 32.7328Z" fill="#1D1D1B"/>
<path d="M219.705 35.1599C219.692 35.1599 219.679 35.1599 219.667 35.1599L213.241 34.6362C213.011 34.6234 212.845 34.419 212.858 34.1891C212.871 33.9592 213.075 33.7931 213.305 33.8059L219.731 34.3296C219.96 34.3424 220.127 34.5468 220.114 34.7767C220.101 34.9939 219.922 35.1599 219.705 35.1599Z" fill="#1D1D1B"/>
<path d="M218.491 39.1329C218.427 39.1329 218.351 39.1201 218.3 39.0818L213.088 36.2587C212.883 36.1437 212.807 35.901 212.922 35.6966C213.037 35.4922 213.279 35.4156 213.484 35.5305L218.696 38.3537C218.9 38.4686 218.977 38.7113 218.862 38.9157C218.785 39.0562 218.645 39.1329 218.491 39.1329Z" fill="#1D1D1B"/>
<path d="M194.029 32.2987C194.003 32.2987 193.978 32.2987 193.952 32.2859L189.788 31.4939C189.558 31.4555 189.417 31.2384 189.455 31.0084C189.494 30.7785 189.711 30.638 189.941 30.6763L194.105 31.4683C194.335 31.5066 194.476 31.7238 194.437 31.9537C194.399 32.1581 194.22 32.2987 194.029 32.2987Z" fill="#1D1D1B"/>
<path d="M191.946 34.8917C191.768 34.8917 191.602 34.7767 191.55 34.5979C191.487 34.3807 191.602 34.1508 191.819 34.0741L194.476 33.2183C194.693 33.1544 194.923 33.2694 194.999 33.4865C195.063 33.7037 194.948 33.9336 194.731 34.0103L192.074 34.8661C192.023 34.8917 191.985 34.8917 191.946 34.8917Z" fill="#1D1D1B"/>
<path d="M193.607 36.974C193.467 36.974 193.339 36.9102 193.262 36.7824C193.134 36.5908 193.198 36.3353 193.39 36.2076L195.025 35.1601C195.217 35.0323 195.472 35.0962 195.6 35.2878C195.728 35.4794 195.664 35.7349 195.472 35.8627L193.837 36.9102C193.76 36.9613 193.684 36.974 193.607 36.974Z" fill="#1D1D1B"/>
</svg>
