<svg width="182" height="182" viewBox="0 0 182 182" fill="none" xmlns="http://www.w3.org/2000/svg">
<path d="M88.226 47.2261C93.3851 55.3418 93.2191 63.895 90.2776 72.6595C88.6635 77.5018 86.1744 81.9217 82.9764 85.9042C76.3088 94.2009 68.193 100.356 57.4826 102.256C49.1858 103.735 41.7791 102 36.4842 94.8345C32.7733 89.7961 31.9738 83.9582 32.7431 77.9392C34.2215 66.3539 39.9387 57.0163 48.7484 49.6246C52.0369 46.8791 55.8233 44.5107 59.7303 42.7156C68.0724 38.8991 76.52 38.5371 84.6358 43.6358C85.8275 44.8275 87.0343 46.0343 88.226 47.2261Z" fill="#FFEA94"/>
<path d="M-55.7911 135.972C-49.7571 129.877 -42.5163 126.166 -33.9329 125.518C-27.7782 125.035 -21.5933 124.914 -15.4235 124.778C-6.5233 124.567 2.19587 123.27 10.7491 120.871C17.8692 118.88 25.0497 117.492 32.5018 118.126C39.7577 118.744 46.2895 120.962 51.5391 126.392C56.5775 131.582 58.6593 137.917 59.2778 144.872C59.7906 150.634 59.3532 156.382 57.7089 161.888C53.6963 175.313 52.2934 188.996 52.6705 202.949C52.8213 208.35 52.5196 213.75 50.7698 218.939C48.2053 226.572 43.1518 232.29 36.8161 237.026C30.948 241.416 24.6575 244.81 17.1904 245.368C8.04886 246.062 0.77786 242.382 -5.16565 235.654C-10.5661 229.559 -14.1413 222.334 -17.9729 215.244C-19.7831 211.895 -21.714 208.516 -24.1276 205.589C-27.8536 201.079 -33.0127 198.303 -38.1114 195.527C-43.8588 192.375 -49.6213 189.237 -55.1123 185.677C-60.6485 182.071 -64.9478 177.169 -67.1954 170.788C-69.9108 163.034 -68.7492 155.567 -64.8572 148.598C-62.338 144.087 -59.1249 139.969 -56.2286 135.685C-56.0777 135.775 -55.942 135.881 -55.7911 135.972Z" fill="#FFEA94"/>
<path d="M83.6554 104.112C94.3658 94.397 105.664 88.9211 119.362 89.6754C125.577 90.0072 131.264 91.9532 135.608 96.6598C141.748 103.312 141.974 111.021 138.897 119.016C135.427 128.067 128.911 134.584 120.704 139.441C111.91 144.645 102.466 147.27 92.1633 145.656C82.177 144.087 75.2982 137.661 74.0764 128.685C73.2316 122.47 75.0116 116.798 78.1946 111.594C79.9897 108.652 82.2374 106.043 83.6554 104.112Z" fill="#FFEA94"/>
<path d="M9.0143 96.5692C5.80117 99.9633 2.045 102.573 -2.32967 104.293C-14.3826 109.014 -25.4098 102.845 -27.5066 90.0675C-29.1358 80.0812 -26.2244 71.1358 -20.7485 62.9144C-16.6605 56.7748 -11.3656 51.9928 -4.39633 49.2474C7.82257 44.4201 18.9553 50.7257 20.9013 63.7139C22.4702 74.1528 19.1816 83.3547 13.2834 91.7872C12.7252 92.5867 12.1218 93.3712 11.4882 94.0953C10.7038 94.94 9.84397 95.7395 9.0143 96.5692Z" fill="#FFEA94"/>
<path d="M84.7414 172.055C93.2644 164.135 103.145 159.444 115.032 160.077C121.096 160.409 126.572 162.416 130.344 167.454C134.567 173.096 134.597 179.341 132.063 185.617C127.734 196.312 119.422 202.844 108.938 206.871C102.813 209.225 96.4474 210.039 89.9608 208.531C77.9983 205.74 72.5375 195.331 76.9424 183.836C78.6017 179.432 81.0757 175.751 84.7414 172.055Z" fill="#FFEA94"/>
</svg>
