<svg width="182" height="182" viewBox="0 0 182 182" fill="none" xmlns="http://www.w3.org/2000/svg">
<path d="M134.524 88.646C126.408 93.8051 117.855 93.6391 109.091 90.6975C104.248 89.0834 99.8284 86.5944 95.8459 83.3964C87.5491 76.7288 81.3944 68.613 79.4937 57.9026C78.0154 49.6058 79.7501 42.1991 86.9155 36.9042C91.954 33.1933 97.7919 32.3938 103.811 33.1631C115.396 34.6414 124.734 40.3587 132.125 49.1684C134.871 52.4569 137.239 56.2433 139.034 60.1503C142.851 68.4923 143.213 76.94 138.114 85.0557C136.923 86.2475 135.716 87.4543 134.524 88.646Z" fill="#FFEA94"/>
<path d="M45.7785 -55.3712C51.8729 -49.3372 55.5838 -42.0963 56.2325 -33.5129C56.7152 -27.3582 56.8359 -21.1733 56.9717 -15.0035C57.1829 -6.10335 58.4802 2.61582 60.8787 11.1691C62.8699 18.2892 64.2578 25.4697 63.6242 32.9217C63.0057 40.1776 60.7882 46.7095 55.3576 51.9591C50.1683 56.9975 43.8326 59.0792 36.8784 59.6977C31.1159 60.2106 25.3685 59.7731 19.8624 58.1289C6.4367 54.1162 -7.24545 52.7133 -21.1991 53.0904C-26.5996 53.2413 -32 52.9396 -37.1893 51.1897C-44.8223 48.6253 -50.5396 43.5718 -55.2763 37.236C-59.666 31.3679 -63.0602 25.0775 -63.6183 17.6104C-64.3123 8.46882 -60.6315 1.19781 -53.9036 -4.7457C-47.8092 -10.1462 -40.5834 -13.7213 -33.4935 -17.5529C-30.1446 -19.3631 -26.7655 -21.294 -23.839 -23.7076C-19.3286 -27.4336 -16.5529 -32.5927 -13.7773 -37.6915C-10.6245 -43.4389 -7.48682 -49.2014 -3.92674 -54.6923C-0.321413 -60.2286 4.58124 -64.5278 10.9622 -66.7755C18.7159 -69.4908 26.1831 -68.3292 33.1524 -64.4373C37.6628 -61.9181 41.781 -58.705 46.0652 -55.8086C45.9747 -55.6578 45.8691 -55.522 45.7785 -55.3712Z" fill="#FFEA94"/>
<path d="M77.6383 84.0752C87.3531 94.7856 92.8289 106.084 92.0747 119.782C91.7428 125.997 89.7968 131.684 85.0903 136.028C78.4378 142.168 70.7293 142.394 62.7342 139.317C53.6832 135.847 47.1665 129.33 42.3091 121.124C37.1047 112.33 34.4799 102.886 36.094 92.5832C37.6629 82.5969 44.0891 75.7181 53.0647 74.4962C59.2798 73.6514 64.9518 75.4315 70.1561 78.6144C73.0977 80.4095 75.7074 82.6572 77.6383 84.0752Z" fill="#FFEA94"/>
<path d="M85.1807 9.43428C81.7866 6.22116 79.1769 2.46498 77.4572 -1.90969C72.7356 -13.9627 78.9053 -24.9898 91.6824 -27.0867C101.669 -28.7159 110.614 -25.8044 118.836 -20.3286C124.975 -16.2405 129.757 -10.9456 132.503 -3.97635C137.33 8.24255 131.024 19.3753 118.036 21.3213C107.597 22.8902 98.3952 19.6016 89.9627 13.7033C89.1632 13.1452 88.3788 12.5418 87.6547 11.9082C86.8099 11.1238 86.0104 10.264 85.1807 9.43428Z" fill="#FFEA94"/>
<path d="M9.69509 85.1613C17.6147 93.6844 22.3062 103.565 21.6726 115.452C21.3408 121.516 19.3344 126.992 14.296 130.763C8.65421 134.987 2.409 135.017 -3.86639 132.483C-14.5617 128.154 -21.0935 119.842 -25.1212 109.358C-27.4745 103.233 -28.2891 96.8673 -26.7806 90.3808C-23.9899 78.4183 -13.5812 72.9575 -2.08635 77.3624C2.31849 79.0217 5.99925 81.4957 9.69509 85.1613Z" fill="#FFEA94"/>
</svg>
