<svg width="250" height="250" viewBox="0 0 250 250" fill="none" xmlns="http://www.w3.org/2000/svg">
<path d="M24.5266 240.059C24.5297 241.29 24.1655 242.397 23.3607 243.334C22.7823 244.004 22.1642 244.644 21.5521 245.283C20.6708 246.204 19.9119 247.217 19.2846 248.328C18.7643 249.252 18.1707 250.118 17.3505 250.807C16.5488 251.477 15.6613 251.911 14.578 251.893C13.5406 251.875 12.6899 251.44 11.9218 250.794C11.2884 250.262 10.7498 249.632 10.3611 248.906C9.41248 247.135 8.17006 245.601 6.7226 244.218C6.16259 243.683 5.64542 243.104 5.29656 242.397C4.78552 241.363 4.72125 240.271 4.8865 239.148C5.03951 238.107 5.33635 237.125 6.03712 236.314C6.89703 235.319 8.00787 234.958 9.29314 235.041C10.4591 235.117 11.5546 235.488 12.6624 235.821C13.1857 235.977 13.7242 236.127 14.2659 236.182C15.1013 236.265 15.9061 236.026 16.7048 235.794C17.6076 235.53 18.5134 235.267 19.4315 235.078C20.3617 234.885 21.292 234.946 22.1642 235.371C23.223 235.885 23.8626 236.764 24.1716 237.865C24.3736 238.578 24.4593 239.322 24.6001 240.05C24.5756 240.05 24.5511 240.053 24.5266 240.059Z" fill="#F7AAA4"/>
<path d="M21.9194 250.62C21.901 249.95 22.0203 249.304 22.2927 248.689C23.0424 246.991 24.7867 246.501 26.2923 247.591C27.4674 248.441 28.0764 249.644 28.3518 251.036C28.5569 252.074 28.5018 253.096 28.0703 254.081C27.3175 255.807 25.5457 256.294 24.0339 255.171C22.819 254.268 22.2254 253.001 21.9714 251.544C21.9469 251.407 21.9285 251.266 21.9224 251.128C21.9132 250.957 21.9194 250.789 21.9194 250.62Z" fill="#F7AAA4"/>
<path d="M6.58182 250.602C6.5145 252.27 5.98509 253.745 4.71206 254.883C4.06331 255.461 3.30133 255.81 2.40776 255.679C1.40709 255.532 0.773633 254.898 0.397233 254.005C-0.245401 252.478 -0.0587309 250.972 0.602264 249.503C0.987845 248.643 1.55397 247.918 2.36492 247.416C3.8644 246.489 5.47404 246.997 6.18706 248.61C6.45942 249.231 6.58182 249.858 6.58182 250.602Z" fill="#F7AAA4"/>
<path d="M43.3099 145.503C42.3 144.564 42.0154 143.367 42.1103 142.045C42.1623 141.314 42.3459 140.61 42.6458 139.943C43.2732 138.55 44.179 137.403 45.5989 136.754C46.6975 136.252 47.79 136.225 48.7815 137.026C49.4792 137.592 49.8005 138.373 49.9107 139.239C50.1218 140.901 49.6658 142.403 48.708 143.746C48.35 144.248 47.9093 144.713 47.4319 145.102C46.4098 145.931 45.2531 146.286 43.9403 145.87C43.7261 145.748 43.518 145.625 43.3099 145.503Z" fill="#F7AAA4"/>
<path d="M60.1133 127.996C59.4951 129.061 58.623 129.835 57.457 130.233C56.6186 130.521 55.7648 130.759 54.914 131.004C53.6869 131.353 52.5241 131.846 51.4224 132.488C50.5074 133.021 49.5557 133.474 48.4999 133.654C47.4687 133.829 46.4833 133.755 45.5591 133.192C44.6717 132.654 44.1576 131.849 43.8209 130.903C43.5425 130.123 43.3956 129.309 43.4262 128.486C43.4996 126.478 43.2028 124.526 42.6489 122.601C42.4347 121.857 42.2817 121.095 42.3368 120.312C42.4163 119.158 42.9151 118.185 43.622 117.301C44.28 116.481 45.0297 115.783 46.0457 115.434C47.2881 115.009 48.4326 115.257 49.5006 115.976C50.4707 116.627 51.2265 117.503 52.0161 118.347C52.3894 118.748 52.778 119.149 53.2187 119.467C53.8981 119.96 54.7151 120.159 55.523 120.361C56.4349 120.59 57.3469 120.82 58.2374 121.117C59.1371 121.42 59.9082 121.943 60.4499 122.751C61.1048 123.73 61.2119 124.81 60.9242 125.915C60.7375 126.631 60.4376 127.317 60.1898 128.017C60.1592 128.011 60.1377 128.002 60.1133 127.996Z" fill="#F7AAA4"/>
<path d="M41.8961 137.44C40.7608 139.175 39.3868 140.341 37.4589 140.729C36.5837 140.907 35.7238 140.843 34.9526 140.344C33.8601 139.64 33.551 138.575 33.6887 137.354C33.8448 135.974 34.515 134.832 35.4789 133.865C36.5133 132.825 37.7282 132.121 39.2185 131.974C40.6598 131.833 41.8502 132.479 42.3429 133.679C42.6826 134.508 42.6428 135.362 42.3857 136.2C42.2419 136.675 42.0246 137.121 41.8961 137.44Z" fill="#F7AAA4"/>
<path d="M52.5332 135.8C52.8576 135.212 53.286 134.716 53.8308 134.321C55.3333 133.232 57.0898 133.691 57.8396 135.389C58.4241 136.715 58.3414 138.064 57.8794 139.401C57.5336 140.402 56.9674 141.256 56.1014 141.889C54.5805 143 52.8056 142.526 52.0681 140.794C51.4744 139.401 51.5999 138.006 52.1171 136.623C52.166 136.491 52.218 136.363 52.2823 136.237C52.3558 136.084 52.4476 135.943 52.5332 135.8Z" fill="#F7AAA4"/>
<path d="M39.3011 128.042C38.4014 129.45 37.2018 130.457 35.5279 130.793C34.6741 130.964 33.8418 130.885 33.1349 130.319C32.3453 129.688 32.1189 128.822 32.2444 127.858C32.4586 126.215 33.3827 125.009 34.6925 124.076C35.4575 123.528 36.3144 123.186 37.2661 123.164C39.0287 123.121 40.161 124.37 39.9621 126.123C39.8856 126.797 39.6744 127.399 39.3011 128.042Z" fill="#F7AAA4"/>
<path d="M120.714 57.2448C120.291 55.932 120.628 54.7508 121.353 53.643C121.754 53.0309 122.259 52.5077 122.847 52.0701C124.074 51.1612 125.423 50.6012 126.981 50.7297C128.187 50.8276 129.151 51.3356 129.625 52.523C129.958 53.3553 129.854 54.1969 129.53 55.0048C128.903 56.5563 127.77 57.6487 126.28 58.3526C125.723 58.6158 125.111 58.8055 124.505 58.9126C123.211 59.139 122.023 58.882 121.084 57.8783C120.958 57.664 120.836 57.4529 120.714 57.2448Z" fill="#F7AAA4"/>
<path d="M143.925 50.1698C142.866 50.7972 141.728 51.045 140.513 50.8247C139.641 50.6656 138.778 50.4575 137.918 50.2555C136.675 49.9617 135.421 49.824 134.145 49.8454C133.086 49.8638 132.036 49.7934 131.026 49.4354C130.041 49.0865 129.218 48.5388 128.685 47.5962C128.174 46.6935 128.119 45.7387 128.284 44.7503C128.422 43.9332 128.691 43.1498 129.12 42.446C130.163 40.7292 130.858 38.8809 131.314 36.9316C131.492 36.1757 131.727 35.4382 132.159 34.7803C132.792 33.8132 133.701 33.2073 134.751 32.7789C135.724 32.3842 136.721 32.1424 137.777 32.3352C139.072 32.5708 139.947 33.345 140.525 34.4957C141.051 35.5392 141.287 36.6714 141.559 37.7945C141.691 38.327 141.835 38.8656 142.061 39.3583C142.413 40.1202 143.028 40.6925 143.634 41.2617C144.317 41.9074 145.002 42.5531 145.636 43.2477C146.275 43.9516 146.691 44.7839 146.771 45.754C146.866 46.9291 146.431 47.9237 145.639 48.7468C145.128 49.2824 144.531 49.7353 143.971 50.2249C143.959 50.2096 143.943 50.1882 143.925 50.1698Z" fill="#F7AAA4"/>
<path d="M123.416 49.518C121.577 50.4789 119.808 50.8247 117.935 50.2249C117.084 49.9526 116.368 49.4752 115.937 48.6642C115.325 47.5167 115.576 46.4364 116.295 45.4388C117.106 44.3096 118.247 43.6425 119.56 43.2661C120.968 42.8622 122.375 42.8438 123.746 43.4436C125.074 44.025 125.797 45.1665 125.641 46.4579C125.533 47.3484 125.081 48.0736 124.447 48.6795C124.092 49.0192 123.685 49.3038 123.416 49.518Z" fill="#F7AAA4"/>
<path d="M133.502 53.279C134.071 52.924 134.686 52.7006 135.357 52.621C137.199 52.4038 138.508 53.6615 138.331 55.5098C138.193 56.9542 137.465 58.0896 136.406 59.0321C135.617 59.7359 134.705 60.2041 133.64 60.3357C131.77 60.5622 130.454 59.283 130.653 57.4071C130.815 55.9015 131.605 54.7479 132.731 53.79C132.838 53.6982 132.948 53.6125 133.064 53.536C133.208 53.4442 133.355 53.3647 133.502 53.279Z" fill="#F7AAA4"/>
<path d="M125.738 40.0497C124.267 40.8392 122.727 41.13 121.099 40.6097C120.27 40.3435 119.584 39.8661 119.245 39.0276C118.865 38.0912 119.089 37.2252 119.667 36.4449C120.659 35.1167 122.051 34.5139 123.651 34.3364C124.588 34.2324 125.5 34.3517 126.344 34.7985C127.902 35.6217 128.281 37.265 127.253 38.6971C126.858 39.248 126.381 39.6733 125.738 40.0497Z" fill="#F7AAA4"/>
<path d="M235.656 18.8859C235.956 17.5394 236.841 16.6887 238.028 16.0981C238.683 15.7707 239.384 15.5748 240.112 15.4953C241.63 15.33 243.077 15.5289 244.357 16.4225C245.348 17.1141 245.923 18.0413 245.734 19.3052C245.599 20.1926 245.088 20.8658 244.399 21.3983C243.074 22.4235 241.547 22.7907 239.904 22.6469C239.289 22.5918 238.668 22.4479 238.089 22.2337C236.856 21.7747 235.963 20.9546 235.656 19.6142C235.656 19.3725 235.656 19.1307 235.656 18.8859Z" fill="#F7AAA4"/>
<path d="M259.266 24.4953C258.035 24.5014 256.925 24.1434 255.988 23.3386C255.315 22.7633 254.675 22.1482 254.036 21.5361C253.112 20.6548 252.096 19.902 250.985 19.2777C250.061 18.7575 249.192 18.1699 248.5 17.3498C247.827 16.5511 247.389 15.6637 247.407 14.5804C247.423 13.543 247.854 12.6892 248.497 11.9211C249.029 11.2846 249.657 10.746 250.382 10.3543C252.151 9.39952 253.681 8.15404 255.058 6.70046C255.59 6.13739 256.169 5.62022 256.873 5.27136C257.907 4.75726 258.999 4.68993 260.122 4.85212C261.163 5.00207 262.145 5.29585 262.959 5.99662C263.957 6.85347 264.321 7.96431 264.241 9.24958C264.171 10.4155 263.801 11.511 263.47 12.6188C263.314 13.1421 263.167 13.6807 263.115 14.2223C263.036 15.0578 263.277 15.8626 263.513 16.6613C263.776 17.564 264.043 18.4668 264.238 19.3848C264.434 20.3121 264.373 21.2454 263.954 22.1206C263.443 23.1825 262.568 23.8221 261.466 24.1342C260.753 24.3362 260.009 24.428 259.281 24.5687C259.275 24.5443 259.272 24.5198 259.266 24.4953Z" fill="#F7AAA4"/>
<path d="M241.89 13.5826C239.818 13.4816 238.117 12.891 236.804 11.4251C236.207 10.7611 235.828 9.98686 235.865 9.06881C235.917 7.76825 236.679 6.96648 237.799 6.46462C239.069 5.89849 240.391 5.89849 241.716 6.23816C243.135 6.60232 244.36 7.29392 245.241 8.50269C246.095 9.67473 246.141 11.0243 245.354 12.0586C244.809 12.7747 244.054 13.1694 243.203 13.3745C242.722 13.4908 242.23 13.5305 241.89 13.5826Z" fill="#F7AAA4"/>
<path d="M248.696 21.9187C249.366 21.9004 250.012 22.0167 250.63 22.286C252.331 23.0296 252.824 24.7739 251.741 26.2825C250.893 27.4607 249.69 28.0727 248.301 28.3512C247.264 28.5593 246.242 28.5073 245.256 28.0788C243.527 27.3291 243.038 25.5603 244.158 24.0455C245.057 22.8276 246.324 22.2278 247.778 21.9708C247.915 21.9463 248.056 21.9279 248.194 21.9187C248.359 21.9126 248.528 21.9187 248.696 21.9187Z" fill="#F7AAA4"/>
<path d="M248.671 6.57802C247.003 6.51681 245.525 5.99047 244.384 4.7205C243.803 4.07174 243.451 3.31282 243.579 2.41926C243.723 1.41858 244.353 0.782068 245.247 0.402608C246.771 -0.243086 248.277 -0.0625365 249.748 0.592338C250.608 0.974859 251.337 1.53793 251.842 2.34887C252.772 3.84529 252.27 5.45494 250.657 6.17408C250.042 6.45255 249.418 6.57802 248.671 6.57802Z" fill="#F7AAA4"/>
</svg>
