<svg width="500" height="147" viewBox="0 0 500 147" fill="none" xmlns="http://www.w3.org/2000/svg">
<path d="M355.125 43.6183C356.068 42.6115 357.264 42.33 358.586 42.4279C359.318 42.483 360.018 42.6666 360.685 42.9696C362.075 43.6 363.222 44.5088 363.865 45.9318C364.364 47.0335 364.388 48.1229 363.583 49.1144C363.017 49.8091 362.234 50.1273 361.368 50.2344C359.706 50.4394 358.204 49.9804 356.863 49.0165C356.365 48.6584 355.899 48.2147 355.514 47.7373C354.688 46.7152 354.336 45.5524 354.755 44.2426C354.877 44.0345 355 43.8264 355.125 43.6183Z" fill="#F7AAA4"/>
<path d="M372.58 60.4738C371.518 59.8526 370.747 58.9774 370.349 57.8084C370.065 56.9699 369.829 56.1131 369.587 55.2624C369.242 54.0352 368.752 52.8693 368.112 51.7646C367.583 50.8465 367.133 49.8948 366.956 48.8391C366.784 47.8078 366.861 46.8224 367.427 45.8983C367.969 45.0139 368.777 44.4998 369.719 44.1662C370.499 43.8908 371.316 43.747 372.14 43.7776C374.147 43.8571 376.099 43.5664 378.024 43.0187C378.771 42.8075 379.53 42.6545 380.316 42.7126C381.467 42.7983 382.44 43.2971 383.325 44.0071C384.142 44.665 384.839 45.4209 385.182 46.4369C385.604 47.6823 385.35 48.8238 384.628 49.8887C383.973 50.8557 383.095 51.6116 382.247 52.395C381.846 52.7683 381.446 53.1539 381.124 53.5946C380.628 54.2739 380.43 55.0879 380.222 55.8958C379.989 56.8077 379.759 57.7197 379.456 58.6071C379.154 59.5068 378.627 60.2749 377.816 60.8135C376.837 61.4653 375.757 61.5694 374.649 61.2786C373.933 61.0889 373.247 60.789 372.55 60.5381C372.565 60.5228 372.571 60.4983 372.58 60.4738Z" fill="#F7AAA4"/>
<path d="M363.192 42.229C361.46 41.0875 360.297 39.7104 359.914 37.7825C359.74 36.9073 359.807 36.0474 360.306 35.2793C361.013 34.1868 362.078 33.8839 363.299 34.0247C364.679 34.1838 365.817 34.8601 366.784 35.824C367.822 36.8614 368.523 38.0794 368.663 39.5697C368.801 41.0141 368.152 42.1984 366.95 42.688C366.117 43.0277 365.267 42.9818 364.428 42.7247C363.957 42.5748 363.51 42.3575 363.192 42.229Z" fill="#F7AAA4"/>
<path d="M364.798 52.8693C365.386 53.1937 365.882 53.6251 366.273 54.1698C367.357 55.6754 366.895 57.4289 365.193 58.1756C363.865 58.757 362.519 58.6714 361.181 58.2031C360.184 57.8543 359.33 57.2882 358.699 56.4191C357.592 54.8951 358.072 53.1233 359.807 52.3888C361.2 51.7982 362.595 51.9298 363.978 52.45C364.11 52.499 364.238 52.5541 364.364 52.6183C364.514 52.6948 364.655 52.7866 364.798 52.8693Z" fill="#F7AAA4"/>
<path d="M372.596 39.6616C371.191 38.7557 370.187 37.5531 369.854 35.8792C369.682 35.0254 369.768 34.193 370.337 33.4892C370.971 32.7027 371.837 32.4763 372.801 32.6048C374.441 32.8251 375.643 33.7493 376.577 35.0621C377.122 35.8302 377.461 36.684 377.483 37.6388C377.519 39.4014 376.268 40.5306 374.514 40.3256C373.838 40.2491 373.238 40.038 372.596 39.6616Z" fill="#F7AAA4"/>
<path d="M443.512 121.808C444.828 121.395 446.009 121.735 447.111 122.469C447.723 122.873 448.243 123.381 448.674 123.972C449.577 125.202 450.128 126.558 449.993 128.112C449.889 129.318 449.375 130.279 448.185 130.747C447.349 131.075 446.511 130.967 445.703 130.637C444.154 130 443.071 128.862 442.373 127.366C442.113 126.806 441.927 126.194 441.826 125.588C441.608 124.29 441.872 123.106 442.878 122.173C443.089 122.053 443.301 121.931 443.512 121.808Z" fill="#F7AAA4"/>
<path d="M450.455 145.059C449.834 143.998 449.592 142.856 449.819 141.644C449.981 140.775 450.195 139.912 450.403 139.052C450.703 137.813 450.85 136.555 450.835 135.282C450.823 134.223 450.899 133.174 451.263 132.167C451.618 131.185 452.169 130.361 453.115 129.835C454.02 129.33 454.975 129.278 455.964 129.45C456.781 129.593 457.561 129.866 458.262 130.3C459.972 131.356 461.818 132.06 463.764 132.525C464.517 132.706 465.254 132.947 465.909 133.382C466.873 134.021 467.476 134.933 467.895 135.986C468.284 136.962 468.523 137.96 468.324 139.016C468.082 140.307 467.302 141.179 466.148 141.751C465.101 142.272 463.969 142.501 462.843 142.767C462.31 142.896 461.772 143.037 461.276 143.26C460.511 143.609 459.939 144.221 459.363 144.824C458.715 145.503 458.066 146.186 457.365 146.813C456.658 147.446 455.823 147.859 454.853 147.933C453.678 148.022 452.686 147.581 451.866 146.785C451.334 146.271 450.884 145.671 450.397 145.108C450.416 145.093 450.434 145.078 450.455 145.059Z" fill="#F7AAA4"/>
<path d="M451.223 124.556C450.275 122.711 449.938 120.942 450.55 119.073C450.829 118.225 451.306 117.509 452.12 117.084C453.274 116.481 454.348 116.738 455.342 117.46C456.466 118.277 457.127 119.421 457.497 120.737C457.892 122.148 457.904 123.556 457.298 124.921C456.71 126.246 455.563 126.962 454.274 126.796C453.384 126.683 452.662 126.227 452.059 125.591C451.716 125.233 451.435 124.826 451.223 124.556Z" fill="#F7AAA4"/>
<path d="M447.404 134.618C447.756 135.191 447.977 135.809 448.053 136.476C448.258 138.321 446.994 139.622 445.146 139.435C443.705 139.291 442.572 138.554 441.636 137.492C440.938 136.696 440.473 135.784 440.348 134.719C440.13 132.846 441.419 131.54 443.292 131.751C444.794 131.922 445.948 132.718 446.896 133.85C446.985 133.957 447.074 134.067 447.15 134.184C447.242 134.324 447.319 134.474 447.404 134.618Z" fill="#F7AAA4"/>
<path d="M460.676 126.931C459.896 125.453 459.611 123.914 460.144 122.289C460.413 121.463 460.897 120.777 461.735 120.444C462.675 120.07 463.541 120.297 464.315 120.881C465.637 121.879 466.23 123.274 466.399 124.875C466.497 125.811 466.374 126.723 465.921 127.565C465.089 129.119 463.443 129.486 462.017 128.452C461.472 128.054 461.05 127.577 460.676 126.931Z" fill="#F7AAA4"/>
<path d="M43.3099 145.503C42.3 144.564 42.0154 143.367 42.1103 142.045C42.1623 141.314 42.3459 140.61 42.6458 139.943C43.2732 138.551 44.179 137.403 45.5989 136.754C46.6975 136.252 47.79 136.225 48.7815 137.027C49.4792 137.593 49.8005 138.373 49.9107 139.239C50.1218 140.901 49.6658 142.403 48.708 143.747C48.35 144.249 47.9093 144.714 47.4319 145.102C46.4098 145.932 45.2531 146.287 43.9403 145.87C43.7261 145.748 43.518 145.626 43.3099 145.503Z" fill="#F7AAA4"/>
<path d="M60.1132 127.996C59.4951 129.061 58.6229 129.835 57.457 130.233C56.6185 130.521 55.7648 130.759 54.914 131.004C53.6869 131.353 52.524 131.846 51.4224 132.488C50.5074 133.021 49.5557 133.474 48.4999 133.654C47.4687 133.829 46.4833 133.755 45.5591 133.192C44.6717 132.654 44.1576 131.849 43.8209 130.903C43.5425 130.123 43.3956 129.309 43.4262 128.486C43.4996 126.478 43.2028 124.526 42.6489 122.601C42.4347 121.857 42.2817 121.095 42.3368 120.312C42.4163 119.158 42.9151 118.185 43.622 117.301C44.28 116.481 45.0297 115.783 46.0457 115.434C47.2881 115.009 48.4326 115.257 49.5006 115.976C50.4707 116.627 51.2265 117.503 52.0161 118.347C52.3894 118.748 52.778 119.149 53.2187 119.467C53.8981 119.96 54.7151 120.159 55.523 120.361C56.4349 120.59 57.3469 120.82 58.2374 121.117C59.1371 121.42 59.9082 121.943 60.4499 122.751C61.1047 123.73 61.2118 124.81 60.9242 125.915C60.7375 126.631 60.4376 127.317 60.1898 128.017C60.1591 128.011 60.1377 128.002 60.1132 127.996Z" fill="#F7AAA4"/>
<path d="M41.8961 137.44C40.7608 139.175 39.3868 140.341 37.4589 140.729C36.5837 140.907 35.7238 140.843 34.9526 140.344C33.8601 139.64 33.551 138.575 33.6887 137.354C33.8448 135.974 34.515 134.832 35.4789 133.865C36.5133 132.825 37.7282 132.121 39.2185 131.974C40.6598 131.833 41.8502 132.479 42.3429 133.679C42.6826 134.508 42.6428 135.362 42.3857 136.2C42.2419 136.675 42.0246 137.121 41.8961 137.44Z" fill="#F7AAA4"/>
<path d="M52.5332 135.799C52.8576 135.212 53.286 134.716 53.8307 134.321C55.3333 133.232 57.0898 133.691 57.8396 135.389C58.424 136.714 58.3414 138.064 57.8793 139.401C57.5335 140.402 56.9674 141.256 56.1014 141.889C54.5805 143 52.8056 142.526 52.0681 140.794C51.4744 139.401 51.5999 138.006 52.117 136.623C52.166 136.491 52.218 136.362 52.2823 136.237C52.3557 136.084 52.4475 135.943 52.5332 135.799Z" fill="#F7AAA4"/>
<path d="M39.3011 128.042C38.4014 129.449 37.2018 130.456 35.5279 130.793C34.6741 130.964 33.8418 130.885 33.1349 130.319C32.3453 129.688 32.1189 128.822 32.2444 127.858C32.4586 126.215 33.3827 125.009 34.6925 124.076C35.4575 123.528 36.3144 123.185 37.2661 123.164C39.0287 123.121 40.161 124.37 39.9621 126.123C39.8856 126.796 39.6744 127.399 39.3011 128.042Z" fill="#F7AAA4"/>
<path d="M120.714 57.245C120.291 55.9322 120.628 54.751 121.353 53.6432C121.754 53.0312 122.259 52.5079 122.847 52.0703C124.074 51.1614 125.423 50.6014 126.981 50.7299C128.187 50.8279 129.151 51.3359 129.625 52.5232C129.958 53.3556 129.854 54.1971 129.53 55.005C128.903 56.5565 127.77 57.649 126.28 58.3528C125.723 58.616 125.111 58.8057 124.505 58.9128C123.211 59.1393 122.023 58.8822 121.084 57.8785C120.958 57.6643 120.836 57.4531 120.714 57.245Z" fill="#F7AAA4"/>
<path d="M143.925 50.1701C142.866 50.7974 141.728 51.0453 140.513 50.8249C139.641 50.6658 138.778 50.4577 137.918 50.2558C136.675 49.962 135.421 49.8243 134.145 49.8457C133.086 49.8641 132.036 49.7937 131.026 49.4356C130.041 49.0868 129.218 48.539 128.685 47.5965C128.174 46.6937 128.119 45.7389 128.284 44.7505C128.422 43.9335 128.692 43.1501 129.12 42.4462C130.163 40.7295 130.858 38.8811 131.314 36.9318C131.492 36.1759 131.727 35.4384 132.159 34.7805C132.792 33.8135 133.701 33.2076 134.751 32.7792C135.724 32.3844 136.721 32.1426 137.777 32.3354C139.072 32.5711 139.947 33.3453 140.525 34.4959C141.051 35.5394 141.287 36.6717 141.559 37.7948C141.691 38.3272 141.835 38.8658 142.061 39.3585C142.413 40.1205 143.028 40.6927 143.634 41.2619C144.317 41.9076 145.002 42.5533 145.636 43.248C146.275 43.9518 146.691 44.7842 146.771 45.7542C146.866 46.9294 146.431 47.9239 145.639 48.7471C145.128 49.2826 144.531 49.7355 143.971 50.2251C143.959 50.2098 143.943 50.1884 143.925 50.1701Z" fill="#F7AAA4"/>
<path d="M123.416 49.5183C121.577 50.4791 119.808 50.8249 117.935 50.2252C117.084 49.9528 116.368 49.4754 115.937 48.6645C115.325 47.5169 115.576 46.4367 116.295 45.4391C117.106 44.3099 118.247 43.6428 119.56 43.2664C120.968 42.8624 122.375 42.8441 123.746 43.4438C125.074 44.0253 125.797 45.1667 125.641 46.4581C125.533 47.3486 125.081 48.0739 124.447 48.6798C124.092 49.0195 123.685 49.304 123.416 49.5183Z" fill="#F7AAA4"/>
<path d="M133.502 53.2792C134.071 52.9243 134.686 52.7009 135.357 52.6213C137.199 52.404 138.508 53.6617 138.331 55.5101C138.193 56.9545 137.465 58.0898 136.406 59.0323C135.617 59.7362 134.705 60.2044 133.64 60.336C131.77 60.5624 130.454 59.2833 130.653 57.4074C130.815 55.9018 131.605 54.7481 132.731 53.7903C132.838 53.6985 132.948 53.6128 133.064 53.5363C133.208 53.4445 133.355 53.3649 133.502 53.2792Z" fill="#F7AAA4"/>
<path d="M125.738 40.0502C124.267 40.8397 122.727 41.1305 121.099 40.6102C120.27 40.344 119.584 39.8666 119.245 39.0281C118.865 38.0917 119.089 37.2257 119.667 36.4453C120.659 35.1172 122.051 34.5144 123.651 34.3369C124.588 34.2328 125.5 34.3522 126.344 34.799C127.902 35.6222 128.281 37.2655 127.253 38.6976C126.858 39.2484 126.381 39.6738 125.738 40.0502Z" fill="#F7AAA4"/>
<path d="M235.656 18.8859C235.956 17.5394 236.841 16.6887 238.028 16.0981C238.683 15.7707 239.384 15.5748 240.112 15.4953C241.63 15.33 243.077 15.5289 244.356 16.4225C245.348 17.1141 245.923 18.0413 245.734 19.3052C245.599 20.1926 245.088 20.8658 244.399 21.3983C243.074 22.4235 241.547 22.7907 239.904 22.6469C239.289 22.5918 238.668 22.4479 238.089 22.2337C236.856 21.7747 235.962 20.9546 235.656 19.6142C235.656 19.3725 235.656 19.1307 235.656 18.8859Z" fill="#F7AAA4"/>
<path d="M259.266 24.4953C258.035 24.5014 256.925 24.1434 255.988 23.3386C255.315 22.7633 254.675 22.1482 254.036 21.5361C253.112 20.6548 252.096 19.902 250.985 19.2777C250.061 18.7575 249.192 18.1699 248.5 17.3498C247.827 16.5511 247.389 15.6637 247.407 14.5804C247.423 13.543 247.854 12.6892 248.497 11.9211C249.029 11.2846 249.657 10.746 250.382 10.3543C252.151 9.39952 253.681 8.15404 255.058 6.70046C255.59 6.13739 256.169 5.62022 256.873 5.27136C257.907 4.75726 258.999 4.68993 260.122 4.85212C261.163 5.00207 262.145 5.29585 262.959 5.99662C263.957 6.85347 264.321 7.96431 264.241 9.24958C264.171 10.4155 263.801 11.511 263.47 12.6188C263.314 13.1421 263.167 13.6807 263.115 14.2223C263.036 15.0578 263.277 15.8626 263.513 16.6613C263.776 17.564 264.043 18.4668 264.238 19.3848C264.434 20.3121 264.373 21.2454 263.954 22.1206C263.443 23.1825 262.568 23.8221 261.466 24.1342C260.753 24.3362 260.009 24.428 259.281 24.5687C259.275 24.5443 259.272 24.5198 259.266 24.4953Z" fill="#F7AAA4"/>
<path d="M241.89 13.5828C239.818 13.4818 238.117 12.8912 236.804 11.4254C236.207 10.7613 235.828 9.98711 235.865 9.06906C235.917 7.76849 236.679 6.96673 237.799 6.46486C239.069 5.89873 240.391 5.89873 241.716 6.23841C243.135 6.60257 244.36 7.29416 245.241 8.50293C246.095 9.67497 246.141 11.0245 245.354 12.0588C244.809 12.7749 244.054 13.1697 243.203 13.3747C242.722 13.491 242.23 13.5308 241.89 13.5828Z" fill="#F7AAA4"/>
<path d="M248.696 21.9187C249.366 21.9004 250.012 22.0167 250.63 22.286C252.331 23.0296 252.824 24.7739 251.741 26.2825C250.893 27.4607 249.69 28.0727 248.301 28.3512C247.264 28.5593 246.242 28.5073 245.256 28.0788C243.527 27.3291 243.038 25.5603 244.158 24.0455C245.057 22.8276 246.324 22.2278 247.778 21.9708C247.915 21.9463 248.056 21.9279 248.194 21.9187C248.359 21.9126 248.527 21.9187 248.696 21.9187Z" fill="#F7AAA4"/>
<path d="M248.671 6.57802C247.003 6.51681 245.525 5.99047 244.384 4.7205C243.803 4.07174 243.451 3.31282 243.579 2.41926C243.723 1.41858 244.353 0.782068 245.247 0.402608C246.771 -0.243086 248.277 -0.0625365 249.748 0.592338C250.608 0.974859 251.337 1.53793 251.842 2.34887C252.772 3.84529 252.27 5.45494 250.657 6.17408C250.042 6.45255 249.418 6.57802 248.671 6.57802Z" fill="#F7AAA4"/>
</svg>
