<svg width="261" height="282" viewBox="0 0 261 282" fill="none" xmlns="http://www.w3.org/2000/svg">
<path d="M47.226 93.0984C55.3418 87.9393 63.895 88.1053 72.6594 91.0468C77.5017 92.6609 81.9216 95.15 85.9041 98.348C94.2009 105.016 100.356 113.131 102.256 123.842C103.735 132.139 102 139.545 94.8345 144.84C89.796 148.551 83.9581 149.351 77.9392 148.581C66.3539 147.103 57.0162 141.386 49.6245 132.576C46.879 129.287 44.5107 125.501 42.7156 121.594C38.899 113.252 38.537 104.804 43.6358 96.6887C44.8275 95.4969 46.0343 94.2901 47.226 93.0984Z" fill="#FFEA94"/>
<path d="M135.971 237.115C129.877 231.081 126.166 223.84 125.518 215.257C125.035 209.102 124.914 202.918 124.778 196.748C124.567 187.848 123.27 179.128 120.871 170.575C118.88 163.455 117.492 156.274 118.126 148.822C118.744 141.567 120.962 135.035 126.392 129.785C131.582 124.747 137.917 122.665 144.872 122.046C150.634 121.534 156.382 121.971 161.888 123.615C175.313 127.628 188.995 129.031 202.949 128.654C208.35 128.503 213.75 128.805 218.939 130.554C226.572 133.119 232.29 138.172 237.026 144.508C241.416 150.376 244.81 156.667 245.368 164.134C246.062 173.275 242.382 180.546 235.654 186.49C229.559 191.89 222.333 195.465 215.243 199.297C211.895 201.107 208.516 203.038 205.589 205.452C201.079 209.178 198.303 214.337 195.527 219.436C192.375 225.183 189.237 230.946 185.677 236.437C182.071 241.973 177.169 246.272 170.788 248.52C163.034 251.235 155.567 250.073 148.598 246.181C144.087 243.662 139.969 240.449 135.685 237.553C135.775 237.402 135.881 237.266 135.971 237.115Z" fill="#FFEA94"/>
<path d="M104.112 97.6687C94.3969 86.9583 88.9211 75.6596 89.6753 61.9623C90.0072 55.7473 91.9532 50.0602 96.6597 45.7157C103.312 39.5761 111.021 39.3498 119.016 42.4272C128.067 45.8967 134.584 52.4135 139.441 60.6197C144.645 69.4143 147.27 78.8576 145.656 89.1607C144.087 99.147 137.661 106.026 128.685 107.248C122.47 108.092 116.798 106.312 111.594 103.129C108.652 101.334 106.043 99.0867 104.112 97.6687Z" fill="#FFEA94"/>
<path d="M96.5693 172.31C99.9634 175.523 102.573 179.279 104.293 183.654C109.014 195.707 102.845 206.734 90.0676 208.831C80.0813 210.46 71.1358 207.549 62.9145 202.073C56.7749 197.985 51.9929 192.69 49.2474 185.721C44.4202 173.502 50.7258 162.369 63.714 160.423C74.1529 158.854 83.3548 162.143 91.7873 168.041C92.5868 168.599 93.3712 169.203 94.0953 169.836C94.9401 170.621 95.7396 171.48 96.5693 172.31Z" fill="#FFEA94"/>
<path d="M172.055 96.5829C164.135 88.0598 159.444 78.1791 160.077 66.2921C160.409 60.2279 162.416 54.752 167.454 50.9807C173.096 46.7569 179.341 46.7267 185.616 49.261C196.312 53.5904 202.844 61.9023 206.871 72.3864C209.225 78.511 210.039 84.8769 208.531 91.3634C205.74 103.326 195.331 108.787 183.836 104.382C179.432 102.722 175.751 100.249 172.055 96.5829Z" fill="#FFEA94"/>
</svg>
