<svg width="182" height="182" viewBox="0 0 182 182" fill="none" xmlns="http://www.w3.org/2000/svg">
<path d="M93.774 134.774C88.6149 126.658 88.7809 118.105 91.7224 109.341C93.3365 104.498 95.8256 100.078 99.0236 96.096C105.691 87.7992 113.807 81.6445 124.517 79.7437C132.814 78.2654 140.221 80.0002 145.516 87.1656C149.227 92.204 150.026 98.0419 149.257 104.061C147.779 115.646 142.061 124.984 133.252 132.376C129.963 135.121 126.177 137.489 122.27 139.284C113.928 143.101 105.48 143.463 97.3642 138.364C96.1725 137.173 94.9657 135.966 93.774 134.774Z" fill="#FFEA94"/>
<path d="M237.791 46.0285C231.757 52.1229 224.516 55.8338 215.933 56.4824C209.778 56.9652 203.593 57.0858 197.423 57.2216C188.523 57.4328 179.804 58.7301 171.251 61.1286C164.131 63.1199 156.95 64.5077 149.498 63.8741C142.242 63.2556 135.71 61.0381 130.461 55.6075C125.422 50.4182 123.341 44.0825 122.722 37.1283C122.209 31.3658 122.647 25.6184 124.291 20.1124C128.304 6.68664 129.707 -6.99551 129.33 -20.9492C129.179 -26.3497 129.48 -31.7501 131.23 -36.9394C133.795 -44.5724 138.848 -50.2896 145.184 -55.0264C151.052 -59.4161 157.342 -62.8103 164.81 -63.3684C173.951 -64.0623 181.222 -60.3816 187.166 -53.6536C192.566 -47.5593 196.141 -40.3335 199.973 -33.2435C201.783 -29.8946 203.714 -26.5156 206.128 -23.5891C209.854 -19.0787 215.013 -16.303 220.111 -13.5273C225.859 -10.3746 231.621 -7.23688 237.112 -3.6768C242.649 -0.0714739 246.948 4.83118 249.195 11.2122C251.911 18.9659 250.749 26.433 246.857 33.4023C244.338 37.9127 241.125 42.031 238.229 46.3151C238.078 46.2246 237.942 46.119 237.791 46.0285Z" fill="#FFEA94"/>
<path d="M98.3446 77.8882C87.6342 87.603 76.3355 93.0789 62.6383 92.3246C56.4232 91.9928 50.7362 90.0468 46.3917 85.3402C40.252 78.6877 40.0258 70.9793 43.1031 62.9842C46.5727 53.9331 53.0894 47.4164 61.2957 42.559C70.0903 37.3547 79.5336 34.7299 89.8367 36.344C99.823 37.9128 106.702 44.339 107.924 53.3147C108.768 59.5297 106.988 65.2017 103.805 70.406C102.01 73.3476 99.7626 75.9573 98.3446 77.8882Z" fill="#FFEA94"/>
<path d="M172.986 85.4308C176.199 82.0367 179.955 79.4269 184.33 77.7072C196.383 72.9856 207.41 79.1554 209.507 91.9325C211.136 101.919 208.224 110.864 202.749 119.086C198.66 125.225 193.366 130.007 186.396 132.753C174.177 137.58 163.045 131.274 161.099 118.286C159.53 107.847 162.818 98.6453 168.717 90.2128C169.275 89.4133 169.878 88.6288 170.512 87.9047C171.296 87.06 172.156 86.2605 172.986 85.4308Z" fill="#FFEA94"/>
<path d="M97.2586 9.94509C88.7356 17.8647 78.8549 22.5562 66.9678 21.9226C60.9036 21.5908 55.4278 19.5844 51.6565 14.546C47.4327 8.90421 47.4025 2.659 49.9368 -3.61639C54.2662 -14.3117 62.5781 -20.8435 73.0622 -24.8712C79.1867 -27.2245 85.5526 -28.0391 92.0392 -26.5306C104.002 -23.7399 109.462 -13.3312 105.058 -1.83635C103.398 2.56849 100.924 6.24925 97.2586 9.94509Z" fill="#FFEA94"/>
</svg>
