<?xml version="1.0" encoding="utf-8"?>
<!-- Generator: Adobe Illustrator 16.0.0, SVG Export Plug-In . SVG Version: 6.00 Build 0)  -->
<!DOCTYPE svg PUBLIC "-//W3C//DTD SVG 1.1//EN" "http://www.w3.org/Graphics/SVG/1.1/DTD/svg11.dtd">
<svg version="1.1" id="Layer_1" xmlns="http://www.w3.org/2000/svg" xmlns:xlink="http://www.w3.org/1999/xlink" x="0px" y="0px"
	 width="20px" height="20px" viewBox="0 0 20 20" enable-background="new 0 0 20 20" xml:space="preserve">
<g>
	<defs>
		<path id="SVGID_3_" d="M19.5,4.285c0-0.13-0.03-0.26-0.08-0.38l0.01-0.011c-0.01,0-0.01-0.01-0.01-0.01
			c-0.01-0.02-0.021-0.029-0.03-0.05c-0.04-0.09-0.1-0.18-0.17-0.26c-0.02-0.03-0.05-0.05-0.08-0.08
			c-0.07-0.061-0.13-0.101-0.21-0.14c-0.04-0.021-0.07-0.04-0.1-0.061c-0.12-0.04-0.23-0.07-0.36-0.08H10H1.53
			c-0.13,0.01-0.24,0.04-0.36,0.08c-0.029,0.021-0.06,0.04-0.1,0.061c-0.08,0.039-0.14,0.079-0.21,0.14
			c-0.03,0.03-0.061,0.05-0.08,0.08c-0.07,0.08-0.13,0.17-0.17,0.26c-0.01,0.021-0.021,0.03-0.03,0.05c0,0,0,0.01-0.01,0.01
			l0.01,0.011c-0.05,0.12-0.08,0.25-0.08,0.38v11.43c0,0.141,0.03,0.271,0.08,0.391H0.57c0,0,0.01,0,0.01,0.01
			c0,0,0.01,0.01,0.01,0.02c0.04,0.101,0.11,0.19,0.181,0.28c0.02,0.03,0.05,0.05,0.069,0.07c0.07,0.06,0.131,0.11,0.21,0.159
			c0.03,0.011,0.061,0.031,0.091,0.051c0.109,0.05,0.229,0.08,0.35,0.09H10h8.51c0.12-0.01,0.24-0.04,0.35-0.09
			c0.03-0.02,0.061-0.04,0.091-0.051c0.079-0.049,0.14-0.1,0.21-0.159c0.02-0.021,0.05-0.04,0.069-0.07
			c0.07-0.09,0.141-0.18,0.181-0.28c0-0.01,0.01-0.02,0.01-0.02c0-0.01,0.01-0.01,0.01-0.01h-0.01c0.05-0.12,0.08-0.25,0.08-0.391
			V4.285z"/>
	</defs>
	<clipPath id="SVGID_2_">
		<use xlink:href="#SVGID_3_"  overflow="visible"/>
	</clipPath>
	<g clip-path="url(#SVGID_2_)">
		<g>
			<rect x="9.889" y="3.22" fill="#0052B4" width="9.611" height="13.557"/>
			<polygon fill="#F0F0F0" points="19.5,5.953 16.363,7.712 19.5,7.712 19.5,12.367 16.516,12.367 19.5,14.047 19.5,16.777 
				17.365,16.777 11.709,13.602 11.709,16.777 9.889,16.777 9.889,3.22 11.709,3.22 11.709,6.398 17.375,3.22 19.5,3.22 			"/>
			<rect x="9.38" y="3.218" fill="#EE0922" width="1.24" height="13.563"/>
			<polygon fill="#EE0922" points="10,8.799 10,10.041 10,11.281 19.497,11.281 19.497,10.041 19.497,8.799 			"/>
			<polygon fill="#EE0922" points="19.5,3.282 19.5,4.699 12.205,8.796 10.061,10 10,10.03 10,10.041 9.989,10.041 9.97,10 
				9.889,9.858 9.383,8.958 9.889,8.674 			"/>
			<polygon fill="#EE0922" points="19.5,15.301 19.5,16.729 9.889,11.324 9.383,11.041 9.889,10.141 9.97,10 9.989,9.959 10,9.969 
				10.061,10 12.347,11.285 			"/>
		</g>
		<g>
			<rect x="0.5" y="3.22" fill="#0052B4" width="9.611" height="13.557"/>
			<polygon fill="#F0F0F0" points="0.5,5.953 3.637,7.712 0.5,7.712 0.5,12.367 3.485,12.367 0.5,14.047 0.5,16.777 2.635,16.777 
				8.291,13.602 8.291,16.777 10.111,16.777 10.111,3.22 8.291,3.22 8.291,6.398 2.625,3.22 0.5,3.22 			"/>
			<rect x="9.38" y="3.218" fill="#EE0922" width="1.24" height="13.563"/>
			<polygon fill="#EE0922" points="10,8.799 10,10.041 10,11.281 0.503,11.281 0.503,10.041 0.503,8.799 			"/>
			<polygon fill="#EE0922" points="0.5,3.282 0.5,4.699 7.795,8.796 9.939,10 10,10.03 10,10.041 10.011,10.041 10.03,10 
				10.111,9.858 10.617,8.958 10.111,8.674 			"/>
			<polygon fill="#EE0922" points="0.5,15.301 0.5,16.729 10.111,11.324 10.617,11.041 10.111,10.141 10.03,10 10.011,9.959 
				10,9.969 9.939,10 7.653,11.285 			"/>
		</g>
	</g>
</g>
<path fill="none" stroke="#1E1E1E" stroke-width="0.618" stroke-miterlimit="10" d="M19.5,4.295v11.42c0,0.58-0.48,1.061-1.07,1.061
	H1.46c-0.54-0.051-0.96-0.52-0.96-1.061V4.295c0-0.59,0.48-1.07,1.07-1.07h16.97C19.08,3.275,19.5,3.745,19.5,4.295z"/>
</svg>
