<svg width="35" height="39" viewBox="0 0 35 39" fill="none" xmlns="http://www.w3.org/2000/svg">
<path d="M0.801597 1.14064C0.358437 1.5838 0.213928 2.31598 0.213928 3.19266V35.6108C0.213928 36.4875 0.502944 37.2196 0.946104 37.6628L1.09061 37.8073L19.2794 19.6185V19.3295L0.801597 1.14064Z" fill="url(#paint0_linear_320_104)"/>
<path d="M25.1465 25.7842L19.1349 19.7726V19.3295L25.1465 13.3179L25.291 13.4624L32.4779 17.5665C34.5299 18.7418 34.5299 20.6493 32.4779 21.8247L25.1465 25.7842Z" fill="url(#paint1_linear_320_104)"/>
<path d="M25.291 25.6301L19.1349 19.474L0.801575 37.8073C1.53375 38.5395 2.56458 38.5395 3.88443 37.9518L25.291 25.6301Z" fill="url(#paint2_linear_320_104)"/>
<path d="M25.291 13.3179L3.87478 1.14067C2.55494 0.408492 1.52411 0.553002 0.791931 1.28518L19.1253 19.474L25.291 13.3179Z" fill="url(#paint3_linear_320_104)"/>
<defs>
<linearGradient id="paint0_linear_320_104" x1="9.7462" y1="1.03428" x2="9.7462" y2="37.5346" gradientUnits="userSpaceOnUse">
<stop stop-color="#267CAF"/>
<stop offset="0.286" stop-color="#4A92B4"/>
<stop offset="0.767" stop-color="#79BCBA"/>
<stop offset="1" stop-color="#88CEBC"/>
</linearGradient>
<linearGradient id="paint1_linear_320_104" x1="28.6236" y1="15.0684" x2="24.1722" y2="25.137" gradientUnits="userSpaceOnUse">
<stop stop-color="#F48879"/>
<stop offset="0.119" stop-color="#F5907A"/>
<stop offset="0.713" stop-color="#FBB777"/>
<stop offset="1" stop-color="#FDC874"/>
</linearGradient>
<linearGradient id="paint2_linear_320_104" x1="22.0034" y1="22.7235" x2="1.97431" y2="38.9209" gradientUnits="userSpaceOnUse">
<stop stop-color="#EB413D"/>
<stop offset="0.167" stop-color="#D94452"/>
<stop offset="0.575" stop-color="#AF487A"/>
<stop offset="0.862" stop-color="#954B92"/>
<stop offset="1" stop-color="#894A9C"/>
</linearGradient>
<linearGradient id="paint3_linear_320_104" x1="3.39598" y1="2.02449" x2="22.5542" y2="16.6544" gradientUnits="userSpaceOnUse">
<stop stop-color="#54C0AC"/>
<stop offset="1" stop-color="#DDE79A"/>
</linearGradient>
</defs>
</svg>
