<?xml version="1.0" encoding="utf-8"?>
<!-- Generator: Adobe Illustrator 16.0.0, SVG Export Plug-In . SVG Version: 6.00 Build 0)  -->
<!DOCTYPE svg PUBLIC "-//W3C//DTD SVG 1.1//EN" "http://www.w3.org/Graphics/SVG/1.1/DTD/svg11.dtd">
<svg version="1.1" id="Layer_1" xmlns="http://www.w3.org/2000/svg" xmlns:xlink="http://www.w3.org/1999/xlink" x="0px" y="0px"
	 width="20px" height="20px" viewBox="0 0 20 20" enable-background="new 0 0 20 20" xml:space="preserve">
<g>
	<defs>
		<path id="SVGID_5_" d="M19.5,4.285c0-0.13-0.03-0.26-0.08-0.38l0.01-0.011c-0.01,0-0.01-0.01-0.01-0.01
			c-0.01-0.02-0.021-0.029-0.03-0.05c-0.04-0.09-0.1-0.18-0.17-0.26c-0.02-0.03-0.05-0.05-0.08-0.08
			c-0.07-0.061-0.13-0.101-0.21-0.14c-0.04-0.021-0.07-0.04-0.1-0.061c-0.12-0.04-0.23-0.07-0.36-0.08H10H1.53
			c-0.13,0.01-0.24,0.04-0.36,0.08c-0.029,0.021-0.06,0.04-0.1,0.061c-0.08,0.039-0.14,0.079-0.21,0.14
			c-0.03,0.03-0.061,0.05-0.08,0.08c-0.07,0.08-0.13,0.17-0.17,0.26c-0.01,0.021-0.021,0.03-0.03,0.05c0,0,0,0.01-0.01,0.01
			l0.01,0.011c-0.05,0.12-0.08,0.25-0.08,0.38v11.43c0,0.141,0.03,0.271,0.08,0.391H0.57c0,0,0.01,0,0.01,0.01
			c0,0,0.01,0.01,0.01,0.02c0.04,0.101,0.11,0.19,0.181,0.28c0.02,0.03,0.05,0.05,0.069,0.07c0.07,0.06,0.131,0.11,0.21,0.159
			c0.03,0.011,0.061,0.031,0.091,0.051c0.109,0.05,0.229,0.08,0.35,0.09H10h8.51c0.12-0.01,0.24-0.04,0.35-0.09
			c0.03-0.02,0.061-0.04,0.091-0.051c0.079-0.049,0.14-0.1,0.21-0.159c0.02-0.021,0.05-0.04,0.069-0.07
			c0.07-0.09,0.141-0.18,0.181-0.28c0-0.01,0.01-0.02,0.01-0.02c0-0.01,0.01-0.01,0.01-0.01h-0.01c0.05-0.12,0.08-0.25,0.08-0.391
			V4.285z"/>
	</defs>
	<clipPath id="SVGID_2_">
		<use xlink:href="#SVGID_5_"  overflow="visible"/>
	</clipPath>
	<rect x="0.5" y="3.218" clip-path="url(#SVGID_2_)" fill="#EE0922" width="19" height="13.564"/>
	<rect x="0.5" y="10" clip-path="url(#SVGID_2_)" fill="#FFFFFF" width="19" height="6.782"/>
</g>
<path fill="none" stroke="#1E1E1E" stroke-width="0.618" stroke-miterlimit="10" d="M19.5,4.295v11.419
	c0,0.58-0.48,1.061-1.07,1.061H1.46c-0.54-0.051-0.96-0.52-0.96-1.061V4.295c0-0.59,0.48-1.07,1.07-1.07h16.97
	C19.08,3.275,19.5,3.745,19.5,4.295z"/>
</svg>
