<?xml version="1.0" encoding="UTF-8" standalone="no"?><!DOCTYPE svg PUBLIC "-//W3C//DTD SVG 1.1//EN" "http://www.w3.org/Graphics/SVG/1.1/DTD/svg11.dtd"><svg width="100%" height="100%" viewBox="0 0 1080 1920" version="1.1" xmlns="http://www.w3.org/2000/svg" xmlns:xlink="http://www.w3.org/1999/xlink" xml:space="preserve" xmlns:serif="http://www.serif.com/" style="fill-rule:evenodd;clip-rule:evenodd;stroke-miterlimit:10;"><rect id="Artboard1" x="0" y="0" width="1080" height="1920" style="fill:none;"/><clipPath id="_clip1"><rect id="Artboard11" serif:id="Artboard1" x="0" y="0" width="1080" height="1920"/></clipPath><g clip-path="url(#_clip1)"><g><rect x="0" y="0" width="1080" height="1920" style="fill:#f3fffc;"/><rect x="0" y="-0" width="1080" height="1920" style="fill:none;stroke:#35354c;stroke-width:2px;"/><path d="M-169.008,1066.61c-45.612,-63.404 -16.201,-471.671 57.33,-513.027c38.08,-21.417 72.636,-15.91 105.179,-10.405c36.484,6.173 70.444,12.347 103.992,-19.438c27.686,-26.225 4.81,-91.312 62.031,-112.692c33.874,-12.657 89.248,0.07 139.608,12.799c69.122,17.473 128.796,34.944 110.438,-13.245c-31.739,-83.294 184.166,-140.754 390.092,-129.721c205.923,11.03 167.698,123.93 164.813,142.194c-2.884,18.262 -33.178,106.455 84.151,146.989c117.328,40.533 90.399,95.765 78.861,127.391c-10.052,27.545 -66.84,60.132 15.868,131.398c68.856,59.336 50.685,206.707 30.683,236.932l-1343.05,0.825l-0.001,0Z" style="fill:#d7d7ff;fill-rule:nonzero;stroke:#35354c;stroke-width:2px;"/><path d="M739.288,572.588l205.447,0c0.098,-0.934 0.152,-1.879 0.152,-2.836c-0,-16.151 -14.134,-29.242 -31.57,-29.242c-5.57,-0 -10.8,1.341 -15.346,3.689c-6.419,-16.371 -23.359,-28.065 -43.25,-28.065c-16.716,0 -31.352,8.262 -39.402,20.618c-3.509,-1.013 -7.24,-1.56 -11.11,-1.56c-14.966,-0 -27.866,8.162 -33.812,19.94c-2.045,-0.494 -4.188,-0.757 -6.401,-0.757c-12.048,-0 -22.123,7.783 -24.708,18.213Z" style="fill:#fbfefe;fill-rule:nonzero;stroke:#35354c;stroke-width:2px;"/><path d="M-36.654,279.522l205.448,-0c0.098,-0.935 0.151,-1.879 0.151,-2.837c0,-16.15 -14.134,-29.242 -31.569,-29.242c-5.57,0 -10.801,1.341 -15.347,3.69c-6.418,-16.371 -23.358,-28.065 -43.249,-28.065c-16.717,-0 -31.352,8.261 -39.402,20.617c-3.51,-1.012 -7.24,-1.56 -11.11,-1.56c-14.966,0 -27.866,8.162 -33.813,19.94c-2.044,-0.494 -4.188,-0.757 -6.4,-0.757c-12.049,0 -22.123,7.783 -24.709,18.214Z" style="fill:#fbfefe;fill-rule:nonzero;stroke:#35354c;stroke-width:2px;"/><path d="M839.604,160.043l175.437,-0c-2.208,-8.908 -10.812,-15.555 -21.101,-15.555c-1.885,0 -3.715,0.226 -5.464,0.647c-5.078,-10.058 -16.095,-17.026 -28.874,-17.026c-3.3,0 -6.486,0.465 -9.483,1.331c-6.877,-10.552 -19.373,-17.605 -33.65,-17.605c-16.983,-0 -31.454,9.984 -36.932,23.964c-3.882,-2.005 -8.347,-3.15 -13.104,-3.15c-14.89,0 -26.956,11.18 -26.956,24.97c0,0.818 0.043,1.626 0.127,2.424Z" style="fill:#fbfefe;fill-rule:nonzero;stroke:#35354c;stroke-width:2px;"/><path d="M624.475,395.049l98.618,0c-1.24,-5.007 -6.079,-8.742 -11.862,-8.742c-1.061,-0 -2.09,0.126 -3.069,0.363c-2.856,-5.654 -9.048,-9.57 -16.23,-9.57c-1.856,0 -3.648,0.262 -5.332,0.748c-3.868,-5.931 -10.891,-9.897 -18.916,-9.897c-9.548,-0 -17.677,5.613 -20.76,13.47c-2.179,-1.125 -4.692,-1.77 -7.365,-1.77c-8.37,-0 -15.152,6.284 -15.152,14.036c-0,0.46 0.026,0.914 0.068,1.362Z" style="fill:#fbfefe;fill-rule:nonzero;stroke:#35354c;stroke-width:2px;"/><path d="M362.092,160.043l98.618,-0c-1.24,-5.008 -6.079,-8.743 -11.862,-8.743c-1.061,-0 -2.09,0.127 -3.069,0.364c-2.856,-5.654 -9.049,-9.57 -16.23,-9.57c-1.856,-0 -3.648,0.261 -5.332,0.747c-3.868,-5.931 -10.891,-9.897 -18.917,-9.897c-9.547,0 -17.677,5.613 -20.759,13.471c-2.179,-1.126 -4.693,-1.771 -7.365,-1.771c-8.37,0 -15.153,6.284 -15.153,14.036c0,0.461 0.026,0.915 0.069,1.363Z" style="fill:#fbfefe;fill-rule:nonzero;stroke:#35354c;stroke-width:2px;"/><path d="M148.814,593.59l153.882,-0c-1.939,-7.813 -9.486,-13.642 -18.508,-13.642c-1.656,-0 -3.266,0.197 -4.795,0.566c-4.453,-8.821 -14.118,-14.933 -25.327,-14.933c-2.896,0 -5.691,0.409 -8.318,1.167c-6.033,-9.253 -16.995,-15.443 -29.517,-15.443c-14.896,0 -27.582,8.758 -32.391,21.021c-3.403,-1.758 -7.32,-2.763 -11.495,-2.763c-13.056,-0 -23.644,9.805 -23.644,21.901c-0,0.718 0.04,1.425 0.113,2.126Z" style="fill:#fbfefe;fill-rule:nonzero;stroke:#35354c;stroke-width:2px;"/><path d="M1544.82,1669.75l-0,-538.154c-0.952,-1.243 -1.917,-2.483 -2.89,-3.71c-0.383,-0.476 -0.769,-0.956 -1.145,-1.435l-46.845,0l0,-70.013l-76.306,-107.21l-0,162.053l-22.828,1.038l0,-163.395l-26.627,0l-0,-245.881l-15.98,-0l0,-46.764l-62.389,-0l-0,46.764l-15.98,-0l0,69.627l-64.665,-0l-0,264.772l-13.053,1.038l-0.74,-262.234l-46.324,-0l0,139.506l-28.911,1.042l-0,-218.04l-9.891,-0l0,-46.013l-86.74,-0l0,46.013l-9.89,-0l-0,293.825l-18.259,0l-0,-91.62l-15.217,-0l-0,-44.799l-22.063,-0l-0,-130.769l-31.963,-0l-0,130.769l-22.063,-0l-0,44.799l-15.219,-0l-0,154.999l-10.649,0l-8.373,-0.144l0,-179.584l-91.735,2.94l0,124.067l-58.071,0l-0,-53.002l-68.477,-0l0,-290.419l-19.783,0l-0,-37.41l-43.367,0l0,357.115l-47.358,-0l0,52.999l-19.014,0l-0,-153.494l-225.143,-2.943l0,113.166l-19.017,0.147l0,-88.572l-15.21,0l-0,-44.811l-22.057,-0l0,-130.766l-31.945,0l0,130.766l-22.063,-0l-0,44.811l-15.213,0l0,53.52l-18.25,0l-0,-255.734l-9.891,0l0,-46.013l-86.707,-0l0,46.013l-9.89,0l-0,218.04l-28.901,-1.042l-0,-139.506l-82.15,-0l-3.691,262.231l-12.279,-1.038l0,-88.514l-26.625,-0l-0,-69.631l-15.971,0l0,-46.764l-62.368,0l0,46.764l-15.977,0l0,69.631l-26.618,-0l-0,163.391l-22.822,-1.038l0,-162.053l-76.28,-0l-0,177.223l-46.585,0l-0,-76.907l-32.653,0l-0,172.733l-58.523,0l0,447.473l993,0.073l1016.64,0.074Z" style="fill:#a8a8e5;fill-rule:nonzero;stroke:#35354c;stroke-width:2px;"/><path d="M-280.978,1790.04l-0,-389.867c0.689,-0.9 1.388,-1.798 2.093,-2.687c0.278,-0.345 0.557,-0.693 0.83,-1.04l33.936,0l0,-50.721l55.281,-77.669l0,117.4l16.538,0.752l-0,-118.372l19.29,0l-0,-178.129l11.576,0l-0,-33.878l45.198,-0l0,33.878l11.577,0l-0,50.441l46.847,0l-0,191.815l9.455,0.752l0.537,-189.976l33.559,0l0,101.066l20.945,0.754l0,-157.959l7.166,0l-0,-33.334l62.838,-0l0,33.334l7.166,0l-0,212.862l13.227,0l0,-66.374l11.024,-0l0,-32.455l15.984,0l0,-94.736l23.155,0l0,94.736l15.984,0l0,32.455l11.026,-0l-0,112.289l7.714,0l6.066,-0.104l-0,-130.1l66.457,2.13l0,89.88l42.07,0l0,-38.397l49.608,-0l0,-210.394l14.332,-0l0,-27.102l31.417,-0l0,258.712l34.309,0l-0,38.396l13.775,-0l0,-111.2l163.105,-2.132l-0,81.984l13.777,0.106l-0,-64.166l11.019,0l-0,-32.463l15.979,-0l-0,-94.734l23.143,0l-0,94.734l15.983,-0l0,32.463l11.021,0l0,38.773l13.222,0l-0,-185.267l7.165,-0l-0,-33.334l62.815,-0l-0,33.334l7.165,-0l0,157.959l20.938,-0.755l-0,-101.065l59.513,-0l2.674,189.974l8.896,-0.753l-0,-64.124l19.288,0l0,-50.443l11.57,-0l0,-33.879l45.183,0l-0,33.879l11.574,-0l0,50.443l19.284,0l0,118.37l16.533,-0.753l0,-117.399l55.262,-0l-0,128.39l33.748,-0l0,-55.716l23.656,0l-0,125.137l42.397,-0l-0,324.172l-719.381,0.054l-736.509,0.053Z" style="fill:#8080b2;fill-rule:nonzero;stroke:#35354c;stroke-width:2px;"/><path d="M1080,1918.51c-219.093,-25.798 -738.201,-372.539 -924.265,-401.751c-196.203,-30.8 -603.876,403.24 -603.876,403.24l1528.14,2.305l-0,-3.794l-0.004,-0Z" style="fill:#41d8bb;fill-rule:nonzero;stroke:#35354c;stroke-width:2px;"/><g><rect x="651.183" y="1487.22" width="10.571" height="117.189" style="fill:#5b5b7f;stroke:#35354c;stroke-width:2px;"/><path d="M656.475,1259.88l34.511,278.891l-69.019,-0l34.508,-278.891Z" style="fill:#acded5;fill-rule:nonzero;stroke:#35354c;stroke-width:2px;"/><path d="M678.466,1437.62l-49.207,42.194l1.893,-15.29l45.786,-39.261l1.528,12.357Z" style="fill:#6bdbc6;fill-rule:nonzero;stroke:#35354c;stroke-width:2px;"/><path d="M670.903,1376.49l-30.13,10.308l1.414,-11.449l27.414,-9.374l1.302,10.515Z" style="fill:#6bdbc6;fill-rule:nonzero;stroke:#35354c;stroke-width:2px;"/><rect x="549.198" y="1517.48" width="9.478" height="115.239" style="fill:#5b5b7f;stroke:#35354c;stroke-width:2px;"/><path d="M552.615,1360.43l24.77,177.801l-49.541,-0l24.771,-177.801Z" style="fill:#acded5;fill-rule:nonzero;stroke:#35354c;stroke-width:2px;"/><path d="M575.824,1526.95l-44.45,-14.013l0.674,-4.819l43.041,13.567l0.735,5.265Z" style="fill:#6bdbc6;fill-rule:nonzero;stroke:#35354c;stroke-width:2px;"/><path d="M567.996,1470.78l-29.457,-9.287l0.676,-4.82l28.05,8.84l0.731,5.267Z" style="fill:#6bdbc6;fill-rule:nonzero;stroke:#35354c;stroke-width:2px;"/></g><g><rect x="381.969" y="1623.33" width="7.095" height="95.425" style="fill:#5b5b7f;stroke:#35354c;stroke-width:2px;"/><path d="M385.513,1470.79l-23.155,187.132l46.31,-0l-23.155,-187.132Z" style="fill:#acded5;fill-rule:nonzero;stroke:#35354c;stroke-width:2px;"/><path d="M370.758,1590.05l33.018,28.311l-1.268,-10.26l-30.725,-26.343l-1.025,8.292Z" style="fill:#6bdbc6;fill-rule:nonzero;stroke:#35354c;stroke-width:2px;"/><path d="M375.832,1549.03l20.22,6.914l-0.949,-7.681l-18.396,-6.292l-0.875,7.059Z" style="fill:#6bdbc6;fill-rule:nonzero;stroke:#35354c;stroke-width:2px;"/><rect x="433.465" y="1643.63" width="6.36" height="59.105" style="fill:#5b5b7f;stroke:#35354c;stroke-width:2px;"/><path d="M437.528,1538.25l-16.621,119.302l33.243,0l-16.622,-119.302Z" style="fill:#acded5;fill-rule:nonzero;stroke:#35354c;stroke-width:2px;"/><path d="M421.96,1649.99l29.827,-9.403l-0.454,-3.234l-28.88,9.104l-0.493,3.533Z" style="fill:#6bdbc6;fill-rule:nonzero;stroke:#35354c;stroke-width:2px;"/><path d="M427.213,1612.3l19.765,-6.23l-0.452,-3.235l-18.823,5.934l-0.49,3.531Z" style="fill:#6bdbc6;fill-rule:nonzero;stroke:#35354c;stroke-width:2px;"/></g><path d="M2058.38,1917.27c-0,-0 -789.844,-420.54 -1149.31,-417.705c-171.731,9.877 -401.129,154.633 -672.618,282.5c-11.413,5.377 -295.94,134.048 -334.681,137.931l2156.61,-2.726l0.002,-0Z" style="fill:#41d8bb;fill-rule:nonzero;stroke:#35354c;stroke-width:2px;"/><g><path d="M367.549,1744.11l7.683,-15.794c5.477,-11.824 0.887,-25.586 -10.243,-30.739c-28.048,-12.983 -61.959,0.646 -75.75,30.44l-10.081,21.776c-4.422,9.545 -13.322,15.485 -22.679,16.205c-8.5,0.652 -16.119,6.289 -19.866,14.392l-5.32,11.477c-5.755,12.436 -5.631,26.584 -0.105,38.589c3.229,7.024 3.41,15.596 -0.218,23.433l-7.528,16.259c-8.315,17.976 -1.345,38.897 15.577,46.73l9.653,4.468c16.925,7.833 37.386,-0.388 45.707,-18.366c7.733,-23.989 20.531,-33.981 31.761,-37.875c16.519,-5.729 30.373,-18.117 37.957,-34.507l1.064,-2.294c8.005,-17.293 7.988,-36.963 0.535,-53.78c-3.293,-7.427 -4.148,-17.456 1.853,-30.414Z" style="fill:#acded5;fill-rule:nonzero;stroke:#35354c;stroke-width:2px;"/><path d="M15.212,1925.86c0,-0 55.845,-74.182 90.993,-85.559c35.146,-11.381 2.019,33.807 2.019,33.807c0,0 62.35,-68.172 85.225,-62.029c20.971,5.637 -0,47.89 -0,47.89c-0,-0 23.619,-23.394 52.266,-23.394c28.65,-0 -22.142,87.614 -22.142,87.614l-208.361,1.671Z" style="fill:#f7d7d5;fill-rule:nonzero;stroke:#35354c;stroke-width:2px;"/><path d="M195.248,1925.45c-0,-0 38.177,-102.097 85.458,-90.291c38.31,9.567 11.069,60.937 13.407,58.603c2.337,-2.337 22.888,-37.204 56.136,-37.204c33.249,0 -10.207,47.059 -10.207,47.059c-0,-0 70.839,-22.125 76.382,1.108c4.608,19.279 -21.139,20.725 -21.139,20.725l-200.037,-0Z" style="fill:#ffea94;fill-rule:nonzero;stroke:#35354c;stroke-width:2px;"/><path d="M118.878,1821.76c11.49,-17.964 13.636,-39.655 13.413,-54.684c-0.242,-16.322 -3.256,-28.536 -3.286,-28.661l0.831,-0.292c0.03,0.125 3.068,12.434 3.316,28.859c0.229,15.18 -1.94,37.093 -13.581,55.276l-0.693,-0.498Z" style="fill:#ffea94;fill-rule:nonzero;stroke:#35354c;stroke-width:2px;"/><path d="M126.177,1735.43c0.277,3.687 1.915,6.788 4.272,8.692c2.008,-2.574 3.138,-6.097 2.852,-9.792c-0.279,-3.689 -1.914,-6.788 -4.265,-8.685c-2.015,2.564 -3.145,6.088 -2.859,9.785" style="fill:#ffea94;fill-rule:nonzero;"/><path d="M126.177,1735.43c0.277,3.687 1.915,6.788 4.272,8.692c2.008,-2.574 3.138,-6.097 2.852,-9.792c-0.279,-3.689 -1.914,-6.788 -4.265,-8.685c-2.015,2.564 -3.145,6.088 -2.859,9.785Z" style="fill:none;fill-rule:nonzero;stroke:#35354c;stroke-width:2px;"/><path d="M133.946,1743.95c-1.954,3.195 -2.554,6.834 -1.935,9.99c2.99,-0.713 5.879,-2.803 7.833,-5.997c1.945,-3.199 2.554,-6.834 1.928,-9.994c-2.99,0.711 -5.879,2.802 -7.826,6.001" style="fill:#ffea94;fill-rule:nonzero;"/><path d="M133.946,1743.95c-1.954,3.195 -2.554,6.834 -1.935,9.99c2.99,-0.713 5.879,-2.803 7.833,-5.997c1.945,-3.199 2.554,-6.834 1.928,-9.994c-2.99,0.711 -5.879,2.802 -7.826,6.001Z" style="fill:none;fill-rule:nonzero;stroke:#35354c;stroke-width:2px;"/><path d="M138.348,1753.99c-3.033,1.971 -5.085,5.017 -5.872,8.223c2.878,0.818 6.25,0.327 9.283,-1.644c3.027,-1.974 5.079,-5.016 5.872,-8.224c-2.882,-0.817 -6.256,-0.327 -9.283,1.645" style="fill:#ffea94;fill-rule:nonzero;"/><path d="M138.348,1753.99c-3.033,1.971 -5.085,5.017 -5.872,8.223c2.878,0.818 6.25,0.327 9.283,-1.644c3.027,-1.974 5.079,-5.016 5.872,-8.224c-2.882,-0.817 -6.256,-0.327 -9.283,1.645Z" style="fill:none;fill-rule:nonzero;stroke:#35354c;stroke-width:2px;"/><path d="M136.991,1767.95c-2.401,1.568 -3.888,4.239 -4.289,7.205c2.496,1.06 5.305,0.929 7.706,-0.63c2.399,-1.57 3.882,-4.244 4.292,-7.207c-2.5,-1.06 -5.315,-0.931 -7.709,0.632" style="fill:#ffea94;fill-rule:nonzero;"/><path d="M136.991,1767.95c-2.401,1.568 -3.888,4.239 -4.289,7.205c2.496,1.06 5.305,0.929 7.706,-0.63c2.399,-1.57 3.882,-4.244 4.292,-7.207c-2.5,-1.06 -5.315,-0.931 -7.709,0.632Z" style="fill:none;fill-rule:nonzero;stroke:#35354c;stroke-width:2px;"/><path d="M127.082,1751.4c-2.698,-1.439 -5.711,-1.52 -8.297,-0.484c0.682,2.791 2.499,5.29 5.196,6.734c2.693,1.437 5.711,1.52 8.291,0.477c-0.683,-2.782 -2.493,-5.29 -5.19,-6.727" style="fill:#ffea94;fill-rule:nonzero;"/><path d="M127.082,1751.4c-2.698,-1.439 -5.711,-1.52 -8.297,-0.484c0.682,2.791 2.499,5.29 5.196,6.734c2.693,1.437 5.711,1.52 8.291,0.477c-0.683,-2.782 -2.493,-5.29 -5.19,-6.727Z" style="fill:none;fill-rule:nonzero;stroke:#35354c;stroke-width:2px;"/><path d="M127.379,1761.05c-2.695,-1.445 -5.711,-1.524 -8.297,-0.484c0.684,2.791 2.501,5.29 5.198,6.728c2.691,1.445 5.709,1.526 8.289,0.484c-0.68,-2.783 -2.492,-5.288 -5.19,-6.728" style="fill:#ffea94;fill-rule:nonzero;"/><path d="M127.379,1761.05c-2.695,-1.445 -5.711,-1.524 -8.297,-0.484c0.684,2.791 2.501,5.29 5.198,6.728c2.691,1.445 5.709,1.526 8.289,0.484c-0.68,-2.783 -2.492,-5.288 -5.19,-6.728Z" style="fill:none;fill-rule:nonzero;stroke:#35354c;stroke-width:2px;"/><path d="M135.254,1783.29c-1.426,0.335 -2.61,1.297 -3.323,2.549c1.016,0.85 2.388,1.21 3.814,0.881c1.426,-0.336 2.604,-1.296 3.317,-2.55c-1.01,-0.848 -2.382,-1.214 -3.808,-0.88" style="fill:#ffea94;fill-rule:nonzero;"/><path d="M135.254,1783.29c-1.426,0.335 -2.61,1.297 -3.323,2.549c1.016,0.85 2.388,1.21 3.814,0.881c1.426,-0.336 2.604,-1.296 3.317,-2.55c-1.01,-0.848 -2.382,-1.214 -3.808,-0.88Z" style="fill:none;fill-rule:nonzero;stroke:#35354c;stroke-width:2px;"/><path d="M123.616,1834.45c26.31,-6.293 46.376,-25.753 58.573,-40.974c13.245,-16.519 20.343,-31.748 20.413,-31.897l1.071,0.545c-0.072,0.155 -7.216,15.496 -20.546,32.126c-12.317,15.374 -32.593,35.03 -59.225,41.404l-0.286,-1.204Z" style="fill:#ffea94;fill-rule:nonzero;stroke:#35354c;stroke-width:2px;"/><path d="M202.249,1755.73c-2.772,3.966 -3.703,8.711 -2.926,12.983c4.127,-0.525 8.166,-2.902 10.938,-6.869c2.771,-3.971 3.7,-8.705 2.926,-12.984c-4.137,0.533 -8.166,2.901 -10.938,6.87" style="fill:#ffea94;fill-rule:nonzero;"/><path d="M202.249,1755.73c-2.772,3.966 -3.703,8.711 -2.926,12.983c4.127,-0.525 8.166,-2.902 10.938,-6.869c2.771,-3.971 3.7,-8.705 2.926,-12.984c-4.137,0.533 -8.166,2.901 -10.938,6.87Z" style="fill:none;fill-rule:nonzero;stroke:#35354c;stroke-width:2px;"/><path d="M202.95,1772.09c-4.589,1.217 -8.198,4.228 -10.182,8.012c3.565,2.305 8.173,3.149 12.761,1.927c4.588,-1.214 8.197,-4.228 10.182,-8.009c-3.566,-2.31 -8.173,-3.147 -12.761,-1.93" style="fill:#ffea94;fill-rule:nonzero;"/><path d="M202.95,1772.09c-4.589,1.217 -8.198,4.228 -10.182,8.012c3.565,2.305 8.173,3.149 12.761,1.927c4.588,-1.214 8.197,-4.228 10.182,-8.009c-3.566,-2.31 -8.173,-3.147 -12.761,-1.93Z" style="fill:none;fill-rule:nonzero;stroke:#35354c;stroke-width:2px;"/><path d="M199.048,1786.55c-4.649,-1.097 -9.207,-0.142 -12.648,2.257c2.194,3.726 5.964,6.646 10.616,7.745c4.649,1.097 9.207,0.136 12.648,-2.263c-2.194,-3.727 -5.964,-6.647 -10.616,-7.739" style="fill:#ffea94;fill-rule:nonzero;"/><path d="M199.048,1786.55c-4.649,-1.097 -9.207,-0.142 -12.648,2.257c2.194,3.726 5.964,6.646 10.616,7.745c4.649,1.097 9.207,0.136 12.648,-2.263c-2.194,-3.727 -5.964,-6.647 -10.616,-7.739Z" style="fill:none;fill-rule:nonzero;stroke:#35354c;stroke-width:2px;"/><path d="M188.563,1799.68c-4.644,-1.097 -9.209,-0.136 -12.643,2.263c2.189,3.727 5.964,6.649 10.615,7.746c4.645,1.09 9.209,0.135 12.644,-2.264c-2.19,-3.726 -5.966,-6.646 -10.616,-7.745" style="fill:#ffea94;fill-rule:nonzero;"/><path d="M188.563,1799.68c-4.644,-1.097 -9.209,-0.136 -12.643,2.263c2.189,3.727 5.964,6.649 10.615,7.746c4.645,1.09 9.209,0.135 12.644,-2.264c-2.19,-3.726 -5.966,-6.646 -10.616,-7.745Z" style="fill:none;fill-rule:nonzero;stroke:#35354c;stroke-width:2px;"/><path d="M191.7,1777.84c0.236,-4.473 -1.232,-8.681 -3.744,-11.715c-2.798,2.382 -4.688,6.183 -4.924,10.655c-0.235,4.475 1.234,8.686 3.751,11.719c2.791,-2.388 4.682,-6.189 4.917,-10.659" style="fill:#ffea94;fill-rule:nonzero;"/><path d="M191.7,1777.84c0.236,-4.473 -1.232,-8.681 -3.744,-11.715c-2.798,2.382 -4.688,6.183 -4.924,10.655c-0.235,4.475 1.234,8.686 3.751,11.719c2.791,-2.388 4.682,-6.189 4.917,-10.659Z" style="fill:none;fill-rule:nonzero;stroke:#35354c;stroke-width:2px;"/><path d="M180.768,1791.43c0.305,-4.463 -1.103,-8.698 -3.572,-11.782c-2.828,2.331 -4.773,6.104 -5.079,10.566c-0.301,4.466 1.106,8.707 3.572,11.784c2.829,-2.333 4.776,-6.097 5.079,-10.568" style="fill:#ffea94;fill-rule:nonzero;"/><path d="M180.768,1791.43c0.305,-4.463 -1.103,-8.698 -3.572,-11.782c-2.828,2.331 -4.773,6.104 -5.079,10.566c-0.301,4.466 1.106,8.707 3.572,11.784c2.829,-2.333 4.776,-6.097 5.079,-10.568Z" style="fill:none;fill-rule:nonzero;stroke:#35354c;stroke-width:2px;"/><path d="M171.733,1812.66c-1.698,-1.11 -3.67,-1.346 -5.419,-0.818c0.31,1.871 1.376,3.62 3.075,4.73c1.695,1.11 3.672,1.339 5.415,0.82c-0.31,-1.873 -1.376,-3.622 -3.071,-4.732" style="fill:#ffea94;fill-rule:nonzero;"/><path d="M171.733,1812.66c-1.698,-1.11 -3.67,-1.346 -5.419,-0.818c0.31,1.871 1.376,3.62 3.075,4.73c1.695,1.11 3.672,1.339 5.415,0.82c-0.31,-1.873 -1.376,-3.622 -3.071,-4.732Z" style="fill:none;fill-rule:nonzero;stroke:#35354c;stroke-width:2px;"/><path d="M53.974,1871.6l-1.14,-0.081c1.635,-30.091 -9.408,-58.402 -18.963,-76.857c-10.367,-20.03 -21.27,-33.096 -21.379,-33.225l0.835,-0.857c0.107,0.131 11.088,13.278 21.519,33.423c9.64,18.608 20.783,47.183 19.128,77.597Z" style="fill:#ffea94;fill-rule:nonzero;stroke:#35354c;stroke-width:2px;"/><path d="M7.549,1759.73c2.597,4.379 6.331,7.093 10.114,7.837c0.643,-4.558 -0.286,-9.68 -2.885,-14.059c-2.597,-4.376 -6.324,-7.091 -10.112,-7.835c-0.639,4.558 0.292,9.685 2.883,14.057" style="fill:#ffea94;fill-rule:nonzero;"/><path d="M7.549,1759.73c2.597,4.379 6.331,7.093 10.114,7.837c0.643,-4.558 -0.286,-9.68 -2.885,-14.059c-2.597,-4.376 -6.324,-7.091 -10.112,-7.835c-0.639,4.558 0.292,9.685 2.883,14.057Z" style="fill:none;fill-rule:nonzero;stroke:#35354c;stroke-width:2px;"/><path d="M21.438,1764.96c-0.181,5.29 1.396,10.201 4.043,13.679c2.872,-2.919 4.786,-7.477 4.974,-12.761c0.185,-5.283 -1.396,-10.201 -4.043,-13.679c-2.872,2.92 -4.786,7.48 -4.974,12.761" style="fill:#ffea94;fill-rule:nonzero;"/><path d="M21.438,1764.96c-0.181,5.29 1.396,10.201 4.043,13.679c2.872,-2.919 4.786,-7.477 4.974,-12.761c0.185,-5.283 -1.396,-10.201 -4.043,-13.679c-2.872,2.92 -4.786,7.48 -4.974,12.761Z" style="fill:none;fill-rule:nonzero;stroke:#35354c;stroke-width:2px;"/><path d="M32.532,1774.37c-2.139,4.505 -2.536,9.667 -1.426,14.174c3.696,-0.951 7.137,-3.862 9.27,-8.372c2.139,-4.507 2.536,-9.666 1.426,-14.176c-3.696,0.957 -7.137,3.866 -9.27,8.374" style="fill:#ffea94;fill-rule:nonzero;"/><path d="M32.532,1774.37c-2.139,4.505 -2.536,9.667 -1.426,14.174c3.696,-0.951 7.137,-3.862 9.27,-8.372c2.139,-4.507 2.536,-9.666 1.426,-14.176c-3.696,0.957 -7.137,3.866 -9.27,8.374Z" style="fill:none;fill-rule:nonzero;stroke:#35354c;stroke-width:2px;"/><path d="M40.146,1797.49c-1.023,1.81 -1.339,3.962 -0.999,5.89c1.577,-0.273 3.101,-1.369 4.124,-3.188c1.023,-1.81 1.332,-3.96 0.999,-5.89c-1.577,0.275 -3.101,1.372 -4.124,3.188" style="fill:#ffea94;fill-rule:nonzero;"/><path d="M40.146,1797.49c-1.023,1.81 -1.339,3.962 -0.999,5.89c1.577,-0.273 3.101,-1.369 4.124,-3.188c1.023,-1.81 1.332,-3.96 0.999,-5.89c-1.577,0.275 -3.101,1.372 -4.124,3.188Z" style="fill:none;fill-rule:nonzero;stroke:#35354c;stroke-width:2px;"/><path d="M43.433,1805.79c-1.023,1.816 -1.339,3.96 -0.999,5.89c1.575,-0.273 3.095,-1.372 4.124,-3.182c1.023,-1.816 1.333,-3.969 0.999,-5.89c-1.575,0.266 -3.101,1.372 -4.124,3.182" style="fill:#ffea94;fill-rule:nonzero;"/><path d="M43.433,1805.79c-1.023,1.816 -1.339,3.96 -0.999,5.89c1.575,-0.273 3.095,-1.372 4.124,-3.182c1.023,-1.816 1.333,-3.969 0.999,-5.89c-1.575,0.266 -3.101,1.372 -4.124,3.182Z" style="fill:none;fill-rule:nonzero;stroke:#35354c;stroke-width:2px;"/><path d="M18.438,1778.87c-3.882,0.055 -7.273,2.015 -9.495,5.066c2.482,2.981 6.04,4.837 9.922,4.782c3.884,-0.057 7.275,-2.015 9.495,-5.068c-2.48,-2.983 -6.041,-4.834 -9.922,-4.78" style="fill:#ffea94;fill-rule:nonzero;"/><path d="M18.438,1778.87c-3.882,0.055 -7.273,2.015 -9.495,5.066c2.482,2.981 6.04,4.837 9.922,4.782c3.884,-0.057 7.275,-2.015 9.495,-5.068c-2.48,-2.983 -6.041,-4.834 -9.922,-4.78Z" style="fill:none;fill-rule:nonzero;stroke:#35354c;stroke-width:2px;"/><path d="M24.738,1790.6c-3.882,0.054 -7.275,2.015 -9.495,5.065c2.482,2.983 6.041,4.837 9.922,4.783c3.875,-0.057 7.275,-2.015 9.493,-5.068c-2.48,-2.981 -6.039,-4.835 -9.92,-4.78" style="fill:#ffea94;fill-rule:nonzero;"/><path d="M24.738,1790.6c-3.882,0.054 -7.275,2.015 -9.495,5.065c2.482,2.983 6.041,4.837 9.922,4.783c3.875,-0.057 7.275,-2.015 9.493,-5.068c-2.48,-2.981 -6.039,-4.835 -9.92,-4.78Z" style="fill:none;fill-rule:nonzero;stroke:#35354c;stroke-width:2px;"/><path d="M35.167,1806.59c-2.529,0.038 -4.738,1.315 -6.182,3.3c1.612,1.938 3.932,3.149 6.455,3.112c2.523,-0.037 4.736,-1.315 6.182,-3.298c-1.618,-1.943 -3.932,-3.153 -6.455,-3.114" style="fill:#ffea94;fill-rule:nonzero;"/><path d="M35.167,1806.59c-2.529,0.038 -4.738,1.315 -6.182,3.3c1.612,1.938 3.932,3.149 6.455,3.112c2.523,-0.037 4.736,-1.315 6.182,-3.298c-1.618,-1.943 -3.932,-3.153 -6.455,-3.114Z" style="fill:none;fill-rule:nonzero;stroke:#35354c;stroke-width:2px;"/><path d="M152.084,1920.95c0,-5.011 -30.254,0.903 -32.771,-5.925c-2.519,-6.825 25.913,-7.216 25.913,-16.449c-0,-9.233 -14.493,-2.758 -22.986,-2.758c-8.49,-0 16.771,-3.952 16.771,-7.218c0,-3.269 -8.867,-1.557 -8.867,-5.031c0,-3.465 46.558,-6.082 41.106,-14.575c-5.45,-8.492 -30.47,2.472 -37.346,-1.917c-6.871,-4.399 36.714,-9.192 37.793,-15.727c1.079,-6.529 -32.112,5.6 -36.814,0.9c-4.699,-4.699 52.484,-21.59 50.09,-34.005c-2.401,-12.414 -43.343,15.897 -53.581,12.853c-10.238,-3.051 51.616,-46.629 37.241,-63.606c-14.373,-16.985 -41.816,56.196 -51.18,53.586c-9.37,-2.617 11.725,-46.246 2.157,-53.834c-9.563,-7.585 -37.026,61.431 -38.762,75.599c-1.729,14.177 -5.214,-30.483 -20.245,-35.708c-15.031,-5.223 -0.434,27.666 -3.051,37.686c-2.61,10.016 -14.806,-25.701 -31.253,-23.091c-16.444,2.617 29.729,35.29 25.158,44.867c-4.577,9.588 -40.231,-31.988 -51.404,-20.821c-11.176,11.174 42.946,42.185 39.989,50.668c-2.96,8.487 -35.432,-6.054 -44.776,3.29c-9.353,9.353 34.88,15.291 40.739,15.291c5.864,0 28.281,7.375 6.394,5.925c-21.896,-1.452 109.685,5.009 109.685,-0" style="fill:#ffea94;fill-rule:nonzero;"/><path d="M152.084,1920.95c0,-5.011 -30.254,0.903 -32.771,-5.925c-2.519,-6.825 25.913,-7.216 25.913,-16.449c-0,-9.233 -14.493,-2.758 -22.986,-2.758c-8.49,-0 16.771,-3.952 16.771,-7.218c0,-3.269 -8.867,-1.557 -8.867,-5.031c0,-3.465 46.558,-6.082 41.106,-14.575c-5.45,-8.492 -30.47,2.472 -37.346,-1.917c-6.871,-4.399 36.714,-9.192 37.793,-15.727c1.079,-6.529 -32.112,5.6 -36.814,0.9c-4.699,-4.699 52.484,-21.59 50.09,-34.005c-2.401,-12.414 -43.343,15.897 -53.581,12.853c-10.238,-3.051 51.616,-46.629 37.241,-63.606c-14.373,-16.985 -41.816,56.196 -51.18,53.586c-9.37,-2.617 11.725,-46.246 2.157,-53.834c-9.563,-7.585 -37.026,61.431 -38.762,75.599c-1.729,14.177 -5.214,-30.483 -20.245,-35.708c-15.031,-5.223 -0.434,27.666 -3.051,37.686c-2.61,10.016 -14.806,-25.701 -31.253,-23.091c-16.444,2.617 29.729,35.29 25.158,44.867c-4.577,9.588 -40.231,-31.988 -51.404,-20.821c-11.176,11.174 42.946,42.185 39.989,50.668c-2.96,8.487 -35.432,-6.054 -44.776,3.29c-9.353,9.353 34.88,15.291 40.739,15.291c5.864,0 28.281,7.375 6.394,5.925c-21.896,-1.452 109.685,5.009 109.685,-0Z" style="fill:none;fill-rule:nonzero;stroke:#35354c;stroke-width:2px;"/><path d="M65.849,1926.73c-0,-0 -36.43,1.954 -47.033,-4.726c-10.604,-6.677 -2.233,-11.873 -2.233,-11.873c0,-0 -33.689,-0.733 -33.601,-8.712c0.08,-7.984 8.247,-7.523 8.247,-7.523c-0,-0 -17.003,-11.558 -13.834,-18.756c4.873,-11.069 32.572,8.203 32.572,8.203c0,0 -9.084,-10.785 -1.742,-13.302c20.134,-6.921 57.624,56.689 57.624,56.689Z" style="fill:#f7d7d5;fill-rule:nonzero;stroke:#35354c;stroke-width:2px;"/><path d="M-22.606,1875.15c-3.169,7.2 13.834,18.758 13.834,18.758c-0,-0 -12.271,-0.164 -10.28,7.595c1.984,7.733 32.839,10.343 32.839,10.343c-0,-0 -10.771,2.109 -0.168,8.786c10.611,6.679 52.229,6.108 52.229,6.108l-88.454,-51.59Z" style="fill:#ffea94;fill-rule:nonzero;stroke:#35354c;stroke-width:2px;"/><path d="M278.12,1603.02c8.408,-27.454 16.605,-54.898 21.966,-83.224c16.503,-87.157 6.722,-149.157 3.786,-179.097c-0.389,-3.949 5.897,-5.483 6.736,-1.432c2.896,13.944 4.321,28.211 5.403,42.415c1.831,23.99 2.056,48.107 0.653,72.309c16.789,3.138 31.937,-4.382 43.894,-16.824c20.605,-21.451 26.605,-48.539 28.01,-78.187c0.139,-3.027 0.053,-5.873 2.385,-7.781c0.427,-1.579 2.652,-2.213 3.371,0.051c3.731,3.342 2.548,10.647 2.336,15.315c-2.885,63.124 -38.832,96.14 -69.499,98.013c-3.361,0.206 -7.458,0.324 -11.179,-0.433c-1.168,15.13 -2.967,30.202 -5.412,45.161c-4.665,28.511 -12.067,56.216 -20.412,83.744c-28.543,94.115 -80.695,309.81 -88.768,337.035c-1.134,5.44 -9.18,3.756 -8.171,-1.736c0.358,-1.966 65.583,-262.266 84.901,-325.329" style="fill:#5b5b7f;fill-rule:nonzero;"/><path d="M278.12,1603.02c8.408,-27.454 16.605,-54.898 21.966,-83.224c16.503,-87.157 6.722,-149.157 3.786,-179.097c-0.389,-3.949 5.897,-5.483 6.736,-1.432c2.896,13.944 4.321,28.211 5.403,42.415c1.831,23.99 2.056,48.107 0.653,72.309c16.789,3.138 31.937,-4.382 43.894,-16.824c20.605,-21.451 26.605,-48.539 28.01,-78.187c0.139,-3.027 0.053,-5.873 2.385,-7.781c0.427,-1.579 2.652,-2.213 3.371,0.051c3.731,3.342 2.548,10.647 2.336,15.315c-2.885,63.124 -38.832,96.14 -69.499,98.013c-3.361,0.206 -7.458,0.324 -11.179,-0.433c-1.168,15.13 -2.967,30.202 -5.412,45.161c-4.665,28.511 -12.067,56.216 -20.412,83.744c-28.543,94.115 -80.695,309.81 -88.768,337.035c-1.134,5.44 -9.18,3.756 -8.171,-1.736c0.358,-1.966 65.583,-262.266 84.901,-325.329Z" style="fill:none;fill-rule:nonzero;stroke:#35354c;stroke-width:2px;"/><path d="M96.053,1420.87c0.329,-1.973 1.487,-3.286 1.921,-5.138c0.583,-2.445 4.57,-2.684 4.988,0c0.242,1.537 1.09,2.485 1.421,4.056c1.066,5.085 -1.516,33.67 5.227,77.432c1.794,11.632 3.772,23.2 7.642,34.301c6.267,17.949 17.673,37.287 31.857,49.515c0.457,-25.635 1.989,-51.233 5.062,-76.697c1.841,-15.243 4.161,-30.408 6.979,-45.48c1.374,-7.342 2.861,-14.663 4.458,-21.958c1.673,-7.651 3.249,-14.999 6.916,-21.923c1.13,-2.13 4.327,-1.145 4.335,1.216c0.005,6.799 -1.345,13.056 -2.766,19.659c-1.411,6.573 -2.735,13.171 -3.964,19.777c-9.115,49.003 -12.543,92.519 -12.506,141.579c15.03,-18.905 28.169,-41.548 37.91,-63.781c11.702,-26.735 19.582,-55.499 22.863,-84.69c0.917,-8.17 1.479,-16.381 1.65,-24.598c0.089,-4.255 0.178,-8.513 0.262,-12.771c0.045,-2.188 0.888,-8.792 4.576,-6.859c3.391,1.779 3.071,5.753 3.355,9.226c0.307,3.782 0.339,7.552 0.283,11.347c-0.089,7.266 -0.475,14.529 -1.148,21.766c-4.877,52.42 -24.657,104.242 -54.737,146.698c-4.586,6.475 -9.322,13.415 -14.886,19.063c1.277,83.905 14.012,299.772 14.23,308.243c0.052,1.876 -0,1.387 -0.696,2.083c-2.719,2.727 -5.916,3.623 -6.938,0.696c-1.928,-5.529 -15.395,-324.947 -15.372,-330.016c-17.859,-12.832 -30.505,-32.567 -38.766,-53.182c-4.384,-10.936 -6.956,-22.194 -8.889,-33.844c-6.559,-39.625 -6.357,-79.234 -5.267,-85.72" style="fill:#5b5b7f;fill-rule:nonzero;"/><path d="M96.053,1420.87c0.329,-1.973 1.487,-3.286 1.921,-5.138c0.583,-2.445 4.57,-2.684 4.988,0c0.242,1.537 1.09,2.485 1.421,4.056c1.066,5.085 -1.516,33.67 5.227,77.432c1.794,11.632 3.772,23.2 7.642,34.301c6.267,17.949 17.673,37.287 31.857,49.515c0.457,-25.635 1.989,-51.233 5.062,-76.697c1.841,-15.243 4.161,-30.408 6.979,-45.48c1.374,-7.342 2.861,-14.663 4.458,-21.958c1.673,-7.651 3.249,-14.999 6.916,-21.923c1.13,-2.13 4.327,-1.145 4.335,1.216c0.005,6.799 -1.345,13.056 -2.766,19.659c-1.411,6.573 -2.735,13.171 -3.964,19.777c-9.115,49.003 -12.543,92.519 -12.506,141.579c15.03,-18.905 28.169,-41.548 37.91,-63.781c11.702,-26.735 19.582,-55.499 22.863,-84.69c0.917,-8.17 1.479,-16.381 1.65,-24.598c0.089,-4.255 0.178,-8.513 0.262,-12.771c0.045,-2.188 0.888,-8.792 4.576,-6.859c3.391,1.779 3.071,5.753 3.355,9.226c0.307,3.782 0.339,7.552 0.283,11.347c-0.089,7.266 -0.475,14.529 -1.148,21.766c-4.877,52.42 -24.657,104.242 -54.737,146.698c-4.586,6.475 -9.322,13.415 -14.886,19.063c1.277,83.905 14.012,299.772 14.23,308.243c0.052,1.876 -0,1.387 -0.696,2.083c-2.719,2.727 -5.916,3.623 -6.938,0.696c-1.928,-5.529 -15.395,-324.947 -15.372,-330.016c-17.859,-12.832 -30.505,-32.567 -38.766,-53.182c-4.384,-10.936 -6.956,-22.194 -8.889,-33.844c-6.559,-39.625 -6.357,-79.234 -5.267,-85.72Z" style="fill:none;fill-rule:nonzero;stroke:#35354c;stroke-width:2px;"/><path d="M222.112,1340.55c-0.703,-6.248 -1.067,-12.642 -1.067,-19.156c-0,-72.559 45.086,-131.377 100.709,-131.377c55.62,0 100.715,58.818 100.715,131.377c-0,6.514 -0.364,12.908 -1.068,19.156l-199.289,-0Z" style="fill:#41d8bb;fill-rule:nonzero;stroke:#35354c;stroke-width:2px;"/><path d="M108.127,1308.26c-0.693,-8.82 -1.065,-17.833 -1.065,-27.009c0,-102.331 45.092,-185.286 100.715,-185.286c55.62,0 100.714,82.955 100.714,185.286c0,9.176 -0.364,18.189 -1.064,27.009l-199.3,0Z" style="fill:#6bdbc6;fill-rule:nonzero;stroke:#35354c;stroke-width:2px;"/><path d="M306.189,1421.8c0.889,-8.82 1.345,-17.836 1.345,-27.011c-0,-102.329 -57.158,-185.286 -127.672,-185.286c-70.514,-0 -127.675,82.957 -127.675,185.286c0,9.175 0.468,18.191 1.353,27.011l252.649,0Z" style="fill:#41d8bb;fill-rule:nonzero;stroke:#35354c;stroke-width:2px;"/><path d="M208.155,1209.5c35.245,0 66.727,26.316 87.505,67.594c10.583,-3.795 21.823,-5.832 33.476,-5.832c62.566,0 113.284,58.82 113.284,131.38c-0,6.503 -0.41,12.9 -1.198,19.156l-345.153,-0c-0.787,-8.82 -1.197,-17.836 -1.197,-27.012c-0,-102.328 50.717,-185.286 113.283,-185.286" style="fill:#97ddcf;fill-rule:nonzero;"/><path d="M208.155,1209.5c35.245,0 66.727,26.316 87.505,67.594c10.583,-3.795 21.823,-5.832 33.476,-5.832c62.566,0 113.284,58.82 113.284,131.38c-0,6.503 -0.41,12.9 -1.198,19.156l-345.153,-0c-0.787,-8.82 -1.197,-17.836 -1.197,-27.012c-0,-102.328 50.717,-185.286 113.283,-185.286Z" style="fill:none;fill-rule:nonzero;stroke:#35354c;stroke-width:2px;"/></g><g><path d="M735.258,1390.21l0,-3.204l3.653,-0c-0.342,0.296 -0.69,0.594 -1.036,0.89c-0.882,0.765 -1.756,1.537 -2.617,2.314Z" style="fill:#e2eefc;fill-rule:nonzero;stroke:#35354c;stroke-width:2px;"/><path d="M976.616,1925.08c-0,0 -65.274,-86.704 -106.353,-100c-41.076,-13.302 -2.36,39.513 -2.36,39.513c0,0 -70.922,-96.756 -97.664,-89.574c-24.511,6.581 -14.528,55.451 -14.528,55.451c0,0 -15.027,-9.746 -48.508,-9.746c-33.48,-0 25.878,102.404 25.878,102.404l243.535,1.952Z" style="fill:#f7d7d5;fill-rule:nonzero;stroke:#35354c;stroke-width:2px;"/><path d="M818.868,1924.6c0,-0 -32.02,-85.639 -71.679,-75.737c-32.137,8.032 -9.29,51.116 -11.247,49.158c-1.96,-1.962 -19.195,-31.207 -47.086,-31.207c-27.889,0 8.561,39.47 8.561,39.47c0,0 -59.419,-18.555 -64.073,0.928c-3.862,16.177 17.737,17.388 17.737,17.388l167.787,-0Z" style="fill:#ffea94;fill-rule:nonzero;stroke:#35354c;stroke-width:2px;"/><path d="M1044.38,1898.22c0.29,-1.733 0.443,-3.499 0.443,-5.306c0,-20.097 -18.838,-36.389 -42.072,-36.389c-23.235,0 -42.073,16.292 -42.073,36.389c0,1.807 0.156,3.573 0.446,5.306l83.256,0Z" style="fill:#ffea94;fill-rule:nonzero;stroke:#35354c;stroke-width:2px;"/><path d="M1074,1889.27c0.291,-2.441 0.444,-4.942 0.444,-7.48c-0,-28.345 -18.838,-51.317 -42.073,-51.317c-23.234,-0 -42.07,22.972 -42.07,51.317c0,2.538 0.153,5.039 0.444,7.48l83.255,0Z" style="fill:#f7d7d5;fill-rule:nonzero;stroke:#35354c;stroke-width:2px;"/><path d="M1058.6,1920.72c-0.293,-1.733 -0.446,-3.502 -0.446,-5.304c0,-20.099 18.838,-36.388 42.073,-36.388c23.234,-0 42.072,16.289 42.072,36.388c0,1.802 -0.153,3.571 -0.446,5.304l-83.253,0Z" style="fill:#f7d7d5;fill-rule:nonzero;stroke:#35354c;stroke-width:2px;"/><path d="M991.261,1920.72c-0.372,-2.441 -0.563,-4.937 -0.563,-7.48c-0,-28.345 23.877,-51.317 53.333,-51.317c29.458,-0 53.335,22.972 53.335,51.317c0,2.543 -0.194,5.039 -0.566,7.48l-105.539,0Z" style="fill:#ffea94;fill-rule:nonzero;stroke:#35354c;stroke-width:2px;"/><path d="M1032.22,1861.92c-14.722,-0 -27.874,7.289 -36.552,18.721c-4.42,-1.051 -9.117,-1.616 -13.985,-1.616c-26.135,-0 -47.326,16.291 -47.326,36.388c0,1.805 0.173,3.574 0.502,5.304l144.184,0c0.331,-2.441 0.502,-4.934 0.502,-7.478c0,-28.345 -21.188,-51.319 -47.325,-51.319" style="fill:#f7d7d5;fill-rule:nonzero;"/><path d="M1032.22,1861.92c-14.722,-0 -27.874,7.289 -36.552,18.721c-4.42,-1.051 -9.117,-1.616 -13.985,-1.616c-26.135,-0 -47.326,16.291 -47.326,36.388c0,1.805 0.173,3.574 0.502,5.304l144.184,0c0.331,-2.441 0.502,-4.934 0.502,-7.478c0,-28.345 -21.188,-51.319 -47.325,-51.319Z" style="fill:none;fill-rule:nonzero;stroke:#35354c;stroke-width:2px;"/><path d="M849.837,1812.62c-12.385,-19.343 -14.696,-42.71 -14.454,-58.907c0.262,-17.574 3.507,-30.744 3.54,-30.876l-0.897,-0.311c-0.031,0.132 -3.303,13.386 -3.568,31.087c-0.25,16.358 2.087,39.962 14.627,59.552l0.752,-0.545Z" style="fill:#ffea94;fill-rule:nonzero;stroke:#35354c;stroke-width:2px;"/><path d="M841.974,1719.63c-0.303,3.982 -2.067,7.313 -4.601,9.365c-2.166,-2.776 -3.384,-6.563 -3.078,-10.545c0.303,-3.978 2.067,-7.312 4.603,-9.364c2.166,2.768 3.382,6.566 3.076,10.544" style="fill:#ffea94;fill-rule:nonzero;"/><path d="M841.974,1719.63c-0.303,3.982 -2.067,7.313 -4.601,9.365c-2.166,-2.776 -3.384,-6.563 -3.078,-10.545c0.303,-3.978 2.067,-7.312 4.603,-9.364c2.166,2.768 3.382,6.566 3.076,10.544Z" style="fill:none;fill-rule:nonzero;stroke:#35354c;stroke-width:2px;"/><path d="M833.608,1728.81c2.101,3.443 2.753,7.363 2.078,10.761c-3.214,-0.767 -6.329,-3.013 -8.429,-6.459c-2.1,-3.441 -2.753,-7.361 -2.082,-10.768c3.216,0.769 6.333,3.02 8.433,6.466" style="fill:#ffea94;fill-rule:nonzero;"/><path d="M833.608,1728.81c2.101,3.443 2.753,7.363 2.078,10.761c-3.214,-0.767 -6.329,-3.013 -8.429,-6.459c-2.1,-3.441 -2.753,-7.361 -2.082,-10.768c3.216,0.769 6.333,3.02 8.433,6.466Z" style="fill:none;fill-rule:nonzero;stroke:#35354c;stroke-width:2px;"/><path d="M828.867,1739.61c3.26,2.123 5.472,5.399 6.321,8.857c-3.097,0.877 -6.734,0.347 -9.996,-1.776c-3.263,-2.123 -5.475,-5.401 -6.326,-8.857c3.101,-0.877 6.738,-0.347 10.001,1.776" style="fill:#ffea94;fill-rule:nonzero;"/><path d="M828.867,1739.61c3.26,2.123 5.472,5.399 6.321,8.857c-3.097,0.877 -6.734,0.347 -9.996,-1.776c-3.263,-2.123 -5.475,-5.401 -6.326,-8.857c3.101,-0.877 6.738,-0.347 10.001,1.776Z" style="fill:none;fill-rule:nonzero;stroke:#35354c;stroke-width:2px;"/><path d="M830.318,1754.66c2.584,1.687 4.188,4.572 4.621,7.761c-2.689,1.144 -5.72,1.006 -8.301,-0.683c-2.582,-1.688 -4.183,-4.573 -4.621,-7.761c2.691,-1.145 5.719,-1.005 8.301,0.683" style="fill:#ffea94;fill-rule:nonzero;"/><path d="M830.318,1754.66c2.584,1.687 4.188,4.572 4.621,7.761c-2.689,1.144 -5.72,1.006 -8.301,-0.683c-2.582,-1.688 -4.183,-4.573 -4.621,-7.761c2.691,-1.145 5.719,-1.005 8.301,0.683Z" style="fill:none;fill-rule:nonzero;stroke:#35354c;stroke-width:2px;"/><path d="M841.003,1736.83c2.903,-1.55 6.153,-1.639 8.934,-0.515c-0.734,3.003 -2.689,5.697 -5.592,7.249c-2.903,1.55 -6.155,1.636 -8.934,0.515c0.732,-3.003 2.687,-5.699 5.592,-7.249" style="fill:#ffea94;fill-rule:nonzero;"/><path d="M841.003,1736.83c2.903,-1.55 6.153,-1.639 8.934,-0.515c-0.734,3.003 -2.689,5.697 -5.592,7.249c-2.903,1.55 -6.155,1.636 -8.934,0.515c0.732,-3.003 2.687,-5.699 5.592,-7.249Z" style="fill:none;fill-rule:nonzero;stroke:#35354c;stroke-width:2px;"/><path d="M840.677,1747.22c2.906,-1.549 6.156,-1.636 8.939,-0.512c-0.737,3 -2.692,5.697 -5.595,7.249c-2.903,1.549 -6.155,1.636 -8.933,0.512c0.734,-3 2.686,-5.696 5.589,-7.249" style="fill:#ffea94;fill-rule:nonzero;"/><path d="M840.677,1747.22c2.906,-1.549 6.156,-1.636 8.939,-0.512c-0.737,3 -2.692,5.697 -5.595,7.249c-2.903,1.549 -6.155,1.636 -8.933,0.512c0.734,-3 2.686,-5.696 5.589,-7.249Z" style="fill:none;fill-rule:nonzero;stroke:#35354c;stroke-width:2px;"/><path d="M832.192,1771.19c1.537,0.365 2.809,1.399 3.576,2.745c-1.088,0.915 -2.566,1.308 -4.103,0.951c-1.535,-0.362 -2.809,-1.399 -3.576,-2.748c1.088,-0.912 2.566,-1.305 4.103,-0.948" style="fill:#ffea94;fill-rule:nonzero;"/><path d="M832.192,1771.19c1.537,0.365 2.809,1.399 3.576,2.745c-1.088,0.915 -2.566,1.308 -4.103,0.951c-1.535,-0.362 -2.809,-1.399 -3.576,-2.748c1.088,-0.912 2.566,-1.305 4.103,-0.948Z" style="fill:none;fill-rule:nonzero;stroke:#35354c;stroke-width:2px;"/><path d="M844.735,1826.29c-28.343,-6.775 -49.961,-27.743 -63.103,-44.137c-14.265,-17.801 -21.909,-34.199 -21.988,-34.368l-1.152,0.597c0.074,0.163 7.774,16.689 22.133,34.607c13.272,16.559 35.112,37.734 63.804,44.601l0.306,-1.3Z" style="fill:#ffea94;fill-rule:nonzero;stroke:#35354c;stroke-width:2px;"/><path d="M760.028,1741.51c2.984,4.269 3.984,9.38 3.148,13.98c-4.451,-0.563 -8.799,-3.125 -11.783,-7.399c-2.985,-4.269 -3.987,-9.379 -3.151,-13.988c4.453,0.571 8.799,3.13 11.786,7.407" style="fill:#ffea94;fill-rule:nonzero;"/><path d="M760.028,1741.51c2.984,4.269 3.984,9.38 3.148,13.98c-4.451,-0.563 -8.799,-3.125 -11.783,-7.399c-2.985,-4.269 -3.987,-9.379 -3.151,-13.988c4.453,0.571 8.799,3.13 11.786,7.407Z" style="fill:none;fill-rule:nonzero;stroke:#35354c;stroke-width:2px;"/><path d="M759.271,1759.12c4.94,1.312 8.829,4.565 10.97,8.638c-3.841,2.485 -8.809,3.384 -13.748,2.079c-4.94,-1.312 -8.829,-4.564 -10.972,-8.632c3.843,-2.49 8.811,-3.393 13.75,-2.085" style="fill:#ffea94;fill-rule:nonzero;"/><path d="M759.271,1759.12c4.94,1.312 8.829,4.565 10.97,8.638c-3.841,2.485 -8.809,3.384 -13.748,2.079c-4.94,-1.312 -8.829,-4.564 -10.972,-8.632c3.843,-2.49 8.811,-3.393 13.75,-2.085Z" style="fill:none;fill-rule:nonzero;stroke:#35354c;stroke-width:2px;"/><path d="M763.472,1774.69c5.009,-1.18 9.923,-0.153 13.626,2.437c-2.363,4.014 -6.428,7.16 -11.436,8.342c-5.006,1.18 -9.92,0.143 -13.623,-2.436c2.36,-4.015 6.425,-7.16 11.433,-8.343" style="fill:#ffea94;fill-rule:nonzero;"/><path d="M763.472,1774.69c5.009,-1.18 9.923,-0.153 13.626,2.437c-2.363,4.014 -6.428,7.16 -11.436,8.342c-5.006,1.18 -9.92,0.143 -13.623,-2.436c2.36,-4.015 6.425,-7.16 11.433,-8.343Z" style="fill:none;fill-rule:nonzero;stroke:#35354c;stroke-width:2px;"/><path d="M774.768,1788.84c5.008,-1.175 9.922,-0.145 13.623,2.442c-2.363,4.009 -6.425,7.162 -11.436,8.337c-5.006,1.18 -9.918,0.15 -13.623,-2.437c2.36,-4.014 6.425,-7.159 11.436,-8.342" style="fill:#ffea94;fill-rule:nonzero;"/><path d="M774.768,1788.84c5.008,-1.175 9.922,-0.145 13.623,2.442c-2.363,4.009 -6.425,7.162 -11.436,8.337c-5.006,1.18 -9.918,0.15 -13.623,-2.437c2.36,-4.014 6.425,-7.159 11.436,-8.342Z" style="fill:none;fill-rule:nonzero;stroke:#35354c;stroke-width:2px;"/><path d="M771.383,1765.31c-0.255,-4.82 1.33,-9.357 4.037,-12.617c3.013,2.567 5.047,6.66 5.299,11.48c0.255,4.817 -1.331,9.356 -4.037,12.616c-3.013,-2.564 -5.047,-6.66 -5.299,-11.479" style="fill:#ffea94;fill-rule:nonzero;"/><path d="M771.383,1765.31c-0.255,-4.82 1.33,-9.357 4.037,-12.617c3.013,2.567 5.047,6.66 5.299,11.48c0.255,4.817 -1.331,9.356 -4.037,12.616c-3.013,-2.564 -5.047,-6.66 -5.299,-11.479Z" style="fill:none;fill-rule:nonzero;stroke:#35354c;stroke-width:2px;"/><path d="M783.158,1779.96c-0.326,-4.812 1.191,-9.376 3.846,-12.69c3.049,2.508 5.146,6.568 5.473,11.378c0.326,4.814 -1.191,9.379 -3.846,12.693c-3.051,-2.516 -5.149,-6.566 -5.473,-11.381" style="fill:#ffea94;fill-rule:nonzero;"/><path d="M783.158,1779.96c-0.326,-4.812 1.191,-9.376 3.846,-12.69c3.049,2.508 5.146,6.568 5.473,11.378c0.326,4.814 -1.191,9.379 -3.846,12.693c-3.051,-2.516 -5.149,-6.566 -5.473,-11.381Z" style="fill:none;fill-rule:nonzero;stroke:#35354c;stroke-width:2px;"/><path d="M792.893,1802.81c1.827,-1.19 3.953,-1.442 5.834,-0.879c-0.334,2.016 -1.483,3.902 -3.311,5.095c-1.827,1.198 -3.956,1.453 -5.834,0.879c0.334,-2.008 1.481,-3.899 3.311,-5.095" style="fill:#ffea94;fill-rule:nonzero;"/><path d="M792.893,1802.81c1.827,-1.19 3.953,-1.442 5.834,-0.879c-0.334,2.016 -1.483,3.902 -3.311,5.095c-1.827,1.198 -3.956,1.453 -5.834,0.879c0.334,-2.008 1.481,-3.899 3.311,-5.095Z" style="fill:none;fill-rule:nonzero;stroke:#35354c;stroke-width:2px;"/><path d="M919.756,1866.32l1.224,-0.077c-1.762,-32.42 10.139,-62.926 20.43,-82.806c11.172,-21.573 22.916,-35.642 23.034,-35.788l-0.9,-0.92c-0.117,0.14 -11.944,14.306 -23.184,36.007c-10.383,20.046 -22.388,50.825 -20.604,83.584Z" style="fill:#ffea94;fill-rule:nonzero;stroke:#35354c;stroke-width:2px;"/><path d="M969.763,1745.8c-2.798,4.71 -6.818,7.639 -10.893,8.444c-0.691,-4.906 0.308,-10.429 3.104,-15.15c2.799,-4.71 6.816,-7.638 10.896,-8.434c0.688,4.904 -0.308,10.427 -3.107,15.14" style="fill:#ffea94;fill-rule:nonzero;"/><path d="M969.763,1745.8c-2.798,4.71 -6.818,7.639 -10.893,8.444c-0.691,-4.906 0.308,-10.429 3.104,-15.15c2.799,-4.71 6.816,-7.638 10.896,-8.434c0.688,4.904 -0.308,10.427 -3.107,15.14Z" style="fill:none;fill-rule:nonzero;stroke:#35354c;stroke-width:2px;"/><path d="M954.794,1751.44c0.202,5.694 -1.501,10.988 -4.353,14.735c-3.092,-3.145 -5.151,-8.052 -5.352,-13.748c-0.202,-5.692 1.501,-10.991 4.353,-14.737c3.092,3.147 5.153,8.061 5.352,13.75" style="fill:#ffea94;fill-rule:nonzero;"/><path d="M954.794,1751.44c0.202,5.694 -1.501,10.988 -4.353,14.735c-3.092,-3.145 -5.151,-8.052 -5.352,-13.748c-0.202,-5.692 1.501,-10.991 4.353,-14.737c3.092,3.147 5.153,8.061 5.352,13.75Z" style="fill:none;fill-rule:nonzero;stroke:#35354c;stroke-width:2px;"/><path d="M942.852,1761.57c2.304,4.855 2.727,10.414 1.534,15.269c-3.984,-1.019 -7.687,-4.159 -9.991,-9.015c-2.307,-4.855 -2.73,-10.414 -1.537,-15.269c3.986,1.022 7.69,4.159 9.994,9.015" style="fill:#ffea94;fill-rule:nonzero;"/><path d="M942.852,1761.57c2.304,4.855 2.727,10.414 1.534,15.269c-3.984,-1.019 -7.687,-4.159 -9.991,-9.015c-2.307,-4.855 -2.73,-10.414 -1.537,-15.269c3.986,1.022 7.69,4.159 9.994,9.015Z" style="fill:none;fill-rule:nonzero;stroke:#35354c;stroke-width:2px;"/><path d="M934.653,1786.48c1.104,1.95 1.438,4.27 1.078,6.342c-1.7,-0.291 -3.341,-1.471 -4.442,-3.428c-1.106,-1.958 -1.443,-4.267 -1.078,-6.342c1.697,0.291 3.339,1.471 4.442,3.428" style="fill:#ffea94;fill-rule:nonzero;"/><path d="M934.653,1786.48c1.104,1.95 1.438,4.27 1.078,6.342c-1.7,-0.291 -3.341,-1.471 -4.442,-3.428c-1.106,-1.958 -1.443,-4.267 -1.078,-6.342c1.697,0.291 3.339,1.471 4.442,3.428Z" style="fill:none;fill-rule:nonzero;stroke:#35354c;stroke-width:2px;"/><path d="M931.111,1795.42c1.104,1.958 1.438,4.277 1.078,6.347c-1.7,-0.288 -3.341,-1.479 -4.442,-3.426c-1.104,-1.957 -1.44,-4.277 -1.078,-6.349c1.697,0.291 3.339,1.476 4.442,3.428" style="fill:#ffea94;fill-rule:nonzero;"/><path d="M931.111,1795.42c1.104,1.958 1.438,4.277 1.078,6.347c-1.7,-0.288 -3.341,-1.479 -4.442,-3.426c-1.104,-1.957 -1.44,-4.277 -1.078,-6.349c1.697,0.291 3.339,1.476 4.442,3.428Z" style="fill:none;fill-rule:nonzero;stroke:#35354c;stroke-width:2px;"/><path d="M958.035,1766.42c4.183,0.063 7.837,2.174 10.231,5.457c-2.674,3.209 -6.507,5.217 -10.69,5.151c-4.177,-0.056 -7.835,-2.172 -10.225,-5.457c2.668,-3.209 6.502,-5.21 10.684,-5.151" style="fill:#ffea94;fill-rule:nonzero;"/><path d="M958.035,1766.42c4.183,0.063 7.837,2.174 10.231,5.457c-2.674,3.209 -6.507,5.217 -10.69,5.151c-4.177,-0.056 -7.835,-2.172 -10.225,-5.457c2.668,-3.209 6.502,-5.21 10.684,-5.151Z" style="fill:none;fill-rule:nonzero;stroke:#35354c;stroke-width:2px;"/><path d="M951.252,1779.06c4.183,0.056 7.838,2.174 10.231,5.459c-2.674,3.207 -6.507,5.21 -10.687,5.149c-4.18,-0.064 -7.837,-2.172 -10.228,-5.457c2.668,-3.209 6.504,-5.215 10.684,-5.151" style="fill:#ffea94;fill-rule:nonzero;"/><path d="M951.252,1779.06c4.183,0.056 7.838,2.174 10.231,5.459c-2.674,3.207 -6.507,5.21 -10.687,5.149c-4.18,-0.064 -7.837,-2.172 -10.228,-5.457c2.668,-3.209 6.504,-5.215 10.684,-5.151Z" style="fill:none;fill-rule:nonzero;stroke:#35354c;stroke-width:2px;"/><path d="M940.017,1796.27c2.719,0.045 5.102,1.414 6.66,3.553c-1.739,2.095 -4.236,3.392 -6.956,3.354c-2.722,-0.044 -5.102,-1.415 -6.66,-3.551c1.741,-2.095 4.239,-3.392 6.956,-3.356" style="fill:#ffea94;fill-rule:nonzero;"/><path d="M940.017,1796.27c2.719,0.045 5.102,1.414 6.66,3.553c-1.739,2.095 -4.236,3.392 -6.956,3.354c-2.722,-0.044 -5.102,-1.415 -6.66,-3.551c1.741,-2.095 4.239,-3.392 6.956,-3.356Z" style="fill:none;fill-rule:nonzero;stroke:#35354c;stroke-width:2px;"/><path d="M827.434,1932.85c-0,-5.398 32.586,0.973 35.3,-6.385c2.71,-7.348 -27.914,-7.776 -27.914,-17.719c0,-9.943 15.606,-2.972 24.756,-2.972c9.153,0 -18.065,-4.254 -18.065,-7.776c-0,-3.522 9.55,-1.675 9.55,-5.414c-0,-3.741 -50.147,-6.56 -44.28,-15.705c5.87,-9.148 32.828,2.669 40.232,-2.067c7.402,-4.738 -39.546,-9.899 -40.708,-16.937c-1.163,-7.037 34.594,6.031 39.658,0.971c5.062,-5.064 -56.542,-23.262 -53.96,-36.636c2.58,-13.37 46.694,17.128 57.72,13.843c11.028,-3.283 -55.607,-50.234 -40.123,-68.516c15.486,-18.295 45.05,60.538 55.14,57.724c10.088,-2.819 -12.634,-49.82 -2.327,-57.994c10.305,-8.174 39.886,66.176 41.754,81.44c1.868,15.273 5.625,-32.835 21.812,-38.468c16.19,-5.625 0.469,29.808 3.286,40.599c2.816,10.794 15.952,-27.684 33.666,-24.876c17.717,2.822 -32.025,38.018 -27.098,48.335c4.929,10.33 43.336,-34.459 55.374,-22.429c12.036,12.038 -46.265,45.442 -43.079,54.589c3.191,9.138 38.168,-6.532 48.241,3.543c10.07,10.073 -37.577,16.465 -43.893,16.465c-6.318,0 -30.465,7.942 -6.884,6.385c23.581,-1.563 -118.158,5.393 -118.158,-0" style="fill:#ffea94;fill-rule:nonzero;"/><path d="M827.434,1932.85c-0,-5.398 32.586,0.973 35.3,-6.385c2.71,-7.348 -27.914,-7.776 -27.914,-17.719c0,-9.943 15.606,-2.972 24.756,-2.972c9.153,0 -18.065,-4.254 -18.065,-7.776c-0,-3.522 9.55,-1.675 9.55,-5.414c-0,-3.741 -50.147,-6.56 -44.28,-15.705c5.87,-9.148 32.828,2.669 40.232,-2.067c7.402,-4.738 -39.546,-9.899 -40.708,-16.937c-1.163,-7.037 34.594,6.031 39.658,0.971c5.062,-5.064 -56.542,-23.262 -53.96,-36.636c2.58,-13.37 46.694,17.128 57.72,13.843c11.028,-3.283 -55.607,-50.234 -40.123,-68.516c15.486,-18.295 45.05,60.538 55.14,57.724c10.088,-2.819 -12.634,-49.82 -2.327,-57.994c10.305,-8.174 39.886,66.176 41.754,81.44c1.868,15.273 5.625,-32.835 21.812,-38.468c16.19,-5.625 0.469,29.808 3.286,40.599c2.816,10.794 15.952,-27.684 33.666,-24.876c17.717,2.822 -32.025,38.018 -27.098,48.335c4.929,10.33 43.336,-34.459 55.374,-22.429c12.036,12.038 -46.265,45.442 -43.079,54.589c3.191,9.138 38.168,-6.532 48.241,3.543c10.07,10.073 -37.577,16.465 -43.893,16.465c-6.318,0 -30.465,7.942 -6.884,6.385c23.581,-1.563 -118.158,5.393 -118.158,-0Z" style="fill:none;fill-rule:nonzero;stroke:#35354c;stroke-width:2px;"/><path d="M924.96,1925.71c0,0 39.243,2.103 50.672,-5.095c11.424,-7.187 2.406,-12.792 2.406,-12.792c0,-0 36.289,-0.788 36.198,-9.385c-0.09,-8.594 -8.885,-8.102 -8.885,-8.102c-0,-0 18.315,-12.454 14.9,-20.207c-5.251,-11.92 -35.084,8.834 -35.084,8.834c0,0 9.78,-11.61 1.876,-14.327c-21.693,-7.45 -62.083,61.074 -62.083,61.074Z" style="fill:#f7d7d5;fill-rule:nonzero;stroke:#35354c;stroke-width:2px;"/><path d="M1020.24,1870.14c3.417,7.756 -14.9,20.207 -14.9,20.207c-0,-0 13.223,-0.176 11.076,8.192c-2.138,8.324 -35.376,11.138 -35.376,11.138c-0,-0 11.604,2.265 0.175,9.466c-11.423,7.187 -56.264,6.581 -56.264,6.581l95.289,-55.584Z" style="fill:#ffea94;fill-rule:nonzero;stroke:#35354c;stroke-width:2px;"/><path d="M748.048,1428.87c0.066,-2.297 3.237,-4.078 4.916,-2.038c1.676,2.021 1.602,0.659 3.237,5.049c4.682,12.601 11.567,24.785 19.579,35.437c15.35,20.412 30.551,30.713 47.803,40.912c-7.111,-16.014 -11.872,-33.118 -12.479,-50.364c-0.221,-6.29 -0.099,-12.805 2.592,-18.576c0.75,-1.616 3.634,-1.28 3.926,0.518c1.45,8.898 -0.684,15.612 2.198,31.541c6.874,38.009 34.085,78.326 60.329,106.561c-5.032,-47.795 -7.472,-102.114 1.53,-150.328c1.476,-7.908 3.825,-15.427 6.009,-23.15c0.51,-1.82 3.093,-1.034 2.773,0.767c-0.452,2.564 -4.739,35.745 -4.999,38.028c-4.16,36.713 -3.328,77.392 -0.091,114.485c20.36,-27.572 33.987,-59.822 40.359,-93.499c1.883,-9.948 2.388,-20.228 5.029,-29.997c0.361,-1.348 2.586,-1.489 2.865,0c2.71,14.639 -2.722,40.53 -6.678,54.595c-8.021,28.515 -20.856,54.067 -38.401,76.9c-0.681,0.885 46.586,376.3 45.808,379.132c-1.307,4.756 -9.609,8.106 -10.897,-0.345c-0.524,-3.441 -34.787,-291.428 -41.942,-354.258c-2.702,-1.489 -4.442,-4.139 -11.399,-11.955c-16.094,-18.094 -32.012,-40.612 -42.649,-61.844c-6.386,-0.361 -52.485,-22.794 -75.354,-73.873c-0.662,-1.467 -3.629,-8.382 -4.053,-9.926c-0.367,-1.318 -0.053,-2.462 -0.011,-3.772" style="fill:#5b5b7f;fill-rule:nonzero;"/><path d="M748.048,1428.87c0.066,-2.297 3.237,-4.078 4.916,-2.038c1.676,2.021 1.602,0.659 3.237,5.049c4.682,12.601 11.567,24.785 19.579,35.437c15.35,20.412 30.551,30.713 47.803,40.912c-7.111,-16.014 -11.872,-33.118 -12.479,-50.364c-0.221,-6.29 -0.099,-12.805 2.592,-18.576c0.75,-1.616 3.634,-1.28 3.926,0.518c1.45,8.898 -0.684,15.612 2.198,31.541c6.874,38.009 34.085,78.326 60.329,106.561c-5.032,-47.795 -7.472,-102.114 1.53,-150.328c1.476,-7.908 3.825,-15.427 6.009,-23.15c0.51,-1.82 3.093,-1.034 2.773,0.767c-0.452,2.564 -4.739,35.745 -4.999,38.028c-4.16,36.713 -3.328,77.392 -0.091,114.485c20.36,-27.572 33.987,-59.822 40.359,-93.499c1.883,-9.948 2.388,-20.228 5.029,-29.997c0.361,-1.348 2.586,-1.489 2.865,0c2.71,14.639 -2.722,40.53 -6.678,54.595c-8.021,28.515 -20.856,54.067 -38.401,76.9c-0.681,0.885 46.586,376.3 45.808,379.132c-1.307,4.756 -9.609,8.106 -10.897,-0.345c-0.524,-3.441 -34.787,-291.428 -41.942,-354.258c-2.702,-1.489 -4.442,-4.139 -11.399,-11.955c-16.094,-18.094 -32.012,-40.612 -42.649,-61.844c-6.386,-0.361 -52.485,-22.794 -75.354,-73.873c-0.662,-1.467 -3.629,-8.382 -4.053,-9.926c-0.367,-1.318 -0.053,-2.462 -0.011,-3.772Z" style="fill:none;fill-rule:nonzero;stroke:#35354c;stroke-width:2px;"/><path d="M876.941,1369.07c-0.433,-5.672 -0.658,-11.468 -0.658,-17.368c-0,-65.808 27.933,-119.152 62.385,-119.152c34.455,-0 62.385,53.344 62.385,119.152c0,5.9 -0.225,11.696 -0.658,17.368l-123.454,0Z" style="fill:#41d8bb;fill-rule:nonzero;stroke:#35354c;stroke-width:2px;"/><path d="M806.34,1339.79c-0.433,-8 -0.658,-16.178 -0.658,-24.499c-0,-92.804 27.93,-168.042 62.385,-168.042c34.452,-0 62.385,75.238 62.385,168.042c-0,8.321 -0.228,16.499 -0.661,24.499l-123.451,-0Z" style="fill:#6bdbc6;fill-rule:nonzero;stroke:#35354c;stroke-width:2px;"/><path d="M829.183,1442.76c0.433,-5.672 0.661,-11.475 0.661,-17.375c-0,-65.801 -27.931,-119.152 -62.385,-119.152c-34.453,-0 -62.385,53.351 -62.385,119.152c-0,5.9 0.227,11.703 0.658,17.375l123.451,0Z" style="fill:#6bdbc6;fill-rule:nonzero;stroke:#35354c;stroke-width:2px;"/><path d="M929.031,1442.76c0.551,-7.997 0.835,-16.177 0.835,-24.496c0,-92.807 -35.406,-168.045 -79.084,-168.045c-43.677,0 -79.086,75.238 -79.086,168.045c-0,8.319 0.287,16.499 0.836,24.496l156.499,0Z" style="fill:#41d8bb;fill-rule:nonzero;stroke:#35354c;stroke-width:2px;"/><path d="M868.308,1250.22c21.829,-0 41.332,23.868 54.203,61.303c6.554,-3.438 13.515,-5.29 20.734,-5.29c38.759,0 70.178,53.349 70.178,119.153c-0,5.9 -0.257,11.702 -0.745,17.375l-213.801,-0c-0.49,-7.998 -0.742,-16.178 -0.742,-24.496c-0,-92.807 31.416,-168.045 70.173,-168.045" style="fill:#97ddcf;fill-rule:nonzero;"/><path d="M868.308,1250.22c21.829,-0 41.332,23.868 54.203,61.303c6.554,-3.438 13.515,-5.29 20.734,-5.29c38.759,0 70.178,53.349 70.178,119.153c-0,5.9 -0.257,11.702 -0.745,17.375l-213.801,-0c-0.49,-7.998 -0.742,-16.178 -0.742,-24.496c-0,-92.807 31.416,-168.045 70.173,-168.045Z" style="fill:none;fill-rule:nonzero;stroke:#35354c;stroke-width:2px;"/></g></g></g></svg>